<svg width="current" height="current" viewBox="0 0 602 450" fill="none" xmlns="http://www.w3.org/2000/svg">
<rect x="1" y="1" width="600" height="448" rx="10" fill="black" fill-opacity="0.75"/>
<path fill-rule="evenodd" clip-rule="evenodd" d="M17 17L16.9088 16.9422C11.7724 13.6833 4.63559 9.15534 1 21V1H21C9.15534 4.63559 13.6833 11.7724 16.9422 16.9088L17 17Z" fill="#D9D9D9"/>
<path d="M16.9088 16.9422L16.3731 17.7866L16.3731 17.7866L16.9088 16.9422ZM17 17L16.4643 17.8444L17.8444 16.4643L17 17ZM1 21H0L1.95598 21.2934L1 21ZM1 1V0H0V1H1ZM21 1L21.2934 1.95598L21 0V1ZM16.9422 16.9088L17.7866 16.3731L17.7866 16.3731L16.9422 16.9088ZM16.3731 17.7866L16.4643 17.8444L17.5357 16.1556L17.4446 16.0978L16.3731 17.7866ZM1.95598 21.2934C2.83728 18.4222 3.89608 16.6648 4.98373 15.6378C6.04191 14.6387 7.17666 14.2827 8.3712 14.3071C9.60551 14.3322 10.9425 14.7665 12.3334 15.4366C13.7202 16.1048 15.0804 16.9664 16.3731 17.7866L17.4446 16.0978C16.169 15.2885 14.711 14.3621 13.2014 13.6348C11.6959 12.9095 10.0584 12.3411 8.41199 12.3075C6.72582 12.2731 5.07367 12.8023 3.61068 14.1836C2.17715 15.5371 0.980517 17.6555 0.0440187 20.7066L1.95598 21.2934ZM0 1V21H2V1H0ZM1 2H21V0H1V2ZM20.7066 0.0440187C17.6555 0.980517 15.5371 2.17715 14.1836 3.61068C12.8023 5.07367 12.2731 6.72582 12.3075 8.41199C12.3411 10.0584 12.9095 11.6959 13.6348 13.2014C14.3621 14.711 15.2885 16.169 16.0978 17.4446L17.7866 16.3731C16.9664 15.0804 16.1048 13.7202 15.4366 12.3334C14.7665 10.9425 14.3322 9.60551 14.3071 8.3712C14.2827 7.17666 14.6387 6.04191 15.6378 4.98373C16.6648 3.89608 18.4222 2.83728 21.2934 1.95598L20.7066 0.0440187ZM16.0978 17.4446L16.1556 17.5357L17.8444 16.4643L17.7866 16.3731L16.0978 17.4446Z" fill="#808080"/>
<path fill-rule="evenodd" clip-rule="evenodd" d="M585 17L585.058 16.9088C588.317 11.7724 592.845 4.63559 581 0.999999L601 1L601 21C597.364 9.15534 590.228 13.6833 585.091 16.9422L585 17Z" fill="#D9D9D9"/>
<path d="M585.058 16.9088L584.213 16.3731L584.213 16.3731L585.058 16.9088ZM585 17L584.156 16.4643L585.536 17.8444L585 17ZM581 0.999999L581 -8.74228e-07L580.707 1.95598L581 0.999999ZM601 1L602 1L602 4.37114e-08L601 0L601 1ZM601 21L600.044 21.2934L602 21L601 21ZM585.091 16.9422L585.627 17.7866L585.627 17.7866L585.091 16.9422ZM584.213 16.3731L584.156 16.4643L585.844 17.5357L585.902 17.4446L584.213 16.3731ZM580.707 1.95598C583.578 2.83728 585.335 3.89608 586.362 4.98373C587.361 6.04191 587.717 7.17666 587.693 8.3712C587.668 9.60551 587.233 10.9425 586.563 12.3334C585.895 13.7202 585.034 15.0804 584.213 16.3731L585.902 17.4446C586.712 16.169 587.638 14.711 588.365 13.2014C589.09 11.6959 589.659 10.0584 589.693 8.41199C589.727 6.72582 589.198 5.07367 587.816 3.61068C586.463 2.17715 584.345 0.980516 581.293 0.0440179L580.707 1.95598ZM601 0L581 -8.74228e-07L581 2L601 2L601 0ZM600 1L600 21L602 21L602 1L600 1ZM601.956 20.7066C601.019 17.6555 599.823 15.5371 598.389 14.1836C596.926 12.8023 595.274 12.2731 593.588 12.3075C591.942 12.3411 590.304 12.9095 588.799 13.6348C587.289 14.3621 585.831 15.2885 584.555 16.0978L585.627 17.7866C586.92 16.9664 588.28 16.1048 589.667 15.4366C591.058 14.7665 592.394 14.3322 593.629 14.3071C594.823 14.2827 595.958 14.6387 597.016 15.6378C598.104 16.6648 599.163 18.4222 600.044 21.2934L601.956 20.7066ZM584.555 16.0978L584.464 16.1556L585.536 17.8444L585.627 17.7866L584.555 16.0978Z" fill="#808080"/>
<path fill-rule="evenodd" clip-rule="evenodd" d="M17 433L16.9088 433.058C11.7724 436.317 4.63559 440.845 1 429V449H21C9.15534 445.364 13.6833 438.228 16.9422 433.091L17 433Z" fill="#D9D9D9"/>
<path d="M16.9088 433.058L16.3731 432.213L16.3731 432.213L16.9088 433.058ZM17 433L16.4643 432.156L17.8444 433.536L17 433ZM1 429H0L1.95598 428.707L1 429ZM1 449V450H0V449H1ZM21 449L21.2934 448.044L21 450V449ZM16.9422 433.091L17.7866 433.627L17.7866 433.627L16.9422 433.091ZM16.3731 432.213L16.4643 432.156L17.5357 433.844L17.4446 433.902L16.3731 432.213ZM1.95598 428.707C2.83728 431.578 3.89608 433.335 4.98373 434.362C6.04191 435.361 7.17666 435.717 8.3712 435.693C9.60551 435.668 10.9425 435.233 12.3334 434.563C13.7202 433.895 15.0804 433.034 16.3731 432.213L17.4446 433.902C16.169 434.712 14.711 435.638 13.2014 436.365C11.6959 437.09 10.0584 437.659 8.41199 437.693C6.72582 437.727 5.07367 437.198 3.61068 435.816C2.17715 434.463 0.980517 432.345 0.0440187 429.293L1.95598 428.707ZM0 449V429H2V449H0ZM1 448H21V450H1V448ZM20.7066 449.956C17.6555 449.019 15.5371 447.823 14.1836 446.389C12.8023 444.926 12.2731 443.274 12.3075 441.588C12.3411 439.942 12.9095 438.304 13.6348 436.799C14.3621 435.289 15.2885 433.831 16.0978 432.555L17.7866 433.627C16.9664 434.92 16.1048 436.28 15.4366 437.667C14.7665 439.058 14.3322 440.394 14.3071 441.629C14.2827 442.823 14.6387 443.958 15.6378 445.016C16.6648 446.104 18.4222 447.163 21.2934 448.044L20.7066 449.956ZM16.0978 432.555L16.1556 432.464L17.8444 433.536L17.7866 433.627L16.0978 432.555Z" fill="#808080"/>
<path fill-rule="evenodd" clip-rule="evenodd" d="M585 433L585.058 433.091C588.317 438.228 592.845 445.364 581 449L601 449L601 429C597.364 440.845 590.228 436.317 585.091 433.058L585 433Z" fill="#D9D9D9"/>
<path d="M585.058 433.091L584.213 433.627L584.213 433.627L585.058 433.091ZM585 433L584.156 433.536L585.536 432.156L585 433ZM581 449L581 450L580.707 448.044L581 449ZM601 449L602 449L602 450L601 450L601 449ZM601 429L600.044 428.707L602 429L601 429ZM585.091 433.058L585.627 432.213L585.627 432.213L585.091 433.058ZM584.213 433.627L584.156 433.536L585.844 432.464L585.902 432.555L584.213 433.627ZM580.707 448.044C583.578 447.163 585.335 446.104 586.362 445.016C587.361 443.958 587.717 442.823 587.693 441.629C587.668 440.394 587.233 439.058 586.563 437.667C585.895 436.28 585.034 434.92 584.213 433.627L585.902 432.555C586.712 433.831 587.638 435.289 588.365 436.799C589.09 438.304 589.659 439.942 589.693 441.588C589.727 443.274 589.198 444.926 587.816 446.389C586.463 447.823 584.345 449.019 581.293 449.956L580.707 448.044ZM601 450L581 450L581 448L601 448L601 450ZM600 449L600 429L602 429L602 449L600 449ZM601.956 429.293C601.019 432.345 599.823 434.463 598.389 435.816C596.926 437.198 595.274 437.727 593.588 437.693C591.942 437.659 590.304 437.09 588.799 436.365C587.289 435.638 585.831 434.712 584.555 433.902L585.627 432.213C586.92 433.034 588.28 433.895 589.667 434.563C591.058 435.233 592.394 435.668 593.629 435.693C594.823 435.717 595.958 435.361 597.016 434.362C598.104 433.335 599.163 431.578 600.044 428.707L601.956 429.293ZM584.555 433.902L584.464 433.844L585.536 432.156L585.627 432.213L584.555 433.902Z" fill="#808080"/>
</svg>
