<svg width="33" height="23" viewBox="0 0 33 23" fill="none" xmlns="http://www.w3.org/2000/svg">
<path fill-rule="evenodd" clip-rule="evenodd" d="M2 20.4C3.66667 20.9333 8.9 22 16.5 22C24.1 22 29.3333 20.9333 31 20.4L28.5 6.4L23 10.8L16.5 2L10 10.8L4.5 6.4L2 20.4Z" fill="#FDD245"/>
<path d="M2 20.4L1.01557 20.2242L0.861733 21.0857L1.69522 21.3524L2 20.4ZM31 20.4L31.3048 21.3524L32.1383 21.0857L31.9844 20.2242L31 20.4ZM28.5 6.4L29.4844 6.22421L29.1887 4.56838L27.8753 5.61913L28.5 6.4ZM23 10.8L22.1956 11.3941L22.8131 12.2301L23.6247 11.5809L23 10.8ZM16.5 2L17.3044 1.40587L16.5 0.316878L15.6956 1.40587L16.5 2ZM10 10.8L9.3753 11.5809L10.1869 12.2301L10.8044 11.3941L10 10.8ZM4.5 6.4L5.1247 5.61913L3.81126 4.56838L3.51557 6.22421L4.5 6.4ZM16.5 21C8.97392 21 3.84827 19.9415 2.30478 19.4476L1.69522 21.3524C3.48506 21.9252 8.82608 23 16.5 23V21ZM16.5 23C24.1739 23 29.5149 21.9252 31.3048 21.3524L30.6952 19.4476C29.1517 19.9415 24.0261 21 16.5 21V23ZM31.9844 20.2242L29.4844 6.22421L27.5156 6.57579L30.0156 20.5758L31.9844 20.2242ZM27.8753 5.61913L22.3753 10.0191L23.6247 11.5809L29.1247 7.18087L27.8753 5.61913ZM23.8044 10.2059L17.3044 1.40587L15.6956 2.59413L22.1956 11.3941L23.8044 10.2059ZM10.8044 11.3941L17.3044 2.59413L15.6956 1.40587L9.19563 10.2059L10.8044 11.3941ZM3.8753 7.18087L9.3753 11.5809L10.6247 10.0191L5.1247 5.61913L3.8753 7.18087ZM2.98443 20.5758L5.48443 6.57579L3.51557 6.22421L1.01557 20.2242L2.98443 20.5758Z" fill="#AE8800"/>
</svg>
