<svg width="608" height="264" viewBox="0 0 608 264" fill="none" xmlns="http://www.w3.org/2000/svg">
<path d="M306.976 254C304.642 251.667 301.456 245.6 307.388 240C309.447 242.5 312.248 248.8 306.976 254Z" fill="#D9D9D9" stroke="#808080" stroke-width="2"/>
<path d="M578.351 43.2636C578.894 42.3622 579.798 43.0833 580.521 43.6241C581.967 44.3453 582.004 45.2107 581.425 45.7876C580.702 46.5087 580.34 46.1482 579.978 46.689L579.978 46.689C579.617 47.2299 579.255 47.7708 577.809 49.213C576.362 50.6553 574.712 50.2411 574.373 50.1145C572.927 49.5736 573.83 49.0164 574.735 48.8525C576.724 48.492 577.628 45.7876 577.989 45.0664C578.351 44.3453 577.809 44.165 578.351 43.2636Z" fill="#CDCDCD" stroke="#808080"/>
<path d="M582.033 35.1922C582.349 34.346 583.453 34.6845 584.4 35.023C585.662 35.6999 586.514 36.106 586.135 37.0537C585.662 38.2383 585.189 37.3921 584.873 37.8998C584.558 38.4075 583.295 41.792 582.98 42.4689C582.664 43.1458 583.295 43.992 582.664 44.8381C582.033 45.6842 578.246 43.992 578.877 42.6382C579.508 41.2843 579.824 42.1305 580.455 41.1151C581.086 40.0998 581.56 38.069 582.033 37.0537C582.506 36.0383 581.717 36.0383 582.033 35.1922Z" fill="#CDCDCD" stroke="#808080"/>
<path d="M584.677 27.7304C584.967 25.4749 586.371 25.0285 587.036 25.0873C588.911 24.5586 590.926 26.4969 589.395 29.14C586.129 34.7787 587.581 33.5452 587.036 35.6597C586.673 37.0693 581.093 35.131 582.862 33.5452C585.221 31.4308 584.314 30.5497 584.677 27.7304Z" fill="#CDCDCD" stroke="#808080"/>
<path d="M573.514 33.2219C575.782 33.3337 576.468 32.029 576.528 31.3626C577.378 29.6072 575.829 27.2785 572.961 28.3216C566.844 30.5467 568.441 28.181 566.345 28.7809C563.748 29.524 565.609 35.4493 567.48 33.9847C569.974 32.032 570.679 33.0821 573.514 33.2219Z" fill="#CDCDCD" stroke="#808080"/>
<path d="M568.201 31.7542C568.174 30.8947 566.974 30.2883 565.975 30.2679C564.571 30.4414 563.696 31.1921 563.749 32.1634C563.816 33.3775 564.582 33.0485 564.717 33.6071C564.851 34.1657 564.957 37.6038 565.037 38.3129C565.117 39.0219 564.253 39.5602 564.576 40.5268C564.9 41.4935 569.003 41.274 568.843 39.8559C568.682 38.4378 568.114 39.0831 567.845 37.9659C567.576 36.8488 567.78 34.8823 567.659 33.8187C567.539 32.7551 568.227 32.6137 568.201 31.7542Z" fill="#CDCDCD" stroke="#808080"/>
<path d="M568.942 39.8051C568.326 38.9522 567.594 39.2058 566.918 39.8051C565.537 40.6446 565.573 41.51 566.197 42.0365C566.978 42.6948 567.308 42.3053 567.714 42.814L567.714 42.814C568.119 43.3228 568.525 43.8316 570.086 45.1481C571.648 46.4645 573.258 45.9139 573.585 45.7594C574.981 45.0997 574.034 44.6198 573.119 44.532C571.107 44.3389 570.104 42.4754 569.684 41.787C569.263 41.0985 569.557 40.6581 568.942 39.8051Z" fill="#CDCDCD" stroke="#808080"/>
<path d="M585.77 45.4931C586.313 44.5916 587.217 45.3128 587.94 45.8536C589.386 46.5748 589.422 47.4402 588.844 48.0171C588.121 48.7382 587.759 48.3777 587.397 48.9185L587.397 48.9185C587.036 49.4594 586.674 50.0002 585.228 51.4425C583.781 52.8848 582.131 52.4706 581.792 52.344C580.346 51.8031 581.249 51.2459 582.154 51.082C584.143 50.7215 585.047 48.0171 585.408 47.2959C585.77 46.5748 585.228 46.3945 585.77 45.4931Z" fill="#CDCDCD" stroke="#808080"/>
<path d="M589.453 37.4217C589.768 36.5755 590.873 36.914 591.82 37.2524C593.082 37.9294 593.934 38.3355 593.555 39.2832C593.082 40.4678 592.609 39.6216 592.293 40.1293C591.977 40.637 590.715 44.0215 590.4 44.6984C590.084 45.3753 590.715 46.2215 590.084 47.0676C589.453 47.9137 585.666 46.2215 586.297 44.8677C586.928 43.5138 587.244 44.36 587.875 43.3446C588.506 42.3292 588.98 40.2985 589.453 39.2832C589.926 38.2678 589.137 38.2678 589.453 37.4217Z" fill="#CDCDCD" stroke="#808080"/>
<path d="M592.096 29.9599C592.386 27.7044 593.79 27.258 594.455 27.3168C596.33 26.7881 598.345 28.7264 596.814 31.3695C593.548 37.0081 594.999 35.7747 594.455 37.8892C594.092 39.2988 588.512 37.3605 590.281 35.7747C592.64 33.6603 591.733 32.7792 592.096 29.9599Z" fill="#CDCDCD" stroke="#808080"/>
<path d="M593.946 47.371C594.405 46.6157 595.17 47.22 595.782 47.6732C597.006 48.2774 597.037 49.0026 596.547 49.486C595.935 50.0903 595.629 49.7881 595.323 50.2413C595.017 50.6945 594.711 51.1477 593.486 52.3563C592.262 53.5648 590.865 53.2177 590.579 53.1116C589.354 52.6584 590.119 52.1915 590.885 52.0541C592.568 51.7521 593.333 49.486 593.64 48.8817C593.946 48.2774 593.486 48.1264 593.946 47.371Z" fill="#CDCDCD" stroke="#808080"/>
<path d="M596.784 41.2099C597.048 40.5347 597.973 40.8048 598.767 41.0749C599.824 41.6151 600.538 41.9392 600.221 42.6955C599.824 43.6408 599.428 42.9655 599.163 43.3707C598.899 43.7758 597.841 46.4768 597.577 47.017C597.312 47.5572 597.841 48.2324 597.312 48.9077C596.784 49.5829 593.61 48.2324 594.139 47.152C594.668 46.0717 594.933 46.7469 595.461 45.9366C595.99 45.1263 596.387 43.5057 596.784 42.6955C597.18 41.8852 596.519 41.8852 596.784 41.2099Z" fill="#CDCDCD" stroke="#808080"/>
<path d="M598.654 35.3779C598.897 33.558 600.073 33.1978 600.631 33.2452C602.202 32.8187 603.89 34.3826 602.607 36.5154C599.87 41.0652 601.087 40.0699 600.631 41.7761C600.326 42.9135 595.651 41.3495 597.133 40.0699C599.11 38.3638 598.35 37.6528 598.654 35.3779Z" fill="#CDCDCD" stroke="#808080"/>
<path d="M599.787 50.3559C600.15 49.7581 600.756 50.2363 601.24 50.595C602.209 51.0732 602.234 51.6471 601.846 52.0297C601.361 52.5079 601.119 52.2688 600.877 52.6275L600.877 52.6275C600.635 52.9862 600.393 53.3448 599.424 54.3013C598.455 55.2578 597.349 54.983 597.122 54.8991C596.153 54.5404 596.759 54.1709 597.364 54.0622C598.697 53.8231 599.302 52.0297 599.545 51.5514C599.787 51.0732 599.424 50.9537 599.787 50.3559Z" fill="#CDCDCD" stroke="#808080"/>
<path d="M602.033 45.479C602.242 44.9446 602.975 45.1583 603.603 45.3721C604.44 45.7996 605.005 46.0561 604.754 46.6546C604.44 47.4028 604.126 46.8684 603.917 47.189C603.707 47.5097 602.87 49.6473 602.661 50.0748C602.452 50.5023 602.87 51.0367 602.452 51.5711C602.033 52.1055 599.522 51.0367 599.94 50.1817C600.359 49.3266 600.568 49.861 600.987 49.2198C601.405 48.5785 601.719 47.2959 602.033 46.6546C602.347 46.0134 601.824 46.0134 602.033 45.479Z" fill="#CDCDCD" stroke="#808080"/>
<path d="M603.513 40.8637C603.705 39.4234 604.636 39.1383 605.077 39.1758C606.321 38.8383 607.657 40.076 606.641 41.7639C604.475 45.3647 605.438 44.5771 605.077 45.9274C604.836 46.8275 601.136 45.5898 602.309 44.5771C603.874 43.2268 603.272 42.6641 603.513 40.8637Z" fill="#CDCDCD" stroke="#808080"/>
<path d="M29.6489 43.2636C29.1064 42.3622 28.2024 43.0833 27.4791 43.6241C26.0326 44.3453 25.9965 45.2107 26.5751 45.7876C27.2983 46.5087 27.66 46.1482 28.0216 46.689L28.0216 46.689C28.3832 47.2299 28.7449 47.7708 30.1914 49.213C31.6379 50.6553 33.2883 50.2411 33.6269 50.1145C35.0734 49.5736 34.1697 49.0164 33.2653 48.8525C31.2763 48.492 30.3722 45.7876 30.0106 45.0664C29.6489 44.3453 30.1914 44.165 29.6489 43.2636Z" fill="#CDCDCD" stroke="#808080"/>
<path d="M25.967 35.1922C25.6515 34.346 24.547 34.6845 23.6003 35.023C22.338 35.6999 21.486 36.106 21.8646 37.0537C22.338 38.2383 22.8113 37.3921 23.1269 37.8998C23.4425 38.4075 24.7047 41.792 25.0203 42.4689C25.3359 43.1458 24.7048 43.992 25.3359 44.8381C25.967 45.6842 29.7538 43.992 29.1227 42.6382C28.4916 41.2843 28.176 42.1305 27.5449 41.1151C26.9137 40.0998 26.4404 38.069 25.967 37.0537C25.4937 36.0383 26.2826 36.0383 25.967 35.1922Z" fill="#CDCDCD" stroke="#808080"/>
<path d="M23.3231 27.7304C23.0327 25.4749 21.6294 25.0285 20.9641 25.0873C19.089 24.5586 17.074 26.4969 18.6051 29.14C21.8714 34.7787 20.4195 33.5452 20.9641 35.6597C21.3271 37.0693 26.9071 35.131 25.1377 33.5452C22.7786 31.4308 23.686 30.5497 23.3231 27.7304Z" fill="#CDCDCD" stroke="#808080"/>
<path d="M34.486 33.2219C32.2183 33.3337 31.532 32.029 31.4723 31.3626C30.6219 29.6072 32.171 27.2785 35.0385 28.3216C41.156 30.5467 39.5586 28.181 41.6548 28.7809C44.2515 29.524 42.3911 35.4493 40.5204 33.9847C38.0263 32.032 37.3205 33.0821 34.486 33.2219Z" fill="#CDCDCD" stroke="#808080"/>
<path d="M39.7993 31.7542C39.8256 30.8947 41.0262 30.2883 42.0251 30.2679C43.4292 30.4414 44.3042 31.1921 44.2509 32.1634C44.1844 33.3775 43.4179 33.0485 43.2833 33.6071C43.1488 34.1657 43.0435 37.6038 42.963 38.3129C42.8826 39.0219 43.7469 39.5602 43.4237 40.5268C43.1005 41.4935 38.9966 41.274 39.1575 39.8559C39.3183 38.4378 39.8858 39.0831 40.1549 37.9659C40.424 36.8488 40.22 34.8823 40.3406 33.8187C40.4613 32.7551 39.773 32.6137 39.7993 31.7542Z" fill="#CDCDCD" stroke="#808080"/>
<path d="M39.0582 39.8051C39.6738 38.9522 40.4062 39.2058 41.0819 39.8051C42.4633 40.6446 42.4273 41.51 41.8027 42.0365C41.0219 42.6948 40.6916 42.3053 40.2862 42.814L40.2862 42.814C39.8808 43.3228 39.4754 43.8316 37.9139 45.1481C36.3523 46.4645 34.7421 45.9139 34.4152 45.7594C33.0188 45.0997 33.9658 44.6198 34.8807 44.532C36.8927 44.3389 37.8958 42.4754 38.3162 41.787C38.7366 41.0985 38.4426 40.6581 39.0582 39.8051Z" fill="#CDCDCD" stroke="#808080"/>
<path d="M22.23 45.4931C21.6875 44.5916 20.7834 45.3128 20.0602 45.8536C18.6137 46.5748 18.5775 47.4402 19.1561 48.0171C19.8794 48.7382 20.241 48.3777 20.6027 48.9185L20.6027 48.9185C20.9643 49.4594 21.3259 50.0002 22.7724 51.4425C24.2189 52.8848 25.8694 52.4706 26.208 52.344C27.6545 51.8031 26.7507 51.2459 25.8463 51.082C23.8573 50.7215 22.9532 48.0171 22.5916 47.2959C22.23 46.5748 22.7724 46.3945 22.23 45.4931Z" fill="#CDCDCD" stroke="#808080"/>
<path d="M18.5471 37.4217C18.2316 36.5755 17.1271 36.914 16.1804 37.2524C14.9181 37.9294 14.066 38.3355 14.4447 39.2832C14.9181 40.4678 15.3914 39.6216 15.707 40.1293C16.0225 40.637 17.2848 44.0215 17.6004 44.6984C17.9159 45.3753 17.2849 46.2215 17.916 47.0676C18.5471 47.9137 22.3339 46.2215 21.7028 44.8677C21.0716 43.5138 20.7561 44.36 20.1249 43.3446C19.4938 42.3292 19.0205 40.2985 18.5471 39.2832C18.0738 38.2678 18.8627 38.2678 18.5471 37.4217Z" fill="#CDCDCD" stroke="#808080"/>
<path d="M15.9041 29.9599C15.6138 27.7044 14.2105 27.258 13.5451 27.3168C11.67 26.7881 9.65508 28.7264 11.1862 31.3695C14.4524 37.0081 13.0006 35.7747 13.5451 37.8892C13.9082 39.2988 19.4881 37.3605 17.7187 35.7747C15.3596 33.6603 16.2671 32.7792 15.9041 29.9599Z" fill="#CDCDCD" stroke="#808080"/>
<path d="M14.0544 47.371C13.5952 46.6157 12.8301 47.22 12.2179 47.6732C10.9936 48.2774 10.963 49.0026 11.4527 49.486C12.0649 50.0903 12.371 49.7881 12.677 50.2413C12.9831 50.6945 13.2892 51.1477 14.5135 52.3563C15.7379 53.5648 17.1348 53.2177 17.4213 53.1116C18.6457 52.6584 17.8808 52.1915 17.1153 52.0541C15.4318 51.7521 14.6666 49.486 14.3605 48.8817C14.0544 48.2774 14.5135 48.1264 14.0544 47.371Z" fill="#CDCDCD" stroke="#808080"/>
<path d="M11.2165 41.2099C10.9521 40.5347 10.0266 40.8048 9.23333 41.0749C8.17559 41.6151 7.46165 41.9392 7.77896 42.6955C8.17559 43.6408 8.57223 42.9655 8.83665 43.3707C9.10107 43.7758 10.1588 46.4768 10.4232 47.017C10.6876 47.5572 10.1588 48.2324 10.6876 48.9077C11.2165 49.5829 14.3895 48.2324 13.8607 47.152C13.3319 46.0717 13.0674 46.7469 12.5386 45.9366C12.0098 45.1263 11.6131 43.5057 11.2165 42.6955C10.8199 41.8852 11.4809 41.8852 11.2165 41.2099Z" fill="#CDCDCD" stroke="#808080"/>
<path d="M9.34605 35.3779C9.10276 33.558 7.9269 33.1978 7.36937 33.2452C5.79818 32.8187 4.10978 34.3826 5.39271 36.5154C8.12963 41.0652 6.91305 40.0699 7.36937 41.7761C7.67359 42.9135 12.3492 41.3495 10.8666 40.0699C8.8898 38.3638 9.65015 37.6528 9.34605 35.3779Z" fill="#CDCDCD" stroke="#808080"/>
<path d="M8.21306 50.3559C7.84968 49.7581 7.2441 50.2363 6.75962 50.595C5.79068 51.0732 5.76646 51.6471 6.15404 52.0297C6.63852 52.5079 6.88076 52.2688 7.123 52.6275L7.123 52.6275C7.36524 52.9862 7.60748 53.3448 8.57644 54.3013C9.5454 55.2578 10.6509 54.983 10.8777 54.8991C11.8467 54.5404 11.2413 54.1709 10.6355 54.0622C9.30318 53.8231 8.69756 52.0297 8.45532 51.5514C8.21308 51.0732 8.57644 50.9537 8.21306 50.3559Z" fill="#CDCDCD" stroke="#808080"/>
<path d="M5.96689 45.479C5.75762 44.9446 5.02518 45.1583 4.39737 45.3721C3.56025 45.7996 2.99522 46.0561 3.24635 46.6546C3.56025 47.4028 3.87416 46.8684 4.08343 47.189C4.29269 47.5097 5.12977 49.6473 5.33904 50.0748C5.54831 50.5023 5.12981 51.0367 5.54835 51.5711C5.96689 52.1055 8.47812 51.0367 8.05958 50.1817C7.64104 49.3266 7.43177 49.861 7.01323 49.2198C6.59469 48.5785 6.28079 47.2959 5.96689 46.6546C5.65298 46.0134 6.17616 46.0134 5.96689 45.479Z" fill="#CDCDCD" stroke="#808080"/>
<path d="M4.48729 40.8637C4.29475 39.4234 3.36414 39.1383 2.9229 39.1758C1.67942 38.8383 0.343181 40.076 1.35853 41.7639C3.52459 45.3647 2.56175 44.5771 2.9229 45.9274C3.16367 46.8275 6.86405 45.5898 5.69066 44.5771C4.1262 43.2268 4.72796 42.6641 4.48729 40.8637Z" fill="#CDCDCD" stroke="#808080"/>
<path d="M310.219 46.2964C309.338 47.5471 308.24 48.5879 307 49.3941C305.76 48.5879 304.662 47.5471 303.781 46.2964L303.643 46.1015C302.858 44.9868 302.303 43.7346 302.007 42.4146L301.272 39.1248C300.796 36.9962 299.153 35.3077 297.015 34.7282L296.147 34.493C295.261 34.2531 294.316 34.3454 293.496 34.7528C291.692 35.6491 289.589 34.361 289.589 32.4346V28.2875C289.589 27.7404 289.515 27.1957 289.367 26.6681L288.12 22.2077C287.519 20.0563 287.353 17.8115 287.631 15.5984C288.714 6.98767 296.219 0.5 305.142 0.5H306.756H307.244H308.858C317.781 0.5 325.286 6.98767 326.369 15.5984C326.647 17.8115 326.481 20.0563 325.88 22.2077L324.633 26.6681C324.485 27.1957 324.411 27.7404 324.411 28.2875V32.4346C324.411 34.361 322.308 35.6491 320.504 34.7528C319.684 34.3454 318.739 34.2531 317.853 34.493L316.985 34.7282C314.847 35.3077 313.204 36.9962 312.728 39.1248L311.993 42.4146C311.697 43.7346 311.142 44.9868 310.357 46.1015L310.219 46.2964Z" fill="#D9D9D9" stroke="#808080"/>
<path d="M303.062 35.8744C302.675 35.1079 304.193 33.6387 305 33C305 35.0759 304.903 38.9403 304.516 37.7906C304.032 36.3534 303.547 36.8325 303.062 35.8744Z" fill="#4D4D4D"/>
<path d="M298.136 14C302.546 14 303.189 24.6667 302.96 30C302.96 26.6667 294.002 28.6667 293.313 25.3333C292.624 22 292.624 14 298.136 14Z" fill="#4D4D4D"/>
<path d="M310.938 35.8744C311.325 35.1079 309.807 33.6387 309 33C309 35.0759 309.097 38.9403 309.484 37.7906C309.968 36.3534 310.453 36.8325 310.938 35.8744Z" fill="#4D4D4D"/>
<path d="M315.864 14C311.454 14 310.811 24.6667 311.04 30C311.04 26.6667 319.998 28.6667 320.687 25.3333C321.376 22 321.376 14 315.864 14Z" fill="#4D4D4D"/>
<path d="M272 26C276.4 30.2483 281.833 31.954 284 32.2759C277.2 32.2759 273.167 37.4253 272 40C269.6 36.1379 207.5 34 181 32.2759C184.833 32.2759 203.92 32.5232 229.5 31.5C254.5 30.5 266.833 28.092 272 26Z" fill="#D9D9D9" stroke="#808080"/>
<path d="M276.311 48.1081C274.373 37.9892 281.963 34.4865 286 34C279.411 37.8919 281.963 47.6216 284.062 52C279.024 49.2757 278.411 45.3514 278.734 43.7297C276.796 43.7297 276.311 46.6486 276.311 48.1081Z" fill="#D9D9D9" stroke="#808080"/>
<path d="M287.874 44C284.48 39.6 286.46 36.8333 287.874 36C287.119 38.4 291.644 42.3333 294 44C289.476 40.8 288.031 42.6667 287.874 44Z" fill="#D9D9D9" stroke="#808080"/>
<path d="M343 26C338.6 30.2483 333.167 31.954 331 32.2759C337.8 32.2759 341.833 37.4253 343 40C345.4 36.1379 407.5 34 434 32.2759C430.167 32.2759 411.08 32.5232 385.5 31.5C360.5 30.5 348.167 28.092 343 26Z" fill="#D9D9D9" stroke="#808080"/>
<path d="M338.689 48.1081C340.627 37.9892 333.037 34.4865 329 34C335.589 37.8919 333.037 47.6216 330.938 52C335.976 49.2757 336.589 45.3514 336.266 43.7297C338.204 43.7297 338.689 46.6486 338.689 48.1081Z" fill="#D9D9D9" stroke="#808080"/>
<path d="M327.126 44C330.52 39.6 328.54 36.8333 327.126 36C327.881 38.4 323.356 42.3333 321 44C325.524 40.8 326.969 42.6667 327.126 44Z" fill="#D9D9D9" stroke="#808080"/>
<path d="M19 234.964C8.30435 225.8 4.54348 193.836 4 179V251C4 247.073 8.34783 246.745 10.5217 247.073C7.91304 239.48 15.087 235.836 19 234.964Z" fill="#D9D9D9" stroke="#808080" stroke-width="2"/>
<path d="M30.0364 247C39.2 257.696 71.1636 261.457 86 262L14 262C17.9273 262 18.2545 257.652 17.9273 255.478C25.52 258.087 29.1636 250.913 30.0364 247Z" fill="#D9D9D9" stroke="#808080" stroke-width="2"/>
<circle cx="11" cy="255" r="8" fill="#D9D9D9" stroke="#808080" stroke-width="2"/>
<circle cx="11" cy="255" r="4" fill="#6F6F6F"/>
<path d="M588 234.964C598.696 225.8 602.457 193.836 603 179V251C603 247.073 598.652 246.745 596.478 247.073C599.087 239.48 591.913 235.836 588 234.964Z" fill="#D9D9D9" stroke="#808080" stroke-width="2"/>
<path d="M576.964 247C567.8 257.696 535.836 261.457 521 262L593 262C589.073 262 588.745 257.652 589.073 255.478C581.48 258.087 577.836 250.913 576.964 247Z" fill="#D9D9D9" stroke="#808080" stroke-width="2"/>
<circle r="8" transform="matrix(-1 0 0 1 596 255)" fill="#D9D9D9" stroke="#808080" stroke-width="2"/>
<circle r="4" transform="matrix(-1 0 0 1 596 255)" fill="#6F6F6F"/>
<path d="M285.104 247.5C289.085 258.3 301.36 261.333 307 261.5H202C237.431 261.5 270.507 257.5 282.616 255.5C282.616 253 283.445 249.167 285.104 247.5Z" fill="#D9D9D9" stroke="#808080" stroke-width="2"/>
<path d="M291.5 241.5C291.5 252.3 301.5 256.667 306.5 257.5C301.081 255.1 298.758 250.5 298.274 248.5C294.79 248.1 292.306 243.667 291.5 241.5Z" fill="#D9D9D9" stroke="#808080" stroke-width="2"/>
<path d="M328.896 247.5C324.915 258.3 312.64 261.333 307 261.5H412C376.569 261.5 343.493 257.5 331.384 255.5C331.384 253 330.555 249.167 328.896 247.5Z" fill="#D9D9D9" stroke="#808080" stroke-width="2"/>
<path d="M322.5 241.5C322.5 252.3 312.5 256.667 307.5 257.5C312.919 255.1 315.242 250.5 315.726 248.5C319.21 248.1 321.694 243.667 322.5 241.5Z" fill="#D9D9D9" stroke="#808080" stroke-width="2"/>
</svg>
