<svg width="current" height="current" viewBox="0 0 608 215" fill="none" xmlns="http://www.w3.org/2000/svg">
<rect x="4" y="32" width="600" height="181" rx="10" fill="black" fill-opacity="0.75"/>
<path d="M303.976 206C301.642 203.667 298.456 197.6 304.388 192C306.447 194.5 309.248 200.8 303.976 206Z" fill="#D9D9D9" stroke="#808080" stroke-width="2"/>
<path d="M578.351 43.2636C578.894 42.3622 579.798 43.0833 580.521 43.6241C581.967 44.3453 582.004 45.2107 581.425 45.7876C580.702 46.5087 580.34 46.1482 579.978 46.689L579.978 46.689C579.617 47.2299 579.255 47.7708 577.809 49.213C576.362 50.6553 574.712 50.2411 574.373 50.1145C572.927 49.5736 573.83 49.0164 574.735 48.8525C576.724 48.492 577.628 45.7876 577.989 45.0664C578.351 44.3453 577.809 44.165 578.351 43.2636Z" fill="#D9D9D9" stroke="#808080"/>
<path d="M582.033 35.1922C582.349 34.346 583.453 34.6845 584.4 35.023C585.662 35.6999 586.514 36.106 586.135 37.0537C585.662 38.2383 585.189 37.3921 584.873 37.8998C584.558 38.4075 583.295 41.792 582.98 42.4689C582.664 43.1458 583.295 43.992 582.664 44.8381C582.033 45.6842 578.246 43.992 578.877 42.6382C579.508 41.2843 579.824 42.1305 580.455 41.1151C581.086 40.0998 581.56 38.069 582.033 37.0537C582.506 36.0383 581.717 36.0383 582.033 35.1922Z" fill="#D9D9D9" stroke="#808080"/>
<path d="M584.676 27.7304C584.966 25.4749 586.37 25.0285 587.035 25.0873C588.91 24.5586 590.925 26.4969 589.394 29.14C586.128 34.7787 587.58 33.5452 587.035 35.6597C586.672 37.0693 581.092 35.131 582.861 33.5452C585.22 31.4308 584.313 30.5497 584.676 27.7304Z" fill="#D9D9D9" stroke="#808080"/>
<path d="M573.515 33.2224C575.783 33.3342 576.469 32.0295 576.529 31.3631C577.379 29.6077 575.83 27.279 572.962 28.3221C566.845 30.5472 568.442 28.1814 566.346 28.7813C563.749 29.5245 565.61 35.4498 567.481 33.9852C569.975 32.0325 570.68 33.0826 573.515 33.2224Z" fill="#D9D9D9" stroke="#808080"/>
<path d="M568.201 31.7542C568.174 30.8947 566.974 30.2883 565.975 30.2679C564.571 30.4414 563.696 31.1921 563.749 32.1634C563.816 33.3775 564.582 33.0485 564.717 33.6071C564.851 34.1657 564.957 37.6038 565.037 38.3129C565.117 39.0219 564.253 39.5602 564.576 40.5268C564.9 41.4935 569.003 41.274 568.843 39.8559C568.682 38.4378 568.114 39.0831 567.845 37.9659C567.576 36.8488 567.78 34.8823 567.659 33.8187C567.539 32.7551 568.227 32.6137 568.201 31.7542Z" fill="#D9D9D9" stroke="#808080"/>
<path d="M568.942 39.8046C568.326 38.9517 567.594 39.2053 566.918 39.8046C565.537 40.6441 565.573 41.5095 566.197 42.0361C566.978 42.6943 567.308 42.3048 567.714 42.8135L567.714 42.8135C568.119 43.3223 568.525 43.8311 570.086 45.1476C571.648 46.464 573.258 45.9134 573.585 45.7589C574.981 45.0992 574.034 44.6193 573.119 44.5315C571.107 44.3384 570.104 42.4749 569.684 41.7865C569.263 41.098 569.557 40.6576 568.942 39.8046Z" fill="#D9D9D9" stroke="#808080"/>
<path d="M585.769 45.4931C586.312 44.5916 587.216 45.3128 587.939 45.8536C589.385 46.5748 589.421 47.4402 588.843 48.0171C588.12 48.7382 587.758 48.3777 587.396 48.9185L587.396 48.9185C587.035 49.4594 586.673 50.0002 585.227 51.4425C583.78 52.8848 582.13 52.4706 581.791 52.344C580.345 51.8031 581.248 51.2459 582.153 51.082C584.142 50.7215 585.046 48.0171 585.407 47.2959C585.769 46.5748 585.227 46.3945 585.769 45.4931Z" fill="#D9D9D9" stroke="#808080"/>
<path d="M589.451 37.4217C589.766 36.5755 590.871 36.914 591.818 37.2524C593.08 37.9294 593.932 38.3355 593.553 39.2832C593.08 40.4678 592.607 39.6216 592.291 40.1293C591.976 40.637 590.713 44.0215 590.398 44.6984C590.082 45.3753 590.713 46.2215 590.082 47.0676C589.451 47.9137 585.664 46.2215 586.295 44.8677C586.926 43.5138 587.242 44.36 587.873 43.3446C588.504 42.3292 588.978 40.2985 589.451 39.2832C589.924 38.2678 589.135 38.2678 589.451 37.4217Z" fill="#D9D9D9" stroke="#808080"/>
<path d="M592.094 29.9599C592.384 27.7044 593.788 27.258 594.453 27.3168C596.328 26.7881 598.343 28.7264 596.812 31.3695C593.546 37.0081 594.997 35.7747 594.453 37.8892C594.09 39.2988 588.51 37.3605 590.279 35.7747C592.638 33.6603 591.731 32.7792 592.094 29.9599Z" fill="#D9D9D9" stroke="#808080"/>
<path d="M593.946 47.371C594.405 46.6157 595.17 47.22 595.782 47.6732C597.006 48.2774 597.037 49.0026 596.547 49.486C595.935 50.0903 595.629 49.7881 595.323 50.2413C595.017 50.6945 594.711 51.1477 593.486 52.3563C592.262 53.5648 590.865 53.2177 590.579 53.1116C589.354 52.6584 590.119 52.1915 590.885 52.0541C592.568 51.7521 593.333 49.486 593.64 48.8817C593.946 48.2774 593.486 48.1264 593.946 47.371Z" fill="#D9D9D9" stroke="#808080"/>
<path d="M596.784 41.2094C597.048 40.5342 597.973 40.8043 598.767 41.0744C599.824 41.6146 600.538 41.9387 600.221 42.695C599.824 43.6403 599.428 42.9651 599.163 43.3702C598.899 43.7753 597.841 46.4763 597.577 47.0165C597.312 47.5567 597.841 48.2319 597.312 48.9072C596.784 49.5824 593.61 48.2319 594.139 47.1515C594.668 46.0712 594.933 46.7464 595.461 45.9361C595.99 45.1258 596.387 43.5053 596.784 42.695C597.18 41.8847 596.519 41.8847 596.784 41.2094Z" fill="#D9D9D9" stroke="#808080"/>
<path d="M598.654 35.3779C598.897 33.558 600.073 33.1978 600.631 33.2452C602.202 32.8187 603.89 34.3826 602.607 36.5154C599.87 41.0652 601.087 40.0699 600.631 41.7761C600.326 42.9135 595.651 41.3495 597.133 40.0699C599.11 38.3638 598.35 37.6528 598.654 35.3779Z" fill="#D9D9D9" stroke="#808080"/>
<path d="M599.787 50.3554C600.15 49.7576 600.756 50.2358 601.24 50.5945C602.209 51.0727 602.234 51.6466 601.846 52.0292C601.361 52.5074 601.119 52.2683 600.877 52.627L600.877 52.627C600.635 52.9857 600.393 53.3443 599.424 54.3008C598.455 55.2573 597.349 54.9826 597.122 54.8986C596.153 54.5399 596.759 54.1704 597.364 54.0617C598.697 53.8227 599.302 52.0292 599.545 51.551C599.787 51.0727 599.424 50.9532 599.787 50.3554Z" fill="#D9D9D9" stroke="#808080"/>
<path d="M602.034 45.479C602.243 44.9446 602.976 45.1583 603.604 45.3721C604.441 45.7996 605.006 46.0561 604.755 46.6546C604.441 47.4028 604.127 46.8684 603.918 47.189C603.708 47.5097 602.871 49.6473 602.662 50.0748C602.453 50.5023 602.871 51.0367 602.453 51.5711C602.034 52.1055 599.523 51.0367 599.941 50.1817C600.36 49.3266 600.569 49.861 600.988 49.2198C601.406 48.5785 601.72 47.2959 602.034 46.6546C602.348 46.0134 601.825 46.0134 602.034 45.479Z" fill="#D9D9D9" stroke="#808080"/>
<path d="M603.513 40.8637C603.705 39.4234 604.636 39.1383 605.077 39.1758C606.321 38.8383 607.657 40.076 606.641 41.7639C604.475 45.3647 605.438 44.5771 605.077 45.9274C604.836 46.8275 601.136 45.5898 602.309 44.5771C603.874 43.2268 603.272 42.6641 603.513 40.8637Z" fill="#D9D9D9" stroke="#808080"/>
<path d="M29.6489 43.2636C29.1064 42.3622 28.2024 43.0833 27.4791 43.6241C26.0326 44.3453 25.9965 45.2107 26.5751 45.7876C27.2983 46.5087 27.66 46.1482 28.0216 46.689L28.0216 46.689C28.3832 47.2299 28.7449 47.7708 30.1914 49.213C31.6379 50.6553 33.2883 50.2411 33.6269 50.1145C35.0734 49.5736 34.1697 49.0164 33.2653 48.8525C31.2763 48.492 30.3722 45.7876 30.0106 45.0664C29.6489 44.3453 30.1914 44.165 29.6489 43.2636Z" fill="#D9D9D9" stroke="#808080"/>
<path d="M25.967 35.1922C25.6515 34.346 24.547 34.6845 23.6003 35.023C22.338 35.6999 21.486 36.106 21.8646 37.0537C22.338 38.2383 22.8113 37.3921 23.1269 37.8998C23.4425 38.4075 24.7047 41.792 25.0203 42.4689C25.3359 43.1458 24.7048 43.992 25.3359 44.8381C25.967 45.6842 29.7538 43.992 29.1227 42.6382C28.4916 41.2843 28.176 42.1305 27.5449 41.1151C26.9137 40.0998 26.4404 38.069 25.967 37.0537C25.4937 36.0383 26.2826 36.0383 25.967 35.1922Z" fill="#D9D9D9" stroke="#808080"/>
<path d="M23.324 27.7304C23.0337 25.4749 21.6304 25.0285 20.9651 25.0873C19.09 24.5586 17.075 26.4969 18.6061 29.14C21.8724 34.7787 20.4205 33.5452 20.9651 35.6597C21.3281 37.0693 26.9081 35.131 25.1387 33.5452C22.7796 31.4308 23.687 30.5497 23.324 27.7304Z" fill="#D9D9D9" stroke="#808080"/>
<path d="M34.485 33.2224C32.2174 33.3342 31.531 32.0295 31.4713 31.3631C30.6209 29.6077 32.17 27.279 35.0376 28.3221C41.155 30.5472 39.5576 28.1814 41.6538 28.7813C44.2505 29.5245 42.3901 35.4498 40.5194 33.9852C38.0253 32.0325 37.3196 33.0826 34.485 33.2224Z" fill="#D9D9D9" stroke="#808080"/>
<path d="M39.7993 31.7542C39.8256 30.8947 41.0262 30.2883 42.0251 30.2679C43.4292 30.4414 44.3042 31.1921 44.2509 32.1634C44.1844 33.3775 43.4179 33.0485 43.2833 33.6071C43.1488 34.1657 43.0435 37.6038 42.963 38.3129C42.8826 39.0219 43.7469 39.5602 43.4237 40.5268C43.1005 41.4935 38.9966 41.274 39.1575 39.8559C39.3183 38.4378 39.8858 39.0831 40.1549 37.9659C40.424 36.8488 40.22 34.8823 40.3406 33.8187C40.4613 32.7551 39.773 32.6137 39.7993 31.7542Z" fill="#D9D9D9" stroke="#808080"/>
<path d="M39.0582 39.8046C39.6738 38.9517 40.4062 39.2053 41.0819 39.8046C42.4633 40.6441 42.4273 41.5095 41.8027 42.0361C41.0219 42.6943 40.6916 42.3048 40.2862 42.8135L40.2862 42.8135C39.8808 43.3223 39.4754 43.8311 37.9139 45.1476C36.3523 46.464 34.7421 45.9134 34.4152 45.7589C33.0188 45.0992 33.9658 44.6193 34.8807 44.5315C36.8927 44.3384 37.8958 42.4749 38.3162 41.7865C38.7366 41.098 38.4426 40.6576 39.0582 39.8046Z" fill="#D9D9D9" stroke="#808080"/>
<path d="M22.2309 45.4931C21.6885 44.5916 20.7844 45.3128 20.0612 45.8536C18.6147 46.5748 18.5785 47.4402 19.1571 48.0171C19.8804 48.7382 20.242 48.3777 20.6036 48.9185L20.6036 48.9185C20.9653 49.4594 21.3269 50.0002 22.7734 51.4425C24.2199 52.8848 25.8703 52.4706 26.2089 52.344C27.6554 51.8031 26.7517 51.2459 25.8473 51.082C23.8583 50.7215 22.9542 48.0171 22.5926 47.2959C22.231 46.5748 22.7734 46.3945 22.2309 45.4931Z" fill="#D9D9D9" stroke="#808080"/>
<path d="M18.5491 37.4217C18.2335 36.5755 17.129 36.914 16.1823 37.2524C14.92 37.9294 14.068 38.3355 14.4467 39.2832C14.92 40.4678 15.3934 39.6216 15.7089 40.1293C16.0245 40.637 17.2868 44.0215 17.6023 44.6984C17.9179 45.3753 17.2868 46.2215 17.9179 47.0676C18.5491 47.9137 22.3358 46.2215 21.7047 44.8677C21.0736 43.5138 20.758 44.36 20.1269 43.3446C19.4958 42.3292 19.0224 40.2985 18.5491 39.2832C18.0757 38.2678 18.8646 38.2678 18.5491 37.4217Z" fill="#D9D9D9" stroke="#808080"/>
<path d="M15.9061 29.9599C15.6157 27.7044 14.2124 27.258 13.5471 27.3168C11.672 26.7881 9.65703 28.7264 11.1881 31.3695C14.4544 37.0081 13.0025 35.7747 13.5471 37.8892C13.9101 39.2988 19.4901 37.3605 17.7207 35.7747C15.3616 33.6603 16.269 32.7792 15.9061 29.9599Z" fill="#D9D9D9" stroke="#808080"/>
<path d="M14.0544 47.371C13.5952 46.6157 12.8301 47.22 12.2179 47.6732C10.9936 48.2774 10.963 49.0026 11.4527 49.486C12.0649 50.0903 12.371 49.7881 12.677 50.2413C12.9831 50.6945 13.2892 51.1477 14.5135 52.3563C15.7379 53.5648 17.1348 53.2177 17.4213 53.1116C18.6457 52.6584 17.8808 52.1915 17.1153 52.0541C15.4318 51.7521 14.6666 49.486 14.3605 48.8817C14.0544 48.2774 14.5135 48.1264 14.0544 47.371Z" fill="#D9D9D9" stroke="#808080"/>
<path d="M11.2165 41.2094C10.9521 40.5342 10.0266 40.8043 9.23333 41.0744C8.17559 41.6146 7.46165 41.9387 7.77896 42.695C8.17559 43.6403 8.57223 42.9651 8.83665 43.3702C9.10107 43.7753 10.1588 46.4763 10.4232 47.0165C10.6876 47.5567 10.1588 48.2319 10.6876 48.9072C11.2165 49.5824 14.3895 48.2319 13.8607 47.1515C13.3319 46.0712 13.0674 46.7464 12.5386 45.9361C12.0098 45.1258 11.6131 43.5053 11.2165 42.695C10.8199 41.8847 11.4809 41.8847 11.2165 41.2094Z" fill="#D9D9D9" stroke="#808080"/>
<path d="M9.34605 35.3779C9.10276 33.558 7.9269 33.1978 7.36937 33.2452C5.79818 32.8187 4.10978 34.3826 5.39271 36.5154C8.12963 41.0652 6.91305 40.0699 7.36937 41.7761C7.67359 42.9135 12.3492 41.3495 10.8666 40.0699C8.8898 38.3638 9.65015 37.6528 9.34605 35.3779Z" fill="#D9D9D9" stroke="#808080"/>
<path d="M8.21306 50.3554C7.84968 49.7576 7.2441 50.2358 6.75962 50.5945C5.79068 51.0727 5.76646 51.6466 6.15404 52.0292C6.63852 52.5074 6.88076 52.2683 7.123 52.627L7.123 52.627C7.36524 52.9857 7.60748 53.3443 8.57644 54.3008C9.5454 55.2573 10.6509 54.9826 10.8777 54.8986C11.8467 54.5399 11.2413 54.1704 10.6355 54.0617C9.30318 53.8227 8.69756 52.0292 8.45532 51.551C8.21308 51.0727 8.57644 50.9532 8.21306 50.3554Z" fill="#D9D9D9" stroke="#808080"/>
<path d="M5.96591 45.479C5.75664 44.9446 5.0242 45.1583 4.39639 45.3721C3.55927 45.7996 2.99425 46.0561 3.24537 46.6546C3.55927 47.4028 3.87318 46.8684 4.08245 47.189C4.29172 47.5097 5.1288 49.6473 5.33806 50.0748C5.54733 50.5023 5.12883 51.0367 5.54737 51.5711C5.96591 52.1055 8.47714 51.0367 8.0586 50.1817C7.64006 49.3266 7.43079 49.861 7.01226 49.2198C6.59372 48.5785 6.27982 47.2959 5.96591 46.6546C5.65201 46.0134 6.17518 46.0134 5.96591 45.479Z" fill="#D9D9D9" stroke="#808080"/>
<path d="M4.48729 40.8637C4.29475 39.4234 3.36414 39.1383 2.9229 39.1758C1.67942 38.8383 0.343181 40.076 1.35853 41.7639C3.52459 45.3647 2.56175 44.5771 2.9229 45.9274C3.16367 46.8275 6.86405 45.5898 5.69066 44.5771C4.1262 43.2268 4.72796 42.6641 4.48729 40.8637Z" fill="#D9D9D9" stroke="#808080"/>
<path d="M307.219 46.2964C306.338 47.5471 305.24 48.5879 304 49.3941C302.76 48.5879 301.662 47.5471 300.781 46.2964L300.643 46.1015C299.858 44.9868 299.303 43.7346 299.007 42.4146L298.272 39.1248C297.796 36.9962 296.153 35.3077 294.015 34.7282L293.147 34.493C292.261 34.2531 291.316 34.3454 290.496 34.7528C288.692 35.6491 286.589 34.361 286.589 32.4346V28.2875C286.589 27.7404 286.515 27.1957 286.367 26.6681L285.12 22.2077C284.519 20.0563 284.353 17.8115 284.631 15.5984C285.714 6.98767 293.219 0.5 302.142 0.5H303.756H304.244H305.858C314.781 0.5 322.286 6.98767 323.369 15.5984C323.647 17.8115 323.481 20.0563 322.88 22.2077L321.633 26.6681C321.485 27.1957 321.411 27.7404 321.411 28.2875V32.4346C321.411 34.361 319.308 35.6491 317.504 34.7528C316.684 34.3454 315.739 34.2531 314.853 34.493L313.985 34.7282C311.847 35.3077 310.204 36.9962 309.728 39.1248L308.993 42.4146C308.697 43.7346 308.142 44.9868 307.357 46.1015L307.219 46.2964Z" fill="#D9D9D9" stroke="#808080"/>
<path d="M300.062 35.8744C299.675 35.1079 301.193 33.6387 302 33C302 35.0759 301.903 38.9403 301.516 37.7906C301.032 36.3534 300.547 36.8325 300.062 35.8744Z" fill="#4D4D4D"/>
<path d="M295.136 14C299.546 14 300.189 24.6667 299.96 30C299.96 26.6667 291.002 28.6667 290.313 25.3333C289.624 22 289.624 14 295.136 14Z" fill="#4D4D4D"/>
<path d="M307.938 35.8744C308.325 35.1079 306.807 33.6387 306 33C306 35.0759 306.097 38.9403 306.484 37.7906C306.968 36.3534 307.453 36.8325 307.938 35.8744Z" fill="#4D4D4D"/>
<path d="M312.864 14C308.454 14 307.811 24.6667 308.04 30C308.04 26.6667 316.998 28.6667 317.687 25.3333C318.376 22 318.376 14 312.864 14Z" fill="#4D4D4D"/>
<path d="M269 26C273.4 30.2483 278.833 31.954 281 32.2759C274.2 32.2759 270.167 37.4253 269 40C266.6 36.1379 204.5 34 178 32.2759C181.833 32.2759 200.92 32.5232 226.5 31.5C251.5 30.5 263.833 28.092 269 26Z" fill="#D9D9D9" stroke="#808080"/>
<path d="M273.311 48.1081C271.373 37.9892 278.963 34.4865 283 34C276.411 37.8919 278.963 47.6216 281.062 52C276.024 49.2757 275.411 45.3514 275.734 43.7297C273.796 43.7297 273.311 46.6486 273.311 48.1081Z" fill="#D9D9D9" stroke="#808080"/>
<path d="M284.874 44C281.48 39.6 283.46 36.8333 284.874 36C284.119 38.4 288.644 42.3333 291 44C286.476 40.8 285.031 42.6667 284.874 44Z" fill="#D9D9D9" stroke="#808080"/>
<path d="M340 26C335.6 30.2483 330.167 31.954 328 32.2759C334.8 32.2759 338.833 37.4253 340 40C342.4 36.1379 404.5 34 431 32.2759C427.167 32.2759 408.08 32.5232 382.5 31.5C357.5 30.5 345.167 28.092 340 26Z" fill="#D9D9D9" stroke="#808080"/>
<path d="M335.689 48.1081C337.627 37.9892 330.037 34.4865 326 34C332.589 37.8919 330.037 47.6216 327.938 52C332.976 49.2757 333.589 45.3514 333.266 43.7297C335.204 43.7297 335.689 46.6486 335.689 48.1081Z" fill="#D9D9D9" stroke="#808080"/>
<path d="M324.126 44C327.52 39.6 325.54 36.8333 324.126 36C324.881 38.4 320.356 42.3333 318 44C322.524 40.8 323.969 42.6667 324.126 44Z" fill="#D9D9D9" stroke="#808080"/>
<path d="M19 185.964C8.30435 176.8 4.54348 144.836 4 130V202C4 198.073 8.34783 197.745 10.5217 198.073C7.91304 190.48 15.087 186.836 19 185.964Z" fill="#D9D9D9" stroke="#808080" stroke-width="2"/>
<path d="M30.0364 198C39.2 208.696 71.1636 212.457 86 213L14 213C17.9273 213 18.2545 208.652 17.9273 206.478C25.52 209.087 29.1636 201.913 30.0364 198Z" fill="#D9D9D9" stroke="#808080" stroke-width="2"/>
<circle cx="11" cy="206" r="8" fill="#D9D9D9" stroke="#808080" stroke-width="2"/>
<circle cx="11" cy="206" r="4" fill="#4D4D4D"/>
<path d="M589 185.964C599.696 176.8 603.457 144.836 604 130V202C604 198.073 599.652 197.745 597.478 198.073C600.087 190.48 592.913 186.836 589 185.964Z" fill="#D9D9D9" stroke="#808080" stroke-width="2"/>
<path d="M577.964 198C568.8 208.696 536.836 212.457 522 213L594 213C590.073 213 589.745 208.652 590.073 206.478C582.48 209.087 578.836 201.913 577.964 198Z" fill="#D9D9D9" stroke="#808080" stroke-width="2"/>
<circle r="8" transform="matrix(-1 0 0 1 597 206)" fill="#D9D9D9" stroke="#808080" stroke-width="2"/>
<circle r="4" transform="matrix(-1 0 0 1 597 206)" fill="#4D4D4D"/>
<path d="M282.104 199.5C286.085 210.3 298.36 213.333 304 213.5H199C234.431 213.5 267.507 209.5 279.616 207.5C279.616 205 280.445 201.167 282.104 199.5Z" fill="#D9D9D9" stroke="#808080" stroke-width="2"/>
<path d="M288.5 193.5C288.5 204.3 298.5 208.667 303.5 209.5C298.081 207.1 295.758 202.5 295.274 200.5C291.79 200.1 289.306 195.667 288.5 193.5Z" fill="#D9D9D9" stroke="#808080" stroke-width="2"/>
<path d="M325.896 199.5C321.915 210.3 309.64 213.333 304 213.5H409C373.569 213.5 340.493 209.5 328.384 207.5C328.384 205 327.555 201.167 325.896 199.5Z" fill="#D9D9D9" stroke="#808080" stroke-width="2"/>
<path d="M319.5 193.5C319.5 204.3 309.5 208.667 304.5 209.5C309.919 207.1 312.242 202.5 312.726 200.5C316.21 200.1 318.694 195.667 319.5 193.5Z" fill="#D9D9D9" stroke="#808080" stroke-width="2"/>
</svg>
