<svg width="40" height="40" viewBox="0 0 40 40" fill="none" xmlns="http://www.w3.org/2000/svg">
<path fill-rule="evenodd" clip-rule="evenodd" d="M33.9999 0.999999L7 19.855L33.6477 38.7503C6.54255 19.4961 16.1358 18.2571 29.3194 24.4034C24.4019 20.8299 28.8144 19.9634 33.858 19.855L33.859 19.855C33.8588 19.855 33.8586 19.855 33.8585 19.855C33.8586 19.855 33.8588 19.855 33.859 19.855L33.858 19.855C28.8144 19.7466 24.4019 18.8801 29.3194 15.3066C16.0791 21.4794 6.46 20.4931 33.9999 0.999999ZM33.9999 39C33.8818 38.9164 33.7644 38.8332 33.6477 38.7503L33.9999 39Z" fill="#D9D9D9"/>
<path d="M7 19.855L6.71079 20.2629L6.13118 19.8519L6.71373 19.4451L7 19.855ZM33.9999 0.999999L33.7136 0.590063L34.2887 1.40811L33.9999 0.999999ZM29.3194 24.4034L29.6133 23.9989L29.1081 24.8566L29.3194 24.4034ZM33.858 19.855L33.8472 19.355L33.858 19.355L33.858 19.855ZM33.859 19.855L33.8707 19.3551L33.859 20.355L33.859 19.855ZM33.8585 19.855L33.8467 20.3549L33.8467 19.3551L33.8585 19.855ZM33.859 19.855L33.859 19.355L33.8707 20.3548L33.859 19.855ZM33.858 19.855L33.858 20.3551L33.8472 20.3549L33.858 19.855ZM29.3194 15.3066L29.1081 14.8535L29.6133 15.7111L29.3194 15.3066ZM33.9999 39L34.2891 38.5921L33.711 39.4081L33.9999 39ZM6.71373 19.4451L33.7136 0.590063L34.2862 1.40993L7.28627 20.2649L6.71373 19.4451ZM33.3585 39.1582L6.71079 20.2629L7.28921 19.4471L33.9369 38.3424L33.3585 39.1582ZM29.1081 24.8566C25.8329 23.3296 22.8026 22.2723 20.5279 21.8355C19.3856 21.6162 18.4709 21.5609 17.8237 21.6593C17.166 21.7594 16.9242 21.9889 16.849 22.2117C16.7576 22.4822 16.8087 22.9992 17.3221 23.8763C17.8213 24.729 18.6975 25.8186 20.0374 27.1692C22.714 29.867 27.1697 33.5353 33.9373 38.3427L33.3582 39.1579C26.5731 34.3381 22.0636 30.6313 19.3275 27.8735C17.9612 26.4964 17.0192 25.3382 16.4591 24.3815C15.9133 23.4491 15.6639 22.5951 15.9016 21.8916C16.1554 21.1402 16.8722 20.7925 17.6733 20.6707C18.4848 20.5473 19.529 20.6255 20.7165 20.8535C23.1014 21.3114 26.2141 22.404 29.5307 23.9502L29.1081 24.8566ZM33.8687 20.3549C32.6179 20.3818 31.4192 20.4555 30.4016 20.6037C29.3687 20.7541 28.5817 20.9735 28.1121 21.2576C27.8824 21.3966 27.7677 21.5279 27.7168 21.6357C27.6726 21.7296 27.6543 21.8516 27.7181 22.0394C27.863 22.4654 28.3917 23.1112 29.6133 23.9989L29.0255 24.8079C27.7884 23.9089 27.0246 23.1063 26.7713 22.3613C26.6362 21.9637 26.6424 21.5697 26.8123 21.2093C26.9757 20.8627 27.2648 20.6014 27.5945 20.402C28.2438 20.0092 29.1983 19.7683 30.2575 19.6141C31.3321 19.4576 32.5763 19.3824 33.8472 19.3551L33.8687 20.3549ZM33.859 20.355L33.858 20.355L33.858 19.355L33.859 19.355L33.859 20.355ZM33.8702 19.3551L33.8707 19.3551L33.8472 20.3549L33.8467 20.3549L33.8702 19.3551ZM33.8707 20.3548C33.8707 20.3548 33.8707 20.3548 33.8707 20.3548C33.8707 20.3548 33.8707 20.3548 33.8707 20.3548C33.8707 20.3548 33.8707 20.3548 33.8707 20.3548C33.8707 20.3548 33.8707 20.3548 33.8707 20.3548C33.8707 20.3548 33.8707 20.3548 33.8707 20.3548C33.8707 20.3548 33.8707 20.3548 33.8707 20.3548C33.8707 20.3548 33.8707 20.3548 33.8707 20.3548C33.8707 20.3548 33.8707 20.3548 33.8707 20.3548C33.8707 20.3548 33.8707 20.3548 33.8707 20.3548C33.8707 20.3548 33.8707 20.3548 33.8707 20.3548C33.8707 20.3548 33.8707 20.3548 33.8707 20.3548C33.8707 20.3548 33.8707 20.3548 33.8707 20.3548C33.8707 20.3548 33.8707 20.3548 33.8707 20.3548C33.8707 20.3548 33.8707 20.3548 33.8707 20.3548C33.8707 20.3548 33.8707 20.3548 33.8707 20.3548C33.8707 20.3548 33.8707 20.3548 33.8707 20.3548C33.8707 20.3548 33.8707 20.3548 33.8707 20.3548C33.8707 20.3548 33.8707 20.3548 33.8707 20.3548C33.8707 20.3548 33.8707 20.3548 33.8707 20.3548C33.8707 20.3548 33.8707 20.3548 33.8707 20.3548C33.8707 20.3548 33.8707 20.3548 33.8707 20.3548C33.8707 20.3548 33.8707 20.3548 33.8707 20.3548C33.8707 20.3548 33.8707 20.3548 33.8707 20.3548C33.8707 20.3548 33.8707 20.3548 33.8707 20.3548C33.8707 20.3548 33.8707 20.3548 33.8707 20.3548C33.8707 20.3548 33.8707 20.3548 33.8707 20.3548C33.8707 20.3548 33.8707 20.3548 33.8707 20.3548C33.8707 20.3548 33.8707 20.3548 33.8707 20.3548C33.8707 20.3548 33.8707 20.3548 33.8707 20.3548C33.8707 20.3548 33.8707 20.3548 33.8707 20.3548C33.8707 20.3548 33.8707 20.3548 33.8707 20.3548C33.8707 20.3548 33.8707 20.3548 33.8707 20.3548C33.8707 20.3548 33.8707 20.3548 33.8707 20.3548C33.8707 20.3548 33.8707 20.3548 33.8707 20.3548C33.8707 20.3548 33.8707 20.3548 33.8707 20.3548C33.8707 20.3548 33.8707 20.3548 33.8707 20.3548C33.8707 20.3548 33.8707 20.3548 33.8707 20.3548C33.8707 20.3548 33.8707 20.3548 33.8707 20.3548C33.8707 20.3548 33.8707 20.3548 33.8707 20.3548C33.8707 20.3548 33.8707 20.3548 33.8707 20.3548C33.8707 20.3548 33.8707 20.3548 33.8707 20.3548C33.8707 20.3548 33.8707 20.3548 33.8707 20.3548C33.8707 20.3548 33.8707 20.3548 33.8707 20.3548C33.8707 20.3548 33.8707 20.3548 33.8707 20.3548C33.8707 20.3548 33.8707 20.3548 33.8707 20.3548C33.8707 20.3548 33.8707 20.3548 33.8707 20.3548C33.8707 20.3548 33.8707 20.3548 33.8707 20.3548C33.8707 20.3548 33.8707 20.3548 33.8707 20.3548C33.8707 20.3548 33.8707 20.3548 33.8707 20.3548C33.8707 20.3548 33.8707 20.3548 33.8707 20.3548C33.8707 20.3548 33.8707 20.3548 33.8707 20.3548C33.8707 20.3548 33.8707 20.3548 33.8707 20.3548C33.8707 20.3548 33.8707 20.3548 33.8707 20.3548C33.8707 20.3548 33.8707 20.3548 33.8707 20.3548C33.8707 20.3548 33.8707 20.3548 33.8707 20.3548C33.8707 20.3548 33.8707 20.3548 33.8707 20.3548C33.8707 20.3548 33.8707 20.3548 33.8707 20.3548C33.8707 20.3548 33.8707 20.3548 33.8707 20.3548C33.8707 20.3548 33.8707 20.3548 33.8707 20.3548C33.8707 20.3548 33.8707 20.3548 33.8707 20.3548C33.8707 20.3548 33.8707 20.3548 33.8707 20.3548C33.8707 20.3548 33.8707 20.3548 33.8707 20.3548C33.8707 20.3548 33.8707 20.3548 33.8707 20.3548C33.8707 20.3548 33.8707 20.3548 33.8707 20.3548C33.8707 20.3548 33.8707 20.3548 33.8707 20.3548C33.8707 20.3548 33.8707 20.3548 33.8707 20.3548C33.8707 20.3548 33.8707 20.3548 33.8707 20.3548C33.8706 20.3548 33.8706 20.3548 33.8706 20.3548C33.8706 20.3548 33.8706 20.3548 33.8706 20.3548C33.8706 20.3548 33.8706 20.3548 33.8706 20.3548C33.8706 20.3548 33.8706 20.3548 33.8706 20.3548C33.8706 20.3548 33.8706 20.3548 33.8706 20.3548C33.8706 20.3548 33.8706 20.3549 33.8706 20.3549C33.8706 20.3549 33.8706 20.3549 33.8706 20.3549C33.8706 20.3549 33.8706 20.3549 33.8706 20.3549C33.8706 20.3549 33.8706 20.3549 33.8706 20.3549C33.8706 20.3549 33.8706 20.3549 33.8706 20.3549C33.8706 20.3549 33.8706 20.3549 33.8706 20.3549C33.8706 20.3549 33.8706 20.3549 33.8706 20.3549C33.8706 20.3549 33.8706 20.3549 33.8706 20.3549C33.8706 20.3549 33.8706 20.3549 33.8706 20.3549C33.8706 20.3549 33.8706 20.3549 33.8706 20.3549C33.8706 20.3549 33.8706 20.3549 33.8706 20.3549C33.8706 20.3549 33.8706 20.3549 33.8706 20.3549C33.8706 20.3549 33.8706 20.3549 33.8706 20.3549C33.8706 20.3549 33.8706 20.3549 33.8706 20.3549C33.8706 20.3549 33.8706 20.3549 33.8706 20.3549C33.8706 20.3549 33.8706 20.3549 33.8706 20.3549C33.8706 20.3549 33.8706 20.3549 33.8706 20.3549C33.8706 20.3549 33.8706 20.3549 33.8706 20.3549C33.8706 20.3549 33.8706 20.3549 33.8706 20.3549C33.8706 20.3549 33.8706 20.3549 33.8706 20.3549C33.8706 20.3549 33.8706 20.3549 33.8706 20.3549C33.8706 20.3549 33.8706 20.3549 33.8706 20.3549C33.8706 20.3549 33.8706 20.3549 33.8706 20.3549C33.8706 20.3549 33.8706 20.3549 33.8706 20.3549C33.8706 20.3549 33.8706 20.3549 33.8706 20.3549C33.8706 20.3549 33.8706 20.3549 33.8706 20.3549C33.8706 20.3549 33.8706 20.3549 33.8706 20.3549C33.8706 20.3549 33.8706 20.3549 33.8706 20.3549C33.8706 20.3549 33.8706 20.3549 33.8706 20.3549C33.8706 20.3549 33.8706 20.3549 33.8706 20.3549C33.8706 20.3549 33.8706 20.3549 33.8706 20.3549C33.8706 20.3549 33.8706 20.3549 33.8706 20.3549C33.8706 20.3549 33.8706 20.3549 33.8706 20.3549C33.8706 20.3549 33.8706 20.3549 33.8706 20.3549C33.8706 20.3549 33.8706 20.3549 33.8706 20.3549C33.8706 20.3549 33.8706 20.3549 33.8706 20.3549C33.8706 20.3549 33.8706 20.3549 33.8706 20.3549C33.8706 20.3549 33.8706 20.3549 33.8706 20.3549C33.8706 20.3549 33.8706 20.3549 33.8706 20.3549C33.8706 20.3549 33.8706 20.3549 33.8706 20.3549C33.8706 20.3549 33.8706 20.3549 33.8706 20.3549C33.8706 20.3549 33.8706 20.3549 33.8706 20.3549C33.8706 20.3549 33.8706 20.3549 33.8706 20.3549C33.8706 20.3549 33.8706 20.3549 33.8706 20.3549C33.8706 20.3549 33.8706 20.3549 33.8706 20.3549C33.8706 20.3549 33.8706 20.3549 33.8706 20.3549C33.8706 20.3549 33.8706 20.3549 33.8706 20.3549C33.8706 20.3549 33.8706 20.3549 33.8706 20.3549C33.8706 20.3549 33.8706 20.3549 33.8706 20.3549C33.8706 20.3549 33.8706 20.3549 33.8706 20.3549C33.8706 20.3549 33.8706 20.3549 33.8706 20.3549C33.8706 20.3549 33.8706 20.3549 33.8706 20.3549C33.8706 20.3549 33.8706 20.3549 33.8706 20.3549C33.8706 20.3549 33.8706 20.3549 33.8706 20.3549C33.8706 20.3549 33.8706 20.3549 33.8706 20.3549C33.8706 20.3549 33.8706 20.3549 33.8706 20.3549C33.8706 20.3549 33.8706 20.3549 33.8706 20.3549C33.8706 20.3549 33.8706 20.3549 33.8706 20.3549C33.8706 20.3549 33.8706 20.3549 33.8706 20.3549C33.8706 20.3549 33.8706 20.3549 33.8706 20.3549C33.8706 20.3549 33.8706 20.3549 33.8706 20.3549C33.8706 20.3549 33.8706 20.3549 33.8706 20.3549C33.8706 20.3549 33.8706 20.3549 33.8706 20.3549C33.8706 20.3549 33.8706 20.3549 33.8706 20.3549C33.8706 20.3549 33.8706 20.3549 33.8706 20.3549C33.8706 20.3549 33.8706 20.3549 33.8706 20.3549C33.8706 20.3549 33.8706 20.3549 33.8706 20.3549C33.8706 20.3549 33.8706 20.3549 33.8706 20.3549C33.8706 20.3549 33.8706 20.3549 33.8706 20.3549C33.8706 20.3549 33.8706 20.3549 33.8706 20.3549C33.8706 20.3549 33.8706 20.3549 33.8706 20.3549C33.8706 20.3549 33.8706 20.3549 33.8706 20.3549C33.8706 20.3549 33.8706 20.3549 33.8706 20.3549C33.8706 20.3549 33.8706 20.3549 33.8706 20.3549C33.8706 20.3549 33.8706 20.3549 33.8706 20.3549C33.8706 20.3549 33.8706 20.3549 33.8706 20.3549C33.8706 20.3549 33.8706 20.3549 33.8706 20.3549C33.8706 20.3549 33.8706 20.3549 33.8706 20.3549C33.8706 20.3549 33.8706 20.3549 33.8706 20.3549C33.8706 20.3549 33.8706 20.3549 33.8706 20.3549C33.8706 20.3549 33.8706 20.3549 33.8706 20.3549C33.8706 20.3549 33.8706 20.3549 33.8706 20.3549C33.8706 20.3549 33.8706 20.3549 33.8706 20.3549C33.8706 20.3549 33.8706 20.3549 33.8706 20.3549C33.8706 20.3549 33.8706 20.3549 33.8706 20.3549C33.8706 20.3549 33.8706 20.3549 33.8706 20.3549C33.8706 20.3549 33.8706 20.3549 33.8706 20.3549C33.8706 20.3549 33.8706 20.3549 33.8706 20.3549C33.8706 20.3549 33.8706 20.3549 33.8706 20.3549C33.8706 20.3549 33.8706 20.3549 33.8706 20.3549C33.8706 20.3549 33.8706 20.3549 33.8706 20.3549C33.8706 20.3549 33.8706 20.3549 33.8706 20.3549C33.8706 20.3549 33.8706 20.3549 33.8706 20.3549C33.8706 20.3549 33.8706 20.3549 33.8706 20.3549C33.8706 20.3549 33.8706 20.3549 33.8706 20.3549C33.8706 20.3549 33.8706 20.3549 33.8706 20.3549C33.8706 20.3549 33.8706 20.3549 33.8706 20.3549C33.8706 20.3549 33.8706 20.3549 33.8706 20.3549C33.8706 20.3549 33.8706 20.3549 33.8706 20.3549C33.8706 20.3549 33.8706 20.3549 33.8706 20.3549C33.8705 20.3549 33.8705 20.3549 33.8705 20.3549C33.8705 20.3549 33.8705 20.3549 33.8705 20.3549C33.8705 20.3549 33.8705 20.3549 33.8705 20.3549C33.8705 20.3549 33.8705 20.3549 33.8705 20.3549C33.8705 20.3549 33.8705 20.3549 33.8705 20.3549C33.8705 20.3549 33.8705 20.3549 33.8705 20.3549C33.8705 20.3549 33.8705 20.3549 33.8705 20.3549C33.8705 20.3549 33.8705 20.3549 33.8705 20.3549C33.8705 20.3549 33.8705 20.3549 33.8705 20.3549C33.8705 20.3549 33.8705 20.3549 33.8705 20.3549C33.8705 20.3549 33.8705 20.3549 33.8705 20.3549C33.8705 20.3549 33.8705 20.3549 33.8705 20.3549C33.8705 20.3549 33.8705 20.3549 33.8705 20.3549C33.8705 20.3549 33.8705 20.3549 33.8705 20.3549C33.8705 20.3549 33.8705 20.3549 33.8705 20.3549C33.8705 20.3549 33.8705 20.3549 33.8705 20.3549C33.8705 20.3549 33.8705 20.3549 33.8705 20.3549C33.8705 20.3549 33.8705 20.3549 33.8705 20.3549C33.8705 20.3549 33.8705 20.3549 33.8705 20.3549C33.8705 20.3549 33.8705 20.3549 33.8705 20.3549C33.8705 20.3549 33.8705 20.3549 33.8705 20.3549C33.8705 20.3549 33.8705 20.3549 33.8705 20.3549C33.8705 20.3549 33.8705 20.3549 33.8705 20.3549C33.8705 20.3549 33.8705 20.3549 33.8705 20.3549C33.8705 20.3549 33.8705 20.3549 33.8705 20.3549C33.8705 20.3549 33.8705 20.3549 33.8705 20.3549C33.8705 20.3549 33.8705 20.3549 33.8705 20.3549C33.8705 20.3549 33.8705 20.3549 33.8705 20.3549C33.8705 20.3549 33.8705 20.3549 33.8705 20.3549C33.8705 20.3549 33.8705 20.3549 33.8705 20.3549C33.8705 20.3549 33.8705 20.3549 33.8705 20.3549C33.8705 20.3549 33.8705 20.3549 33.8705 20.3549C33.8705 20.3549 33.8705 20.3549 33.8705 20.3549C33.8705 20.3549 33.8705 20.3549 33.8705 20.3549C33.8705 20.3549 33.8705 20.3549 33.8705 20.3549C33.8705 20.3549 33.8705 20.3549 33.8705 20.3549C33.8705 20.3549 33.8705 20.3549 33.8705 20.3549C33.8705 20.3549 33.8705 20.3549 33.8705 20.3549C33.8705 20.3549 33.8705 20.3549 33.8705 20.3549C33.8705 20.3549 33.8705 20.3549 33.8705 20.3549C33.8705 20.3549 33.8705 20.3549 33.8705 20.3549C33.8705 20.3549 33.8705 20.3549 33.8705 20.3549C33.8705 20.3549 33.8705 20.3549 33.8705 20.3549C33.8705 20.3549 33.8705 20.3549 33.8705 20.3549C33.8705 20.3549 33.8705 20.3549 33.8705 20.3549C33.8705 20.3549 33.8705 20.3549 33.8705 20.3549C33.8705 20.3549 33.8705 20.3549 33.8705 20.3549C33.8705 20.3549 33.8705 20.3549 33.8705 20.3549C33.8705 20.3549 33.8705 20.3549 33.8705 20.3549C33.8705 20.3549 33.8705 20.3549 33.8705 20.3549C33.8705 20.3549 33.8705 20.3549 33.8705 20.3549C33.8705 20.3549 33.8705 20.3549 33.8705 20.3549C33.8705 20.3549 33.8705 20.3549 33.8705 20.3549C33.8705 20.3549 33.8705 20.3549 33.8705 20.3549C33.8705 20.3549 33.8705 20.3549 33.8705 20.3549C33.8705 20.3549 33.8705 20.3549 33.8705 20.3549C33.8705 20.3549 33.8705 20.3549 33.8705 20.3549C33.8705 20.3549 33.8705 20.3549 33.8705 20.3549C33.8705 20.3549 33.8705 20.3549 33.8705 20.3549C33.8705 20.3549 33.8705 20.3549 33.8705 20.3549C33.8705 20.3549 33.8705 20.3549 33.8705 20.3549C33.8705 20.3549 33.8705 20.3549 33.8705 20.3549C33.8705 20.3549 33.8705 20.3549 33.8705 20.3549C33.8705 20.3549 33.8705 20.3549 33.8705 20.3549C33.8705 20.3549 33.8705 20.3549 33.8705 20.3549C33.8705 20.3549 33.8705 20.3549 33.8705 20.3549C33.8705 20.3549 33.8705 20.3549 33.8705 20.3549C33.8705 20.3549 33.8705 20.3549 33.8705 20.3549C33.8705 20.3549 33.8705 20.3549 33.8705 20.3549C33.8705 20.3549 33.8705 20.3549 33.8705 20.3549C33.8705 20.3549 33.8705 20.3549 33.8705 20.3549C33.8705 20.3549 33.8705 20.3549 33.8705 20.3549C33.8705 20.3549 33.8705 20.3549 33.8705 20.3549C33.8705 20.3549 33.8705 20.3549 33.8705 20.3549C33.8705 20.3549 33.8705 20.3549 33.8705 20.3549C33.8705 20.3549 33.8705 20.3549 33.8705 20.3549C33.8705 20.3549 33.8705 20.3549 33.8705 20.3549C33.8705 20.3549 33.8705 20.3549 33.8705 20.3549C33.8705 20.3549 33.8705 20.3549 33.8705 20.3549C33.8705 20.3549 33.8705 20.3549 33.8705 20.3549C33.8705 20.3549 33.8705 20.3549 33.8705 20.3549C33.8705 20.3549 33.8705 20.3549 33.8705 20.3549C33.8705 20.3549 33.8705 20.3549 33.8705 20.3549C33.8705 20.3549 33.8705 20.3549 33.8705 20.3549C33.8705 20.3549 33.8705 20.3549 33.8705 20.3549C33.8705 20.3549 33.8705 20.3549 33.8705 20.3549C33.8705 20.3549 33.8705 20.3549 33.8705 20.3549C33.8705 20.3549 33.8705 20.3549 33.8705 20.3549C33.8705 20.3549 33.8705 20.3549 33.8705 20.3549C33.8705 20.3549 33.8705 20.3549 33.8705 20.3549C33.8705 20.3549 33.8705 20.3549 33.8705 20.3549C33.8705 20.3549 33.8705 20.3549 33.8705 20.3549C33.8705 20.3549 33.8705 20.3549 33.8705 20.3549C33.8705 20.3549 33.8705 20.3549 33.8705 20.3549C33.8705 20.3549 33.8705 20.3549 33.8705 20.3549C33.8705 20.3549 33.8705 20.3549 33.8705 20.3549C33.8705 20.3549 33.8705 20.3549 33.8705 20.3549C33.8705 20.3549 33.8705 20.3549 33.8705 20.3549C33.8705 20.3549 33.8705 20.3549 33.8705 20.3549C33.8705 20.3549 33.8705 20.3549 33.8705 20.3549C33.8705 20.3549 33.8705 20.3549 33.8705 20.3549C33.8705 20.3549 33.8705 20.3549 33.8705 20.3549C33.8705 20.3549 33.8705 20.3549 33.8705 20.3549C33.8705 20.3549 33.8705 20.3549 33.8705 20.3549C33.8705 20.3549 33.8705 20.3549 33.8705 20.3549C33.8705 20.3549 33.8704 20.3549 33.8704 20.3549C33.8704 20.3549 33.8704 20.3549 33.8704 20.3549C33.8704 20.3549 33.8704 20.3549 33.8704 20.3549C33.8704 20.3549 33.8704 20.3549 33.8704 20.3549C33.8704 20.3549 33.8704 20.3549 33.8704 20.3549C33.8704 20.3549 33.8704 20.3549 33.8704 20.3549C33.8704 20.3549 33.8704 20.3549 33.8704 20.3549C33.8704 20.3549 33.8704 20.3549 33.8704 20.3549C33.8704 20.3549 33.8704 20.3549 33.8704 20.3549C33.8704 20.3549 33.8704 20.3549 33.8704 20.3549C33.8704 20.3549 33.8704 20.3549 33.8704 20.3549C33.8704 20.3549 33.8704 20.3549 33.8704 20.3549C33.8704 20.3549 33.8704 20.3549 33.8704 20.3549C33.8704 20.3549 33.8704 20.3549 33.8704 20.3549C33.8704 20.3549 33.8704 20.3549 33.8704 20.3549C33.8704 20.3549 33.8704 20.3549 33.8704 20.3549C33.8704 20.3549 33.8704 20.3549 33.8704 20.3549C33.8704 20.3549 33.8704 20.3549 33.8704 20.3549C33.8704 20.3549 33.8704 20.3549 33.8704 20.3549C33.8704 20.3549 33.8704 20.3549 33.8704 20.3549C33.8704 20.3549 33.8704 20.3549 33.8704 20.3549C33.8704 20.3549 33.8704 20.3549 33.8704 20.3549C33.8704 20.3549 33.8704 20.3549 33.8704 20.3549C33.8704 20.3549 33.8704 20.3549 33.8704 20.3549C33.8704 20.3549 33.8704 20.3549 33.8704 20.3549C33.8704 20.3549 33.8704 20.3549 33.8704 20.3549C33.8704 20.3549 33.8704 20.3549 33.8704 20.3549C33.8704 20.3549 33.8704 20.3549 33.8704 20.3549C33.8704 20.3549 33.8704 20.3549 33.8704 20.3549C33.8704 20.3549 33.8704 20.3549 33.8704 20.3549C33.8704 20.3549 33.8704 20.3549 33.8704 20.3549C33.8704 20.3549 33.8704 20.3549 33.8704 20.3549C33.8704 20.3549 33.8704 20.3549 33.8704 20.3549C33.8704 20.3549 33.8704 20.3549 33.8704 20.3549C33.8704 20.3549 33.8704 20.3549 33.8704 20.3549C33.8704 20.3549 33.8704 20.3549 33.8704 20.3549C33.8704 20.3549 33.8704 20.3549 33.8704 20.3549C33.8704 20.3549 33.8704 20.3549 33.8704 20.3549C33.8704 20.3549 33.8704 20.3549 33.8704 20.3549C33.8704 20.3549 33.8704 20.3549 33.8704 20.3549C33.8704 20.3549 33.8704 20.3549 33.8704 20.3549C33.8704 20.3549 33.8704 20.3549 33.8704 20.3549C33.8704 20.3549 33.8704 20.3549 33.8704 20.3549C33.8704 20.3549 33.8704 20.3549 33.8704 20.3549C33.8704 20.3549 33.8704 20.3549 33.8704 20.3549C33.8704 20.3549 33.8704 20.3549 33.8704 20.3549C33.8704 20.3549 33.8704 20.3549 33.8704 20.3549C33.8704 20.3549 33.8704 20.3549 33.8704 20.3549C33.8704 20.3549 33.8704 20.3549 33.8704 20.3549C33.8704 20.3549 33.8704 20.3549 33.8704 20.3549C33.8704 20.3549 33.8704 20.3549 33.8704 20.3549C33.8704 20.3549 33.8704 20.3549 33.8704 20.3549C33.8704 20.3549 33.8704 20.3549 33.8704 20.3549C33.8704 20.3549 33.8704 20.3549 33.8704 20.3549C33.8704 20.3549 33.8704 20.3549 33.8704 20.3549C33.8704 20.3549 33.8704 20.3549 33.8704 20.3549C33.8704 20.3549 33.8704 20.3549 33.8704 20.3549C33.8704 20.3549 33.8704 20.3549 33.8704 20.3549C33.8704 20.3549 33.8704 20.3549 33.8704 20.3549C33.8704 20.3549 33.8704 20.3549 33.8704 20.3549C33.8704 20.3549 33.8704 20.3549 33.8704 20.3549C33.8704 20.3549 33.8704 20.3549 33.8704 20.3549C33.8704 20.3549 33.8704 20.3549 33.8704 20.3549C33.8704 20.3549 33.8704 20.3549 33.8704 20.3549C33.8704 20.3549 33.8704 20.3549 33.8704 20.3549C33.8704 20.3549 33.8704 20.3549 33.8704 20.3549C33.8704 20.3549 33.8704 20.3549 33.8704 20.3549C33.8704 20.3549 33.8704 20.3549 33.8704 20.3549C33.8704 20.3549 33.8704 20.3549 33.8704 20.3549C33.8704 20.3549 33.8704 20.3549 33.8704 20.3549C33.8704 20.3549 33.8704 20.3549 33.8704 20.3549C33.8704 20.3549 33.8704 20.3549 33.8704 20.3549C33.8704 20.3549 33.8704 20.3549 33.8704 20.3549C33.8704 20.3549 33.8704 20.3549 33.8704 20.3549C33.8704 20.3549 33.8704 20.3549 33.8704 20.3549C33.8704 20.3549 33.8704 20.3549 33.8704 20.3549C33.8704 20.3549 33.8704 20.3549 33.8704 20.3549C33.8704 20.3549 33.8704 20.3549 33.8704 20.3549C33.8704 20.3549 33.8704 20.3549 33.8704 20.3549C33.8704 20.3549 33.8704 20.3549 33.8704 20.3549C33.8704 20.3549 33.8704 20.3549 33.8704 20.3549C33.8704 20.3549 33.8704 20.3549 33.8704 20.3549C33.8704 20.3549 33.8704 20.3549 33.8704 20.3549C33.8704 20.3549 33.8704 20.3549 33.8704 20.3549C33.8704 20.3549 33.8704 20.3549 33.8704 20.3549C33.8704 20.3549 33.8704 20.3549 33.8704 20.3549C33.8704 20.3549 33.8704 20.3549 33.8704 20.3549C33.8704 20.3549 33.8704 20.3549 33.8704 20.3549C33.8704 20.3549 33.8704 20.3549 33.8704 20.3549C33.8704 20.3549 33.8704 20.3549 33.8704 20.3549C33.8704 20.3549 33.8704 20.3549 33.8704 20.3549C33.8704 20.3549 33.8704 20.3549 33.8704 20.3549C33.8704 20.3549 33.8704 20.3549 33.8704 20.3549C33.8704 20.3549 33.8704 20.3549 33.8704 20.3549C33.8704 20.3549 33.8704 20.3549 33.8704 20.3549C33.8704 20.3549 33.8704 20.3549 33.8704 20.3549C33.8704 20.3549 33.8704 20.3549 33.8704 20.3549C33.8704 20.3549 33.8704 20.3549 33.8704 20.3549C33.8704 20.3549 33.8704 20.3549 33.8704 20.3549C33.8704 20.3549 33.8704 20.3549 33.8704 20.3549C33.8704 20.3549 33.8704 20.3549 33.8704 20.3549C33.8704 20.3549 33.8704 20.3549 33.8704 20.3549C33.8704 20.3549 33.8704 20.3549 33.8704 20.3549C33.8704 20.3549 33.8704 20.3549 33.8704 20.3549C33.8704 20.3549 33.8704 20.3549 33.8704 20.3549C33.8704 20.3549 33.8704 20.3549 33.8703 20.3549C33.8703 20.3549 33.8703 20.3549 33.8703 20.3549C33.8703 20.3549 33.8703 20.3549 33.8703 20.3549C33.8703 20.3549 33.8703 20.3549 33.8703 20.3549C33.8703 20.3549 33.8703 20.3549 33.8703 20.3549C33.8703 20.3549 33.8703 20.3549 33.8703 20.3549C33.8703 20.3549 33.8703 20.3549 33.8703 20.3549C33.8703 20.3549 33.8703 20.3549 33.8703 20.3549C33.8703 20.3549 33.8703 20.3549 33.8703 20.3549C33.8703 20.3549 33.8703 20.3549 33.8703 20.3549C33.8703 20.3549 33.8703 20.3549 33.8703 20.3549C33.8703 20.3549 33.8703 20.3549 33.8703 20.3549C33.8703 20.3549 33.8703 20.3549 33.8703 20.3549C33.8703 20.3549 33.8703 20.3549 33.8703 20.3549C33.8703 20.3549 33.8703 20.3549 33.8703 20.3549C33.8703 20.3549 33.8703 20.3549 33.8703 20.3549C33.8703 20.3549 33.8703 20.3549 33.8703 20.3549C33.8703 20.3549 33.8703 20.3549 33.8703 20.3549C33.8703 20.3549 33.8703 20.3549 33.8703 20.3549C33.8703 20.3549 33.8703 20.3549 33.8703 20.3549C33.8703 20.3549 33.8703 20.3549 33.8703 20.3549C33.8703 20.3549 33.8703 20.3549 33.8703 20.3549C33.8703 20.3549 33.8703 20.3549 33.8703 20.3549C33.8703 20.3549 33.8703 20.3549 33.8703 20.3549C33.8703 20.3549 33.8703 20.3549 33.8703 20.3549C33.8703 20.3549 33.8703 20.3549 33.8703 20.3549C33.8703 20.3549 33.8703 20.3549 33.8703 20.3549C33.8703 20.3549 33.8703 20.3549 33.8703 20.3549C33.8703 20.3549 33.8703 20.3549 33.8703 20.3549C33.8703 20.3549 33.8703 20.3549 33.8703 20.3549C33.8703 20.3549 33.8703 20.3549 33.8703 20.3549C33.8703 20.3549 33.8703 20.3549 33.8703 20.3549C33.8703 20.3549 33.8703 20.3549 33.8703 20.3549C33.8703 20.3549 33.8703 20.3549 33.8703 20.3549C33.8703 20.3549 33.8703 20.3549 33.8703 20.3549C33.8703 20.3549 33.8703 20.3549 33.8703 20.3549C33.8703 20.3549 33.8703 20.3549 33.8703 20.3549C33.8703 20.3549 33.8703 20.3549 33.8703 20.3549C33.8703 20.3549 33.8703 20.3549 33.8703 20.3549C33.8703 20.3549 33.8703 20.3549 33.8703 20.3549C33.8703 20.3549 33.8703 20.3549 33.8703 20.3549C33.8703 20.3549 33.8703 20.3549 33.8703 20.3549C33.8703 20.3549 33.8703 20.3549 33.8703 20.3549C33.8703 20.3549 33.8703 20.3549 33.8703 20.3549C33.8703 20.3549 33.8703 20.3549 33.8703 20.3549C33.8703 20.3549 33.8703 20.3549 33.8703 20.3549C33.8703 20.3549 33.8703 20.3549 33.8703 20.3549C33.8703 20.3549 33.8703 20.3549 33.8703 20.3549C33.8703 20.3549 33.8703 20.3549 33.8703 20.3549C33.8703 20.3549 33.8703 20.3549 33.8703 20.3549C33.8703 20.3549 33.8703 20.3549 33.8703 20.3549C33.8703 20.3549 33.8703 20.3549 33.8703 20.3549C33.8703 20.3549 33.8703 20.3549 33.8703 20.3549C33.8703 20.3549 33.8703 20.3549 33.8703 20.3549C33.8703 20.3549 33.8703 20.3549 33.8703 20.3549C33.8703 20.3549 33.8703 20.3549 33.8703 20.3549C33.8703 20.3549 33.8703 20.3549 33.8703 20.3549C33.8703 20.3549 33.8703 20.3549 33.8703 20.3549C33.8703 20.3549 33.8703 20.3549 33.8703 20.3549C33.8703 20.3549 33.8703 20.3549 33.8703 20.3549C33.8703 20.3549 33.8703 20.3549 33.8703 20.3549C33.8703 20.3549 33.8703 20.3549 33.8703 20.3549C33.8703 20.3549 33.8703 20.3549 33.8703 20.3549C33.8703 20.3549 33.8703 20.3549 33.8703 20.3549C33.8703 20.3549 33.8703 20.3549 33.8703 20.3549C33.8703 20.3549 33.8703 20.3549 33.8703 20.3549C33.8703 20.3549 33.8703 20.3549 33.8703 20.3549C33.8703 20.3549 33.8703 20.3549 33.8703 20.3549C33.8703 20.3549 33.8703 20.3549 33.8703 20.3549C33.8703 20.3549 33.8703 20.3549 33.8703 20.3549C33.8703 20.3549 33.8703 20.3549 33.8703 20.3549C33.8703 20.3549 33.8703 20.3549 33.8703 20.3549C33.8703 20.3549 33.8703 20.3549 33.8703 20.3549C33.8703 20.3549 33.8703 20.3549 33.8703 20.3549C33.8703 20.3549 33.8703 20.3549 33.8703 20.3549C33.8703 20.3549 33.8703 20.3549 33.8703 20.3549C33.8703 20.3549 33.8703 20.3549 33.8703 20.3549C33.8703 20.3549 33.8703 20.3549 33.8703 20.3549C33.8703 20.3549 33.8703 20.3549 33.8703 20.3549C33.8703 20.3549 33.8703 20.3549 33.8703 20.3549C33.8703 20.3549 33.8703 20.3549 33.8703 20.3549C33.8703 20.3549 33.8703 20.3549 33.8703 20.3549C33.8703 20.3549 33.8703 20.3549 33.8703 20.3549C33.8703 20.3549 33.8703 20.3549 33.8703 20.3549C33.8703 20.3549 33.8703 20.3549 33.8703 20.3549C33.8703 20.3549 33.8703 20.3549 33.8703 20.3549C33.8703 20.3549 33.8703 20.3549 33.8703 20.3549C33.8703 20.3549 33.8703 20.3549 33.8703 20.3549C33.8703 20.3549 33.8703 20.3549 33.8703 20.3549C33.8703 20.3549 33.8703 20.3549 33.8703 20.3549C33.8703 20.3549 33.8703 20.3549 33.8703 20.3549C33.8703 20.3549 33.8703 20.3549 33.8703 20.3549C33.8703 20.3549 33.8703 20.3549 33.8703 20.3549C33.8703 20.3549 33.8703 20.3549 33.8703 20.3549C33.8703 20.3549 33.8703 20.3549 33.8703 20.3549C33.8703 20.3549 33.8703 20.3549 33.8703 20.3549C33.8703 20.3549 33.8703 20.3549 33.8703 20.3549C33.8703 20.3549 33.8703 20.3549 33.8703 20.3549C33.8703 20.3549 33.8703 20.3549 33.8703 20.3549C33.8703 20.3549 33.8703 20.3549 33.8703 20.3549C33.8703 20.3549 33.8703 20.3549 33.8703 20.3549C33.8703 20.3549 33.8703 20.3549 33.8703 20.3549C33.8703 20.3549 33.8703 20.3549 33.8703 20.3549C33.8703 20.3549 33.8703 20.3549 33.8703 20.3549C33.8703 20.3549 33.8703 20.3549 33.8703 20.3549C33.8703 20.3549 33.8703 20.3549 33.8703 20.3549C33.8702 20.3549 33.8702 20.3549 33.8702 20.3549C33.8702 20.3549 33.8702 20.3549 33.8702 20.3549C33.8702 20.3549 33.8702 20.3549 33.8702 20.3549C33.8702 20.3549 33.8702 20.3549 33.8702 20.3549C33.8702 20.3549 33.8702 20.3549 33.8702 20.3549C33.8702 20.3549 33.8702 20.3549 33.8702 20.3549C33.8702 20.3549 33.8702 20.3549 33.8702 20.3549C33.8702 20.3549 33.8702 20.3549 33.8702 20.3549C33.8702 20.3549 33.8702 20.3549 33.8702 20.3549C33.8702 20.3549 33.8702 20.3549 33.8702 20.3549C33.8702 20.3549 33.8702 20.3549 33.8702 20.3549C33.8702 20.3549 33.8702 20.3549 33.8702 20.3549C33.8702 20.3549 33.8702 20.3549 33.8702 20.3549C33.8702 20.3549 33.8702 20.3549 33.8702 20.3549C33.8702 20.3549 33.8702 20.3549 33.8702 20.3549C33.8702 20.3549 33.8702 20.3549 33.8702 20.3549C33.8702 20.3549 33.8702 20.3549 33.8702 20.3549C33.8702 20.3549 33.8702 20.3549 33.8702 20.3549C33.8702 20.3549 33.8702 20.3549 33.8702 20.3549C33.8702 20.3549 33.8702 20.3549 33.8702 20.3549C33.8702 20.3549 33.8702 20.3549 33.8702 20.3549C33.8702 20.3549 33.8702 20.3549 33.8702 20.3549C33.8702 20.3549 33.8702 20.3549 33.8702 20.3549C33.8702 20.3549 33.8702 20.3549 33.8702 20.3549L33.8467 19.3551C33.8467 19.3551 33.8467 19.3551 33.8467 19.3551C33.8467 19.3551 33.8467 19.3551 33.8467 19.3551C33.8467 19.3551 33.8467 19.3551 33.8467 19.3551C33.8467 19.3551 33.8467 19.3551 33.8467 19.3551C33.8467 19.3551 33.8467 19.3551 33.8467 19.3551C33.8467 19.3551 33.8467 19.3551 33.8467 19.3551C33.8467 19.3551 33.8467 19.3551 33.8467 19.3551C33.8467 19.3551 33.8467 19.3551 33.8467 19.3551C33.8467 19.3551 33.8467 19.3551 33.8467 19.3551C33.8467 19.3551 33.8467 19.3551 33.8467 19.3551C33.8467 19.3551 33.8467 19.3551 33.8467 19.3551C33.8467 19.3551 33.8467 19.3551 33.8467 19.3551C33.8467 19.3551 33.8467 19.3551 33.8467 19.3551C33.8467 19.3551 33.8467 19.3551 33.8467 19.3551C33.8467 19.3551 33.8467 19.3551 33.8467 19.3551C33.8467 19.3551 33.8467 19.3551 33.8467 19.3551C33.8467 19.3551 33.8467 19.3551 33.8467 19.3551C33.8467 19.3551 33.8467 19.3551 33.8467 19.3551C33.8467 19.3551 33.8467 19.3551 33.8467 19.3551C33.8467 19.3551 33.8467 19.3551 33.8467 19.3551C33.8467 19.3551 33.8467 19.3551 33.8467 19.3551C33.8467 19.3551 33.8467 19.3551 33.8467 19.3551C33.8467 19.3551 33.8467 19.3551 33.8467 19.3551C33.8467 19.3551 33.8467 19.3551 33.8467 19.3551C33.8467 19.3551 33.8467 19.3551 33.8467 19.3551C33.8467 19.3551 33.8467 19.3551 33.8467 19.3551C33.8467 19.3551 33.8467 19.3551 33.8467 19.3551C33.8467 19.3551 33.8467 19.3551 33.8467 19.3551C33.8467 19.3551 33.8467 19.3551 33.8467 19.3551C33.8467 19.3551 33.8467 19.3551 33.8467 19.3551C33.8467 19.3551 33.8467 19.3551 33.8467 19.3551C33.8467 19.3551 33.8467 19.3551 33.8467 19.3551C33.8467 19.3551 33.8467 19.3551 33.8467 19.3551C33.8467 19.3551 33.8467 19.3551 33.8467 19.3551C33.8467 19.3551 33.8467 19.3551 33.8467 19.3551C33.8467 19.3551 33.8467 19.3551 33.8467 19.3551C33.8467 19.3551 33.8467 19.3551 33.8467 19.3551C33.8467 19.3551 33.8467 19.3551 33.8467 19.3551C33.8467 19.3551 33.8467 19.3551 33.8467 19.3551C33.8467 19.3551 33.8467 19.3551 33.8467 19.3551C33.8467 19.3551 33.8467 19.3551 33.8467 19.3551C33.8467 19.3551 33.8467 19.3551 33.8467 19.3551C33.8467 19.3551 33.8467 19.3551 33.8467 19.3551C33.8467 19.3551 33.8467 19.3551 33.8467 19.3551C33.8467 19.3551 33.8467 19.3551 33.8467 19.3551C33.8467 19.3551 33.8467 19.3551 33.8467 19.3551C33.8467 19.3551 33.8467 19.3551 33.8467 19.3551C33.8467 19.3551 33.8467 19.3551 33.8467 19.3551C33.8468 19.3551 33.8468 19.3551 33.8468 19.3551C33.8468 19.3551 33.8468 19.3551 33.8468 19.3551C33.8468 19.3551 33.8468 19.3551 33.8468 19.3551C33.8468 19.3551 33.8468 19.3551 33.8468 19.3551C33.8468 19.3551 33.8468 19.3551 33.8468 19.3551C33.8468 19.3551 33.8468 19.3551 33.8468 19.3551C33.8468 19.3551 33.8468 19.3551 33.8468 19.3551C33.8468 19.3551 33.8468 19.3551 33.8468 19.3551C33.8468 19.3551 33.8468 19.3551 33.8468 19.3551C33.8468 19.3551 33.8468 19.3551 33.8468 19.3551C33.8468 19.3551 33.8468 19.3551 33.8468 19.3551C33.8468 19.3551 33.8468 19.3551 33.8468 19.3551C33.8468 19.3551 33.8468 19.3551 33.8468 19.3551C33.8468 19.3551 33.8468 19.3551 33.8468 19.3551C33.8468 19.3551 33.8468 19.3551 33.8468 19.3551C33.8468 19.3551 33.8468 19.3551 33.8468 19.3551C33.8468 19.3551 33.8468 19.3551 33.8468 19.3551C33.8468 19.3551 33.8468 19.3551 33.8468 19.3551C33.8468 19.3551 33.8468 19.3551 33.8468 19.3551C33.8468 19.3551 33.8468 19.3551 33.8468 19.3551C33.8468 19.3551 33.8468 19.3551 33.8468 19.3551C33.8468 19.3551 33.8468 19.3551 33.8468 19.3551C33.8468 19.3551 33.8468 19.3551 33.8468 19.3551C33.8468 19.3551 33.8468 19.3551 33.8468 19.3551C33.8468 19.3551 33.8468 19.3551 33.8468 19.3551C33.8468 19.3551 33.8468 19.3551 33.8468 19.3551C33.8468 19.3551 33.8468 19.3551 33.8468 19.3551C33.8468 19.3551 33.8468 19.3551 33.8468 19.3551C33.8468 19.3551 33.8468 19.3551 33.8468 19.3551C33.8468 19.3551 33.8468 19.3551 33.8468 19.3551C33.8468 19.3551 33.8468 19.3551 33.8468 19.3551C33.8468 19.3551 33.8468 19.3551 33.8468 19.3551C33.8468 19.3551 33.8468 19.3551 33.8468 19.3551C33.8468 19.3551 33.8468 19.3551 33.8468 19.3551C33.8468 19.3551 33.8468 19.3551 33.8468 19.3551C33.8468 19.3551 33.8468 19.3551 33.8468 19.3551C33.8468 19.3551 33.8468 19.3551 33.8468 19.3551C33.8468 19.3551 33.8468 19.3551 33.8468 19.3551C33.8468 19.3551 33.8468 19.3551 33.8468 19.3551C33.8468 19.3551 33.8468 19.3551 33.8468 19.3551C33.8468 19.3551 33.8468 19.3551 33.8468 19.3551C33.8468 19.3551 33.8468 19.3551 33.8468 19.3551C33.8468 19.3551 33.8468 19.3551 33.8468 19.3551C33.8468 19.3551 33.8468 19.3551 33.8468 19.3551C33.8468 19.3551 33.8468 19.3551 33.8468 19.3551C33.8468 19.3551 33.8468 19.3551 33.8468 19.3551C33.8468 19.3551 33.8468 19.3551 33.8468 19.3551C33.8468 19.3551 33.8468 19.3551 33.8468 19.3551C33.8468 19.3551 33.8468 19.3551 33.8468 19.3551C33.8468 19.3551 33.8468 19.3551 33.8468 19.3551C33.8468 19.3551 33.8468 19.3551 33.8468 19.3551C33.8468 19.3551 33.8468 19.3551 33.8468 19.3551C33.8468 19.3551 33.8468 19.3551 33.8468 19.3551C33.8468 19.3551 33.8468 19.3551 33.8468 19.3551C33.8468 19.3551 33.8468 19.3551 33.8468 19.3551C33.8468 19.3551 33.8468 19.3551 33.8468 19.3551C33.8468 19.3551 33.8468 19.3551 33.8468 19.3551C33.8468 19.3551 33.8468 19.3551 33.8468 19.3551C33.8468 19.3551 33.8468 19.3551 33.8468 19.3551C33.8468 19.3551 33.8468 19.3551 33.8468 19.3551C33.8468 19.3551 33.8468 19.3551 33.8468 19.3551C33.8468 19.3551 33.8468 19.3551 33.8468 19.3551C33.8468 19.3551 33.8468 19.3551 33.8468 19.3551C33.8468 19.3551 33.8468 19.3551 33.8468 19.3551C33.8468 19.3551 33.8468 19.3551 33.8468 19.3551C33.8468 19.3551 33.8468 19.3551 33.8468 19.3551C33.8468 19.3551 33.8468 19.3551 33.8468 19.3551C33.8468 19.3551 33.8468 19.3551 33.8468 19.3551C33.8468 19.3551 33.8468 19.3551 33.8468 19.3551C33.8468 19.3551 33.8468 19.3551 33.8468 19.3551C33.8468 19.3551 33.8468 19.3551 33.8468 19.3551C33.8468 19.3551 33.8468 19.3551 33.8468 19.3551C33.8468 19.3551 33.8468 19.3551 33.8468 19.3551C33.8468 19.3551 33.8468 19.3551 33.8468 19.3551C33.8468 19.3551 33.8468 19.3551 33.8468 19.3551C33.8468 19.3551 33.8468 19.3551 33.8468 19.3551C33.8468 19.3551 33.8468 19.3551 33.8468 19.3551C33.8468 19.3551 33.8468 19.3551 33.8468 19.3551C33.8468 19.3551 33.8468 19.3551 33.8468 19.3551C33.8468 19.3551 33.8468 19.3551 33.8468 19.3551C33.8468 19.3551 33.8468 19.3551 33.8468 19.3551C33.8468 19.3551 33.8468 19.3551 33.8468 19.3551C33.8468 19.3551 33.8468 19.3551 33.8468 19.3551C33.8468 19.3551 33.8468 19.3551 33.8468 19.3551C33.8468 19.3551 33.8468 19.3551 33.8468 19.3551C33.8468 19.3551 33.8468 19.3551 33.8468 19.3551C33.8468 19.3551 33.8468 19.3551 33.8468 19.3551C33.8468 19.3551 33.8468 19.3551 33.8468 19.3551C33.8468 19.3551 33.8468 19.3551 33.8468 19.3551C33.8468 19.3551 33.8468 19.3551 33.8468 19.3551C33.8468 19.3551 33.8468 19.3551 33.8468 19.3551C33.8468 19.3551 33.8468 19.3551 33.8468 19.3551C33.8468 19.3551 33.8468 19.3551 33.8468 19.3551C33.8468 19.3551 33.8468 19.3551 33.8468 19.3551C33.8468 19.3551 33.8468 19.3551 33.8468 19.3551C33.8468 19.3551 33.8468 19.3551 33.8468 19.3551C33.8468 19.3551 33.8468 19.3551 33.8468 19.3551C33.8468 19.3551 33.8468 19.3551 33.8468 19.3551C33.8468 19.3551 33.8468 19.3551 33.8468 19.3551C33.8468 19.3551 33.8468 19.3551 33.8468 19.3551C33.8468 19.3551 33.8468 19.3551 33.8468 19.3551C33.8468 19.3551 33.8468 19.3551 33.8468 19.3551C33.8468 19.3551 33.8468 19.3551 33.8468 19.3551C33.8468 19.3551 33.8468 19.3551 33.8468 19.3551C33.8468 19.3551 33.8468 19.3551 33.8468 19.3551C33.8469 19.3551 33.8469 19.3551 33.8469 19.3551C33.8469 19.3551 33.8469 19.3551 33.8469 19.3551C33.8469 19.3551 33.8469 19.3551 33.8469 19.3551C33.8469 19.3551 33.8469 19.3551 33.8469 19.3551C33.8469 19.3551 33.8469 19.3551 33.8469 19.3551C33.8469 19.3551 33.8469 19.3551 33.8469 19.3551C33.8469 19.3551 33.8469 19.3551 33.8469 19.3551C33.8469 19.3551 33.8469 19.3551 33.8469 19.3551C33.8469 19.3551 33.8469 19.3551 33.8469 19.3551C33.8469 19.3551 33.8469 19.3551 33.8469 19.3551C33.8469 19.3551 33.8469 19.3551 33.8469 19.3551C33.8469 19.3551 33.8469 19.3551 33.8469 19.3551C33.8469 19.3551 33.8469 19.3551 33.8469 19.3551C33.8469 19.3551 33.8469 19.3551 33.8469 19.3551C33.8469 19.3551 33.8469 19.3551 33.8469 19.3551C33.8469 19.3551 33.8469 19.3551 33.8469 19.3551C33.8469 19.3551 33.8469 19.3551 33.8469 19.3551C33.8469 19.3551 33.8469 19.3551 33.8469 19.3551C33.8469 19.3551 33.8469 19.3551 33.8469 19.3551C33.8469 19.3551 33.8469 19.3551 33.8469 19.3551C33.8469 19.3551 33.8469 19.3551 33.8469 19.3551C33.8469 19.3551 33.8469 19.3551 33.8469 19.3551C33.8469 19.3551 33.8469 19.3551 33.8469 19.3551C33.8469 19.3551 33.8469 19.3551 33.8469 19.3551C33.8469 19.3551 33.8469 19.3551 33.8469 19.3551C33.8469 19.3551 33.8469 19.3551 33.8469 19.3551C33.8469 19.3551 33.8469 19.3551 33.8469 19.3551C33.8469 19.3551 33.8469 19.3551 33.8469 19.3551C33.8469 19.3551 33.8469 19.3551 33.8469 19.3551C33.8469 19.3551 33.8469 19.3551 33.8469 19.3551C33.8469 19.3551 33.8469 19.3551 33.8469 19.3551C33.8469 19.3551 33.8469 19.3551 33.8469 19.3551C33.8469 19.3551 33.8469 19.3551 33.8469 19.3551C33.8469 19.3551 33.8469 19.3551 33.8469 19.3551C33.8469 19.3551 33.8469 19.3551 33.8469 19.3551C33.8469 19.3551 33.8469 19.3551 33.8469 19.3551C33.8469 19.3551 33.8469 19.3551 33.8469 19.3551C33.8469 19.3551 33.8469 19.3551 33.8469 19.3551C33.8469 19.3551 33.8469 19.3551 33.8469 19.3551C33.8469 19.3551 33.8469 19.3551 33.8469 19.3551C33.8469 19.3551 33.8469 19.3551 33.8469 19.3551C33.8469 19.3551 33.8469 19.3551 33.8469 19.3551C33.8469 19.3551 33.8469 19.3551 33.8469 19.3551C33.8469 19.3551 33.8469 19.3551 33.8469 19.3551C33.8469 19.3551 33.8469 19.3551 33.8469 19.3551C33.8469 19.3551 33.8469 19.3551 33.8469 19.3551C33.8469 19.3551 33.8469 19.3551 33.8469 19.3551C33.8469 19.3551 33.8469 19.3551 33.8469 19.3551C33.8469 19.3551 33.8469 19.3551 33.8469 19.3551C33.8469 19.3551 33.8469 19.3551 33.8469 19.3551C33.8469 19.3551 33.8469 19.3551 33.8469 19.3551C33.8469 19.3551 33.8469 19.3551 33.8469 19.3551C33.8469 19.3551 33.8469 19.3551 33.8469 19.3551C33.8469 19.3551 33.8469 19.3551 33.8469 19.3551C33.8469 19.3551 33.8469 19.3551 33.8469 19.3551C33.8469 19.3551 33.8469 19.3551 33.8469 19.3551C33.8469 19.3551 33.8469 19.3551 33.8469 19.3551C33.8469 19.3551 33.8469 19.3551 33.8469 19.3551C33.8469 19.3551 33.8469 19.3551 33.8469 19.3551C33.8469 19.3551 33.8469 19.3551 33.8469 19.3551C33.8469 19.3551 33.8469 19.3551 33.8469 19.3551C33.8469 19.3551 33.8469 19.3551 33.8469 19.3551C33.8469 19.3551 33.8469 19.3551 33.8469 19.3551C33.8469 19.3551 33.8469 19.3551 33.8469 19.3551C33.8469 19.3551 33.8469 19.3551 33.8469 19.3551C33.8469 19.3551 33.8469 19.3551 33.8469 19.3551C33.8469 19.3551 33.8469 19.3551 33.8469 19.3551C33.8469 19.3551 33.8469 19.3551 33.8469 19.3551C33.8469 19.3551 33.8469 19.3551 33.8469 19.3551C33.8469 19.3551 33.8469 19.3551 33.8469 19.3551C33.8469 19.3551 33.8469 19.3551 33.8469 19.3551C33.8469 19.3551 33.8469 19.3551 33.8469 19.3551C33.8469 19.3551 33.8469 19.3551 33.8469 19.3551C33.8469 19.3551 33.8469 19.3551 33.8469 19.3551C33.8469 19.3551 33.8469 19.3551 33.8469 19.3551C33.8469 19.3551 33.8469 19.3551 33.8469 19.3551C33.8469 19.3551 33.8469 19.3551 33.8469 19.3551C33.8469 19.3551 33.8469 19.3551 33.8469 19.3551C33.8469 19.3551 33.8469 19.3551 33.8469 19.3551C33.8469 19.3551 33.8469 19.3551 33.8469 19.3551C33.8469 19.3551 33.8469 19.3551 33.8469 19.3551C33.8469 19.3551 33.8469 19.3551 33.8469 19.3551C33.8469 19.3551 33.8469 19.3551 33.8469 19.3551C33.8469 19.3551 33.8469 19.3551 33.8469 19.3551C33.8469 19.3551 33.8469 19.3551 33.8469 19.3551C33.8469 19.3551 33.8469 19.3551 33.8469 19.3551C33.8469 19.3551 33.8469 19.3551 33.8469 19.3551C33.8469 19.3551 33.8469 19.3551 33.8469 19.3551C33.8469 19.3551 33.8469 19.3551 33.8469 19.3551C33.8469 19.3551 33.8469 19.3551 33.8469 19.3551C33.8469 19.3551 33.8469 19.3551 33.8469 19.3551C33.8469 19.3551 33.8469 19.3551 33.8469 19.3551C33.8469 19.3551 33.8469 19.3551 33.8469 19.3551C33.8469 19.3551 33.8469 19.3551 33.8469 19.3551C33.8469 19.3551 33.8469 19.3551 33.8469 19.3551C33.8469 19.3551 33.8469 19.3551 33.8469 19.3551C33.8469 19.3551 33.8469 19.3551 33.8469 19.3551C33.8469 19.3551 33.8469 19.3551 33.8469 19.3551C33.8469 19.3551 33.8469 19.3551 33.8469 19.3551C33.8469 19.3551 33.8469 19.3551 33.8469 19.3551C33.8469 19.3551 33.8469 19.3551 33.8469 19.3551C33.8469 19.3551 33.8469 19.3551 33.8469 19.3551C33.8469 19.3551 33.8469 19.3551 33.8469 19.3551C33.8469 19.3551 33.8469 19.3551 33.8469 19.3551C33.8469 19.3551 33.8469 19.3551 33.8469 19.3551C33.8469 19.3551 33.847 19.3551 33.847 19.3551C33.847 19.3551 33.847 19.3551 33.847 19.3551C33.847 19.3551 33.847 19.3551 33.847 19.3551C33.847 19.3551 33.847 19.3551 33.847 19.3551C33.847 19.3551 33.847 19.3551 33.847 19.3551C33.847 19.3551 33.847 19.3551 33.847 19.3551C33.847 19.3551 33.847 19.3551 33.847 19.3551C33.847 19.3551 33.847 19.3551 33.847 19.3551C33.847 19.3551 33.847 19.3551 33.847 19.3551C33.847 19.3551 33.847 19.3551 33.847 19.3551C33.847 19.3551 33.847 19.3551 33.847 19.3551C33.847 19.3551 33.847 19.3551 33.847 19.3551C33.847 19.3551 33.847 19.3551 33.847 19.3551C33.847 19.3551 33.847 19.3551 33.847 19.3551C33.847 19.3551 33.847 19.3551 33.847 19.3551C33.847 19.3551 33.847 19.3551 33.847 19.3551C33.847 19.3551 33.847 19.3551 33.847 19.3551C33.847 19.3551 33.847 19.3551 33.847 19.3551C33.847 19.3551 33.847 19.3551 33.847 19.3551C33.847 19.3551 33.847 19.3551 33.847 19.3551C33.847 19.3551 33.847 19.3551 33.847 19.3551C33.847 19.3551 33.847 19.3551 33.847 19.3551C33.847 19.3551 33.847 19.3551 33.847 19.3551C33.847 19.3551 33.847 19.3551 33.847 19.3551C33.847 19.3551 33.847 19.3551 33.847 19.3551C33.847 19.3551 33.847 19.3551 33.847 19.3551C33.847 19.3551 33.847 19.3551 33.847 19.3551C33.847 19.3551 33.847 19.3551 33.847 19.3551C33.847 19.3551 33.847 19.3551 33.847 19.3551C33.847 19.3551 33.847 19.3551 33.847 19.3551C33.847 19.3551 33.847 19.3551 33.847 19.3551C33.847 19.3551 33.847 19.3551 33.847 19.3551C33.847 19.3551 33.847 19.3551 33.847 19.3551C33.847 19.3551 33.847 19.3551 33.847 19.3551C33.847 19.3551 33.847 19.3551 33.847 19.3551C33.847 19.3551 33.847 19.3551 33.847 19.3551C33.847 19.3551 33.847 19.3551 33.847 19.3551C33.847 19.3551 33.847 19.3551 33.847 19.3551C33.847 19.3551 33.847 19.3551 33.847 19.3551C33.847 19.3551 33.847 19.3551 33.847 19.3551C33.847 19.3551 33.847 19.3551 33.847 19.3551C33.847 19.3551 33.847 19.3551 33.847 19.3551C33.847 19.3551 33.847 19.3551 33.847 19.3551C33.847 19.3551 33.847 19.3551 33.847 19.3551C33.847 19.3551 33.847 19.3551 33.847 19.3551C33.847 19.3551 33.847 19.3551 33.847 19.3551C33.847 19.3551 33.847 19.3551 33.847 19.3551C33.847 19.3551 33.847 19.3551 33.847 19.3551C33.847 19.3551 33.847 19.3551 33.847 19.3551C33.847 19.3551 33.847 19.3551 33.847 19.3551C33.847 19.3551 33.847 19.3551 33.847 19.3551C33.847 19.3551 33.847 19.3551 33.847 19.3551C33.847 19.3551 33.847 19.3551 33.847 19.3551C33.847 19.3551 33.847 19.3551 33.847 19.3551C33.847 19.3551 33.847 19.3551 33.847 19.3551C33.847 19.3551 33.847 19.3551 33.847 19.3551C33.847 19.3551 33.847 19.3551 33.847 19.3551C33.847 19.3551 33.847 19.3551 33.847 19.3551C33.847 19.3551 33.847 19.3551 33.847 19.3551C33.847 19.3551 33.847 19.3551 33.847 19.3551C33.847 19.3551 33.847 19.3551 33.847 19.3551C33.847 19.3551 33.847 19.3551 33.847 19.3551C33.847 19.3551 33.847 19.3551 33.847 19.3551C33.847 19.3551 33.847 19.3551 33.847 19.3551C33.847 19.3551 33.847 19.3551 33.847 19.3551C33.847 19.3551 33.847 19.3551 33.847 19.3551C33.847 19.3551 33.847 19.3551 33.847 19.3551C33.847 19.3551 33.847 19.3551 33.847 19.3551C33.847 19.3551 33.847 19.3551 33.847 19.3551C33.847 19.3551 33.847 19.3551 33.847 19.3551C33.847 19.3551 33.847 19.3551 33.847 19.3551C33.847 19.3551 33.847 19.3551 33.847 19.3551C33.847 19.3551 33.847 19.3551 33.847 19.3551C33.847 19.3551 33.847 19.3551 33.847 19.3551C33.847 19.3551 33.847 19.3551 33.847 19.3551C33.847 19.3551 33.847 19.3551 33.847 19.3551C33.847 19.3551 33.847 19.3551 33.847 19.3551C33.847 19.3551 33.847 19.3551 33.847 19.3551C33.847 19.3551 33.847 19.3551 33.847 19.3551C33.847 19.3551 33.847 19.3551 33.847 19.3551C33.847 19.3551 33.847 19.3551 33.847 19.3551C33.847 19.3551 33.847 19.3551 33.847 19.3551C33.847 19.3551 33.847 19.3551 33.847 19.3551C33.847 19.3551 33.847 19.3551 33.847 19.3551C33.847 19.3551 33.847 19.3551 33.847 19.3551C33.847 19.3551 33.847 19.3551 33.847 19.3551C33.847 19.3551 33.847 19.3551 33.847 19.3551C33.847 19.3551 33.847 19.3551 33.847 19.3551C33.847 19.3551 33.847 19.3551 33.847 19.3551C33.847 19.3551 33.847 19.3551 33.847 19.3551C33.847 19.3551 33.847 19.3551 33.847 19.3551C33.847 19.3551 33.847 19.3551 33.847 19.3551C33.847 19.3551 33.847 19.3551 33.847 19.3551C33.847 19.3551 33.847 19.3551 33.847 19.3551C33.847 19.3551 33.847 19.3551 33.847 19.3551C33.847 19.3551 33.847 19.3551 33.847 19.3551C33.847 19.3551 33.847 19.3551 33.847 19.3551C33.847 19.3551 33.847 19.3551 33.847 19.3551C33.847 19.3551 33.847 19.3551 33.847 19.3551C33.847 19.3551 33.847 19.3551 33.847 19.3551C33.847 19.3551 33.847 19.3551 33.847 19.3551C33.847 19.3551 33.847 19.3551 33.847 19.3551C33.847 19.3551 33.847 19.3551 33.847 19.3551C33.847 19.3551 33.847 19.3551 33.847 19.3551C33.847 19.3551 33.847 19.3551 33.847 19.3551C33.847 19.3551 33.847 19.3551 33.8471 19.3551C33.8471 19.3551 33.8471 19.3551 33.8471 19.3551C33.8471 19.3551 33.8471 19.3551 33.8471 19.3551C33.8471 19.3551 33.8471 19.3551 33.8471 19.3551C33.8471 19.3551 33.8471 19.3551 33.8471 19.3551C33.8471 19.3551 33.8471 19.3551 33.8471 19.3551C33.8471 19.3551 33.8471 19.3551 33.8471 19.3551C33.8471 19.3551 33.8471 19.3551 33.8471 19.3551C33.8471 19.3551 33.8471 19.3551 33.8471 19.3551C33.8471 19.3551 33.8471 19.3551 33.8471 19.3551C33.8471 19.3551 33.8471 19.3551 33.8471 19.3551C33.8471 19.3551 33.8471 19.3551 33.8471 19.3551C33.8471 19.3551 33.8471 19.3551 33.8471 19.3551C33.8471 19.3551 33.8471 19.3551 33.8471 19.3551C33.8471 19.3551 33.8471 19.3551 33.8471 19.3551C33.8471 19.3551 33.8471 19.3551 33.8471 19.3551C33.8471 19.3551 33.8471 19.3551 33.8471 19.3551C33.8471 19.3551 33.8471 19.3551 33.8471 19.3551C33.8471 19.3551 33.8471 19.3551 33.8471 19.3551C33.8471 19.3551 33.8471 19.3551 33.8471 19.3551C33.8471 19.3551 33.8471 19.3551 33.8471 19.3551C33.8471 19.3551 33.8471 19.3551 33.8471 19.3551C33.8471 19.3551 33.8471 19.3551 33.8471 19.3551C33.8471 19.3551 33.8471 19.3551 33.8471 19.3551C33.8471 19.3551 33.8471 19.3551 33.8471 19.3551C33.8471 19.3551 33.8471 19.3551 33.8471 19.3551C33.8471 19.3551 33.8471 19.3551 33.8471 19.3551C33.8471 19.3551 33.8471 19.3551 33.8471 19.3551C33.8471 19.3551 33.8471 19.3551 33.8471 19.3551C33.8471 19.3551 33.8471 19.3551 33.8471 19.3551C33.8471 19.3551 33.8471 19.3551 33.8471 19.3551C33.8471 19.3551 33.8471 19.3551 33.8471 19.3551C33.8471 19.3551 33.8471 19.3551 33.8471 19.3551C33.8471 19.3551 33.8471 19.3551 33.8471 19.3551C33.8471 19.3551 33.8471 19.3551 33.8471 19.3551C33.8471 19.3551 33.8471 19.3551 33.8471 19.3551C33.8471 19.3551 33.8471 19.3551 33.8471 19.3551C33.8471 19.3551 33.8471 19.3551 33.8471 19.3551C33.8471 19.3551 33.8471 19.3551 33.8471 19.3551C33.8471 19.3551 33.8471 19.3551 33.8471 19.3551C33.8471 19.3551 33.8471 19.3551 33.8471 19.3551C33.8471 19.3551 33.8471 19.3551 33.8471 19.3551C33.8471 19.3551 33.8471 19.3551 33.8471 19.3551C33.8471 19.3551 33.8471 19.3551 33.8471 19.3551C33.8471 19.3551 33.8471 19.3551 33.8471 19.3551C33.8471 19.3551 33.8471 19.3551 33.8471 19.3551C33.8471 19.3551 33.8471 19.3551 33.8471 19.3551C33.8471 19.3551 33.8471 19.3551 33.8471 19.3551C33.8471 19.3551 33.8471 19.3551 33.8471 19.3551C33.8471 19.3551 33.8471 19.3551 33.8471 19.3551C33.8471 19.3551 33.8471 19.3551 33.8471 19.3551C33.8471 19.3551 33.8471 19.3551 33.8471 19.3551C33.8471 19.3551 33.8471 19.3551 33.8471 19.3551C33.8471 19.3551 33.8471 19.3551 33.8471 19.3551C33.8471 19.3551 33.8471 19.3551 33.8471 19.3551C33.8471 19.3551 33.8471 19.3551 33.8471 19.3551C33.8471 19.3551 33.8471 19.3551 33.8471 19.3551C33.8471 19.3551 33.8471 19.3551 33.8471 19.3551C33.8471 19.3551 33.8471 19.3551 33.8471 19.3551C33.8471 19.3551 33.8471 19.3551 33.8471 19.3551C33.8471 19.3551 33.8471 19.3551 33.8471 19.3551C33.8471 19.3551 33.8471 19.3551 33.8471 19.3551C33.8471 19.3551 33.8471 19.3551 33.8471 19.3551C33.8471 19.3551 33.8471 19.3551 33.8471 19.3551C33.8471 19.3551 33.8471 19.3551 33.8471 19.3551C33.8471 19.3551 33.8471 19.3551 33.8471 19.3551C33.8471 19.3551 33.8471 19.3551 33.8471 19.3551C33.8471 19.3551 33.8471 19.3551 33.8471 19.3551C33.8471 19.3551 33.8471 19.3551 33.8471 19.3551C33.8471 19.3551 33.8471 19.3551 33.8471 19.3551C33.8471 19.3551 33.8471 19.3551 33.8471 19.3551C33.8471 19.3551 33.8471 19.3551 33.8471 19.3551C33.8471 19.3551 33.8471 19.3551 33.8471 19.3551C33.8471 19.3551 33.8471 19.3551 33.8471 19.3551C33.8471 19.3551 33.8471 19.3551 33.8471 19.3551C33.8471 19.3551 33.8471 19.3551 33.8471 19.3551C33.8471 19.3551 33.8471 19.3551 33.8471 19.3551C33.8471 19.3551 33.8471 19.3551 33.8471 19.3551C33.8471 19.3551 33.8471 19.3551 33.8471 19.3551C33.8471 19.3551 33.8471 19.3551 33.8471 19.3551C33.8471 19.3551 33.8471 19.3551 33.8471 19.3551C33.8471 19.3551 33.8471 19.3551 33.8471 19.3551C33.8471 19.3551 33.8471 19.3551 33.8471 19.3551C33.8471 19.3551 33.8471 19.3551 33.8471 19.3551C33.8471 19.3551 33.8471 19.3551 33.8471 19.3551C33.8471 19.3551 33.8471 19.3551 33.8471 19.3551C33.8471 19.3551 33.8471 19.3551 33.8471 19.3551C33.8471 19.3551 33.8471 19.3551 33.8471 19.3551C33.8471 19.3551 33.8471 19.3551 33.8471 19.3551C33.8471 19.3551 33.8471 19.3551 33.8471 19.3551C33.8471 19.3551 33.8471 19.3551 33.8471 19.3551C33.8471 19.3551 33.8471 19.3551 33.8471 19.3551C33.8471 19.3551 33.8471 19.3551 33.8471 19.3551C33.8471 19.3551 33.8471 19.3551 33.8471 19.3551C33.8471 19.3551 33.8471 19.3551 33.8471 19.3551C33.8471 19.3551 33.8471 19.3551 33.8471 19.3551C33.8471 19.3551 33.8471 19.3551 33.8471 19.3551C33.8471 19.3551 33.8471 19.3551 33.8471 19.3551C33.8471 19.3551 33.8471 19.3551 33.8471 19.3551C33.8471 19.3551 33.8471 19.3551 33.8471 19.3551C33.8471 19.3551 33.8471 19.3551 33.8471 19.3551C33.8471 19.3551 33.8471 19.3551 33.8471 19.3551C33.8471 19.3551 33.8471 19.3551 33.8471 19.3551C33.8471 19.3551 33.8471 19.3551 33.8471 19.3551C33.8471 19.3551 33.8471 19.3551 33.8471 19.3551C33.8471 19.3551 33.8471 19.3551 33.8471 19.3551C33.8472 19.3551 33.8472 19.3551 33.8472 19.3551C33.8472 19.3551 33.8472 19.3551 33.8472 19.3551C33.8472 19.3551 33.8472 19.3551 33.8472 19.3551C33.8472 19.3551 33.8472 19.3551 33.8472 19.3551C33.8472 19.3551 33.8472 19.3551 33.8472 19.3551C33.8472 19.3551 33.8472 19.3551 33.8472 19.3551C33.8472 19.3551 33.8472 19.3551 33.8472 19.3551C33.8472 19.3551 33.8472 19.3551 33.8472 19.3551C33.8472 19.3551 33.8472 19.3551 33.8472 19.3551C33.8472 19.3551 33.8472 19.3551 33.8472 19.3551C33.8472 19.3551 33.8472 19.3551 33.8472 19.3551C33.8472 19.3551 33.8472 19.3551 33.8472 19.3551C33.8472 19.3551 33.8472 19.3551 33.8472 19.3551C33.8472 19.3551 33.8472 19.3551 33.8472 19.3551C33.8472 19.3551 33.8472 19.3551 33.8472 19.3551C33.8472 19.3551 33.8472 19.3551 33.8472 19.3551C33.8472 19.3551 33.8472 19.3551 33.8472 19.3551C33.8472 19.3551 33.8472 19.3551 33.8472 19.3551C33.8472 19.3551 33.8472 19.3551 33.8472 19.3551C33.8472 19.3551 33.8472 19.3551 33.8472 19.3551C33.8472 19.3551 33.8472 19.3551 33.8472 19.3551C33.8472 19.3551 33.8472 19.3551 33.8472 19.3551C33.8472 19.3551 33.8472 19.3551 33.8472 19.3551C33.8472 19.3551 33.8472 19.3551 33.8472 19.3551C33.8472 19.3551 33.8472 19.3551 33.8472 19.3551C33.8472 19.3551 33.8472 19.3551 33.8472 19.3551C33.8472 19.3551 33.8472 19.3551 33.8472 19.3551C33.8472 19.3551 33.8472 19.3551 33.8472 19.3551C33.8472 19.3551 33.8472 19.3551 33.8472 19.3551C33.8472 19.3551 33.8472 19.3551 33.8472 19.3551C33.8472 19.3551 33.8472 19.3551 33.8472 19.3551C33.8472 19.3551 33.8472 19.3551 33.8472 19.3551C33.8472 19.3551 33.8472 19.3551 33.8472 19.3551C33.8472 19.3551 33.8472 19.3551 33.8472 19.3551C33.8472 19.3551 33.8472 19.3551 33.8472 19.3551C33.8472 19.3551 33.8472 19.3551 33.8472 19.3551C33.8472 19.3551 33.8472 19.3551 33.8472 19.3551C33.8472 19.3551 33.8472 19.3551 33.8472 19.3551C33.8472 19.3551 33.8472 19.3551 33.8472 19.3551C33.8472 19.3551 33.8472 19.3551 33.8472 19.3551C33.8472 19.3551 33.8472 19.3551 33.8472 19.3551C33.8472 19.3551 33.8472 19.3551 33.8472 19.3551C33.8472 19.3551 33.8472 19.3551 33.8472 19.3551L33.8707 20.3548ZM33.858 19.355L33.859 19.355L33.859 20.355L33.858 20.355L33.858 19.355ZM29.6133 15.7111C28.3917 16.5989 27.8629 17.2446 27.7181 17.6706C27.6543 17.8584 27.6726 17.9805 27.7168 18.0744C27.7677 18.1822 27.8824 18.3134 28.1121 18.4524C28.5817 18.7365 29.3687 18.9559 30.4016 19.1063C31.4192 19.2545 32.6179 19.3282 33.8687 19.3551L33.8472 20.3549C32.5763 20.3276 31.3321 20.2523 30.2575 20.0959C29.1983 19.9417 28.2438 19.7008 27.5945 19.308C27.2648 19.1086 26.9757 18.8473 26.8123 18.5008C26.6424 18.1403 26.6362 17.7463 26.7713 17.3487C27.0246 16.6038 27.7884 15.8011 29.0255 14.9021L29.6133 15.7111ZM34.2887 1.40811C27.4121 6.27552 22.8754 9.97369 20.1401 12.6824C18.7707 14.0385 17.8705 15.1294 17.3525 15.9805C16.8179 16.8591 16.76 17.3678 16.8429 17.6244C16.9077 17.8252 17.1292 18.0471 17.7879 18.137C18.4326 18.2249 19.3478 18.1577 20.4932 17.9265C22.7735 17.4662 25.8176 16.3876 29.1081 14.8535L29.5307 15.7598C26.2011 17.3121 23.0777 18.425 20.6911 18.9067C19.5031 19.1465 18.4602 19.2379 17.6528 19.1278C16.8594 19.0196 16.1351 18.6867 15.8913 17.9317C15.6655 17.2324 15.9361 16.3844 16.4982 15.4607C17.077 14.5096 18.0417 13.353 19.4364 11.9718C22.2294 9.20609 26.8177 5.47105 33.711 0.591887L34.2887 1.40811ZM33.711 39.4081C33.5927 39.3244 33.4751 39.241 33.3582 39.1579L33.9373 38.3427C34.0538 38.4254 34.1709 38.5085 34.2888 38.5919L33.711 39.4081ZM33.9369 38.3424L34.2891 38.5921L33.7107 39.4079L33.3585 39.1582L33.9369 38.3424Z" fill="#808080"/>
<path fill-rule="evenodd" clip-rule="evenodd" d="M7.68061 19.8533C10.0452 19.5948 15.1017 18.77 16.4507 17.5332C17.1257 18.1348 19.1507 19.3381 21.8507 19.3381L21.8507 19.8533L21.8507 19.8538L21.8507 20.369C19.1507 20.369 17.1257 21.5723 16.4507 22.1739C15.1017 20.9371 10.0452 20.1123 7.68061 19.8538L7.67578 19.8538C7.67658 19.8537 7.67739 19.8536 7.67819 19.8536C7.67739 19.8535 7.67658 19.8534 7.67578 19.8533L7.68061 19.8533Z" fill="#999999"/>
<path d="M16.4507 17.5332L16.1129 17.1646L16.446 16.8592L16.7834 17.1599L16.4507 17.5332ZM7.68061 19.8533L7.73494 20.3503L7.70785 20.3533L7.68061 20.3533L7.68061 19.8533ZM21.8507 19.3381L21.8507 18.8381L22.3507 18.8381L22.3507 19.3381L21.8507 19.3381ZM21.8507 19.8533L21.3507 19.8533L21.8507 19.8533ZM21.8507 20.369L22.3507 20.369L22.3507 20.869L21.8507 20.869L21.8507 20.369ZM16.4507 22.1739L16.7834 22.5472L16.446 22.8479L16.1129 22.5425L16.4507 22.1739ZM7.68061 19.8538L7.68061 19.3538L7.70785 19.3538L7.73494 19.3568L7.68061 19.8538ZM7.67578 19.8538L7.67578 20.3538L7.62149 19.3568L7.67578 19.8538ZM7.67819 19.8536L7.73244 19.3565L7.73244 20.3506L7.67819 19.8536ZM7.67578 19.8533L7.62149 20.3503L7.67578 19.3533L7.67578 19.8533ZM16.7886 17.9018C16.3753 18.2807 15.728 18.5911 15.0149 18.8509C14.2872 19.1161 13.4326 19.3486 12.5574 19.5477C10.8061 19.946 8.93136 20.2196 7.73494 20.3503L7.62628 19.3562C8.79441 19.2286 10.6302 18.9605 12.3356 18.5726C13.1886 18.3786 13.9989 18.1568 14.6726 17.9114C15.3609 17.6606 15.8516 17.4042 16.1129 17.1646L16.7886 17.9018ZM21.8507 19.8381C19.0135 19.8381 16.8732 18.5795 16.1181 17.9065L16.7834 17.1599C17.3783 17.6902 19.2879 18.8381 21.8507 18.8381L21.8507 19.8381ZM21.3507 19.8533L21.3507 19.3381L22.3507 19.3381L22.3507 19.8533L21.3507 19.8533ZM22.3507 19.8533L22.3507 19.8538L21.3507 19.8538L21.3507 19.8533L22.3507 19.8533ZM22.3507 19.8538L22.3507 20.369L21.3507 20.369L21.3507 19.8538L22.3507 19.8538ZM21.8507 20.869C19.2879 20.869 17.3783 22.0169 16.7834 22.5472L16.1181 21.8006C16.8732 21.1276 19.0135 19.869 21.8507 19.869L21.8507 20.869ZM16.1129 22.5425C15.8516 22.3029 15.3609 22.0465 14.6726 21.7957C13.9989 21.5503 13.1886 21.3285 12.3356 21.1345C10.6302 20.7466 8.79441 20.4785 7.62628 20.3509L7.73494 19.3568C8.93136 19.4875 10.8061 19.7611 12.5574 20.1594C13.4326 20.3585 14.2872 20.591 15.0149 20.8562C15.728 21.116 16.3753 21.4264 16.7886 21.8053L16.1129 22.5425ZM7.67578 19.3538L7.68061 19.3538L7.68061 20.3538L7.67578 20.3538L7.67578 19.3538ZM7.73244 20.3506C7.73165 20.3507 7.73086 20.3508 7.73007 20.3509L7.62149 19.3568C7.62231 19.3567 7.62312 19.3566 7.62394 19.3565L7.73244 20.3506ZM7.62394 20.3506C7.62336 20.3505 7.62281 20.3505 7.62242 20.3504C7.62199 20.3504 7.62173 20.3504 7.62149 20.3503L7.73007 19.3562C7.73397 19.3567 7.72932 19.3562 7.73244 19.3565L7.62394 20.3506ZM7.67578 19.3533L7.68061 19.3533L7.68061 20.3533L7.67578 20.3533L7.67578 19.3533Z" fill="#808080"/>
<path d="M23.5367 8.25194C27.9242 7.67179 23.6491 13.7634 23.1992 17.5344C24.2117 17.2443 24.2117 17.2443 24.8867 16.9542C27.7344 5.46699 28.3558 5.18464 33.9992 0.999999L23.5367 8.25194Z" fill="#D9D9D9" stroke="#808080"/>
<path d="M23.5367 31.4581C27.9242 32.0382 23.6491 25.9466 23.1992 22.1756C24.2117 22.4656 24.2117 22.4656 24.8867 22.7557C27.7344 34.2429 28.3558 34.8154 33.9992 39L23.5367 31.4581Z" fill="#D9D9D9" stroke="#808080"/>
<path fill-rule="evenodd" clip-rule="evenodd" d="M7.67597 19.8544C11.2394 16.0535 19.7304 10.9162 23.3695 11.842C22.3887 14.4997 22.0536 19.802 28.5045 19.8542L28.6007 19.8542C28.578 19.8542 28.5554 19.8542 28.5329 19.8544C28.5554 19.8545 28.578 19.8546 28.6007 19.8546L28.5045 19.8546C22.0536 19.9067 22.3887 25.209 23.3695 27.8667C19.7304 28.7925 11.2394 23.6552 7.67597 19.8544C7.67591 19.8544 7.67584 19.8545 7.67578 19.8546C7.67584 19.8545 7.6759 19.8544 7.67596 19.8544C7.6759 19.8543 7.67584 19.8542 7.67578 19.8542C7.67584 19.8542 7.67591 19.8543 7.67597 19.8544ZM7.67598 19.8544C12.6797 14.9239 18.8206 13.6908 21.3225 14.3072C23.3238 14.8002 21.8534 18.2103 20.8678 19.8542L20.8676 19.8542C20.8676 19.8542 20.8676 19.8543 20.8677 19.8544C20.8676 19.8544 20.8676 19.8545 20.8676 19.8546L20.8678 19.8546C21.8534 21.4984 23.3238 24.9085 21.3225 25.4016C18.8206 26.0179 12.6797 24.7848 7.67598 19.8544Z" fill="#D9D9D9"/>
<path d="M23.3695 11.842L23.4927 11.3574L24.0307 11.4943L23.8385 12.0151L23.3695 11.842ZM7.67597 19.8544L8.04073 20.1963L7.69011 20.5703L7.325 20.2105L7.67597 19.8544ZM28.5045 19.8542L28.5045 20.3542L28.5004 20.3542L28.5045 19.8542ZM28.5329 19.8544L28.5301 20.3544L28.5301 19.3544L28.5329 19.8544ZM28.5045 19.8546L28.5004 19.3546L28.5045 19.3546L28.5045 19.8546ZM23.3695 27.8667L23.8385 27.6936L24.0307 28.2145L23.4927 28.3513L23.3695 27.8667ZM7.67597 19.8544L7.325 19.4983L7.69011 19.1384L8.04073 19.5124L7.67597 19.8544ZM7.67578 19.8546L8.02676 20.2107L7.31026 19.5134L7.67578 19.8546ZM7.67596 19.8544L8.04148 19.5132L8.35993 19.8544L8.04148 20.1955L7.67596 19.8544ZM7.67578 19.8542L7.31026 20.1953L8.02676 19.4981L7.67578 19.8542ZM7.67598 19.8544L7.32504 20.2105L6.96359 19.8544L7.32504 19.4982L7.67598 19.8544ZM21.3225 14.3072L21.4421 13.8217L21.4421 13.8217L21.3225 14.3072ZM20.8678 19.8542L21.2966 20.1113L21.151 20.3542L20.8678 20.3542L20.8678 19.8542ZM20.8676 19.8542L20.4383 20.1105L19.9867 19.3542L20.8676 19.3542L20.8676 19.8542ZM20.8677 19.8544L21.297 19.5981L21.4508 19.8556L21.2959 20.1125L20.8677 19.8544ZM20.8676 19.8546L20.8676 20.3546L19.9822 20.3546L20.4394 19.5964L20.8676 19.8546ZM20.8678 19.8546L20.8678 19.3546L21.151 19.3546L21.2966 19.5974L20.8678 19.8546ZM21.3225 25.4016L21.2029 24.9161L21.2029 24.9161L21.3225 25.4016ZM23.2462 12.3265C22.4698 12.129 21.3635 12.245 20.0275 12.6476C18.7068 13.0456 17.2254 13.7036 15.7332 14.515C12.7438 16.1404 9.7769 18.3445 8.04073 20.1963L7.31121 19.5124C9.13845 17.5634 12.1987 15.2985 15.2555 13.6364C16.7864 12.8041 18.3328 12.1138 19.739 11.6901C21.1298 11.2711 22.4496 11.0921 23.4927 11.3574L23.2462 12.3265ZM28.5004 20.3542C26.8209 20.3406 25.5341 19.9848 24.5749 19.3762C23.6105 18.7643 23.013 17.9191 22.6797 16.9947C22.0237 15.1749 22.3894 13.0535 22.9004 11.6689L23.8385 12.0151C23.3687 13.2882 23.0766 15.1468 23.6205 16.6556C23.8872 17.3956 24.3542 18.0519 25.1106 18.5318C25.8722 19.0151 26.9626 19.3417 28.5085 19.3542L28.5004 20.3542ZM28.5045 19.3542L28.6007 19.3542L28.6007 20.3542L28.5045 20.3542L28.5045 19.3542ZM28.6007 20.3542C28.579 20.3542 28.5574 20.3542 28.5358 20.3544L28.5301 19.3544C28.5535 19.3542 28.577 19.3542 28.6007 19.3542L28.6007 20.3542ZM28.6007 20.3546C28.5771 20.3546 28.5535 20.3545 28.5301 20.3544L28.5358 19.3544C28.5573 19.3545 28.579 19.3546 28.6007 19.3546L28.6007 20.3546ZM28.5045 19.3546L28.6007 19.3546L28.6007 20.3546L28.5045 20.3546L28.5045 19.3546ZM28.5085 20.3545C26.9626 20.367 25.8722 20.6936 25.1106 21.1769C24.3542 21.6569 23.8872 22.3132 23.6205 23.0531C23.0766 24.5619 23.3687 26.4205 23.8385 27.6936L22.9004 28.0398C22.3894 26.6553 22.0237 24.5338 22.6797 22.714C23.013 21.7896 23.6105 20.9445 24.5749 20.3325C25.5341 19.7239 26.8209 19.3681 28.5004 19.3546L28.5085 20.3545ZM23.4927 28.3513C22.4496 28.6167 21.1298 28.4377 19.739 28.0186C18.3328 27.5949 16.7864 26.9047 15.2555 26.0723C12.1987 24.4103 9.13845 22.1453 7.31121 20.1963L8.04073 19.5124C9.7769 21.3642 12.7438 23.5684 15.7332 25.1937C17.2254 26.0051 18.7068 26.6632 20.0275 27.0611C21.3635 27.4637 22.4698 27.5797 23.2462 27.3822L23.4927 28.3513ZM7.32481 19.4984C7.32487 19.4984 7.32493 19.4983 7.325 19.4983L8.02694 20.2105C8.02688 20.2105 8.02682 20.2106 8.02676 20.2107L7.32481 19.4984ZM8.04148 20.1955L8.0413 20.1957L7.31026 19.5134L7.31045 19.5132L8.04148 20.1955ZM7.31045 20.1955L7.31026 20.1953L8.0413 19.513L8.04148 19.5132L7.31045 20.1955ZM8.02676 19.4981C8.02682 19.4981 8.02688 19.4982 8.02694 19.4982L7.325 20.2105C7.32493 20.2104 7.32487 20.2103 7.32481 20.2103L8.02676 19.4981ZM7.32504 19.4982C9.88464 16.9761 12.737 15.3975 15.2753 14.5277C17.7955 13.6642 20.0613 13.4815 21.4421 13.8217L21.2029 14.7926C20.0818 14.5165 18.0262 14.6422 15.5995 15.4737C13.191 16.299 10.4711 17.8022 8.02691 20.2105L7.32504 19.4982ZM21.4421 13.8217C22.1198 13.9886 22.5342 14.4277 22.712 15.0031C22.8774 15.538 22.8315 16.1613 22.7041 16.7542C22.4472 17.9495 21.803 19.2667 21.2966 20.1113L20.439 19.5971C20.9182 18.7978 21.502 17.588 21.7264 16.5441C21.8396 16.0173 21.8477 15.5929 21.7566 15.2984C21.6781 15.0443 21.5258 14.8722 21.2029 14.7926L21.4421 13.8217ZM20.8676 19.3542L20.8678 19.3542L20.8678 20.3542L20.8676 20.3542L20.8676 19.3542ZM20.4384 20.1107L20.4383 20.1105L21.2969 19.5979L21.297 19.5981L20.4384 20.1107ZM21.2959 20.1125L21.2958 20.1127L20.4394 19.5964L20.4395 19.5962L21.2959 20.1125ZM20.8676 19.3546L20.8678 19.3546L20.8678 20.3546L20.8676 20.3546L20.8676 19.3546ZM21.2029 24.9161C21.5258 24.8365 21.6781 24.6644 21.7566 24.4104C21.8477 24.1159 21.8396 23.6914 21.7264 23.1647C21.502 22.1207 20.9182 20.9109 20.439 20.1117L21.2966 19.5974C21.803 20.4421 22.4472 21.7592 22.7041 22.9545C22.8315 23.5474 22.8774 24.1707 22.712 24.7057C22.5342 25.281 22.1198 25.7201 21.4421 25.8871L21.2029 24.9161ZM8.02691 19.4982C10.4711 21.9065 13.191 23.4097 15.5995 24.235C18.0262 25.0665 20.0818 25.1923 21.2029 24.9161L21.4421 25.8871C20.0613 26.2272 17.7955 26.0446 15.2753 25.181C12.737 24.3112 9.88464 22.7326 7.32504 20.2105L8.02691 19.4982Z" fill="#808080"/>
</svg>
