<svg width="40" height="40" viewBox="0 0 40 40" fill="none" xmlns="http://www.w3.org/2000/svg">
<path fill-rule="evenodd" clip-rule="evenodd" d="M6.00012 0.999999L33 19.855L6.35227 38.7503C33.4575 19.4961 23.8642 18.2571 10.6806 24.4034C15.5981 20.8299 11.1856 19.9634 6.14202 19.855L6.14105 19.855C6.14121 19.855 6.14137 19.855 6.14153 19.855C6.14137 19.855 6.14121 19.855 6.14105 19.855L6.14203 19.855C11.1856 19.7466 15.5981 18.8801 10.6806 15.3066C23.9209 21.4794 33.54 20.4931 6.00012 0.999999ZM6.00012 39C6.11818 38.9164 6.23557 38.8332 6.35227 38.7503L6.00012 39Z" fill="#D9D9D9"/>
<path d="M33 19.855L33.2892 20.2629L33.8688 19.8519L33.2863 19.4451L33 19.855ZM6.00012 0.999999L6.28639 0.590063L5.71125 1.40811L6.00012 0.999999ZM10.6806 24.4034L10.3867 23.9989L10.8919 24.8566L10.6806 24.4034ZM6.14202 19.855L6.15277 19.355L6.14202 19.355L6.14202 19.855ZM6.14105 19.855L6.12929 19.3551L6.14105 20.355L6.14105 19.855ZM6.14153 19.855L6.1533 20.3549L6.1533 19.3551L6.14153 19.855ZM6.14105 19.855L6.14105 19.355L6.12929 20.3548L6.14105 19.855ZM6.14203 19.855L6.14203 20.3551L6.15277 20.3549L6.14203 19.855ZM10.6806 15.3066L10.8919 14.8535L10.3867 15.7111L10.6806 15.3066ZM6.00012 39L5.71091 38.5921L6.28898 39.4081L6.00012 39ZM33.2863 19.4451L6.28639 0.590063L5.71384 1.40993L32.7137 20.2649L33.2863 19.4451ZM6.64148 39.1582L33.2892 20.2629L32.7108 19.4471L6.06306 38.3424L6.64148 39.1582ZM10.8919 24.8566C14.1671 23.3296 17.1974 22.2723 19.4721 21.8355C20.6144 21.6162 21.5291 21.5609 22.1763 21.6593C22.834 21.7594 23.0758 21.9889 23.151 22.2117C23.2424 22.4822 23.1913 22.9992 22.6779 23.8763C22.1787 24.729 21.3025 25.8186 19.9626 27.1692C17.286 29.867 12.8303 33.5353 6.06271 38.3427L6.64183 39.1579C13.4269 34.3381 17.9364 30.6313 20.6725 27.8735C22.0388 26.4964 22.9808 25.3382 23.5409 24.3815C24.0867 23.4491 24.3361 22.5951 24.0984 21.8916C23.8446 21.1402 23.1278 20.7925 22.3267 20.6707C21.5152 20.5473 20.471 20.6255 19.2835 20.8535C16.8986 21.3114 13.7859 22.404 10.4693 23.9502L10.8919 24.8566ZM6.13128 20.3549C7.38207 20.3818 8.58083 20.4555 9.5984 20.6037C10.6313 20.7541 11.4183 20.9735 11.8879 21.2576C12.1176 21.3966 12.2323 21.5279 12.2832 21.6357C12.3274 21.7296 12.3457 21.8516 12.2819 22.0394C12.137 22.4654 11.6083 23.1112 10.3867 23.9989L10.9745 24.8079C12.2116 23.9089 12.9754 23.1063 13.2287 22.3613C13.3638 21.9637 13.3576 21.5697 13.1877 21.2093C13.0243 20.8627 12.7352 20.6014 12.4055 20.402C11.7562 20.0092 10.8017 19.7683 9.74248 19.6141C8.66788 19.4576 7.42375 19.3824 6.15277 19.3551L6.13128 20.3549ZM6.14105 20.355L6.14202 20.355L6.14202 19.355L6.14105 19.355L6.14105 20.355ZM6.12977 19.3551L6.12929 19.3551L6.15281 20.3549L6.1533 20.3549L6.12977 19.3551ZM6.12929 20.3548C6.12929 20.3548 6.12929 20.3548 6.12929 20.3548C6.12929 20.3548 6.12929 20.3548 6.12929 20.3548C6.12929 20.3548 6.12929 20.3548 6.12929 20.3548C6.12929 20.3548 6.12929 20.3548 6.12929 20.3548C6.12929 20.3548 6.12929 20.3548 6.12929 20.3548C6.12929 20.3548 6.12929 20.3548 6.12929 20.3548C6.12929 20.3548 6.12929 20.3548 6.12929 20.3548C6.12929 20.3548 6.12929 20.3548 6.12929 20.3548C6.12929 20.3548 6.12929 20.3548 6.12929 20.3548C6.1293 20.3548 6.1293 20.3548 6.1293 20.3548C6.1293 20.3548 6.1293 20.3548 6.1293 20.3548C6.1293 20.3548 6.1293 20.3548 6.1293 20.3548C6.1293 20.3548 6.1293 20.3548 6.1293 20.3548C6.1293 20.3548 6.1293 20.3548 6.1293 20.3548C6.1293 20.3548 6.1293 20.3548 6.1293 20.3548C6.1293 20.3548 6.1293 20.3548 6.1293 20.3548C6.1293 20.3548 6.1293 20.3548 6.1293 20.3548C6.1293 20.3548 6.1293 20.3548 6.1293 20.3548C6.1293 20.3548 6.1293 20.3548 6.1293 20.3548C6.1293 20.3548 6.1293 20.3548 6.12931 20.3548C6.12931 20.3548 6.12931 20.3548 6.12931 20.3548C6.12931 20.3548 6.12931 20.3548 6.12931 20.3548C6.12931 20.3548 6.12931 20.3548 6.12931 20.3548C6.12931 20.3548 6.12931 20.3548 6.12931 20.3548C6.12931 20.3548 6.12931 20.3548 6.12931 20.3548C6.12931 20.3548 6.12931 20.3548 6.12931 20.3548C6.12931 20.3548 6.12931 20.3548 6.12931 20.3548C6.12931 20.3548 6.12931 20.3548 6.12931 20.3548C6.12931 20.3548 6.12931 20.3548 6.12931 20.3548C6.12931 20.3548 6.12931 20.3548 6.12931 20.3548C6.12932 20.3548 6.12932 20.3548 6.12932 20.3548C6.12932 20.3548 6.12932 20.3548 6.12932 20.3548C6.12932 20.3548 6.12932 20.3548 6.12932 20.3548C6.12932 20.3548 6.12932 20.3548 6.12932 20.3548C6.12932 20.3548 6.12932 20.3548 6.12932 20.3548C6.12932 20.3548 6.12932 20.3548 6.12932 20.3548C6.12932 20.3548 6.12932 20.3548 6.12932 20.3548C6.12932 20.3548 6.12932 20.3548 6.12932 20.3548C6.12932 20.3548 6.12932 20.3548 6.12932 20.3548C6.12932 20.3548 6.12932 20.3548 6.12932 20.3548C6.12932 20.3548 6.12932 20.3548 6.12933 20.3548C6.12933 20.3548 6.12933 20.3548 6.12933 20.3548C6.12933 20.3548 6.12933 20.3548 6.12933 20.3548C6.12933 20.3548 6.12933 20.3548 6.12933 20.3548C6.12933 20.3548 6.12933 20.3548 6.12933 20.3548C6.12933 20.3548 6.12933 20.3548 6.12933 20.3548C6.12933 20.3548 6.12933 20.3548 6.12933 20.3548C6.12933 20.3548 6.12933 20.3548 6.12933 20.3548C6.12933 20.3548 6.12933 20.3548 6.12933 20.3548C6.12933 20.3548 6.12933 20.3548 6.12933 20.3548C6.12933 20.3548 6.12933 20.3548 6.12933 20.3548C6.12934 20.3548 6.12934 20.3548 6.12934 20.3548C6.12934 20.3548 6.12934 20.3548 6.12934 20.3548C6.12934 20.3548 6.12934 20.3548 6.12934 20.3548C6.12934 20.3548 6.12934 20.3548 6.12934 20.3548C6.12934 20.3548 6.12934 20.3548 6.12934 20.3548C6.12934 20.3548 6.12934 20.3548 6.12934 20.3548C6.12934 20.3548 6.12934 20.3548 6.12934 20.3548C6.12934 20.3548 6.12934 20.3548 6.12934 20.3548C6.12934 20.3548 6.12934 20.3548 6.12934 20.3548C6.12934 20.3548 6.12934 20.3548 6.12934 20.3548C6.12934 20.3548 6.12934 20.3548 6.12935 20.3548C6.12935 20.3548 6.12935 20.3548 6.12935 20.3548C6.12935 20.3548 6.12935 20.3548 6.12935 20.3548C6.12935 20.3548 6.12935 20.3548 6.12935 20.3548C6.12935 20.3548 6.12935 20.3548 6.12935 20.3548C6.12935 20.3548 6.12935 20.3548 6.12935 20.3548C6.12935 20.3548 6.12935 20.3548 6.12935 20.3548C6.12935 20.3548 6.12935 20.3548 6.12935 20.3548C6.12935 20.3548 6.12935 20.3548 6.12935 20.3548C6.12935 20.3548 6.12935 20.3548 6.12935 20.3548C6.12935 20.3548 6.12935 20.3548 6.12935 20.3548C6.12936 20.3548 6.12936 20.3549 6.12936 20.3549C6.12936 20.3549 6.12936 20.3549 6.12936 20.3549C6.12936 20.3549 6.12936 20.3549 6.12936 20.3549C6.12936 20.3549 6.12936 20.3549 6.12936 20.3549C6.12936 20.3549 6.12936 20.3549 6.12936 20.3549C6.12936 20.3549 6.12936 20.3549 6.12936 20.3549C6.12936 20.3549 6.12936 20.3549 6.12936 20.3549C6.12936 20.3549 6.12936 20.3549 6.12936 20.3549C6.12936 20.3549 6.12936 20.3549 6.12936 20.3549C6.12936 20.3549 6.12936 20.3549 6.12936 20.3549C6.12936 20.3549 6.12936 20.3549 6.12937 20.3549C6.12937 20.3549 6.12937 20.3549 6.12937 20.3549C6.12937 20.3549 6.12937 20.3549 6.12937 20.3549C6.12937 20.3549 6.12937 20.3549 6.12937 20.3549C6.12937 20.3549 6.12937 20.3549 6.12937 20.3549C6.12937 20.3549 6.12937 20.3549 6.12937 20.3549C6.12937 20.3549 6.12937 20.3549 6.12937 20.3549C6.12937 20.3549 6.12937 20.3549 6.12937 20.3549C6.12937 20.3549 6.12937 20.3549 6.12937 20.3549C6.12937 20.3549 6.12937 20.3549 6.12937 20.3549C6.12937 20.3549 6.12937 20.3549 6.12937 20.3549C6.12937 20.3549 6.12938 20.3549 6.12938 20.3549C6.12938 20.3549 6.12938 20.3549 6.12938 20.3549C6.12938 20.3549 6.12938 20.3549 6.12938 20.3549C6.12938 20.3549 6.12938 20.3549 6.12938 20.3549C6.12938 20.3549 6.12938 20.3549 6.12938 20.3549C6.12938 20.3549 6.12938 20.3549 6.12938 20.3549C6.12938 20.3549 6.12938 20.3549 6.12938 20.3549C6.12938 20.3549 6.12938 20.3549 6.12938 20.3549C6.12938 20.3549 6.12938 20.3549 6.12938 20.3549C6.12938 20.3549 6.12938 20.3549 6.12938 20.3549C6.12938 20.3549 6.12938 20.3549 6.12939 20.3549C6.12939 20.3549 6.12939 20.3549 6.12939 20.3549C6.12939 20.3549 6.12939 20.3549 6.12939 20.3549C6.12939 20.3549 6.12939 20.3549 6.12939 20.3549C6.12939 20.3549 6.12939 20.3549 6.12939 20.3549C6.12939 20.3549 6.12939 20.3549 6.12939 20.3549C6.12939 20.3549 6.12939 20.3549 6.12939 20.3549C6.12939 20.3549 6.12939 20.3549 6.12939 20.3549C6.12939 20.3549 6.12939 20.3549 6.12939 20.3549C6.12939 20.3549 6.12939 20.3549 6.12939 20.3549C6.12939 20.3549 6.12939 20.3549 6.12939 20.3549C6.12939 20.3549 6.1294 20.3549 6.1294 20.3549C6.1294 20.3549 6.1294 20.3549 6.1294 20.3549C6.1294 20.3549 6.1294 20.3549 6.1294 20.3549C6.1294 20.3549 6.1294 20.3549 6.1294 20.3549C6.1294 20.3549 6.1294 20.3549 6.1294 20.3549C6.1294 20.3549 6.1294 20.3549 6.1294 20.3549C6.1294 20.3549 6.1294 20.3549 6.1294 20.3549C6.1294 20.3549 6.1294 20.3549 6.1294 20.3549C6.1294 20.3549 6.1294 20.3549 6.1294 20.3549C6.1294 20.3549 6.1294 20.3549 6.1294 20.3549C6.1294 20.3549 6.1294 20.3549 6.12941 20.3549C6.12941 20.3549 6.12941 20.3549 6.12941 20.3549C6.12941 20.3549 6.12941 20.3549 6.12941 20.3549C6.12941 20.3549 6.12941 20.3549 6.12941 20.3549C6.12941 20.3549 6.12941 20.3549 6.12941 20.3549C6.12941 20.3549 6.12941 20.3549 6.12941 20.3549C6.12941 20.3549 6.12941 20.3549 6.12941 20.3549C6.12941 20.3549 6.12941 20.3549 6.12941 20.3549C6.12941 20.3549 6.12941 20.3549 6.12941 20.3549C6.12941 20.3549 6.12941 20.3549 6.12941 20.3549C6.12941 20.3549 6.12941 20.3549 6.12941 20.3549C6.12941 20.3549 6.12942 20.3549 6.12942 20.3549C6.12942 20.3549 6.12942 20.3549 6.12942 20.3549C6.12942 20.3549 6.12942 20.3549 6.12942 20.3549C6.12942 20.3549 6.12942 20.3549 6.12942 20.3549C6.12942 20.3549 6.12942 20.3549 6.12942 20.3549C6.12942 20.3549 6.12942 20.3549 6.12942 20.3549C6.12942 20.3549 6.12942 20.3549 6.12942 20.3549C6.12942 20.3549 6.12942 20.3549 6.12942 20.3549C6.12942 20.3549 6.12942 20.3549 6.12942 20.3549C6.12942 20.3549 6.12942 20.3549 6.12942 20.3549C6.12942 20.3549 6.12942 20.3549 6.12942 20.3549C6.12943 20.3549 6.12943 20.3549 6.12943 20.3549C6.12943 20.3549 6.12943 20.3549 6.12943 20.3549C6.12943 20.3549 6.12943 20.3549 6.12943 20.3549C6.12943 20.3549 6.12943 20.3549 6.12943 20.3549C6.12943 20.3549 6.12943 20.3549 6.12943 20.3549C6.12943 20.3549 6.12943 20.3549 6.12943 20.3549C6.12943 20.3549 6.12943 20.3549 6.12943 20.3549C6.12943 20.3549 6.12943 20.3549 6.12943 20.3549C6.12943 20.3549 6.12943 20.3549 6.12943 20.3549C6.12943 20.3549 6.12943 20.3549 6.12943 20.3549C6.12943 20.3549 6.12944 20.3549 6.12944 20.3549C6.12944 20.3549 6.12944 20.3549 6.12944 20.3549C6.12944 20.3549 6.12944 20.3549 6.12944 20.3549C6.12944 20.3549 6.12944 20.3549 6.12944 20.3549C6.12944 20.3549 6.12944 20.3549 6.12944 20.3549C6.12944 20.3549 6.12944 20.3549 6.12944 20.3549C6.12944 20.3549 6.12944 20.3549 6.12944 20.3549C6.12944 20.3549 6.12944 20.3549 6.12944 20.3549C6.12944 20.3549 6.12944 20.3549 6.12944 20.3549C6.12944 20.3549 6.12944 20.3549 6.12944 20.3549C6.12944 20.3549 6.12944 20.3549 6.12944 20.3549C6.12945 20.3549 6.12945 20.3549 6.12945 20.3549C6.12945 20.3549 6.12945 20.3549 6.12945 20.3549C6.12945 20.3549 6.12945 20.3549 6.12945 20.3549C6.12945 20.3549 6.12945 20.3549 6.12945 20.3549C6.12945 20.3549 6.12945 20.3549 6.12945 20.3549C6.12945 20.3549 6.12945 20.3549 6.12945 20.3549C6.12945 20.3549 6.12945 20.3549 6.12945 20.3549C6.12945 20.3549 6.12945 20.3549 6.12945 20.3549C6.12945 20.3549 6.12945 20.3549 6.12945 20.3549C6.12945 20.3549 6.12945 20.3549 6.12945 20.3549C6.12945 20.3549 6.12946 20.3549 6.12946 20.3549C6.12946 20.3549 6.12946 20.3549 6.12946 20.3549C6.12946 20.3549 6.12946 20.3549 6.12946 20.3549C6.12946 20.3549 6.12946 20.3549 6.12946 20.3549C6.12946 20.3549 6.12946 20.3549 6.12946 20.3549C6.12946 20.3549 6.12946 20.3549 6.12946 20.3549C6.12946 20.3549 6.12946 20.3549 6.12946 20.3549C6.12946 20.3549 6.12946 20.3549 6.12946 20.3549C6.12946 20.3549 6.12946 20.3549 6.12946 20.3549C6.12946 20.3549 6.12946 20.3549 6.12946 20.3549C6.12946 20.3549 6.12946 20.3549 6.12946 20.3549C6.12947 20.3549 6.12947 20.3549 6.12947 20.3549C6.12947 20.3549 6.12947 20.3549 6.12947 20.3549C6.12947 20.3549 6.12947 20.3549 6.12947 20.3549C6.12947 20.3549 6.12947 20.3549 6.12947 20.3549C6.12947 20.3549 6.12947 20.3549 6.12947 20.3549C6.12947 20.3549 6.12947 20.3549 6.12947 20.3549C6.12947 20.3549 6.12947 20.3549 6.12947 20.3549C6.12947 20.3549 6.12947 20.3549 6.12947 20.3549C6.12947 20.3549 6.12947 20.3549 6.12947 20.3549C6.12947 20.3549 6.12947 20.3549 6.12947 20.3549C6.12947 20.3549 6.12948 20.3549 6.12948 20.3549C6.12948 20.3549 6.12948 20.3549 6.12948 20.3549C6.12948 20.3549 6.12948 20.3549 6.12948 20.3549C6.12948 20.3549 6.12948 20.3549 6.12948 20.3549C6.12948 20.3549 6.12948 20.3549 6.12948 20.3549C6.12948 20.3549 6.12948 20.3549 6.12948 20.3549C6.12948 20.3549 6.12948 20.3549 6.12948 20.3549C6.12948 20.3549 6.12948 20.3549 6.12948 20.3549C6.12948 20.3549 6.12948 20.3549 6.12948 20.3549C6.12948 20.3549 6.12948 20.3549 6.12948 20.3549C6.12948 20.3549 6.12948 20.3549 6.12948 20.3549C6.12949 20.3549 6.12949 20.3549 6.12949 20.3549C6.12949 20.3549 6.12949 20.3549 6.12949 20.3549C6.12949 20.3549 6.12949 20.3549 6.12949 20.3549C6.12949 20.3549 6.12949 20.3549 6.12949 20.3549C6.12949 20.3549 6.12949 20.3549 6.12949 20.3549C6.12949 20.3549 6.12949 20.3549 6.12949 20.3549C6.12949 20.3549 6.12949 20.3549 6.12949 20.3549C6.12949 20.3549 6.12949 20.3549 6.12949 20.3549C6.12949 20.3549 6.12949 20.3549 6.12949 20.3549C6.12949 20.3549 6.12949 20.3549 6.12949 20.3549C6.12949 20.3549 6.12949 20.3549 6.1295 20.3549C6.1295 20.3549 6.1295 20.3549 6.1295 20.3549C6.1295 20.3549 6.1295 20.3549 6.1295 20.3549C6.1295 20.3549 6.1295 20.3549 6.1295 20.3549C6.1295 20.3549 6.1295 20.3549 6.1295 20.3549C6.1295 20.3549 6.1295 20.3549 6.1295 20.3549C6.1295 20.3549 6.1295 20.3549 6.1295 20.3549C6.1295 20.3549 6.1295 20.3549 6.1295 20.3549C6.1295 20.3549 6.1295 20.3549 6.1295 20.3549C6.1295 20.3549 6.1295 20.3549 6.1295 20.3549C6.1295 20.3549 6.1295 20.3549 6.1295 20.3549C6.12951 20.3549 6.12951 20.3549 6.12951 20.3549C6.12951 20.3549 6.12951 20.3549 6.12951 20.3549C6.12951 20.3549 6.12951 20.3549 6.12951 20.3549C6.12951 20.3549 6.12951 20.3549 6.12951 20.3549C6.12951 20.3549 6.12951 20.3549 6.12951 20.3549C6.12951 20.3549 6.12951 20.3549 6.12951 20.3549C6.12951 20.3549 6.12951 20.3549 6.12951 20.3549C6.12951 20.3549 6.12951 20.3549 6.12951 20.3549C6.12951 20.3549 6.12951 20.3549 6.12951 20.3549C6.12951 20.3549 6.12951 20.3549 6.12951 20.3549C6.12951 20.3549 6.12951 20.3549 6.12952 20.3549C6.12952 20.3549 6.12952 20.3549 6.12952 20.3549C6.12952 20.3549 6.12952 20.3549 6.12952 20.3549C6.12952 20.3549 6.12952 20.3549 6.12952 20.3549C6.12952 20.3549 6.12952 20.3549 6.12952 20.3549C6.12952 20.3549 6.12952 20.3549 6.12952 20.3549C6.12952 20.3549 6.12952 20.3549 6.12952 20.3549C6.12952 20.3549 6.12952 20.3549 6.12952 20.3549C6.12952 20.3549 6.12952 20.3549 6.12952 20.3549C6.12952 20.3549 6.12952 20.3549 6.12952 20.3549C6.12952 20.3549 6.12952 20.3549 6.12952 20.3549C6.12953 20.3549 6.12953 20.3549 6.12953 20.3549C6.12953 20.3549 6.12953 20.3549 6.12953 20.3549C6.12953 20.3549 6.12953 20.3549 6.12953 20.3549C6.12953 20.3549 6.12953 20.3549 6.12953 20.3549C6.12953 20.3549 6.12953 20.3549 6.12953 20.3549C6.12953 20.3549 6.12953 20.3549 6.12953 20.3549C6.12953 20.3549 6.12953 20.3549 6.12953 20.3549C6.12953 20.3549 6.12953 20.3549 6.12953 20.3549C6.12953 20.3549 6.12953 20.3549 6.12953 20.3549C6.12953 20.3549 6.12953 20.3549 6.12953 20.3549C6.12953 20.3549 6.12953 20.3549 6.12954 20.3549C6.12954 20.3549 6.12954 20.3549 6.12954 20.3549C6.12954 20.3549 6.12954 20.3549 6.12954 20.3549C6.12954 20.3549 6.12954 20.3549 6.12954 20.3549C6.12954 20.3549 6.12954 20.3549 6.12954 20.3549C6.12954 20.3549 6.12954 20.3549 6.12954 20.3549C6.12954 20.3549 6.12954 20.3549 6.12954 20.3549C6.12954 20.3549 6.12954 20.3549 6.12954 20.3549C6.12954 20.3549 6.12954 20.3549 6.12954 20.3549C6.12954 20.3549 6.12954 20.3549 6.12954 20.3549C6.12954 20.3549 6.12954 20.3549 6.12954 20.3549C6.12955 20.3549 6.12955 20.3549 6.12955 20.3549C6.12955 20.3549 6.12955 20.3549 6.12955 20.3549C6.12955 20.3549 6.12955 20.3549 6.12955 20.3549C6.12955 20.3549 6.12955 20.3549 6.12955 20.3549C6.12955 20.3549 6.12955 20.3549 6.12955 20.3549C6.12955 20.3549 6.12955 20.3549 6.12955 20.3549C6.12955 20.3549 6.12955 20.3549 6.12955 20.3549C6.12955 20.3549 6.12955 20.3549 6.12955 20.3549C6.12955 20.3549 6.12955 20.3549 6.12955 20.3549C6.12955 20.3549 6.12955 20.3549 6.12955 20.3549C6.12955 20.3549 6.12955 20.3549 6.12956 20.3549C6.12956 20.3549 6.12956 20.3549 6.12956 20.3549C6.12956 20.3549 6.12956 20.3549 6.12956 20.3549C6.12956 20.3549 6.12956 20.3549 6.12956 20.3549C6.12956 20.3549 6.12956 20.3549 6.12956 20.3549C6.12956 20.3549 6.12956 20.3549 6.12956 20.3549C6.12956 20.3549 6.12956 20.3549 6.12956 20.3549C6.12956 20.3549 6.12956 20.3549 6.12956 20.3549C6.12956 20.3549 6.12956 20.3549 6.12956 20.3549C6.12956 20.3549 6.12956 20.3549 6.12956 20.3549C6.12956 20.3549 6.12956 20.3549 6.12956 20.3549C6.12956 20.3549 6.12957 20.3549 6.12957 20.3549C6.12957 20.3549 6.12957 20.3549 6.12957 20.3549C6.12957 20.3549 6.12957 20.3549 6.12957 20.3549C6.12957 20.3549 6.12957 20.3549 6.12957 20.3549C6.12957 20.3549 6.12957 20.3549 6.12957 20.3549C6.12957 20.3549 6.12957 20.3549 6.12957 20.3549C6.12957 20.3549 6.12957 20.3549 6.12957 20.3549C6.12957 20.3549 6.12957 20.3549 6.12957 20.3549C6.12957 20.3549 6.12957 20.3549 6.12957 20.3549C6.12957 20.3549 6.12957 20.3549 6.12957 20.3549C6.12957 20.3549 6.12957 20.3549 6.12958 20.3549C6.12958 20.3549 6.12958 20.3549 6.12958 20.3549C6.12958 20.3549 6.12958 20.3549 6.12958 20.3549C6.12958 20.3549 6.12958 20.3549 6.12958 20.3549C6.12958 20.3549 6.12958 20.3549 6.12958 20.3549C6.12958 20.3549 6.12958 20.3549 6.12958 20.3549C6.12958 20.3549 6.12958 20.3549 6.12958 20.3549C6.12958 20.3549 6.12958 20.3549 6.12958 20.3549C6.12958 20.3549 6.12958 20.3549 6.12958 20.3549C6.12958 20.3549 6.12958 20.3549 6.12958 20.3549C6.12958 20.3549 6.12958 20.3549 6.12958 20.3549C6.12958 20.3549 6.12959 20.3549 6.12959 20.3549C6.12959 20.3549 6.12959 20.3549 6.12959 20.3549C6.12959 20.3549 6.12959 20.3549 6.12959 20.3549C6.12959 20.3549 6.12959 20.3549 6.12959 20.3549C6.12959 20.3549 6.12959 20.3549 6.12959 20.3549C6.12959 20.3549 6.12959 20.3549 6.12959 20.3549C6.12959 20.3549 6.12959 20.3549 6.12959 20.3549C6.12959 20.3549 6.12959 20.3549 6.12959 20.3549C6.12959 20.3549 6.12959 20.3549 6.12959 20.3549C6.12959 20.3549 6.12959 20.3549 6.12959 20.3549C6.12959 20.3549 6.12959 20.3549 6.1296 20.3549C6.1296 20.3549 6.1296 20.3549 6.1296 20.3549C6.1296 20.3549 6.1296 20.3549 6.1296 20.3549C6.1296 20.3549 6.1296 20.3549 6.1296 20.3549C6.1296 20.3549 6.1296 20.3549 6.1296 20.3549C6.1296 20.3549 6.1296 20.3549 6.1296 20.3549C6.1296 20.3549 6.1296 20.3549 6.1296 20.3549C6.1296 20.3549 6.1296 20.3549 6.1296 20.3549C6.1296 20.3549 6.1296 20.3549 6.1296 20.3549C6.1296 20.3549 6.1296 20.3549 6.1296 20.3549C6.1296 20.3549 6.1296 20.3549 6.1296 20.3549C6.1296 20.3549 6.12961 20.3549 6.12961 20.3549C6.12961 20.3549 6.12961 20.3549 6.12961 20.3549C6.12961 20.3549 6.12961 20.3549 6.12961 20.3549C6.12961 20.3549 6.12961 20.3549 6.12961 20.3549C6.12961 20.3549 6.12961 20.3549 6.12961 20.3549C6.12961 20.3549 6.12961 20.3549 6.12961 20.3549C6.12961 20.3549 6.12961 20.3549 6.12961 20.3549C6.12961 20.3549 6.12961 20.3549 6.12961 20.3549C6.12961 20.3549 6.12961 20.3549 6.12961 20.3549C6.12961 20.3549 6.12961 20.3549 6.12961 20.3549C6.12961 20.3549 6.12961 20.3549 6.12961 20.3549C6.12962 20.3549 6.12962 20.3549 6.12962 20.3549C6.12962 20.3549 6.12962 20.3549 6.12962 20.3549C6.12962 20.3549 6.12962 20.3549 6.12962 20.3549C6.12962 20.3549 6.12962 20.3549 6.12962 20.3549C6.12962 20.3549 6.12962 20.3549 6.12962 20.3549C6.12962 20.3549 6.12962 20.3549 6.12962 20.3549C6.12962 20.3549 6.12962 20.3549 6.12962 20.3549C6.12962 20.3549 6.12962 20.3549 6.12962 20.3549C6.12962 20.3549 6.12962 20.3549 6.12962 20.3549C6.12962 20.3549 6.12962 20.3549 6.12962 20.3549C6.12962 20.3549 6.12963 20.3549 6.12963 20.3549C6.12963 20.3549 6.12963 20.3549 6.12963 20.3549C6.12963 20.3549 6.12963 20.3549 6.12963 20.3549C6.12963 20.3549 6.12963 20.3549 6.12963 20.3549C6.12963 20.3549 6.12963 20.3549 6.12963 20.3549C6.12963 20.3549 6.12963 20.3549 6.12963 20.3549C6.12963 20.3549 6.12963 20.3549 6.12963 20.3549C6.12963 20.3549 6.12963 20.3549 6.12963 20.3549C6.12963 20.3549 6.12963 20.3549 6.12963 20.3549C6.12963 20.3549 6.12963 20.3549 6.12963 20.3549C6.12963 20.3549 6.12963 20.3549 6.12963 20.3549C6.12964 20.3549 6.12964 20.3549 6.12964 20.3549C6.12964 20.3549 6.12964 20.3549 6.12964 20.3549C6.12964 20.3549 6.12964 20.3549 6.12964 20.3549C6.12964 20.3549 6.12964 20.3549 6.12964 20.3549C6.12964 20.3549 6.12964 20.3549 6.12964 20.3549C6.12964 20.3549 6.12964 20.3549 6.12964 20.3549C6.12964 20.3549 6.12964 20.3549 6.12964 20.3549C6.12964 20.3549 6.12964 20.3549 6.12964 20.3549C6.12964 20.3549 6.12964 20.3549 6.12964 20.3549C6.12964 20.3549 6.12964 20.3549 6.12964 20.3549C6.12964 20.3549 6.12965 20.3549 6.12965 20.3549C6.12965 20.3549 6.12965 20.3549 6.12965 20.3549C6.12965 20.3549 6.12965 20.3549 6.12965 20.3549C6.12965 20.3549 6.12965 20.3549 6.12965 20.3549C6.12965 20.3549 6.12965 20.3549 6.12965 20.3549C6.12965 20.3549 6.12965 20.3549 6.12965 20.3549C6.12965 20.3549 6.12965 20.3549 6.12965 20.3549C6.12965 20.3549 6.12965 20.3549 6.12965 20.3549C6.12965 20.3549 6.12965 20.3549 6.12965 20.3549C6.12965 20.3549 6.12965 20.3549 6.12965 20.3549C6.12965 20.3549 6.12965 20.3549 6.12965 20.3549C6.12966 20.3549 6.12966 20.3549 6.12966 20.3549C6.12966 20.3549 6.12966 20.3549 6.12966 20.3549C6.12966 20.3549 6.12966 20.3549 6.12966 20.3549C6.12966 20.3549 6.12966 20.3549 6.12966 20.3549C6.12966 20.3549 6.12966 20.3549 6.12966 20.3549C6.12966 20.3549 6.12966 20.3549 6.12966 20.3549C6.12966 20.3549 6.12966 20.3549 6.12966 20.3549C6.12966 20.3549 6.12966 20.3549 6.12966 20.3549C6.12966 20.3549 6.12966 20.3549 6.12966 20.3549C6.12966 20.3549 6.12966 20.3549 6.12966 20.3549C6.12966 20.3549 6.12967 20.3549 6.12967 20.3549C6.12967 20.3549 6.12967 20.3549 6.12967 20.3549C6.12967 20.3549 6.12967 20.3549 6.12967 20.3549C6.12967 20.3549 6.12967 20.3549 6.12967 20.3549C6.12967 20.3549 6.12967 20.3549 6.12967 20.3549C6.12967 20.3549 6.12967 20.3549 6.12967 20.3549C6.12967 20.3549 6.12967 20.3549 6.12967 20.3549C6.12967 20.3549 6.12967 20.3549 6.12967 20.3549C6.12967 20.3549 6.12967 20.3549 6.12967 20.3549C6.12967 20.3549 6.12967 20.3549 6.12967 20.3549C6.12967 20.3549 6.12967 20.3549 6.12967 20.3549C6.12968 20.3549 6.12968 20.3549 6.12968 20.3549C6.12968 20.3549 6.12968 20.3549 6.12968 20.3549C6.12968 20.3549 6.12968 20.3549 6.12968 20.3549C6.12968 20.3549 6.12968 20.3549 6.12968 20.3549C6.12968 20.3549 6.12968 20.3549 6.12968 20.3549C6.12968 20.3549 6.12968 20.3549 6.12968 20.3549C6.12968 20.3549 6.12968 20.3549 6.12968 20.3549C6.12968 20.3549 6.12968 20.3549 6.12968 20.3549C6.12968 20.3549 6.12968 20.3549 6.12968 20.3549C6.12968 20.3549 6.12968 20.3549 6.12968 20.3549C6.12968 20.3549 6.12968 20.3549 6.12969 20.3549C6.12969 20.3549 6.12969 20.3549 6.12969 20.3549C6.12969 20.3549 6.12969 20.3549 6.12969 20.3549C6.12969 20.3549 6.12969 20.3549 6.12969 20.3549C6.12969 20.3549 6.12969 20.3549 6.12969 20.3549C6.12969 20.3549 6.12969 20.3549 6.12969 20.3549C6.12969 20.3549 6.12969 20.3549 6.12969 20.3549C6.12969 20.3549 6.12969 20.3549 6.12969 20.3549C6.12969 20.3549 6.12969 20.3549 6.12969 20.3549C6.12969 20.3549 6.12969 20.3549 6.12969 20.3549C6.12969 20.3549 6.12969 20.3549 6.12969 20.3549C6.1297 20.3549 6.1297 20.3549 6.1297 20.3549C6.1297 20.3549 6.1297 20.3549 6.1297 20.3549C6.1297 20.3549 6.1297 20.3549 6.1297 20.3549C6.1297 20.3549 6.1297 20.3549 6.1297 20.3549C6.1297 20.3549 6.1297 20.3549 6.1297 20.3549C6.1297 20.3549 6.1297 20.3549 6.1297 20.3549C6.1297 20.3549 6.1297 20.3549 6.1297 20.3549C6.1297 20.3549 6.1297 20.3549 6.1297 20.3549C6.1297 20.3549 6.1297 20.3549 6.1297 20.3549C6.1297 20.3549 6.1297 20.3549 6.1297 20.3549C6.1297 20.3549 6.1297 20.3549 6.12971 20.3549C6.12971 20.3549 6.12971 20.3549 6.12971 20.3549C6.12971 20.3549 6.12971 20.3549 6.12971 20.3549C6.12971 20.3549 6.12971 20.3549 6.12971 20.3549C6.12971 20.3549 6.12971 20.3549 6.12971 20.3549C6.12971 20.3549 6.12971 20.3549 6.12971 20.3549C6.12971 20.3549 6.12971 20.3549 6.12971 20.3549C6.12971 20.3549 6.12971 20.3549 6.12971 20.3549C6.12971 20.3549 6.12971 20.3549 6.12971 20.3549C6.12971 20.3549 6.12971 20.3549 6.12971 20.3549C6.12971 20.3549 6.12971 20.3549 6.12971 20.3549C6.12972 20.3549 6.12972 20.3549 6.12972 20.3549C6.12972 20.3549 6.12972 20.3549 6.12972 20.3549C6.12972 20.3549 6.12972 20.3549 6.12972 20.3549C6.12972 20.3549 6.12972 20.3549 6.12972 20.3549C6.12972 20.3549 6.12972 20.3549 6.12972 20.3549C6.12972 20.3549 6.12972 20.3549 6.12972 20.3549C6.12972 20.3549 6.12972 20.3549 6.12972 20.3549C6.12972 20.3549 6.12972 20.3549 6.12972 20.3549C6.12972 20.3549 6.12972 20.3549 6.12972 20.3549C6.12972 20.3549 6.12972 20.3549 6.12972 20.3549C6.12972 20.3549 6.12972 20.3549 6.12973 20.3549C6.12973 20.3549 6.12973 20.3549 6.12973 20.3549C6.12973 20.3549 6.12973 20.3549 6.12973 20.3549C6.12973 20.3549 6.12973 20.3549 6.12973 20.3549C6.12973 20.3549 6.12973 20.3549 6.12973 20.3549C6.12973 20.3549 6.12973 20.3549 6.12973 20.3549C6.12973 20.3549 6.12973 20.3549 6.12973 20.3549C6.12973 20.3549 6.12973 20.3549 6.12973 20.3549C6.12973 20.3549 6.12973 20.3549 6.12973 20.3549C6.12973 20.3549 6.12973 20.3549 6.12973 20.3549C6.12973 20.3549 6.12973 20.3549 6.12973 20.3549C6.12973 20.3549 6.12974 20.3549 6.12974 20.3549C6.12974 20.3549 6.12974 20.3549 6.12974 20.3549C6.12974 20.3549 6.12974 20.3549 6.12974 20.3549C6.12974 20.3549 6.12974 20.3549 6.12974 20.3549C6.12974 20.3549 6.12974 20.3549 6.12974 20.3549C6.12974 20.3549 6.12974 20.3549 6.12974 20.3549C6.12974 20.3549 6.12974 20.3549 6.12974 20.3549C6.12974 20.3549 6.12974 20.3549 6.12974 20.3549C6.12974 20.3549 6.12974 20.3549 6.12974 20.3549C6.12974 20.3549 6.12974 20.3549 6.12974 20.3549C6.12974 20.3549 6.12974 20.3549 6.12975 20.3549C6.12975 20.3549 6.12975 20.3549 6.12975 20.3549C6.12975 20.3549 6.12975 20.3549 6.12975 20.3549C6.12975 20.3549 6.12975 20.3549 6.12975 20.3549C6.12975 20.3549 6.12975 20.3549 6.12975 20.3549C6.12975 20.3549 6.12975 20.3549 6.12975 20.3549C6.12975 20.3549 6.12975 20.3549 6.12975 20.3549C6.12975 20.3549 6.12975 20.3549 6.12975 20.3549C6.12975 20.3549 6.12975 20.3549 6.12975 20.3549C6.12975 20.3549 6.12975 20.3549 6.12975 20.3549C6.12975 20.3549 6.12975 20.3549 6.12975 20.3549C6.12975 20.3549 6.12976 20.3549 6.12976 20.3549C6.12976 20.3549 6.12976 20.3549 6.12976 20.3549C6.12976 20.3549 6.12976 20.3549 6.12976 20.3549C6.12976 20.3549 6.12976 20.3549 6.12976 20.3549C6.12976 20.3549 6.12976 20.3549 6.12976 20.3549C6.12976 20.3549 6.12976 20.3549 6.12976 20.3549C6.12976 20.3549 6.12976 20.3549 6.12976 20.3549C6.12976 20.3549 6.12976 20.3549 6.12976 20.3549C6.12976 20.3549 6.12976 20.3549 6.12976 20.3549C6.12976 20.3549 6.12976 20.3549 6.12976 20.3549C6.12976 20.3549 6.12976 20.3549 6.12977 20.3549C6.12977 20.3549 6.12977 20.3549 6.12977 20.3549C6.12977 20.3549 6.12977 20.3549 6.12977 20.3549C6.12977 20.3549 6.12977 20.3549 6.12977 20.3549C6.12977 20.3549 6.12977 20.3549 6.12977 20.3549C6.12977 20.3549 6.12977 20.3549 6.12977 20.3549C6.12977 20.3549 6.12977 20.3549 6.12977 20.3549C6.12977 20.3549 6.12977 20.3549 6.12977 20.3549C6.12977 20.3549 6.12977 20.3549 6.12977 20.3549L6.1533 19.3551C6.1533 19.3551 6.15329 19.3551 6.15329 19.3551C6.15329 19.3551 6.15329 19.3551 6.15329 19.3551C6.15329 19.3551 6.15329 19.3551 6.15329 19.3551C6.15329 19.3551 6.15329 19.3551 6.15329 19.3551C6.15329 19.3551 6.15329 19.3551 6.15329 19.3551C6.15329 19.3551 6.15329 19.3551 6.15329 19.3551C6.15329 19.3551 6.15329 19.3551 6.15329 19.3551C6.15329 19.3551 6.15329 19.3551 6.15329 19.3551C6.15329 19.3551 6.15329 19.3551 6.15329 19.3551C6.15329 19.3551 6.15329 19.3551 6.15329 19.3551C6.15329 19.3551 6.15329 19.3551 6.15329 19.3551C6.15328 19.3551 6.15328 19.3551 6.15328 19.3551C6.15328 19.3551 6.15328 19.3551 6.15328 19.3551C6.15328 19.3551 6.15328 19.3551 6.15328 19.3551C6.15328 19.3551 6.15328 19.3551 6.15328 19.3551C6.15328 19.3551 6.15328 19.3551 6.15328 19.3551C6.15328 19.3551 6.15328 19.3551 6.15328 19.3551C6.15328 19.3551 6.15328 19.3551 6.15328 19.3551C6.15328 19.3551 6.15328 19.3551 6.15328 19.3551C6.15328 19.3551 6.15328 19.3551 6.15328 19.3551C6.15328 19.3551 6.15328 19.3551 6.15328 19.3551C6.15328 19.3551 6.15328 19.3551 6.15327 19.3551C6.15327 19.3551 6.15327 19.3551 6.15327 19.3551C6.15327 19.3551 6.15327 19.3551 6.15327 19.3551C6.15327 19.3551 6.15327 19.3551 6.15327 19.3551C6.15327 19.3551 6.15327 19.3551 6.15327 19.3551C6.15327 19.3551 6.15327 19.3551 6.15327 19.3551C6.15327 19.3551 6.15327 19.3551 6.15327 19.3551C6.15327 19.3551 6.15327 19.3551 6.15327 19.3551C6.15327 19.3551 6.15327 19.3551 6.15327 19.3551C6.15327 19.3551 6.15327 19.3551 6.15327 19.3551C6.15327 19.3551 6.15327 19.3551 6.15327 19.3551C6.15326 19.3551 6.15326 19.3551 6.15326 19.3551C6.15326 19.3551 6.15326 19.3551 6.15326 19.3551C6.15326 19.3551 6.15326 19.3551 6.15326 19.3551C6.15326 19.3551 6.15326 19.3551 6.15326 19.3551C6.15326 19.3551 6.15326 19.3551 6.15326 19.3551C6.15326 19.3551 6.15326 19.3551 6.15326 19.3551C6.15326 19.3551 6.15326 19.3551 6.15326 19.3551C6.15326 19.3551 6.15326 19.3551 6.15326 19.3551C6.15326 19.3551 6.15326 19.3551 6.15326 19.3551C6.15326 19.3551 6.15326 19.3551 6.15326 19.3551C6.15326 19.3551 6.15326 19.3551 6.15325 19.3551C6.15325 19.3551 6.15325 19.3551 6.15325 19.3551C6.15325 19.3551 6.15325 19.3551 6.15325 19.3551C6.15325 19.3551 6.15325 19.3551 6.15325 19.3551C6.15325 19.3551 6.15325 19.3551 6.15325 19.3551C6.15325 19.3551 6.15325 19.3551 6.15325 19.3551C6.15325 19.3551 6.15325 19.3551 6.15325 19.3551C6.15325 19.3551 6.15325 19.3551 6.15325 19.3551C6.15325 19.3551 6.15325 19.3551 6.15325 19.3551C6.15325 19.3551 6.15325 19.3551 6.15325 19.3551C6.15325 19.3551 6.15325 19.3551 6.15325 19.3551C6.15324 19.3551 6.15324 19.3551 6.15324 19.3551C6.15324 19.3551 6.15324 19.3551 6.15324 19.3551C6.15324 19.3551 6.15324 19.3551 6.15324 19.3551C6.15324 19.3551 6.15324 19.3551 6.15324 19.3551C6.15324 19.3551 6.15324 19.3551 6.15324 19.3551C6.15324 19.3551 6.15324 19.3551 6.15324 19.3551C6.15324 19.3551 6.15324 19.3551 6.15324 19.3551C6.15324 19.3551 6.15324 19.3551 6.15324 19.3551C6.15324 19.3551 6.15324 19.3551 6.15324 19.3551C6.15324 19.3551 6.15324 19.3551 6.15324 19.3551C6.15324 19.3551 6.15324 19.3551 6.15323 19.3551C6.15323 19.3551 6.15323 19.3551 6.15323 19.3551C6.15323 19.3551 6.15323 19.3551 6.15323 19.3551C6.15323 19.3551 6.15323 19.3551 6.15323 19.3551C6.15323 19.3551 6.15323 19.3551 6.15323 19.3551C6.15323 19.3551 6.15323 19.3551 6.15323 19.3551C6.15323 19.3551 6.15323 19.3551 6.15323 19.3551C6.15323 19.3551 6.15323 19.3551 6.15323 19.3551C6.15323 19.3551 6.15323 19.3551 6.15323 19.3551C6.15323 19.3551 6.15323 19.3551 6.15323 19.3551C6.15323 19.3551 6.15323 19.3551 6.15323 19.3551C6.15322 19.3551 6.15322 19.3551 6.15322 19.3551C6.15322 19.3551 6.15322 19.3551 6.15322 19.3551C6.15322 19.3551 6.15322 19.3551 6.15322 19.3551C6.15322 19.3551 6.15322 19.3551 6.15322 19.3551C6.15322 19.3551 6.15322 19.3551 6.15322 19.3551C6.15322 19.3551 6.15322 19.3551 6.15322 19.3551C6.15322 19.3551 6.15322 19.3551 6.15322 19.3551C6.15322 19.3551 6.15322 19.3551 6.15322 19.3551C6.15322 19.3551 6.15322 19.3551 6.15322 19.3551C6.15322 19.3551 6.15322 19.3551 6.15322 19.3551C6.15322 19.3551 6.15322 19.3551 6.15321 19.3551C6.15321 19.3551 6.15321 19.3551 6.15321 19.3551C6.15321 19.3551 6.15321 19.3551 6.15321 19.3551C6.15321 19.3551 6.15321 19.3551 6.15321 19.3551C6.15321 19.3551 6.15321 19.3551 6.15321 19.3551C6.15321 19.3551 6.15321 19.3551 6.15321 19.3551C6.15321 19.3551 6.15321 19.3551 6.15321 19.3551C6.15321 19.3551 6.15321 19.3551 6.15321 19.3551C6.15321 19.3551 6.15321 19.3551 6.15321 19.3551C6.15321 19.3551 6.15321 19.3551 6.15321 19.3551C6.15321 19.3551 6.15321 19.3551 6.15321 19.3551C6.15321 19.3551 6.1532 19.3551 6.1532 19.3551C6.1532 19.3551 6.1532 19.3551 6.1532 19.3551C6.1532 19.3551 6.1532 19.3551 6.1532 19.3551C6.1532 19.3551 6.1532 19.3551 6.1532 19.3551C6.1532 19.3551 6.1532 19.3551 6.1532 19.3551C6.1532 19.3551 6.1532 19.3551 6.1532 19.3551C6.1532 19.3551 6.1532 19.3551 6.1532 19.3551C6.1532 19.3551 6.1532 19.3551 6.1532 19.3551C6.1532 19.3551 6.1532 19.3551 6.1532 19.3551C6.1532 19.3551 6.1532 19.3551 6.1532 19.3551C6.1532 19.3551 6.1532 19.3551 6.15319 19.3551C6.15319 19.3551 6.15319 19.3551 6.15319 19.3551C6.15319 19.3551 6.15319 19.3551 6.15319 19.3551C6.15319 19.3551 6.15319 19.3551 6.15319 19.3551C6.15319 19.3551 6.15319 19.3551 6.15319 19.3551C6.15319 19.3551 6.15319 19.3551 6.15319 19.3551C6.15319 19.3551 6.15319 19.3551 6.15319 19.3551C6.15319 19.3551 6.15319 19.3551 6.15319 19.3551C6.15319 19.3551 6.15319 19.3551 6.15319 19.3551C6.15319 19.3551 6.15319 19.3551 6.15319 19.3551C6.15319 19.3551 6.15319 19.3551 6.15319 19.3551C6.15319 19.3551 6.15318 19.3551 6.15318 19.3551C6.15318 19.3551 6.15318 19.3551 6.15318 19.3551C6.15318 19.3551 6.15318 19.3551 6.15318 19.3551C6.15318 19.3551 6.15318 19.3551 6.15318 19.3551C6.15318 19.3551 6.15318 19.3551 6.15318 19.3551C6.15318 19.3551 6.15318 19.3551 6.15318 19.3551C6.15318 19.3551 6.15318 19.3551 6.15318 19.3551C6.15318 19.3551 6.15318 19.3551 6.15318 19.3551C6.15318 19.3551 6.15318 19.3551 6.15318 19.3551C6.15318 19.3551 6.15318 19.3551 6.15318 19.3551C6.15318 19.3551 6.15318 19.3551 6.15317 19.3551C6.15317 19.3551 6.15317 19.3551 6.15317 19.3551C6.15317 19.3551 6.15317 19.3551 6.15317 19.3551C6.15317 19.3551 6.15317 19.3551 6.15317 19.3551C6.15317 19.3551 6.15317 19.3551 6.15317 19.3551C6.15317 19.3551 6.15317 19.3551 6.15317 19.3551C6.15317 19.3551 6.15317 19.3551 6.15317 19.3551C6.15317 19.3551 6.15317 19.3551 6.15317 19.3551C6.15317 19.3551 6.15317 19.3551 6.15317 19.3551C6.15317 19.3551 6.15317 19.3551 6.15317 19.3551C6.15317 19.3551 6.15317 19.3551 6.15317 19.3551C6.15317 19.3551 6.15316 19.3551 6.15316 19.3551C6.15316 19.3551 6.15316 19.3551 6.15316 19.3551C6.15316 19.3551 6.15316 19.3551 6.15316 19.3551C6.15316 19.3551 6.15316 19.3551 6.15316 19.3551C6.15316 19.3551 6.15316 19.3551 6.15316 19.3551C6.15316 19.3551 6.15316 19.3551 6.15316 19.3551C6.15316 19.3551 6.15316 19.3551 6.15316 19.3551C6.15316 19.3551 6.15316 19.3551 6.15316 19.3551C6.15316 19.3551 6.15316 19.3551 6.15316 19.3551C6.15316 19.3551 6.15316 19.3551 6.15316 19.3551C6.15316 19.3551 6.15316 19.3551 6.15316 19.3551C6.15315 19.3551 6.15315 19.3551 6.15315 19.3551C6.15315 19.3551 6.15315 19.3551 6.15315 19.3551C6.15315 19.3551 6.15315 19.3551 6.15315 19.3551C6.15315 19.3551 6.15315 19.3551 6.15315 19.3551C6.15315 19.3551 6.15315 19.3551 6.15315 19.3551C6.15315 19.3551 6.15315 19.3551 6.15315 19.3551C6.15315 19.3551 6.15315 19.3551 6.15315 19.3551C6.15315 19.3551 6.15315 19.3551 6.15315 19.3551C6.15315 19.3551 6.15315 19.3551 6.15315 19.3551C6.15315 19.3551 6.15315 19.3551 6.15315 19.3551C6.15315 19.3551 6.15314 19.3551 6.15314 19.3551C6.15314 19.3551 6.15314 19.3551 6.15314 19.3551C6.15314 19.3551 6.15314 19.3551 6.15314 19.3551C6.15314 19.3551 6.15314 19.3551 6.15314 19.3551C6.15314 19.3551 6.15314 19.3551 6.15314 19.3551C6.15314 19.3551 6.15314 19.3551 6.15314 19.3551C6.15314 19.3551 6.15314 19.3551 6.15314 19.3551C6.15314 19.3551 6.15314 19.3551 6.15314 19.3551C6.15314 19.3551 6.15314 19.3551 6.15314 19.3551C6.15314 19.3551 6.15314 19.3551 6.15314 19.3551C6.15314 19.3551 6.15314 19.3551 6.15314 19.3551C6.15313 19.3551 6.15313 19.3551 6.15313 19.3551C6.15313 19.3551 6.15313 19.3551 6.15313 19.3551C6.15313 19.3551 6.15313 19.3551 6.15313 19.3551C6.15313 19.3551 6.15313 19.3551 6.15313 19.3551C6.15313 19.3551 6.15313 19.3551 6.15313 19.3551C6.15313 19.3551 6.15313 19.3551 6.15313 19.3551C6.15313 19.3551 6.15313 19.3551 6.15313 19.3551C6.15313 19.3551 6.15313 19.3551 6.15313 19.3551C6.15313 19.3551 6.15313 19.3551 6.15313 19.3551C6.15313 19.3551 6.15313 19.3551 6.15313 19.3551C6.15313 19.3551 6.15312 19.3551 6.15312 19.3551C6.15312 19.3551 6.15312 19.3551 6.15312 19.3551C6.15312 19.3551 6.15312 19.3551 6.15312 19.3551C6.15312 19.3551 6.15312 19.3551 6.15312 19.3551C6.15312 19.3551 6.15312 19.3551 6.15312 19.3551C6.15312 19.3551 6.15312 19.3551 6.15312 19.3551C6.15312 19.3551 6.15312 19.3551 6.15312 19.3551C6.15312 19.3551 6.15312 19.3551 6.15312 19.3551C6.15312 19.3551 6.15312 19.3551 6.15312 19.3551C6.15312 19.3551 6.15312 19.3551 6.15312 19.3551C6.15312 19.3551 6.15312 19.3551 6.15312 19.3551C6.15311 19.3551 6.15311 19.3551 6.15311 19.3551C6.15311 19.3551 6.15311 19.3551 6.15311 19.3551C6.15311 19.3551 6.15311 19.3551 6.15311 19.3551C6.15311 19.3551 6.15311 19.3551 6.15311 19.3551C6.15311 19.3551 6.15311 19.3551 6.15311 19.3551C6.15311 19.3551 6.15311 19.3551 6.15311 19.3551C6.15311 19.3551 6.15311 19.3551 6.15311 19.3551C6.15311 19.3551 6.15311 19.3551 6.15311 19.3551C6.15311 19.3551 6.15311 19.3551 6.15311 19.3551C6.15311 19.3551 6.15311 19.3551 6.15311 19.3551C6.15311 19.3551 6.1531 19.3551 6.1531 19.3551C6.1531 19.3551 6.1531 19.3551 6.1531 19.3551C6.1531 19.3551 6.1531 19.3551 6.1531 19.3551C6.1531 19.3551 6.1531 19.3551 6.1531 19.3551C6.1531 19.3551 6.1531 19.3551 6.1531 19.3551C6.1531 19.3551 6.1531 19.3551 6.1531 19.3551C6.1531 19.3551 6.1531 19.3551 6.1531 19.3551C6.1531 19.3551 6.1531 19.3551 6.1531 19.3551C6.1531 19.3551 6.1531 19.3551 6.1531 19.3551C6.1531 19.3551 6.1531 19.3551 6.1531 19.3551C6.1531 19.3551 6.1531 19.3551 6.1531 19.3551C6.15309 19.3551 6.15309 19.3551 6.15309 19.3551C6.15309 19.3551 6.15309 19.3551 6.15309 19.3551C6.15309 19.3551 6.15309 19.3551 6.15309 19.3551C6.15309 19.3551 6.15309 19.3551 6.15309 19.3551C6.15309 19.3551 6.15309 19.3551 6.15309 19.3551C6.15309 19.3551 6.15309 19.3551 6.15309 19.3551C6.15309 19.3551 6.15309 19.3551 6.15309 19.3551C6.15309 19.3551 6.15309 19.3551 6.15309 19.3551C6.15309 19.3551 6.15309 19.3551 6.15309 19.3551C6.15309 19.3551 6.15309 19.3551 6.15309 19.3551C6.15309 19.3551 6.15309 19.3551 6.15308 19.3551C6.15308 19.3551 6.15308 19.3551 6.15308 19.3551C6.15308 19.3551 6.15308 19.3551 6.15308 19.3551C6.15308 19.3551 6.15308 19.3551 6.15308 19.3551C6.15308 19.3551 6.15308 19.3551 6.15308 19.3551C6.15308 19.3551 6.15308 19.3551 6.15308 19.3551C6.15308 19.3551 6.15308 19.3551 6.15308 19.3551C6.15308 19.3551 6.15308 19.3551 6.15308 19.3551C6.15308 19.3551 6.15308 19.3551 6.15308 19.3551C6.15308 19.3551 6.15308 19.3551 6.15308 19.3551C6.15308 19.3551 6.15308 19.3551 6.15308 19.3551C6.15307 19.3551 6.15307 19.3551 6.15307 19.3551C6.15307 19.3551 6.15307 19.3551 6.15307 19.3551C6.15307 19.3551 6.15307 19.3551 6.15307 19.3551C6.15307 19.3551 6.15307 19.3551 6.15307 19.3551C6.15307 19.3551 6.15307 19.3551 6.15307 19.3551C6.15307 19.3551 6.15307 19.3551 6.15307 19.3551C6.15307 19.3551 6.15307 19.3551 6.15307 19.3551C6.15307 19.3551 6.15307 19.3551 6.15307 19.3551C6.15307 19.3551 6.15307 19.3551 6.15307 19.3551C6.15307 19.3551 6.15307 19.3551 6.15307 19.3551C6.15307 19.3551 6.15307 19.3551 6.15306 19.3551C6.15306 19.3551 6.15306 19.3551 6.15306 19.3551C6.15306 19.3551 6.15306 19.3551 6.15306 19.3551C6.15306 19.3551 6.15306 19.3551 6.15306 19.3551C6.15306 19.3551 6.15306 19.3551 6.15306 19.3551C6.15306 19.3551 6.15306 19.3551 6.15306 19.3551C6.15306 19.3551 6.15306 19.3551 6.15306 19.3551C6.15306 19.3551 6.15306 19.3551 6.15306 19.3551C6.15306 19.3551 6.15306 19.3551 6.15306 19.3551C6.15306 19.3551 6.15306 19.3551 6.15306 19.3551C6.15306 19.3551 6.15306 19.3551 6.15306 19.3551C6.15305 19.3551 6.15305 19.3551 6.15305 19.3551C6.15305 19.3551 6.15305 19.3551 6.15305 19.3551C6.15305 19.3551 6.15305 19.3551 6.15305 19.3551C6.15305 19.3551 6.15305 19.3551 6.15305 19.3551C6.15305 19.3551 6.15305 19.3551 6.15305 19.3551C6.15305 19.3551 6.15305 19.3551 6.15305 19.3551C6.15305 19.3551 6.15305 19.3551 6.15305 19.3551C6.15305 19.3551 6.15305 19.3551 6.15305 19.3551C6.15305 19.3551 6.15305 19.3551 6.15305 19.3551C6.15305 19.3551 6.15305 19.3551 6.15305 19.3551C6.15305 19.3551 6.15305 19.3551 6.15304 19.3551C6.15304 19.3551 6.15304 19.3551 6.15304 19.3551C6.15304 19.3551 6.15304 19.3551 6.15304 19.3551C6.15304 19.3551 6.15304 19.3551 6.15304 19.3551C6.15304 19.3551 6.15304 19.3551 6.15304 19.3551C6.15304 19.3551 6.15304 19.3551 6.15304 19.3551C6.15304 19.3551 6.15304 19.3551 6.15304 19.3551C6.15304 19.3551 6.15304 19.3551 6.15304 19.3551C6.15304 19.3551 6.15304 19.3551 6.15304 19.3551C6.15304 19.3551 6.15304 19.3551 6.15304 19.3551C6.15304 19.3551 6.15304 19.3551 6.15304 19.3551C6.15304 19.3551 6.15303 19.3551 6.15303 19.3551C6.15303 19.3551 6.15303 19.3551 6.15303 19.3551C6.15303 19.3551 6.15303 19.3551 6.15303 19.3551C6.15303 19.3551 6.15303 19.3551 6.15303 19.3551C6.15303 19.3551 6.15303 19.3551 6.15303 19.3551C6.15303 19.3551 6.15303 19.3551 6.15303 19.3551C6.15303 19.3551 6.15303 19.3551 6.15303 19.3551C6.15303 19.3551 6.15303 19.3551 6.15303 19.3551C6.15303 19.3551 6.15303 19.3551 6.15303 19.3551C6.15303 19.3551 6.15303 19.3551 6.15303 19.3551C6.15303 19.3551 6.15303 19.3551 6.15302 19.3551C6.15302 19.3551 6.15302 19.3551 6.15302 19.3551C6.15302 19.3551 6.15302 19.3551 6.15302 19.3551C6.15302 19.3551 6.15302 19.3551 6.15302 19.3551C6.15302 19.3551 6.15302 19.3551 6.15302 19.3551C6.15302 19.3551 6.15302 19.3551 6.15302 19.3551C6.15302 19.3551 6.15302 19.3551 6.15302 19.3551C6.15302 19.3551 6.15302 19.3551 6.15302 19.3551C6.15302 19.3551 6.15302 19.3551 6.15302 19.3551C6.15302 19.3551 6.15302 19.3551 6.15302 19.3551C6.15302 19.3551 6.15302 19.3551 6.15302 19.3551C6.15302 19.3551 6.15301 19.3551 6.15301 19.3551C6.15301 19.3551 6.15301 19.3551 6.15301 19.3551C6.15301 19.3551 6.15301 19.3551 6.15301 19.3551C6.15301 19.3551 6.15301 19.3551 6.15301 19.3551C6.15301 19.3551 6.15301 19.3551 6.15301 19.3551C6.15301 19.3551 6.15301 19.3551 6.15301 19.3551C6.15301 19.3551 6.15301 19.3551 6.15301 19.3551C6.15301 19.3551 6.15301 19.3551 6.15301 19.3551C6.15301 19.3551 6.15301 19.3551 6.15301 19.3551C6.15301 19.3551 6.15301 19.3551 6.15301 19.3551C6.15301 19.3551 6.15301 19.3551 6.153 19.3551C6.153 19.3551 6.153 19.3551 6.153 19.3551C6.153 19.3551 6.153 19.3551 6.153 19.3551C6.153 19.3551 6.153 19.3551 6.153 19.3551C6.153 19.3551 6.153 19.3551 6.153 19.3551C6.153 19.3551 6.153 19.3551 6.153 19.3551C6.153 19.3551 6.153 19.3551 6.153 19.3551C6.153 19.3551 6.153 19.3551 6.153 19.3551C6.153 19.3551 6.153 19.3551 6.153 19.3551C6.153 19.3551 6.153 19.3551 6.153 19.3551C6.153 19.3551 6.153 19.3551 6.153 19.3551C6.153 19.3551 6.15299 19.3551 6.15299 19.3551C6.15299 19.3551 6.15299 19.3551 6.15299 19.3551C6.15299 19.3551 6.15299 19.3551 6.15299 19.3551C6.15299 19.3551 6.15299 19.3551 6.15299 19.3551C6.15299 19.3551 6.15299 19.3551 6.15299 19.3551C6.15299 19.3551 6.15299 19.3551 6.15299 19.3551C6.15299 19.3551 6.15299 19.3551 6.15299 19.3551C6.15299 19.3551 6.15299 19.3551 6.15299 19.3551C6.15299 19.3551 6.15299 19.3551 6.15299 19.3551C6.15299 19.3551 6.15299 19.3551 6.15299 19.3551C6.15299 19.3551 6.15299 19.3551 6.15298 19.3551C6.15298 19.3551 6.15298 19.3551 6.15298 19.3551C6.15298 19.3551 6.15298 19.3551 6.15298 19.3551C6.15298 19.3551 6.15298 19.3551 6.15298 19.3551C6.15298 19.3551 6.15298 19.3551 6.15298 19.3551C6.15298 19.3551 6.15298 19.3551 6.15298 19.3551C6.15298 19.3551 6.15298 19.3551 6.15298 19.3551C6.15298 19.3551 6.15298 19.3551 6.15298 19.3551C6.15298 19.3551 6.15298 19.3551 6.15298 19.3551C6.15298 19.3551 6.15298 19.3551 6.15298 19.3551C6.15298 19.3551 6.15298 19.3551 6.15298 19.3551C6.15298 19.3551 6.15297 19.3551 6.15297 19.3551C6.15297 19.3551 6.15297 19.3551 6.15297 19.3551C6.15297 19.3551 6.15297 19.3551 6.15297 19.3551C6.15297 19.3551 6.15297 19.3551 6.15297 19.3551C6.15297 19.3551 6.15297 19.3551 6.15297 19.3551C6.15297 19.3551 6.15297 19.3551 6.15297 19.3551C6.15297 19.3551 6.15297 19.3551 6.15297 19.3551C6.15297 19.3551 6.15297 19.3551 6.15297 19.3551C6.15297 19.3551 6.15297 19.3551 6.15297 19.3551C6.15297 19.3551 6.15297 19.3551 6.15297 19.3551C6.15297 19.3551 6.15297 19.3551 6.15297 19.3551C6.15296 19.3551 6.15296 19.3551 6.15296 19.3551C6.15296 19.3551 6.15296 19.3551 6.15296 19.3551C6.15296 19.3551 6.15296 19.3551 6.15296 19.3551C6.15296 19.3551 6.15296 19.3551 6.15296 19.3551C6.15296 19.3551 6.15296 19.3551 6.15296 19.3551C6.15296 19.3551 6.15296 19.3551 6.15296 19.3551C6.15296 19.3551 6.15296 19.3551 6.15296 19.3551C6.15296 19.3551 6.15296 19.3551 6.15296 19.3551C6.15296 19.3551 6.15296 19.3551 6.15296 19.3551C6.15296 19.3551 6.15296 19.3551 6.15296 19.3551C6.15296 19.3551 6.15295 19.3551 6.15295 19.3551C6.15295 19.3551 6.15295 19.3551 6.15295 19.3551C6.15295 19.3551 6.15295 19.3551 6.15295 19.3551C6.15295 19.3551 6.15295 19.3551 6.15295 19.3551C6.15295 19.3551 6.15295 19.3551 6.15295 19.3551C6.15295 19.3551 6.15295 19.3551 6.15295 19.3551C6.15295 19.3551 6.15295 19.3551 6.15295 19.3551C6.15295 19.3551 6.15295 19.3551 6.15295 19.3551C6.15295 19.3551 6.15295 19.3551 6.15295 19.3551C6.15295 19.3551 6.15295 19.3551 6.15295 19.3551C6.15295 19.3551 6.15295 19.3551 6.15295 19.3551C6.15294 19.3551 6.15294 19.3551 6.15294 19.3551C6.15294 19.3551 6.15294 19.3551 6.15294 19.3551C6.15294 19.3551 6.15294 19.3551 6.15294 19.3551C6.15294 19.3551 6.15294 19.3551 6.15294 19.3551C6.15294 19.3551 6.15294 19.3551 6.15294 19.3551C6.15294 19.3551 6.15294 19.3551 6.15294 19.3551C6.15294 19.3551 6.15294 19.3551 6.15294 19.3551C6.15294 19.3551 6.15294 19.3551 6.15294 19.3551C6.15294 19.3551 6.15294 19.3551 6.15294 19.3551C6.15294 19.3551 6.15294 19.3551 6.15294 19.3551C6.15294 19.3551 6.15293 19.3551 6.15293 19.3551C6.15293 19.3551 6.15293 19.3551 6.15293 19.3551C6.15293 19.3551 6.15293 19.3551 6.15293 19.3551C6.15293 19.3551 6.15293 19.3551 6.15293 19.3551C6.15293 19.3551 6.15293 19.3551 6.15293 19.3551C6.15293 19.3551 6.15293 19.3551 6.15293 19.3551C6.15293 19.3551 6.15293 19.3551 6.15293 19.3551C6.15293 19.3551 6.15293 19.3551 6.15293 19.3551C6.15293 19.3551 6.15293 19.3551 6.15293 19.3551C6.15293 19.3551 6.15293 19.3551 6.15293 19.3551C6.15293 19.3551 6.15293 19.3551 6.15293 19.3551C6.15292 19.3551 6.15292 19.3551 6.15292 19.3551C6.15292 19.3551 6.15292 19.3551 6.15292 19.3551C6.15292 19.3551 6.15292 19.3551 6.15292 19.3551C6.15292 19.3551 6.15292 19.3551 6.15292 19.3551C6.15292 19.3551 6.15292 19.3551 6.15292 19.3551C6.15292 19.3551 6.15292 19.3551 6.15292 19.3551C6.15292 19.3551 6.15292 19.3551 6.15292 19.3551C6.15292 19.3551 6.15292 19.3551 6.15292 19.3551C6.15292 19.3551 6.15292 19.3551 6.15292 19.3551C6.15292 19.3551 6.15292 19.3551 6.15292 19.3551C6.15292 19.3551 6.15291 19.3551 6.15291 19.3551C6.15291 19.3551 6.15291 19.3551 6.15291 19.3551C6.15291 19.3551 6.15291 19.3551 6.15291 19.3551C6.15291 19.3551 6.15291 19.3551 6.15291 19.3551C6.15291 19.3551 6.15291 19.3551 6.15291 19.3551C6.15291 19.3551 6.15291 19.3551 6.15291 19.3551C6.15291 19.3551 6.15291 19.3551 6.15291 19.3551C6.15291 19.3551 6.15291 19.3551 6.15291 19.3551C6.15291 19.3551 6.15291 19.3551 6.15291 19.3551C6.15291 19.3551 6.15291 19.3551 6.15291 19.3551C6.15291 19.3551 6.15291 19.3551 6.15291 19.3551C6.1529 19.3551 6.1529 19.3551 6.1529 19.3551C6.1529 19.3551 6.1529 19.3551 6.1529 19.3551C6.1529 19.3551 6.1529 19.3551 6.1529 19.3551C6.1529 19.3551 6.1529 19.3551 6.1529 19.3551C6.1529 19.3551 6.1529 19.3551 6.1529 19.3551C6.1529 19.3551 6.1529 19.3551 6.1529 19.3551C6.1529 19.3551 6.1529 19.3551 6.1529 19.3551C6.1529 19.3551 6.1529 19.3551 6.1529 19.3551C6.1529 19.3551 6.1529 19.3551 6.1529 19.3551C6.1529 19.3551 6.1529 19.3551 6.1529 19.3551C6.1529 19.3551 6.1529 19.3551 6.15289 19.3551C6.15289 19.3551 6.15289 19.3551 6.15289 19.3551C6.15289 19.3551 6.15289 19.3551 6.15289 19.3551C6.15289 19.3551 6.15289 19.3551 6.15289 19.3551C6.15289 19.3551 6.15289 19.3551 6.15289 19.3551C6.15289 19.3551 6.15289 19.3551 6.15289 19.3551C6.15289 19.3551 6.15289 19.3551 6.15289 19.3551C6.15289 19.3551 6.15289 19.3551 6.15289 19.3551C6.15289 19.3551 6.15289 19.3551 6.15289 19.3551C6.15289 19.3551 6.15289 19.3551 6.15289 19.3551C6.15289 19.3551 6.15289 19.3551 6.15289 19.3551C6.15288 19.3551 6.15288 19.3551 6.15288 19.3551C6.15288 19.3551 6.15288 19.3551 6.15288 19.3551C6.15288 19.3551 6.15288 19.3551 6.15288 19.3551C6.15288 19.3551 6.15288 19.3551 6.15288 19.3551C6.15288 19.3551 6.15288 19.3551 6.15288 19.3551C6.15288 19.3551 6.15288 19.3551 6.15288 19.3551C6.15288 19.3551 6.15288 19.3551 6.15288 19.3551C6.15288 19.3551 6.15288 19.3551 6.15288 19.3551C6.15288 19.3551 6.15288 19.3551 6.15288 19.3551C6.15288 19.3551 6.15288 19.3551 6.15288 19.3551C6.15288 19.3551 6.15288 19.3551 6.15287 19.3551C6.15287 19.3551 6.15287 19.3551 6.15287 19.3551C6.15287 19.3551 6.15287 19.3551 6.15287 19.3551C6.15287 19.3551 6.15287 19.3551 6.15287 19.3551C6.15287 19.3551 6.15287 19.3551 6.15287 19.3551C6.15287 19.3551 6.15287 19.3551 6.15287 19.3551C6.15287 19.3551 6.15287 19.3551 6.15287 19.3551C6.15287 19.3551 6.15287 19.3551 6.15287 19.3551C6.15287 19.3551 6.15287 19.3551 6.15287 19.3551C6.15287 19.3551 6.15287 19.3551 6.15287 19.3551C6.15287 19.3551 6.15287 19.3551 6.15287 19.3551C6.15286 19.3551 6.15286 19.3551 6.15286 19.3551C6.15286 19.3551 6.15286 19.3551 6.15286 19.3551C6.15286 19.3551 6.15286 19.3551 6.15286 19.3551C6.15286 19.3551 6.15286 19.3551 6.15286 19.3551C6.15286 19.3551 6.15286 19.3551 6.15286 19.3551C6.15286 19.3551 6.15286 19.3551 6.15286 19.3551C6.15286 19.3551 6.15286 19.3551 6.15286 19.3551C6.15286 19.3551 6.15286 19.3551 6.15286 19.3551C6.15286 19.3551 6.15286 19.3551 6.15286 19.3551C6.15286 19.3551 6.15286 19.3551 6.15286 19.3551C6.15286 19.3551 6.15286 19.3551 6.15285 19.3551C6.15285 19.3551 6.15285 19.3551 6.15285 19.3551C6.15285 19.3551 6.15285 19.3551 6.15285 19.3551C6.15285 19.3551 6.15285 19.3551 6.15285 19.3551C6.15285 19.3551 6.15285 19.3551 6.15285 19.3551C6.15285 19.3551 6.15285 19.3551 6.15285 19.3551C6.15285 19.3551 6.15285 19.3551 6.15285 19.3551C6.15285 19.3551 6.15285 19.3551 6.15285 19.3551C6.15285 19.3551 6.15285 19.3551 6.15285 19.3551C6.15285 19.3551 6.15285 19.3551 6.15285 19.3551C6.15285 19.3551 6.15285 19.3551 6.15285 19.3551C6.15285 19.3551 6.15284 19.3551 6.15284 19.3551C6.15284 19.3551 6.15284 19.3551 6.15284 19.3551C6.15284 19.3551 6.15284 19.3551 6.15284 19.3551C6.15284 19.3551 6.15284 19.3551 6.15284 19.3551C6.15284 19.3551 6.15284 19.3551 6.15284 19.3551C6.15284 19.3551 6.15284 19.3551 6.15284 19.3551C6.15284 19.3551 6.15284 19.3551 6.15284 19.3551C6.15284 19.3551 6.15284 19.3551 6.15284 19.3551C6.15284 19.3551 6.15284 19.3551 6.15284 19.3551C6.15284 19.3551 6.15284 19.3551 6.15284 19.3551C6.15284 19.3551 6.15284 19.3551 6.15283 19.3551C6.15283 19.3551 6.15283 19.3551 6.15283 19.3551C6.15283 19.3551 6.15283 19.3551 6.15283 19.3551C6.15283 19.3551 6.15283 19.3551 6.15283 19.3551C6.15283 19.3551 6.15283 19.3551 6.15283 19.3551C6.15283 19.3551 6.15283 19.3551 6.15283 19.3551C6.15283 19.3551 6.15283 19.3551 6.15283 19.3551C6.15283 19.3551 6.15283 19.3551 6.15283 19.3551C6.15283 19.3551 6.15283 19.3551 6.15283 19.3551C6.15283 19.3551 6.15283 19.3551 6.15283 19.3551C6.15283 19.3551 6.15283 19.3551 6.15283 19.3551C6.15283 19.3551 6.15282 19.3551 6.15282 19.3551C6.15282 19.3551 6.15282 19.3551 6.15282 19.3551C6.15282 19.3551 6.15282 19.3551 6.15282 19.3551C6.15282 19.3551 6.15282 19.3551 6.15282 19.3551C6.15282 19.3551 6.15282 19.3551 6.15282 19.3551C6.15282 19.3551 6.15282 19.3551 6.15282 19.3551C6.15282 19.3551 6.15282 19.3551 6.15282 19.3551C6.15282 19.3551 6.15282 19.3551 6.15282 19.3551C6.15282 19.3551 6.15282 19.3551 6.15282 19.3551C6.15282 19.3551 6.15282 19.3551 6.15282 19.3551C6.15282 19.3551 6.15282 19.3551 6.15281 19.3551C6.15281 19.3551 6.15281 19.3551 6.15281 19.3551C6.15281 19.3551 6.15281 19.3551 6.15281 19.3551C6.15281 19.3551 6.15281 19.3551 6.15281 19.3551C6.15281 19.3551 6.15281 19.3551 6.15281 19.3551C6.15281 19.3551 6.15281 19.3551 6.15281 19.3551C6.15281 19.3551 6.15281 19.3551 6.15281 19.3551L6.12929 20.3548ZM6.14203 19.355L6.14105 19.355L6.14105 20.355L6.14203 20.355L6.14203 19.355ZM10.3867 15.7111C11.6083 16.5989 12.1371 17.2446 12.2819 17.6706C12.3457 17.8584 12.3274 17.9805 12.2832 18.0744C12.2323 18.1822 12.1176 18.3134 11.8879 18.4524C11.4183 18.7365 10.6313 18.9559 9.5984 19.1063C8.58083 19.2545 7.38207 19.3282 6.13128 19.3551L6.15277 20.3549C7.42375 20.3276 8.66788 20.2523 9.74248 20.0959C10.8017 19.9417 11.7562 19.7008 12.4055 19.308C12.7352 19.1086 13.0243 18.8473 13.1877 18.5008C13.3576 18.1403 13.3638 17.7463 13.2287 17.3487C12.9754 16.6038 12.2116 15.8011 10.9745 14.9021L10.3867 15.7111ZM5.71125 1.40811C12.5879 6.27552 17.1246 9.97369 19.8599 12.6824C21.2293 14.0385 22.1295 15.1294 22.6475 15.9805C23.1821 16.8591 23.24 17.3678 23.1571 17.6244C23.0923 17.8252 22.8708 18.0471 22.2121 18.137C21.5674 18.2249 20.6522 18.1577 19.5068 17.9265C17.2265 17.4662 14.1824 16.3876 10.8919 14.8535L10.4693 15.7598C13.7989 17.3121 16.9223 18.425 19.3089 18.9067C20.4969 19.1465 21.5398 19.2379 22.3472 19.1278C23.1406 19.0196 23.8649 18.6867 24.1087 17.9317C24.3345 17.2324 24.0639 16.3844 23.5018 15.4607C22.923 14.5096 21.9583 13.353 20.5636 11.9718C17.7706 9.20609 13.1823 5.47105 6.28899 0.591887L5.71125 1.40811ZM6.28898 39.4081C6.40728 39.3244 6.52489 39.241 6.64182 39.1579L6.06272 38.3427C5.94624 38.4254 5.82908 38.5085 5.71125 38.5919L6.28898 39.4081ZM6.06306 38.3424L5.71091 38.5921L6.28932 39.4079L6.64148 39.1582L6.06306 38.3424Z" fill="#808080"/>
<path fill-rule="evenodd" clip-rule="evenodd" d="M32.3194 19.8533C29.9548 19.5948 24.8983 18.77 23.5493 17.5332C22.8743 18.1348 20.8493 19.3381 18.1493 19.3381L18.1493 19.8533L18.1493 19.8538L18.1493 20.369C20.8493 20.369 22.8743 21.5723 23.5493 22.1739C24.8983 20.9371 29.9548 20.1123 32.3194 19.8538L32.3242 19.8538C32.3234 19.8537 32.3226 19.8536 32.3218 19.8536C32.3226 19.8535 32.3234 19.8534 32.3242 19.8533L32.3194 19.8533Z" fill="#999999"/>
<path d="M23.5493 17.5332L23.8871 17.1646L23.554 16.8592L23.2166 17.1599L23.5493 17.5332ZM32.3194 19.8533L32.2651 20.3503L32.2921 20.3533L32.3194 20.3533L32.3194 19.8533ZM18.1493 19.3381L18.1493 18.8381L17.6493 18.8381L17.6493 19.3381L18.1493 19.3381ZM18.1493 19.8533L18.6493 19.8533L18.1493 19.8533ZM18.1493 20.369L17.6493 20.369L17.6493 20.869L18.1493 20.869L18.1493 20.369ZM23.5493 22.1739L23.2166 22.5472L23.554 22.8479L23.8871 22.5425L23.5493 22.1739ZM32.3194 19.8538L32.3194 19.3538L32.2921 19.3538L32.2651 19.3568L32.3194 19.8538ZM32.3242 19.8538L32.3242 20.3538L32.3785 19.3568L32.3242 19.8538ZM32.3218 19.8536L32.2676 19.3565L32.2676 20.3506L32.3218 19.8536ZM32.3242 19.8533L32.3785 20.3503L32.3242 19.3533L32.3242 19.8533ZM23.2114 17.9018C23.6247 18.2807 24.272 18.5911 24.9851 18.8509C25.7128 19.1161 26.5674 19.3486 27.4426 19.5477C29.1939 19.946 31.0686 20.2196 32.2651 20.3503L32.3737 19.3562C31.2056 19.2286 29.3698 18.9605 27.6644 18.5726C26.8114 18.3786 26.0011 18.1568 25.3274 17.9114C24.6391 17.6606 24.1484 17.4042 23.8871 17.1646L23.2114 17.9018ZM18.1493 19.8381C20.9865 19.8381 23.1268 18.5795 23.8819 17.9065L23.2166 17.1599C22.6217 17.6902 20.7121 18.8381 18.1493 18.8381L18.1493 19.8381ZM18.6493 19.8533L18.6493 19.3381L17.6493 19.3381L17.6493 19.8533L18.6493 19.8533ZM17.6493 19.8533L17.6493 19.8538L18.6493 19.8538L18.6493 19.8533L17.6493 19.8533ZM17.6493 19.8538L17.6493 20.369L18.6493 20.369L18.6493 19.8538L17.6493 19.8538ZM18.1493 20.869C20.7121 20.869 22.6217 22.0169 23.2166 22.5472L23.8819 21.8006C23.1268 21.1276 20.9865 19.869 18.1493 19.869L18.1493 20.869ZM23.8871 22.5425C24.1484 22.3029 24.6391 22.0465 25.3274 21.7957C26.0011 21.5503 26.8114 21.3285 27.6644 21.1345C29.3698 20.7466 31.2056 20.4785 32.3737 20.3509L32.2651 19.3568C31.0686 19.4875 29.1939 19.7611 27.4426 20.1594C26.5674 20.3585 25.7128 20.591 24.9851 20.8562C24.272 21.116 23.6247 21.4264 23.2114 21.8053L23.8871 22.5425ZM32.3242 19.3538L32.3194 19.3538L32.3194 20.3538L32.3242 20.3538L32.3242 19.3538ZM32.2676 20.3506C32.2683 20.3507 32.2691 20.3508 32.2699 20.3509L32.3785 19.3568C32.3777 19.3567 32.3769 19.3566 32.3761 19.3565L32.2676 20.3506ZM32.3761 20.3506C32.3766 20.3505 32.3772 20.3505 32.3776 20.3504C32.378 20.3504 32.3783 20.3504 32.3785 20.3503L32.2699 19.3562C32.266 19.3567 32.2707 19.3562 32.2676 19.3565L32.3761 20.3506ZM32.3242 19.3533L32.3194 19.3533L32.3194 20.3533L32.3242 20.3533L32.3242 19.3533Z" fill="#808080"/>
<path d="M16.4633 8.25194C12.0758 7.67179 16.3509 13.7634 16.8008 17.5344C15.7883 17.2443 15.7883 17.2443 15.1133 16.9542C12.2656 5.46699 11.6442 5.18464 6.00083 0.999999L16.4633 8.25194Z" fill="#D9D9D9" stroke="#808080"/>
<path d="M16.4633 31.4581C12.0758 32.0382 16.3509 25.9466 16.8008 22.1756C15.7883 22.4656 15.7883 22.4656 15.1133 22.7557C12.2656 34.2429 11.6442 34.8154 6.00083 39L16.4633 31.4581Z" fill="#D9D9D9" stroke="#808080"/>
<path fill-rule="evenodd" clip-rule="evenodd" d="M32.324 19.8544C28.7606 16.0535 20.2696 10.9162 16.6305 11.842C17.6113 14.4997 17.9464 19.802 11.4955 19.8542L11.3993 19.8542C11.422 19.8542 11.4446 19.8542 11.4671 19.8544C11.4446 19.8545 11.422 19.8546 11.3993 19.8546L11.4955 19.8546C17.9464 19.9067 17.6113 25.209 16.6305 27.8667C20.2696 28.7925 28.7606 23.6552 32.324 19.8544C32.3241 19.8544 32.3242 19.8545 32.3242 19.8546C32.3242 19.8545 32.3241 19.8544 32.324 19.8544C32.3241 19.8543 32.3242 19.8542 32.3242 19.8542C32.3242 19.8542 32.3241 19.8543 32.324 19.8544ZM32.324 19.8544C27.3203 14.9239 21.1794 13.6908 18.6775 14.3072C16.6762 14.8002 18.1466 18.2103 19.1322 19.8542L19.1324 19.8542C19.1324 19.8542 19.1324 19.8543 19.1323 19.8544C19.1324 19.8544 19.1324 19.8545 19.1324 19.8546L19.1322 19.8546C18.1466 21.4984 16.6762 24.9085 18.6775 25.4016C21.1794 26.0179 27.3203 24.7848 32.324 19.8544Z" fill="#D9D9D9"/>
<path d="M16.6305 11.842L16.5073 11.3574L15.9693 11.4943L16.1615 12.0151L16.6305 11.842ZM32.324 19.8544L31.9593 20.1963L32.3099 20.5703L32.675 20.2105L32.324 19.8544ZM11.4955 19.8542L11.4955 20.3542L11.4996 20.3542L11.4955 19.8542ZM11.4671 19.8544L11.4699 20.3544L11.4699 19.3544L11.4671 19.8544ZM11.4955 19.8546L11.4996 19.3546L11.4955 19.3546L11.4955 19.8546ZM16.6305 27.8667L16.1615 27.6936L15.9693 28.2145L16.5073 28.3513L16.6305 27.8667ZM32.324 19.8544L32.675 19.4983L32.3099 19.1384L31.9593 19.5124L32.324 19.8544ZM32.3242 19.8546L31.9732 20.2107L32.6897 19.5134L32.3242 19.8546ZM32.324 19.8544L31.9585 19.5132L31.6401 19.8544L31.9585 20.1955L32.324 19.8544ZM32.3242 19.8542L32.6897 20.1953L31.9732 19.4981L32.3242 19.8542ZM32.324 19.8544L32.675 20.2105L33.0364 19.8544L32.675 19.4982L32.324 19.8544ZM18.6775 14.3072L18.5579 13.8217L18.5579 13.8217L18.6775 14.3072ZM19.1322 19.8542L18.7034 20.1113L18.849 20.3542L19.1322 20.3542L19.1322 19.8542ZM19.1324 19.8542L19.5617 20.1105L20.0133 19.3542L19.1324 19.3542L19.1324 19.8542ZM19.1323 19.8544L18.703 19.5981L18.5492 19.8556L18.7041 20.1125L19.1323 19.8544ZM19.1324 19.8546L19.1324 20.3546L20.0178 20.3546L19.5606 19.5964L19.1324 19.8546ZM19.1322 19.8546L19.1322 19.3546L18.849 19.3546L18.7034 19.5974L19.1322 19.8546ZM18.6775 25.4016L18.7971 24.9161L18.7971 24.9161L18.6775 25.4016ZM16.7538 12.3265C17.5302 12.129 18.6365 12.245 19.9725 12.6476C21.2932 13.0456 22.7746 13.7036 24.2668 14.515C27.2562 16.1404 30.2231 18.3445 31.9593 20.1963L32.6888 19.5124C30.8615 17.5634 27.8013 15.2985 24.7445 13.6364C23.2136 12.8041 21.6672 12.1138 20.261 11.6901C18.8702 11.2711 17.5504 11.0921 16.5073 11.3574L16.7538 12.3265ZM11.4996 20.3542C13.1791 20.3406 14.4659 19.9848 15.4251 19.3762C16.3895 18.7643 16.987 17.9191 17.3203 16.9947C17.9763 15.1749 17.6106 13.0535 17.0996 11.6689L16.1615 12.0151C16.6313 13.2882 16.9234 15.1468 16.3795 16.6556C16.1128 17.3956 15.6458 18.0519 14.8894 18.5318C14.1278 19.0151 13.0374 19.3417 11.4915 19.3542L11.4996 20.3542ZM11.4955 19.3542L11.3993 19.3542L11.3993 20.3542L11.4955 20.3542L11.4955 19.3542ZM11.3993 20.3542C11.421 20.3542 11.4426 20.3542 11.4642 20.3544L11.4699 19.3544C11.4465 19.3542 11.423 19.3542 11.3993 19.3542L11.3993 20.3542ZM11.3993 20.3546C11.4229 20.3546 11.4465 20.3545 11.4699 20.3544L11.4642 19.3544C11.4427 19.3545 11.421 19.3546 11.3993 19.3546L11.3993 20.3546ZM11.4955 19.3546L11.3993 19.3546L11.3993 20.3546L11.4955 20.3546L11.4955 19.3546ZM11.4915 20.3545C13.0374 20.367 14.1278 20.6936 14.8894 21.1769C15.6458 21.6569 16.1128 22.3132 16.3795 23.0531C16.9234 24.5619 16.6313 26.4205 16.1615 27.6936L17.0996 28.0398C17.6106 26.6553 17.9763 24.5338 17.3203 22.714C16.987 21.7896 16.3895 20.9445 15.4251 20.3325C14.4659 19.7239 13.1791 19.3681 11.4996 19.3546L11.4915 20.3545ZM16.5073 28.3513C17.5504 28.6167 18.8702 28.4377 20.261 28.0186C21.6672 27.5949 23.2136 26.9047 24.7445 26.0723C27.8013 24.4103 30.8615 22.1453 32.6888 20.1963L31.9593 19.5124C30.2231 21.3642 27.2562 23.5684 24.2668 25.1937C22.7746 26.0051 21.2932 26.6632 19.9725 27.0611C18.6365 27.4637 17.5302 27.5797 16.7538 27.3822L16.5073 28.3513ZM32.6752 19.4984C32.6751 19.4984 32.6751 19.4983 32.675 19.4983L31.9731 20.2105C31.9731 20.2105 31.9732 20.2106 31.9732 20.2107L32.6752 19.4984ZM31.9585 20.1955L31.9587 20.1957L32.6897 19.5134L32.6896 19.5132L31.9585 20.1955ZM32.6896 20.1955L32.6897 20.1953L31.9587 19.513L31.9585 19.5132L32.6896 20.1955ZM31.9732 19.4981C31.9732 19.4981 31.9731 19.4982 31.9731 19.4982L32.675 20.2105C32.6751 20.2104 32.6751 20.2103 32.6752 20.2103L31.9732 19.4981ZM32.675 19.4982C30.1154 16.9761 27.263 15.3975 24.7247 14.5277C22.2045 13.6642 19.9387 13.4815 18.5579 13.8217L18.7971 14.7926C19.9182 14.5165 21.9738 14.6422 24.4005 15.4737C26.809 16.299 29.5289 17.8022 31.9731 20.2105L32.675 19.4982ZM18.5579 13.8217C17.8802 13.9886 17.4658 14.4277 17.288 15.0031C17.1226 15.538 17.1685 16.1613 17.2959 16.7542C17.5528 17.9495 18.197 19.2667 18.7034 20.1113L19.561 19.5971C19.0818 18.7978 18.498 17.588 18.2736 16.5441C18.1604 16.0173 18.1523 15.5929 18.2434 15.2984C18.3219 15.0443 18.4742 14.8722 18.7971 14.7926L18.5579 13.8217ZM19.1324 19.3542L19.1322 19.3542L19.1322 20.3542L19.1324 20.3542L19.1324 19.3542ZM19.5616 20.1107L19.5617 20.1105L18.7031 19.5979L18.703 19.5981L19.5616 20.1107ZM18.7041 20.1125L18.7042 20.1127L19.5606 19.5964L19.5605 19.5962L18.7041 20.1125ZM19.1324 19.3546L19.1322 19.3546L19.1322 20.3546L19.1324 20.3546L19.1324 19.3546ZM18.7971 24.9161C18.4742 24.8365 18.3219 24.6644 18.2434 24.4104C18.1523 24.1159 18.1604 23.6914 18.2736 23.1647C18.498 22.1207 19.0818 20.9109 19.561 20.1117L18.7034 19.5974C18.197 20.4421 17.5528 21.7592 17.2959 22.9545C17.1685 23.5474 17.1226 24.1707 17.288 24.7057C17.4658 25.281 17.8802 25.7201 18.5579 25.8871L18.7971 24.9161ZM31.9731 19.4982C29.5289 21.9065 26.809 23.4097 24.4005 24.235C21.9738 25.0665 19.9182 25.1923 18.7971 24.9161L18.5579 25.8871C19.9387 26.2272 22.2045 26.0446 24.7247 25.181C27.263 24.3112 30.1154 22.7326 32.675 20.2105L31.9731 19.4982Z" fill="#808080"/>
</svg>
