<svg width="14" height="13" viewBox="0 0 14 13" fill="none" xmlns="http://www.w3.org/2000/svg">
<path fill-rule="evenodd" clip-rule="evenodd" d="M8.33301 0H5.66634C4.25185 0 2.8953 0.561903 1.89511 1.5621C0.894911 2.56229 0.333008 3.91885 0.333008 5.33333C0.333008 9.66667 4.99967 11.6667 8.33301 13V10.6667C9.7475 10.6667 11.1041 10.1048 12.1042 9.10457C13.1044 8.10438 13.6663 6.74782 13.6663 5.33333C13.6663 3.91885 13.1044 2.56229 12.1042 1.5621C11.1041 0.561903 9.7475 0 8.33301 0ZM4 6.5C4.55228 6.5 5 6.05229 5 5.5C5 4.94772 4.55228 4.5 4 4.5C3.44772 4.5 3 4.94772 3 5.5C3 6.05229 3.44772 6.5 4 6.5ZM8 5.5C8 6.05229 7.55229 6.5 7 6.5C6.44772 6.5 6 6.05229 6 5.5C6 4.94772 6.44772 4.5 7 4.5C7.55229 4.5 8 4.94772 8 5.5ZM10 6.5C10.5523 6.5 11 6.05229 11 5.5C11 4.94772 10.5523 4.5 10 4.5C9.44771 4.5 9 4.94772 9 5.5C9 6.05229 9.44771 6.5 10 6.5Z" fill="#D9D9D9"/>
</svg>
