<svg width="13" height="30" viewBox="0 0 13 30" fill="none" xmlns="http://www.w3.org/2000/svg">
<path d="M0 1.73077C0.598916 2.70433 0.669377 3.93029 0.669377 5.30048C0.669377 5.76923 0.634146 6.41827 0.598916 6.85096H1.19783C2.25474 4.79567 4.47425 3.42548 6.69377 3.42548C9.30081 3.42548 10.9214 4.75962 11.1328 7.03125C8.63144 10.8894 2.92412 11.25 2.92412 15C2.92412 15.9736 3.87534 17.1995 4.26287 17.8125L5.81301 20.1202L6.90515 19.5433L6.20054 18.2091C5.98916 17.8125 5.81301 17.1635 5.81301 16.7308C5.81301 14.387 13 13.6659 13 7.03125C13 2.41587 10.5339 0 6.58808 0C3.66396 0 2.00813 1.22596 1.1626 1.73077C0.98645 1.73077 0.598916 1.51443 0.422764 1.37019L0 1.73077ZM6.37669 21.5625C5.81301 23.3293 4.2981 25.0962 2.28997 25.7812C4.36856 26.1418 5.67209 28.0168 6.37669 30C7.0813 28.0168 8.45528 26.1418 10.5339 25.7812C8.49051 25.0962 7.01084 23.3293 6.37669 21.5625Z" fill="#B3B3B3"/>
</svg>
