<svg width="124" height="156" viewBox="0 0 124 156" fill="none" xmlns="http://www.w3.org/2000/svg">
<g opacity="0.2">
<path fill-rule="evenodd" clip-rule="evenodd" d="M62 24H5.5V87C7.83333 93.8333 16.7 111.1 33.5 125.5C37.1667 125 44.7 124.6 45.5 127V133C47 136.333 52.4 143.8 62 147C71.6 143.8 77 136.333 78.5 133V127C79.3 124.6 86.8333 125 90.5 125.5C107.3 111.1 116.167 93.8333 118.5 87V24H62Z" fill="#2E2E2E"/>
<path fill-rule="evenodd" clip-rule="evenodd" d="M39.1485 23.7717C42.5665 24.2395 45.0758 23.8718 46.5 23.0921C37.6136 28.6261 37.1278 30.7846 37.7255 31.716C36.2795 30.0753 32.0743 27.0004 25.11 26.1108C17.786 25.1752 17.0932 33.4632 17.4999 36.5824L17.5 36.5824C17.5 36.5824 17.5 36.5824 17.4999 36.5824C17.5 36.5826 17.5 36.5827 17.5 36.5829L17.4994 36.5822C11.3197 34.5166 6.49355 59.7979 13.36 62.5546C4.00683 68.7575 7.86664 74.9603 10.6133 77.0279C6.49331 84.6091 10.8422 98.3931 14.7333 104.596C4.29002 89.798 3.73918 84.0097 3.24738 78.8418C3.18945 78.2331 3.13235 77.6331 3.05999 77.0279C4.20443 67.3791 5.11999 46.5652 5.11999 40.5002C5.11999 35.3919 2.68434 26.3678 1.50569 22.0009C1.28505 21.1834 1.10846 20.5291 1.00014 20.0943L1 20.0942C1.00004 20.0942 1.00008 20.0942 1.00011 20.0942C1.00008 20.0941 1.00004 20.0939 1 20.0938L1.00067 20.0944C11.9869 24.2291 19.2098 18.1187 20.8374 15C22.0582 17.9239 34.8759 23.1869 39.1485 23.7717ZM37.9277 31.9585C37.8677 31.8818 37.8003 31.8008 37.7255 31.716C37.7847 31.8082 37.8545 31.8883 37.9277 31.9585Z" fill="#D9D9D9"/>
<path d="M46.5 23.0921L46.7643 23.5165L46.2599 22.6535L46.5 23.0921ZM39.1485 23.7717L39.2163 23.2763L39.1485 23.7717ZM25.11 26.1108L25.0467 26.6067L25.11 26.1108ZM17.4999 36.5824L17.0041 36.647L17.0261 36.8157L17.1464 36.9359L17.4999 36.5824ZM17.5 36.5824L17.3563 37.0614L17.8536 36.2289L17.5 36.5824ZM17.4999 36.5824L17.6436 36.1035L16.9034 35.8815L17.0042 36.6477L17.4999 36.5824ZM17.5 36.5829L17.1464 36.9364L18.1879 37.9778L17.9957 36.5176L17.5 36.5829ZM17.4994 36.5822L17.8529 36.2287L17.7696 36.1454L17.6579 36.108L17.4994 36.5822ZM13.36 62.5546L13.6363 62.9713L14.4296 62.4453L13.5462 62.0906L13.36 62.5546ZM10.6133 77.0279L11.0526 77.2666L11.2585 76.8877L10.914 76.6284L10.6133 77.0279ZM14.7333 104.596L14.3248 104.884L15.1568 104.33L14.7333 104.596ZM3.24738 78.8418L2.74963 78.8892L3.24738 78.8418ZM3.05999 77.0279L2.56347 76.969L2.55646 77.0281L2.56353 77.0872L3.05999 77.0279ZM1.50569 22.0009L1.02296 22.1312H1.02296L1.50569 22.0009ZM1.00014 20.0943L1.48531 19.9734L1.45172 19.8386L1.35336 19.7404L1.00014 20.0943ZM1 20.0942L1.17612 19.6262L0.646774 20.448L1 20.0942ZM1.00011 20.0942L0.823991 20.5622L1.71559 20.8977L1.48528 19.9733L1.00011 20.0942ZM1 20.0938L1.35348 19.7401L0.0795382 18.4667L0.514819 20.2146L1 20.0938ZM1.00067 20.0944L0.647187 20.448L0.723528 20.5244L0.824549 20.5624L1.00067 20.0944ZM20.8374 15L21.2988 14.8074L20.8878 13.8228L20.3942 14.7687L20.8374 15ZM37.9277 31.9585L37.5818 32.3196L38.3215 31.6503L37.9277 31.9585ZM46.2599 22.6535C44.9713 23.359 42.5877 23.7377 39.2163 23.2763L39.0807 24.267C42.5454 24.7412 45.1803 24.3846 46.7401 23.5307L46.2599 22.6535ZM38.1463 31.4459C38.0713 31.329 38.0119 31.1592 38.081 30.87C38.1555 30.5584 38.3831 30.0991 38.9355 29.4558C40.0414 28.1681 42.3306 26.2776 46.7643 23.5165L46.2357 22.6677C41.783 25.4406 39.386 27.3964 38.1769 28.8043C37.5718 29.5088 37.2346 30.1097 37.1084 30.6376C36.9769 31.188 37.0809 31.6373 37.3047 31.9861L38.1463 31.4459ZM25.0467 26.6067C31.8985 27.482 35.99 30.503 37.3504 32.0466L38.1006 31.3854C36.569 29.6475 32.2501 26.5188 25.1734 25.6148L25.0467 26.6067ZM17.9957 36.5177C17.8001 35.0179 17.8733 32.2649 18.8631 30.0284C19.3546 28.918 20.0597 27.9621 21.0427 27.3352C22.0189 26.7127 23.3144 26.3854 25.0467 26.6067L25.1734 25.6148C23.2436 25.3683 21.706 25.7262 20.5051 26.492C19.3111 27.2535 18.4951 28.3891 17.9487 29.6237C16.8628 32.0771 16.7929 35.0277 17.0041 36.647L17.9957 36.5177ZM17.1464 36.9359L17.1464 36.936L17.8536 36.2289L17.8535 36.2288L17.1464 36.9359ZM17.6437 36.1035C17.6508 36.1057 17.6565 36.1076 17.6599 36.1087C17.663 36.1097 17.6656 36.1107 17.6651 36.1105C17.6651 36.1105 17.6651 36.1105 17.6651 36.1105C17.6651 36.1105 17.6651 36.1105 17.6651 36.1105C17.6651 36.1105 17.6651 36.1105 17.6651 36.1105C17.665 36.1105 17.6649 36.1104 17.6648 36.1104C17.6646 36.1103 17.6643 36.1102 17.6638 36.1101C17.663 36.1098 17.6616 36.1093 17.6598 36.1087C17.6565 36.1075 17.6508 36.1057 17.6436 36.1035L17.3563 37.0613C17.3491 37.0592 17.3434 37.0573 17.3401 37.0562C17.337 37.0551 17.3343 37.0542 17.3348 37.0544C17.3348 37.0544 17.3348 37.0544 17.3348 37.0544C17.3348 37.0544 17.3348 37.0544 17.3348 37.0544C17.3348 37.0544 17.3349 37.0544 17.3349 37.0544C17.3349 37.0544 17.335 37.0544 17.3351 37.0545C17.3353 37.0546 17.3357 37.0547 17.3361 37.0548C17.337 37.0551 17.3384 37.0556 17.3401 37.0562C17.3435 37.0573 17.3492 37.0592 17.3563 37.0614L17.6437 36.1035ZM17.9957 36.5176V36.5176V36.5176C17.9957 36.5176 17.9957 36.5176 17.9957 36.5176C17.9957 36.5176 17.9957 36.5176 17.9957 36.5176V36.5176V36.5176C17.9957 36.5176 17.9957 36.5176 17.9957 36.5176C17.9957 36.5176 17.9957 36.5176 17.9957 36.5176V36.5176V36.5176C17.9957 36.5176 17.9957 36.5176 17.9957 36.5176C17.9957 36.5176 17.9957 36.5176 17.9957 36.5176C17.9957 36.5176 17.9957 36.5176 17.9957 36.5176V36.5176V36.5176C17.9957 36.5176 17.9957 36.5176 17.9957 36.5176C17.9957 36.5176 17.9957 36.5176 17.9957 36.5176V36.5176C17.9957 36.5176 17.9957 36.5176 17.9957 36.5176C17.9957 36.5176 17.9957 36.5176 17.9957 36.5176C17.9957 36.5176 17.9957 36.5176 17.9957 36.5176C17.9957 36.5176 17.9957 36.5176 17.9957 36.5176V36.5176C17.9957 36.5176 17.9957 36.5176 17.9957 36.5176C17.9957 36.5176 17.9957 36.5176 17.9957 36.5176C17.9957 36.5176 17.9957 36.5176 17.9957 36.5176C17.9957 36.5176 17.9957 36.5176 17.9957 36.5176V36.5176C17.9957 36.5176 17.9957 36.5176 17.9957 36.5176C17.9957 36.5176 17.9957 36.5176 17.9957 36.5176C17.9957 36.5176 17.9957 36.5176 17.9957 36.5176V36.5176C17.9957 36.5176 17.9957 36.5176 17.9957 36.5176C17.9957 36.5176 17.9957 36.5176 17.9957 36.5176C17.9957 36.5176 17.9957 36.5176 17.9957 36.5176V36.5176C17.9957 36.5176 17.9957 36.5176 17.9957 36.5176C17.9957 36.5176 17.9957 36.5176 17.9957 36.5176C17.9957 36.5176 17.9957 36.5176 17.9957 36.5176V36.5176C17.9957 36.5176 17.9957 36.5176 17.9957 36.5176C17.9957 36.5176 17.9957 36.5176 17.9957 36.5176H17.9957C17.9957 36.5176 17.9957 36.5176 17.9957 36.5176V36.5176C17.9957 36.5176 17.9957 36.5176 17.9957 36.5176C17.9957 36.5176 17.9957 36.5176 17.9957 36.5176C17.9957 36.5176 17.9957 36.5176 17.9957 36.5176V36.5175C17.9957 36.5175 17.9957 36.5175 17.9957 36.5175C17.9957 36.5175 17.9957 36.5175 17.9957 36.5175H17.9957C17.9957 36.5175 17.9957 36.5175 17.9957 36.5175V36.5175C17.9957 36.5175 17.9957 36.5175 17.9957 36.5175C17.9957 36.5175 17.9957 36.5175 17.9957 36.5175C17.9957 36.5175 17.9957 36.5175 17.9957 36.5175V36.5175C17.9957 36.5175 17.9957 36.5175 17.9957 36.5175C17.9957 36.5175 17.9957 36.5175 17.9957 36.5175C17.9957 36.5175 17.9957 36.5175 17.9957 36.5175V36.5175V36.5175C17.9957 36.5175 17.9957 36.5175 17.9957 36.5175C17.9957 36.5175 17.9957 36.5175 17.9957 36.5175V36.5175V36.5175H17.9957C17.9957 36.5175 17.9957 36.5175 17.9957 36.5175C17.9957 36.5175 17.9957 36.5175 17.9957 36.5175V36.5175V36.5175C17.9957 36.5175 17.9957 36.5175 17.9957 36.5175C17.9957 36.5175 17.9957 36.5175 17.9957 36.5175V36.5175L17.9957 36.5175C17.9957 36.5175 17.9957 36.5175 17.9957 36.5175C17.9957 36.5175 17.9957 36.5175 17.9957 36.5175V36.5175V36.5175C17.9957 36.5175 17.9957 36.5175 17.9957 36.5175C17.9957 36.5175 17.9957 36.5175 17.9957 36.5175C17.9957 36.5175 17.9957 36.5175 17.9957 36.5175C17.9957 36.5175 17.9957 36.5175 17.9957 36.5175V36.5175C17.9957 36.5175 17.9957 36.5175 17.9957 36.5175C17.9957 36.5175 17.9957 36.5175 17.9957 36.5175C17.9957 36.5175 17.9957 36.5175 17.9957 36.5175V36.5175C17.9957 36.5175 17.9957 36.5175 17.9957 36.5175C17.9957 36.5175 17.9957 36.5175 17.9957 36.5175C17.9957 36.5175 17.9957 36.5175 17.9957 36.5175V36.5175C17.9957 36.5175 17.9957 36.5175 17.9957 36.5175C17.9957 36.5175 17.9957 36.5175 17.9957 36.5175C17.9957 36.5175 17.9957 36.5175 17.9957 36.5175V36.5175C17.9957 36.5175 17.9957 36.5175 17.9957 36.5175C17.9957 36.5175 17.9957 36.5175 17.9957 36.5175C17.9957 36.5175 17.9957 36.5175 17.9957 36.5175C17.9957 36.5175 17.9957 36.5175 17.9957 36.5175V36.5175C17.9957 36.5175 17.9957 36.5175 17.9957 36.5175C17.9957 36.5175 17.9957 36.5175 17.9957 36.5175C17.9957 36.5175 17.9957 36.5175 17.9957 36.5175V36.5174C17.9957 36.5174 17.9957 36.5174 17.9957 36.5174C17.9957 36.5174 17.9957 36.5174 17.9957 36.5174C17.9957 36.5174 17.9957 36.5174 17.9957 36.5174C17.9957 36.5174 17.9957 36.5174 17.9957 36.5174V36.5174C17.9957 36.5174 17.9957 36.5174 17.9957 36.5174C17.9957 36.5174 17.9957 36.5174 17.9957 36.5174C17.9957 36.5174 17.9957 36.5174 17.9957 36.5174V36.5174C17.9957 36.5174 17.9957 36.5174 17.9957 36.5174C17.9957 36.5174 17.9957 36.5174 17.9957 36.5174C17.9957 36.5174 17.9957 36.5174 17.9957 36.5174V36.5174C17.9957 36.5174 17.9957 36.5174 17.9957 36.5174C17.9957 36.5174 17.9957 36.5174 17.9957 36.5174C17.9957 36.5174 17.9957 36.5174 17.9957 36.5174V36.5174V36.5174C17.9957 36.5174 17.9957 36.5174 17.9957 36.5174C17.9957 36.5174 17.9957 36.5174 17.9957 36.5174V36.5174V36.5174C17.9957 36.5174 17.9957 36.5174 17.9957 36.5174C17.9957 36.5174 17.9957 36.5174 17.9957 36.5174V36.5174V36.5174C17.9957 36.5174 17.9957 36.5174 17.9957 36.5174C17.9957 36.5174 17.9957 36.5174 17.9957 36.5174C17.9957 36.5174 17.9957 36.5174 17.9957 36.5174V36.5174V36.5174C17.9957 36.5174 17.9957 36.5174 17.9957 36.5174C17.9957 36.5174 17.9957 36.5174 17.9957 36.5174V36.5174C17.9957 36.5174 17.9957 36.5174 17.9957 36.5174C17.9957 36.5174 17.9957 36.5174 17.9957 36.5174C17.9957 36.5174 17.9957 36.5174 17.9957 36.5174C17.9957 36.5174 17.9957 36.5174 17.9957 36.5174V36.5174C17.9957 36.5174 17.9957 36.5174 17.9957 36.5174C17.9957 36.5174 17.9957 36.5174 17.9957 36.5174C17.9957 36.5174 17.9957 36.5174 17.9957 36.5174C17.9957 36.5174 17.9957 36.5174 17.9957 36.5174V36.5174C17.9957 36.5174 17.9957 36.5174 17.9957 36.5174C17.9957 36.5174 17.9957 36.5174 17.9957 36.5174C17.9957 36.5174 17.9957 36.5174 17.9957 36.5174V36.5174C17.9957 36.5174 17.9957 36.5174 17.9957 36.5174C17.9957 36.5174 17.9957 36.5174 17.9957 36.5174C17.9957 36.5174 17.9957 36.5174 17.9957 36.5174V36.5174C17.9957 36.5174 17.9957 36.5174 17.9957 36.5174C17.9957 36.5174 17.9957 36.5174 17.9957 36.5174C17.9957 36.5173 17.9957 36.5173 17.9957 36.5173V36.5173C17.9957 36.5173 17.9957 36.5173 17.9957 36.5173C17.9957 36.5173 17.9957 36.5173 17.9957 36.5173H17.9957C17.9957 36.5173 17.9957 36.5173 17.9957 36.5173V36.5173C17.9957 36.5173 17.9957 36.5173 17.9957 36.5173C17.9957 36.5173 17.9957 36.5173 17.9957 36.5173C17.9957 36.5173 17.9957 36.5173 17.9957 36.5173V36.5173C17.9957 36.5173 17.9957 36.5173 17.9957 36.5173C17.9957 36.5173 17.9957 36.5173 17.9957 36.5173H17.9957C17.9957 36.5173 17.9957 36.5173 17.9957 36.5173V36.5173C17.9957 36.5173 17.9957 36.5173 17.9957 36.5173C17.9957 36.5173 17.9957 36.5173 17.9957 36.5173C17.9957 36.5173 17.9957 36.5173 17.9957 36.5173V36.5173C17.9957 36.5173 17.9957 36.5173 17.9957 36.5173C17.9957 36.5173 17.9957 36.5173 17.9957 36.5173C17.9957 36.5173 17.9957 36.5173 17.9957 36.5173V36.5173V36.5173C17.9957 36.5173 17.9957 36.5173 17.9957 36.5173C17.9957 36.5173 17.9957 36.5173 17.9957 36.5173V36.5173V36.5173H17.9957C17.9957 36.5173 17.9957 36.5173 17.9957 36.5173C17.9957 36.5173 17.9957 36.5173 17.9957 36.5173V36.5173V36.5173C17.9957 36.5173 17.9957 36.5173 17.9957 36.5173C17.9957 36.5173 17.9957 36.5173 17.9957 36.5173V36.5173L17.9957 36.5173C17.9957 36.5173 17.9957 36.5173 17.9957 36.5173C17.9957 36.5173 17.9957 36.5173 17.9957 36.5173V36.5173V36.5173C17.9957 36.5173 17.9957 36.5173 17.9957 36.5173C17.9957 36.5173 17.9957 36.5173 17.9957 36.5173C17.9957 36.5173 17.9957 36.5173 17.9957 36.5173C17.9957 36.5173 17.9957 36.5173 17.9957 36.5173V36.5173C17.9957 36.5173 17.9957 36.5173 17.9957 36.5173C17.9957 36.5173 17.9957 36.5173 17.9957 36.5173C17.9957 36.5173 17.9957 36.5173 17.9957 36.5173V36.5173C17.9957 36.5173 17.9957 36.5173 17.9957 36.5173C17.9957 36.5173 17.9957 36.5173 17.9957 36.5173C17.9957 36.5173 17.9957 36.5173 17.9957 36.5173V36.5173C17.9957 36.5173 17.9957 36.5173 17.9957 36.5173C17.9957 36.5173 17.9957 36.5173 17.9957 36.5173C17.9957 36.5172 17.9957 36.5172 17.9957 36.5172V36.5172C17.9957 36.5172 17.9957 36.5172 17.9957 36.5172C17.9957 36.5172 17.9957 36.5172 17.9957 36.5172C17.9957 36.5172 17.9957 36.5172 17.9957 36.5172C17.9957 36.5172 17.9957 36.5172 17.9957 36.5172V36.5172C17.9957 36.5172 17.9957 36.5172 17.9957 36.5172C17.9957 36.5172 17.9957 36.5172 17.9957 36.5172C17.9957 36.5172 17.9957 36.5172 17.9957 36.5172V36.5172C17.9957 36.5172 17.9957 36.5172 17.9957 36.5172C17.9957 36.5172 17.9957 36.5172 17.9957 36.5172C17.9957 36.5172 17.9957 36.5172 17.9957 36.5172C17.9957 36.5172 17.9957 36.5172 17.9957 36.5172V36.5172C17.9957 36.5172 17.9957 36.5172 17.9957 36.5172C17.9957 36.5172 17.9957 36.5172 17.9957 36.5172C17.9957 36.5172 17.9957 36.5172 17.9957 36.5172V36.5172C17.9957 36.5172 17.9957 36.5172 17.9957 36.5172C17.9957 36.5172 17.9957 36.5172 17.9957 36.5172C17.9957 36.5172 17.9957 36.5172 17.9957 36.5172V36.5172C17.9957 36.5172 17.9957 36.5172 17.9957 36.5172C17.9957 36.5172 17.9957 36.5172 17.9957 36.5172C17.9957 36.5172 17.9957 36.5172 17.9957 36.5172L17.0042 36.6477V36.6477V36.6477C17.0042 36.6477 17.0042 36.6477 17.0042 36.6477C17.0042 36.6477 17.0042 36.6477 17.0042 36.6477V36.6477V36.6477C17.0042 36.6477 17.0042 36.6477 17.0042 36.6477C17.0042 36.6477 17.0042 36.6477 17.0042 36.6477V36.6477V36.6477C17.0042 36.6477 17.0042 36.6477 17.0042 36.6477C17.0042 36.6477 17.0042 36.6477 17.0042 36.6477C17.0042 36.6477 17.0042 36.6477 17.0042 36.6477V36.6477V36.6477C17.0042 36.6477 17.0042 36.6477 17.0042 36.6477C17.0042 36.6477 17.0042 36.6477 17.0042 36.6477V36.6477C17.0042 36.6477 17.0042 36.6477 17.0042 36.6477C17.0042 36.6477 17.0042 36.6477 17.0042 36.6477C17.0042 36.6477 17.0042 36.6477 17.0042 36.6477C17.0042 36.6477 17.0042 36.6477 17.0042 36.6477V36.6477C17.0042 36.6477 17.0042 36.6477 17.0042 36.6477C17.0042 36.6477 17.0042 36.6477 17.0042 36.6477C17.0042 36.6477 17.0042 36.6477 17.0042 36.6477C17.0042 36.6477 17.0042 36.6477 17.0042 36.6477V36.6477C17.0042 36.6477 17.0042 36.6477 17.0042 36.6477C17.0042 36.6477 17.0042 36.6477 17.0042 36.6477C17.0042 36.6477 17.0042 36.6477 17.0042 36.6477V36.6477C17.0042 36.6477 17.0042 36.6477 17.0042 36.6477C17.0042 36.6477 17.0042 36.6477 17.0042 36.6477C17.0042 36.6477 17.0042 36.6477 17.0042 36.6477V36.6477C17.0042 36.6477 17.0042 36.6477 17.0042 36.6477C17.0042 36.6477 17.0042 36.6477 17.0042 36.6477C17.0042 36.6477 17.0042 36.6477 17.0042 36.6477V36.6477C17.0042 36.6477 17.0042 36.6477 17.0042 36.6477C17.0042 36.6477 17.0042 36.6477 17.0042 36.6477H17.0042C17.0042 36.6477 17.0042 36.6477 17.0042 36.6477V36.6477C17.0042 36.6477 17.0042 36.6477 17.0042 36.6477C17.0042 36.6477 17.0042 36.6477 17.0042 36.6477C17.0042 36.6477 17.0042 36.6477 17.0042 36.6477V36.6477C17.0042 36.6477 17.0042 36.6477 17.0042 36.6477C17.0042 36.6477 17.0042 36.6477 17.0042 36.6477H17.0042C17.0042 36.6478 17.0042 36.6478 17.0042 36.6478V36.6478C17.0042 36.6478 17.0042 36.6478 17.0042 36.6478C17.0042 36.6478 17.0042 36.6478 17.0042 36.6478C17.0042 36.6478 17.0042 36.6478 17.0042 36.6478V36.6478C17.0042 36.6478 17.0042 36.6478 17.0042 36.6478C17.0042 36.6478 17.0042 36.6478 17.0042 36.6478C17.0042 36.6478 17.0042 36.6478 17.0042 36.6478V36.6478V36.6478C17.0042 36.6478 17.0042 36.6478 17.0042 36.6478C17.0042 36.6478 17.0042 36.6478 17.0042 36.6478V36.6478V36.6478H17.0042C17.0042 36.6478 17.0042 36.6478 17.0042 36.6478C17.0042 36.6478 17.0042 36.6478 17.0042 36.6478V36.6478V36.6478C17.0042 36.6478 17.0042 36.6478 17.0042 36.6478C17.0042 36.6478 17.0042 36.6478 17.0042 36.6478V36.6478L17.0042 36.6478C17.0042 36.6478 17.0042 36.6478 17.0042 36.6478C17.0042 36.6478 17.0042 36.6478 17.0042 36.6478V36.6478V36.6478C17.0042 36.6478 17.0042 36.6478 17.0042 36.6478C17.0042 36.6478 17.0042 36.6478 17.0042 36.6478C17.0042 36.6478 17.0042 36.6478 17.0042 36.6478C17.0042 36.6478 17.0042 36.6478 17.0042 36.6478V36.6478C17.0042 36.6478 17.0042 36.6478 17.0042 36.6478C17.0042 36.6478 17.0042 36.6478 17.0042 36.6478C17.0042 36.6478 17.0042 36.6478 17.0042 36.6478V36.6478C17.0042 36.6478 17.0042 36.6478 17.0042 36.6478C17.0042 36.6478 17.0042 36.6478 17.0042 36.6478C17.0042 36.6478 17.0042 36.6478 17.0042 36.6478V36.6478C17.0042 36.6478 17.0042 36.6478 17.0042 36.6478C17.0042 36.6478 17.0042 36.6478 17.0042 36.6478C17.0042 36.6478 17.0042 36.6478 17.0042 36.6478V36.6478C17.0042 36.6478 17.0042 36.6478 17.0042 36.6478C17.0042 36.6478 17.0042 36.6478 17.0042 36.6478C17.0042 36.6478 17.0042 36.6478 17.0042 36.6478C17.0042 36.6478 17.0042 36.6478 17.0042 36.6478V36.6478C17.0042 36.6478 17.0042 36.6478 17.0042 36.6478C17.0042 36.6478 17.0042 36.6478 17.0042 36.6478C17.0042 36.6478 17.0042 36.6478 17.0042 36.6478V36.6478C17.0042 36.6478 17.0042 36.6478 17.0042 36.6478C17.0042 36.6478 17.0042 36.6478 17.0042 36.6479C17.0042 36.6479 17.0042 36.6479 17.0042 36.6479C17.0042 36.6479 17.0042 36.6479 17.0042 36.6479V36.6479C17.0042 36.6479 17.0042 36.6479 17.0042 36.6479C17.0042 36.6479 17.0042 36.6479 17.0042 36.6479C17.0042 36.6479 17.0042 36.6479 17.0042 36.6479V36.6479C17.0042 36.6479 17.0042 36.6479 17.0042 36.6479C17.0042 36.6479 17.0042 36.6479 17.0042 36.6479C17.0042 36.6479 17.0042 36.6479 17.0042 36.6479V36.6479C17.0042 36.6479 17.0042 36.6479 17.0042 36.6479C17.0042 36.6479 17.0042 36.6479 17.0042 36.6479C17.0042 36.6479 17.0042 36.6479 17.0042 36.6479V36.6479V36.6479C17.0042 36.6479 17.0042 36.6479 17.0042 36.6479C17.0042 36.6479 17.0042 36.6479 17.0042 36.6479V36.6479V36.6479C17.0042 36.6479 17.0042 36.6479 17.0042 36.6479C17.0042 36.6479 17.0042 36.6479 17.0042 36.6479V36.6479V36.6479C17.0042 36.6479 17.0042 36.6479 17.0042 36.6479C17.0042 36.6479 17.0042 36.6479 17.0042 36.6479C17.0042 36.6479 17.0042 36.6479 17.0042 36.6479V36.6479V36.6479C17.0042 36.6479 17.0042 36.6479 17.0042 36.6479C17.0042 36.6479 17.0042 36.6479 17.0042 36.6479V36.6479C17.0042 36.6479 17.0042 36.6479 17.0042 36.6479C17.0042 36.6479 17.0042 36.6479 17.0042 36.6479C17.0042 36.6479 17.0042 36.6479 17.0042 36.6479C17.0042 36.6479 17.0042 36.6479 17.0042 36.6479V36.6479C17.0042 36.6479 17.0042 36.6479 17.0042 36.6479C17.0042 36.6479 17.0042 36.6479 17.0042 36.6479C17.0042 36.6479 17.0042 36.6479 17.0042 36.6479C17.0043 36.6479 17.0043 36.6479 17.0043 36.6479V36.6479C17.0043 36.6479 17.0043 36.6479 17.0043 36.6479C17.0043 36.6479 17.0043 36.6479 17.0043 36.6479C17.0043 36.6479 17.0043 36.6479 17.0043 36.6479V36.6479C17.0043 36.6479 17.0043 36.6479 17.0043 36.6479C17.0043 36.6479 17.0043 36.6479 17.0043 36.6479C17.0043 36.6479 17.0043 36.6479 17.0043 36.6479V36.6479C17.0043 36.6479 17.0043 36.6479 17.0043 36.6479C17.0043 36.6479 17.0043 36.6479 17.0043 36.6479C17.0043 36.6479 17.0043 36.6479 17.0043 36.6479V36.6479C17.0043 36.6479 17.0043 36.6479 17.0043 36.6479C17.0043 36.6479 17.0043 36.6479 17.0043 36.648H17.0043C17.0043 36.648 17.0043 36.648 17.0043 36.648V36.648C17.0043 36.648 17.0043 36.648 17.0043 36.648C17.0043 36.648 17.0043 36.648 17.0043 36.648C17.0043 36.648 17.0043 36.648 17.0043 36.648V36.648C17.0043 36.648 17.0043 36.648 17.0043 36.648C17.0043 36.648 17.0043 36.648 17.0043 36.648H17.0043C17.0043 36.648 17.0043 36.648 17.0043 36.648V36.648C17.0043 36.648 17.0043 36.648 17.0043 36.648C17.0043 36.648 17.0043 36.648 17.0043 36.648C17.0043 36.648 17.0043 36.648 17.0043 36.648V36.648C17.0043 36.648 17.0043 36.648 17.0043 36.648C17.0043 36.648 17.0043 36.648 17.0043 36.648C17.0043 36.648 17.0043 36.648 17.0043 36.648V36.648V36.648C17.0043 36.648 17.0043 36.648 17.0043 36.648C17.0043 36.648 17.0043 36.648 17.0043 36.648V36.648V36.648H17.0043C17.0043 36.648 17.0043 36.648 17.0043 36.648C17.0043 36.648 17.0043 36.648 17.0043 36.648V36.648V36.648C17.0043 36.648 17.0043 36.648 17.0043 36.648C17.0043 36.648 17.0043 36.648 17.0043 36.648V36.648L17.0043 36.648C17.0043 36.648 17.0043 36.648 17.0043 36.648C17.0043 36.648 17.0043 36.648 17.0043 36.648V36.648V36.648C17.0043 36.648 17.0043 36.648 17.0043 36.648C17.0043 36.648 17.0043 36.648 17.0043 36.648C17.0043 36.648 17.0043 36.648 17.0043 36.648C17.0043 36.648 17.0043 36.648 17.0043 36.648V36.648C17.0043 36.648 17.0043 36.648 17.0043 36.648C17.0043 36.648 17.0043 36.648 17.0043 36.648C17.0043 36.648 17.0043 36.648 17.0043 36.648V36.648C17.0043 36.648 17.0043 36.648 17.0043 36.648C17.0043 36.648 17.0043 36.648 17.0043 36.648C17.0043 36.648 17.0043 36.648 17.0043 36.648V36.648C17.0043 36.648 17.0043 36.648 17.0043 36.648C17.0043 36.648 17.0043 36.648 17.0043 36.648C17.0043 36.648 17.0043 36.648 17.0043 36.648V36.648C17.0043 36.648 17.0043 36.648 17.0043 36.6481C17.0043 36.6481 17.0043 36.6481 17.0043 36.6481C17.0043 36.6481 17.0043 36.6481 17.0043 36.6481C17.0043 36.6481 17.0043 36.6481 17.0043 36.6481V36.6481C17.0043 36.6481 17.0043 36.6481 17.0043 36.6481C17.0043 36.6481 17.0043 36.6481 17.0043 36.6481C17.0043 36.6481 17.0043 36.6481 17.0043 36.6481V36.6481C17.0043 36.6481 17.0043 36.6481 17.0043 36.6481C17.0043 36.6481 17.0043 36.6481 17.0043 36.6481C17.0043 36.6481 17.0043 36.6481 17.0043 36.6481C17.0043 36.6481 17.0043 36.6481 17.0043 36.6481V36.6481C17.0043 36.6481 17.0043 36.6481 17.0043 36.6481C17.0043 36.6481 17.0043 36.6481 17.0043 36.6481C17.0043 36.6481 17.0043 36.6481 17.0043 36.6481V36.6481C17.0043 36.6481 17.0043 36.6481 17.0043 36.6481C17.0043 36.6481 17.0043 36.6481 17.0043 36.6481C17.0043 36.6481 17.0043 36.6481 17.0043 36.6481V36.6481C17.0043 36.6481 17.0043 36.6481 17.0043 36.6481C17.0043 36.6481 17.0043 36.6481 17.0043 36.6481C17.0043 36.6481 17.0043 36.6481 17.0043 36.6481L17.9957 36.5176ZM17.1458 36.9358L17.1464 36.9364L17.8536 36.2293L17.8529 36.2287L17.1458 36.9358ZM17.6579 36.108C16.7034 35.789 15.7882 36.0137 14.9781 36.583C14.1837 37.1414 13.471 38.0403 12.8459 39.133C11.5931 41.3233 10.611 44.4372 10.0449 47.6739C9.47826 50.913 9.31958 54.3241 9.7467 57.1185C9.96022 58.5155 10.3236 59.7816 10.8729 60.7998C11.4234 61.8203 12.1762 62.6182 13.1737 63.0187L13.5462 62.0906C12.8272 61.8019 12.2287 61.2067 11.753 60.325C11.2761 59.4411 10.9383 58.2959 10.7352 56.9674C10.3292 54.3109 10.4758 51.0138 11.0299 47.8462C11.5844 44.6762 12.5384 41.6847 13.714 39.6296C14.3031 38.5995 14.9277 37.8408 15.5531 37.4012C16.163 36.9726 16.7504 36.8591 17.3409 37.0564L17.6579 36.108ZM13.0836 62.138C8.31703 65.2991 6.79806 68.5478 6.94993 71.3688C7.09944 74.1459 8.8629 76.3361 10.3126 77.4273L10.914 76.6284C9.61704 75.6521 8.07727 73.7071 7.94849 71.3151C7.82208 68.9671 9.04976 66.0131 13.6363 62.9713L13.0836 62.138ZM10.174 76.7891C8.02786 80.7382 8.11372 86.226 9.1793 91.4291C10.2486 96.6505 12.3291 101.704 14.3097 104.862L15.1568 104.33C13.2463 101.285 11.2069 96.3451 10.159 91.2285C9.10734 86.0935 9.07876 80.8987 11.0526 77.2666L10.174 76.7891ZM15.1418 104.308C9.93371 96.9279 7.21006 91.8192 5.72568 87.9294C4.24576 84.0512 3.98991 81.3667 3.74513 78.7945L2.74963 78.8892C2.99665 81.4849 3.26213 84.2784 4.79139 88.2859C6.3162 92.2817 9.0896 97.4661 14.3248 104.884L15.1418 104.308ZM3.74513 78.7945C3.6873 78.1867 3.62965 77.5807 3.55646 76.9685L2.56353 77.0872C2.63505 77.6854 2.69161 78.2795 2.74963 78.8892L3.74513 78.7945ZM3.55651 77.0868C4.7038 67.4139 5.61999 46.5798 5.61999 40.5002H4.61999C4.61999 46.5506 3.70506 67.3442 2.56347 76.969L3.55651 77.0868ZM5.61999 40.5002C5.61999 37.8873 4.99999 34.3082 4.24317 30.8652C3.48407 27.4117 2.57755 24.0534 1.98841 21.8706L1.02296 22.1312C1.61248 24.3153 2.51311 27.6525 3.26649 31.0799C4.02216 34.5177 4.61999 38.0048 4.61999 40.5002H5.61999ZM1.98841 21.8706C1.76713 21.0507 1.59215 20.4023 1.48531 19.9734L0.514964 20.2152C0.624767 20.6559 0.802968 21.3161 1.02296 22.1312L1.98841 21.8706ZM0.646774 20.448L0.646912 20.4482L1.35336 19.7404L1.35323 19.7403L0.646774 20.448ZM1.17624 19.6263C1.1762 19.6262 1.17616 19.6262 1.17612 19.6262L0.823878 20.5621C0.823916 20.5621 0.823953 20.5621 0.823991 20.5622L1.17624 19.6263ZM1.48528 19.9733C1.48525 19.9732 1.48521 19.9731 1.48518 19.9729L0.514819 20.2146C0.514861 20.2147 0.514903 20.2149 0.514946 20.2151L1.48528 19.9733ZM0.646521 20.4474L0.647187 20.448L1.35414 19.7408L1.35348 19.7401L0.646521 20.4474ZM20.3942 14.7687C18.8719 17.6855 11.9037 23.6636 1.17678 19.6265L0.824549 20.5624C12.0701 24.7947 19.5477 18.552 21.2807 15.2313L20.3942 14.7687ZM39.2163 23.2763C37.1547 22.9941 32.9365 21.5576 29.054 19.8072C27.1205 18.9354 25.2935 17.9961 23.8806 17.0997C23.1737 16.6512 22.5807 16.2198 22.1326 15.8195C21.6755 15.4112 21.4082 15.0694 21.2988 14.8074L20.376 15.1926C20.5718 15.6616 20.9721 16.1238 21.4664 16.5653C21.9696 17.0148 22.6116 17.4788 23.3448 17.944C24.8121 18.875 26.6854 19.8362 28.643 20.7188C32.5428 22.477 36.8697 23.9644 39.0807 24.267L39.2163 23.2763ZM38.3215 31.6503C38.2549 31.5653 38.1812 31.4768 38.1006 31.3854L37.3504 32.0466C37.4194 32.1249 37.4806 32.1984 37.534 32.2667L38.3215 31.6503ZM37.3047 31.986C37.3892 32.1176 37.486 32.2277 37.5818 32.3196L38.2737 31.5975C38.2229 31.5489 38.1802 31.4987 38.1463 31.4459L37.3047 31.986Z" fill="#808080"/>
<path d="M50.1496 124.054C40.4904 132.94 55.5606 143.573 62 147.006C45.9014 138.927 44.5151 135.364 42.1003 132.133C46.1249 125.669 38.8806 125.669 34.856 127.285C27.1776 123.495 16.5523 107.92 14.7331 104.227C17.9525 107.088 22.782 108.703 26.0017 107.088C23.587 113.551 32.2753 122.082 37.2707 123.246C43.5443 124.707 48.9926 124.922 50.1496 124.054Z" fill="#D9D9D9" stroke="#808080"/>
<path fill-rule="evenodd" clip-rule="evenodd" d="M84.8515 23.7717C81.4335 24.2395 78.9242 23.8718 77.5 23.0921C86.3864 28.6261 86.8722 30.7846 86.2745 31.716C87.7205 30.0753 91.9257 27.0004 98.89 26.1108C106.214 25.1752 106.907 33.4632 106.5 36.5824L106.5 36.5824C106.5 36.5824 106.5 36.5824 106.5 36.5824C106.5 36.5826 106.5 36.5827 106.5 36.5829L106.501 36.5822C112.68 34.5166 117.506 59.7979 110.64 62.5546C119.993 68.7575 116.133 74.9603 113.387 77.0279C117.507 84.6091 113.158 98.3931 109.267 104.596C119.71 89.798 120.261 84.0097 120.753 78.8418C120.811 78.2331 120.868 77.6331 120.94 77.0279C119.796 67.3791 118.88 46.5652 118.88 40.5002C118.88 35.3919 121.316 26.3678 122.494 22.0009C122.715 21.1834 122.892 20.5291 123 20.0943L123 20.0942C123 20.0942 123 20.0942 123 20.0942C123 20.0941 123 20.0939 123 20.0938L122.999 20.0944C112.013 24.2291 104.79 18.1187 103.163 15C101.942 17.9239 89.1241 23.1869 84.8515 23.7717ZM86.0723 31.9585C86.1323 31.8818 86.1997 31.8008 86.2745 31.716C86.2153 31.8082 86.1455 31.8883 86.0723 31.9585Z" fill="#D9D9D9"/>
<path d="M77.5 23.0921L77.2357 23.5165L77.7401 22.6535L77.5 23.0921ZM84.8515 23.7717L84.7837 23.2763L84.8515 23.7717ZM98.89 26.1108L98.9533 26.6067L98.89 26.1108ZM106.5 36.5824L106.996 36.647L106.974 36.8157L106.854 36.9359L106.5 36.5824ZM106.5 36.5824L106.644 37.0614L106.146 36.2289L106.5 36.5824ZM106.5 36.5824L106.356 36.1035L107.097 35.8815L106.996 36.6477L106.5 36.5824ZM106.5 36.5829L106.854 36.9364L105.812 37.9778L106.004 36.5176L106.5 36.5829ZM106.501 36.5822L106.147 36.2287L106.23 36.1454L106.342 36.108L106.501 36.5822ZM110.64 62.5546L110.364 62.9713L109.57 62.4453L110.454 62.0906L110.64 62.5546ZM113.387 77.0279L112.947 77.2666L112.741 76.8877L113.086 76.6284L113.387 77.0279ZM109.267 104.596L109.675 104.884L108.843 104.33L109.267 104.596ZM120.753 78.8418L121.25 78.8892L120.753 78.8418ZM120.94 77.0279L121.437 76.969L121.444 77.0281L121.436 77.0872L120.94 77.0279ZM122.494 22.0009L122.977 22.1312H122.977L122.494 22.0009ZM123 20.0943L122.515 19.9734L122.548 19.8386L122.647 19.7404L123 20.0943ZM123 20.0942L122.824 19.6262L123.353 20.448L123 20.0942ZM123 20.0942L123.176 20.5622L122.284 20.8977L122.515 19.9733L123 20.0942ZM123 20.0938L122.647 19.7401L123.92 18.4667L123.485 20.2146L123 20.0938ZM122.999 20.0944L123.353 20.448L123.276 20.5244L123.175 20.5624L122.999 20.0944ZM103.163 15L102.701 14.8074L103.112 13.8228L103.606 14.7687L103.163 15ZM86.0723 31.9585L86.4182 32.3196L85.6785 31.6503L86.0723 31.9585ZM77.7401 22.6535C79.0287 23.359 81.4123 23.7377 84.7837 23.2763L84.9193 24.267C81.4546 24.7412 78.8197 24.3846 77.2599 23.5307L77.7401 22.6535ZM85.8537 31.4459C85.9287 31.329 85.9881 31.1592 85.919 30.87C85.8445 30.5584 85.6169 30.0991 85.0645 29.4558C83.9586 28.1681 81.6694 26.2776 77.2357 23.5165L77.7643 22.6677C82.217 25.4406 84.614 27.3964 85.8231 28.8043C86.4282 29.5088 86.7654 30.1097 86.8916 30.6376C87.0231 31.188 86.9191 31.6373 86.6953 31.9861L85.8537 31.4459ZM98.9533 26.6067C92.1015 27.482 88.01 30.503 86.6496 32.0466L85.8994 31.3854C87.431 29.6475 91.7499 26.5188 98.8266 25.6148L98.9533 26.6067ZM106.004 36.5177C106.2 35.0179 106.127 32.2649 105.137 30.0284C104.645 28.918 103.94 27.9621 102.957 27.3352C101.981 26.7127 100.686 26.3854 98.9533 26.6067L98.8266 25.6148C100.756 25.3683 102.294 25.7262 103.495 26.492C104.689 27.2535 105.505 28.3891 106.051 29.6237C107.137 32.0771 107.207 35.0277 106.996 36.647L106.004 36.5177ZM106.854 36.9359L106.854 36.936L106.146 36.2289L106.147 36.2288L106.854 36.9359ZM106.356 36.1035C106.349 36.1057 106.343 36.1076 106.34 36.1087C106.337 36.1097 106.334 36.1107 106.335 36.1105C106.335 36.1105 106.335 36.1105 106.335 36.1105C106.335 36.1105 106.335 36.1105 106.335 36.1105C106.335 36.1105 106.335 36.1105 106.335 36.1105C106.335 36.1105 106.335 36.1104 106.335 36.1104C106.335 36.1103 106.336 36.1102 106.336 36.1101C106.337 36.1098 106.338 36.1093 106.34 36.1087C106.344 36.1075 106.349 36.1057 106.356 36.1035L106.644 37.0613C106.651 37.0592 106.657 37.0573 106.66 37.0562C106.663 37.0551 106.666 37.0542 106.665 37.0544C106.665 37.0544 106.665 37.0544 106.665 37.0544C106.665 37.0544 106.665 37.0544 106.665 37.0544C106.665 37.0544 106.665 37.0544 106.665 37.0544C106.665 37.0544 106.665 37.0544 106.665 37.0545C106.665 37.0546 106.664 37.0547 106.664 37.0548C106.663 37.0551 106.662 37.0556 106.66 37.0562C106.657 37.0573 106.651 37.0592 106.644 37.0614L106.356 36.1035ZM106.004 36.5176V36.5176V36.5176C106.004 36.5176 106.004 36.5176 106.004 36.5176C106.004 36.5176 106.004 36.5176 106.004 36.5176V36.5176V36.5176C106.004 36.5176 106.004 36.5176 106.004 36.5176C106.004 36.5176 106.004 36.5176 106.004 36.5176V36.5176V36.5176C106.004 36.5176 106.004 36.5176 106.004 36.5176C106.004 36.5176 106.004 36.5176 106.004 36.5176C106.004 36.5176 106.004 36.5176 106.004 36.5176V36.5176V36.5176C106.004 36.5176 106.004 36.5176 106.004 36.5176C106.004 36.5176 106.004 36.5176 106.004 36.5176V36.5176C106.004 36.5176 106.004 36.5176 106.004 36.5176C106.004 36.5176 106.004 36.5176 106.004 36.5176C106.004 36.5176 106.004 36.5176 106.004 36.5176C106.004 36.5176 106.004 36.5176 106.004 36.5176V36.5176C106.004 36.5176 106.004 36.5176 106.004 36.5176C106.004 36.5176 106.004 36.5176 106.004 36.5176C106.004 36.5176 106.004 36.5176 106.004 36.5176C106.004 36.5176 106.004 36.5176 106.004 36.5176V36.5176C106.004 36.5176 106.004 36.5176 106.004 36.5176C106.004 36.5176 106.004 36.5176 106.004 36.5176C106.004 36.5176 106.004 36.5176 106.004 36.5176V36.5176C106.004 36.5176 106.004 36.5176 106.004 36.5176C106.004 36.5176 106.004 36.5176 106.004 36.5176C106.004 36.5176 106.004 36.5176 106.004 36.5176V36.5176C106.004 36.5176 106.004 36.5176 106.004 36.5176C106.004 36.5176 106.004 36.5176 106.004 36.5176C106.004 36.5176 106.004 36.5176 106.004 36.5176V36.5176C106.004 36.5176 106.004 36.5176 106.004 36.5176C106.004 36.5176 106.004 36.5176 106.004 36.5176H106.004C106.004 36.5176 106.004 36.5176 106.004 36.5176V36.5176C106.004 36.5176 106.004 36.5176 106.004 36.5176C106.004 36.5176 106.004 36.5176 106.004 36.5176C106.004 36.5176 106.004 36.5176 106.004 36.5176V36.5175C106.004 36.5175 106.004 36.5175 106.004 36.5175C106.004 36.5175 106.004 36.5175 106.004 36.5175H106.004C106.004 36.5175 106.004 36.5175 106.004 36.5175V36.5175C106.004 36.5175 106.004 36.5175 106.004 36.5175C106.004 36.5175 106.004 36.5175 106.004 36.5175C106.004 36.5175 106.004 36.5175 106.004 36.5175V36.5175C106.004 36.5175 106.004 36.5175 106.004 36.5175C106.004 36.5175 106.004 36.5175 106.004 36.5175C106.004 36.5175 106.004 36.5175 106.004 36.5175V36.5175V36.5175C106.004 36.5175 106.004 36.5175 106.004 36.5175C106.004 36.5175 106.004 36.5175 106.004 36.5175V36.5175V36.5175H106.004C106.004 36.5175 106.004 36.5175 106.004 36.5175C106.004 36.5175 106.004 36.5175 106.004 36.5175V36.5175V36.5175C106.004 36.5175 106.004 36.5175 106.004 36.5175C106.004 36.5175 106.004 36.5175 106.004 36.5175V36.5175L106.004 36.5175C106.004 36.5175 106.004 36.5175 106.004 36.5175C106.004 36.5175 106.004 36.5175 106.004 36.5175V36.5175V36.5175C106.004 36.5175 106.004 36.5175 106.004 36.5175C106.004 36.5175 106.004 36.5175 106.004 36.5175C106.004 36.5175 106.004 36.5175 106.004 36.5175C106.004 36.5175 106.004 36.5175 106.004 36.5175V36.5175C106.004 36.5175 106.004 36.5175 106.004 36.5175C106.004 36.5175 106.004 36.5175 106.004 36.5175C106.004 36.5175 106.004 36.5175 106.004 36.5175V36.5175C106.004 36.5175 106.004 36.5175 106.004 36.5175C106.004 36.5175 106.004 36.5175 106.004 36.5175C106.004 36.5175 106.004 36.5175 106.004 36.5175V36.5175C106.004 36.5175 106.004 36.5175 106.004 36.5175C106.004 36.5175 106.004 36.5175 106.004 36.5175C106.004 36.5175 106.004 36.5175 106.004 36.5175V36.5175C106.004 36.5175 106.004 36.5175 106.004 36.5175C106.004 36.5175 106.004 36.5175 106.004 36.5175C106.004 36.5175 106.004 36.5175 106.004 36.5175C106.004 36.5175 106.004 36.5175 106.004 36.5175V36.5175C106.004 36.5175 106.004 36.5175 106.004 36.5175C106.004 36.5175 106.004 36.5175 106.004 36.5175C106.004 36.5175 106.004 36.5175 106.004 36.5175V36.5174C106.004 36.5174 106.004 36.5174 106.004 36.5174C106.004 36.5174 106.004 36.5174 106.004 36.5174C106.004 36.5174 106.004 36.5174 106.004 36.5174C106.004 36.5174 106.004 36.5174 106.004 36.5174V36.5174C106.004 36.5174 106.004 36.5174 106.004 36.5174C106.004 36.5174 106.004 36.5174 106.004 36.5174C106.004 36.5174 106.004 36.5174 106.004 36.5174V36.5174C106.004 36.5174 106.004 36.5174 106.004 36.5174C106.004 36.5174 106.004 36.5174 106.004 36.5174C106.004 36.5174 106.004 36.5174 106.004 36.5174V36.5174C106.004 36.5174 106.004 36.5174 106.004 36.5174C106.004 36.5174 106.004 36.5174 106.004 36.5174C106.004 36.5174 106.004 36.5174 106.004 36.5174V36.5174V36.5174C106.004 36.5174 106.004 36.5174 106.004 36.5174C106.004 36.5174 106.004 36.5174 106.004 36.5174V36.5174V36.5174C106.004 36.5174 106.004 36.5174 106.004 36.5174C106.004 36.5174 106.004 36.5174 106.004 36.5174V36.5174V36.5174C106.004 36.5174 106.004 36.5174 106.004 36.5174C106.004 36.5174 106.004 36.5174 106.004 36.5174C106.004 36.5174 106.004 36.5174 106.004 36.5174V36.5174V36.5174C106.004 36.5174 106.004 36.5174 106.004 36.5174C106.004 36.5174 106.004 36.5174 106.004 36.5174V36.5174C106.004 36.5174 106.004 36.5174 106.004 36.5174C106.004 36.5174 106.004 36.5174 106.004 36.5174C106.004 36.5174 106.004 36.5174 106.004 36.5174C106.004 36.5174 106.004 36.5174 106.004 36.5174V36.5174C106.004 36.5174 106.004 36.5174 106.004 36.5174C106.004 36.5174 106.004 36.5174 106.004 36.5174C106.004 36.5174 106.004 36.5174 106.004 36.5174C106.004 36.5174 106.004 36.5174 106.004 36.5174V36.5174C106.004 36.5174 106.004 36.5174 106.004 36.5174C106.004 36.5174 106.004 36.5174 106.004 36.5174C106.004 36.5174 106.004 36.5174 106.004 36.5174V36.5174C106.004 36.5174 106.004 36.5174 106.004 36.5174C106.004 36.5174 106.004 36.5174 106.004 36.5174C106.004 36.5174 106.004 36.5174 106.004 36.5174V36.5174C106.004 36.5174 106.004 36.5174 106.004 36.5174C106.004 36.5174 106.004 36.5174 106.004 36.5174C106.004 36.5173 106.004 36.5173 106.004 36.5173V36.5173C106.004 36.5173 106.004 36.5173 106.004 36.5173C106.004 36.5173 106.004 36.5173 106.004 36.5173H106.004C106.004 36.5173 106.004 36.5173 106.004 36.5173V36.5173C106.004 36.5173 106.004 36.5173 106.004 36.5173C106.004 36.5173 106.004 36.5173 106.004 36.5173C106.004 36.5173 106.004 36.5173 106.004 36.5173V36.5173C106.004 36.5173 106.004 36.5173 106.004 36.5173C106.004 36.5173 106.004 36.5173 106.004 36.5173H106.004C106.004 36.5173 106.004 36.5173 106.004 36.5173V36.5173C106.004 36.5173 106.004 36.5173 106.004 36.5173C106.004 36.5173 106.004 36.5173 106.004 36.5173C106.004 36.5173 106.004 36.5173 106.004 36.5173V36.5173C106.004 36.5173 106.004 36.5173 106.004 36.5173C106.004 36.5173 106.004 36.5173 106.004 36.5173C106.004 36.5173 106.004 36.5173 106.004 36.5173V36.5173V36.5173C106.004 36.5173 106.004 36.5173 106.004 36.5173C106.004 36.5173 106.004 36.5173 106.004 36.5173V36.5173V36.5173H106.004C106.004 36.5173 106.004 36.5173 106.004 36.5173C106.004 36.5173 106.004 36.5173 106.004 36.5173V36.5173V36.5173C106.004 36.5173 106.004 36.5173 106.004 36.5173C106.004 36.5173 106.004 36.5173 106.004 36.5173V36.5173L106.004 36.5173C106.004 36.5173 106.004 36.5173 106.004 36.5173C106.004 36.5173 106.004 36.5173 106.004 36.5173V36.5173V36.5173C106.004 36.5173 106.004 36.5173 106.004 36.5173C106.004 36.5173 106.004 36.5173 106.004 36.5173C106.004 36.5173 106.004 36.5173 106.004 36.5173C106.004 36.5173 106.004 36.5173 106.004 36.5173V36.5173C106.004 36.5173 106.004 36.5173 106.004 36.5173C106.004 36.5173 106.004 36.5173 106.004 36.5173C106.004 36.5173 106.004 36.5173 106.004 36.5173V36.5173C106.004 36.5173 106.004 36.5173 106.004 36.5173C106.004 36.5173 106.004 36.5173 106.004 36.5173C106.004 36.5173 106.004 36.5173 106.004 36.5173V36.5173C106.004 36.5173 106.004 36.5173 106.004 36.5173C106.004 36.5173 106.004 36.5173 106.004 36.5173C106.004 36.5172 106.004 36.5172 106.004 36.5172V36.5172C106.004 36.5172 106.004 36.5172 106.004 36.5172C106.004 36.5172 106.004 36.5172 106.004 36.5172C106.004 36.5172 106.004 36.5172 106.004 36.5172C106.004 36.5172 106.004 36.5172 106.004 36.5172V36.5172C106.004 36.5172 106.004 36.5172 106.004 36.5172C106.004 36.5172 106.004 36.5172 106.004 36.5172C106.004 36.5172 106.004 36.5172 106.004 36.5172V36.5172C106.004 36.5172 106.004 36.5172 106.004 36.5172C106.004 36.5172 106.004 36.5172 106.004 36.5172C106.004 36.5172 106.004 36.5172 106.004 36.5172C106.004 36.5172 106.004 36.5172 106.004 36.5172V36.5172C106.004 36.5172 106.004 36.5172 106.004 36.5172C106.004 36.5172 106.004 36.5172 106.004 36.5172C106.004 36.5172 106.004 36.5172 106.004 36.5172V36.5172C106.004 36.5172 106.004 36.5172 106.004 36.5172C106.004 36.5172 106.004 36.5172 106.004 36.5172C106.004 36.5172 106.004 36.5172 106.004 36.5172V36.5172C106.004 36.5172 106.004 36.5172 106.004 36.5172C106.004 36.5172 106.004 36.5172 106.004 36.5172C106.004 36.5172 106.004 36.5172 106.004 36.5172L106.996 36.6477V36.6477V36.6477C106.996 36.6477 106.996 36.6477 106.996 36.6477C106.996 36.6477 106.996 36.6477 106.996 36.6477V36.6477V36.6477C106.996 36.6477 106.996 36.6477 106.996 36.6477C106.996 36.6477 106.996 36.6477 106.996 36.6477V36.6477V36.6477C106.996 36.6477 106.996 36.6477 106.996 36.6477C106.996 36.6477 106.996 36.6477 106.996 36.6477C106.996 36.6477 106.996 36.6477 106.996 36.6477V36.6477V36.6477C106.996 36.6477 106.996 36.6477 106.996 36.6477C106.996 36.6477 106.996 36.6477 106.996 36.6477V36.6477C106.996 36.6477 106.996 36.6477 106.996 36.6477C106.996 36.6477 106.996 36.6477 106.996 36.6477C106.996 36.6477 106.996 36.6477 106.996 36.6477C106.996 36.6477 106.996 36.6477 106.996 36.6477V36.6477C106.996 36.6477 106.996 36.6477 106.996 36.6477C106.996 36.6477 106.996 36.6477 106.996 36.6477C106.996 36.6477 106.996 36.6477 106.996 36.6477C106.996 36.6477 106.996 36.6477 106.996 36.6477V36.6477C106.996 36.6477 106.996 36.6477 106.996 36.6477C106.996 36.6477 106.996 36.6477 106.996 36.6477C106.996 36.6477 106.996 36.6477 106.996 36.6477V36.6477C106.996 36.6477 106.996 36.6477 106.996 36.6477C106.996 36.6477 106.996 36.6477 106.996 36.6477C106.996 36.6477 106.996 36.6477 106.996 36.6477V36.6477C106.996 36.6477 106.996 36.6477 106.996 36.6477C106.996 36.6477 106.996 36.6477 106.996 36.6477C106.996 36.6477 106.996 36.6477 106.996 36.6477V36.6477C106.996 36.6477 106.996 36.6477 106.996 36.6477C106.996 36.6477 106.996 36.6477 106.996 36.6477H106.996C106.996 36.6477 106.996 36.6477 106.996 36.6477V36.6477C106.996 36.6477 106.996 36.6477 106.996 36.6477C106.996 36.6477 106.996 36.6477 106.996 36.6477C106.996 36.6477 106.996 36.6477 106.996 36.6477V36.6477C106.996 36.6477 106.996 36.6477 106.996 36.6477C106.996 36.6477 106.996 36.6477 106.996 36.6477H106.996C106.996 36.6478 106.996 36.6478 106.996 36.6478V36.6478C106.996 36.6478 106.996 36.6478 106.996 36.6478C106.996 36.6478 106.996 36.6478 106.996 36.6478C106.996 36.6478 106.996 36.6478 106.996 36.6478V36.6478C106.996 36.6478 106.996 36.6478 106.996 36.6478C106.996 36.6478 106.996 36.6478 106.996 36.6478C106.996 36.6478 106.996 36.6478 106.996 36.6478V36.6478V36.6478C106.996 36.6478 106.996 36.6478 106.996 36.6478C106.996 36.6478 106.996 36.6478 106.996 36.6478V36.6478V36.6478H106.996C106.996 36.6478 106.996 36.6478 106.996 36.6478C106.996 36.6478 106.996 36.6478 106.996 36.6478V36.6478V36.6478C106.996 36.6478 106.996 36.6478 106.996 36.6478C106.996 36.6478 106.996 36.6478 106.996 36.6478V36.6478L106.996 36.6478C106.996 36.6478 106.996 36.6478 106.996 36.6478C106.996 36.6478 106.996 36.6478 106.996 36.6478V36.6478V36.6478C106.996 36.6478 106.996 36.6478 106.996 36.6478C106.996 36.6478 106.996 36.6478 106.996 36.6478C106.996 36.6478 106.996 36.6478 106.996 36.6478C106.996 36.6478 106.996 36.6478 106.996 36.6478V36.6478C106.996 36.6478 106.996 36.6478 106.996 36.6478C106.996 36.6478 106.996 36.6478 106.996 36.6478C106.996 36.6478 106.996 36.6478 106.996 36.6478V36.6478C106.996 36.6478 106.996 36.6478 106.996 36.6478C106.996 36.6478 106.996 36.6478 106.996 36.6478C106.996 36.6478 106.996 36.6478 106.996 36.6478V36.6478C106.996 36.6478 106.996 36.6478 106.996 36.6478C106.996 36.6478 106.996 36.6478 106.996 36.6478C106.996 36.6478 106.996 36.6478 106.996 36.6478V36.6478C106.996 36.6478 106.996 36.6478 106.996 36.6478C106.996 36.6478 106.996 36.6478 106.996 36.6478C106.996 36.6478 106.996 36.6478 106.996 36.6478C106.996 36.6478 106.996 36.6478 106.996 36.6478V36.6478C106.996 36.6478 106.996 36.6478 106.996 36.6478C106.996 36.6478 106.996 36.6478 106.996 36.6478C106.996 36.6478 106.996 36.6478 106.996 36.6478V36.6478C106.996 36.6478 106.996 36.6478 106.996 36.6478C106.996 36.6478 106.996 36.6478 106.996 36.6479C106.996 36.6479 106.996 36.6479 106.996 36.6479C106.996 36.6479 106.996 36.6479 106.996 36.6479V36.6479C106.996 36.6479 106.996 36.6479 106.996 36.6479C106.996 36.6479 106.996 36.6479 106.996 36.6479C106.996 36.6479 106.996 36.6479 106.996 36.6479V36.6479C106.996 36.6479 106.996 36.6479 106.996 36.6479C106.996 36.6479 106.996 36.6479 106.996 36.6479C106.996 36.6479 106.996 36.6479 106.996 36.6479V36.6479C106.996 36.6479 106.996 36.6479 106.996 36.6479C106.996 36.6479 106.996 36.6479 106.996 36.6479C106.996 36.6479 106.996 36.6479 106.996 36.6479V36.6479V36.6479C106.996 36.6479 106.996 36.6479 106.996 36.6479C106.996 36.6479 106.996 36.6479 106.996 36.6479V36.6479V36.6479C106.996 36.6479 106.996 36.6479 106.996 36.6479C106.996 36.6479 106.996 36.6479 106.996 36.6479V36.6479V36.6479C106.996 36.6479 106.996 36.6479 106.996 36.6479C106.996 36.6479 106.996 36.6479 106.996 36.6479C106.996 36.6479 106.996 36.6479 106.996 36.6479V36.6479V36.6479C106.996 36.6479 106.996 36.6479 106.996 36.6479C106.996 36.6479 106.996 36.6479 106.996 36.6479V36.6479C106.996 36.6479 106.996 36.6479 106.996 36.6479C106.996 36.6479 106.996 36.6479 106.996 36.6479C106.996 36.6479 106.996 36.6479 106.996 36.6479C106.996 36.6479 106.996 36.6479 106.996 36.6479V36.6479C106.996 36.6479 106.996 36.6479 106.996 36.6479C106.996 36.6479 106.996 36.6479 106.996 36.6479C106.996 36.6479 106.996 36.6479 106.996 36.6479C106.996 36.6479 106.996 36.6479 106.996 36.6479V36.6479C106.996 36.6479 106.996 36.6479 106.996 36.6479C106.996 36.6479 106.996 36.6479 106.996 36.6479C106.996 36.6479 106.996 36.6479 106.996 36.6479V36.6479C106.996 36.6479 106.996 36.6479 106.996 36.6479C106.996 36.6479 106.996 36.6479 106.996 36.6479C106.996 36.6479 106.996 36.6479 106.996 36.6479V36.6479C106.996 36.6479 106.996 36.6479 106.996 36.6479C106.996 36.6479 106.996 36.6479 106.996 36.6479C106.996 36.6479 106.996 36.6479 106.996 36.6479V36.6479C106.996 36.6479 106.996 36.6479 106.996 36.6479C106.996 36.6479 106.996 36.6479 106.996 36.648H106.996C106.996 36.648 106.996 36.648 106.996 36.648V36.648C106.996 36.648 106.996 36.648 106.996 36.648C106.996 36.648 106.996 36.648 106.996 36.648C106.996 36.648 106.996 36.648 106.996 36.648V36.648C106.996 36.648 106.996 36.648 106.996 36.648C106.996 36.648 106.996 36.648 106.996 36.648H106.996C106.996 36.648 106.996 36.648 106.996 36.648V36.648C106.996 36.648 106.996 36.648 106.996 36.648C106.996 36.648 106.996 36.648 106.996 36.648C106.996 36.648 106.996 36.648 106.996 36.648V36.648C106.996 36.648 106.996 36.648 106.996 36.648C106.996 36.648 106.996 36.648 106.996 36.648C106.996 36.648 106.996 36.648 106.996 36.648V36.648V36.648C106.996 36.648 106.996 36.648 106.996 36.648C106.996 36.648 106.996 36.648 106.996 36.648V36.648V36.648H106.996C106.996 36.648 106.996 36.648 106.996 36.648C106.996 36.648 106.996 36.648 106.996 36.648V36.648V36.648C106.996 36.648 106.996 36.648 106.996 36.648C106.996 36.648 106.996 36.648 106.996 36.648V36.648L106.996 36.648C106.996 36.648 106.996 36.648 106.996 36.648C106.996 36.648 106.996 36.648 106.996 36.648V36.648V36.648C106.996 36.648 106.996 36.648 106.996 36.648C106.996 36.648 106.996 36.648 106.996 36.648C106.996 36.648 106.996 36.648 106.996 36.648C106.996 36.648 106.996 36.648 106.996 36.648V36.648C106.996 36.648 106.996 36.648 106.996 36.648C106.996 36.648 106.996 36.648 106.996 36.648C106.996 36.648 106.996 36.648 106.996 36.648V36.648C106.996 36.648 106.996 36.648 106.996 36.648C106.996 36.648 106.996 36.648 106.996 36.648C106.996 36.648 106.996 36.648 106.996 36.648V36.648C106.996 36.648 106.996 36.648 106.996 36.648C106.996 36.648 106.996 36.648 106.996 36.648C106.996 36.648 106.996 36.648 106.996 36.648V36.648C106.996 36.648 106.996 36.648 106.996 36.6481C106.996 36.6481 106.996 36.6481 106.996 36.6481C106.996 36.6481 106.996 36.6481 106.996 36.6481C106.996 36.6481 106.996 36.6481 106.996 36.6481V36.6481C106.996 36.6481 106.996 36.6481 106.996 36.6481C106.996 36.6481 106.996 36.6481 106.996 36.6481C106.996 36.6481 106.996 36.6481 106.996 36.6481V36.6481C106.996 36.6481 106.996 36.6481 106.996 36.6481C106.996 36.6481 106.996 36.6481 106.996 36.6481C106.996 36.6481 106.996 36.6481 106.996 36.6481C106.996 36.6481 106.996 36.6481 106.996 36.6481V36.6481C106.996 36.6481 106.996 36.6481 106.996 36.6481C106.996 36.6481 106.996 36.6481 106.996 36.6481C106.996 36.6481 106.996 36.6481 106.996 36.6481V36.6481C106.996 36.6481 106.996 36.6481 106.996 36.6481C106.996 36.6481 106.996 36.6481 106.996 36.6481C106.996 36.6481 106.996 36.6481 106.996 36.6481V36.6481C106.996 36.6481 106.996 36.6481 106.996 36.6481C106.996 36.6481 106.996 36.6481 106.996 36.6481C106.996 36.6481 106.996 36.6481 106.996 36.6481L106.004 36.5176ZM106.854 36.9358L106.854 36.9364L106.146 36.2293L106.147 36.2287L106.854 36.9358ZM106.342 36.108C107.297 35.789 108.212 36.0137 109.022 36.583C109.816 37.1414 110.529 38.0403 111.154 39.133C112.407 41.3233 113.389 44.4372 113.955 47.6739C114.522 50.913 114.68 54.3241 114.253 57.1185C114.04 58.5155 113.676 59.7816 113.127 60.7998C112.577 61.8203 111.824 62.6182 110.826 63.0187L110.454 62.0906C111.173 61.8019 111.771 61.2067 112.247 60.325C112.724 59.4411 113.062 58.2959 113.265 56.9674C113.671 54.3109 113.524 51.0138 112.97 47.8462C112.416 44.6762 111.462 41.6847 110.286 39.6296C109.697 38.5995 109.072 37.8408 108.447 37.4012C107.837 36.9726 107.25 36.8591 106.659 37.0564L106.342 36.108ZM110.916 62.138C115.683 65.2991 117.202 68.5478 117.05 71.3688C116.901 74.1459 115.137 76.3361 113.687 77.4273L113.086 76.6284C114.383 75.6521 115.923 73.7071 116.052 71.3151C116.178 68.9671 114.95 66.0131 110.364 62.9713L110.916 62.138ZM113.826 76.7891C115.972 80.7382 115.886 86.226 114.821 91.4291C113.751 96.6505 111.671 101.704 109.69 104.862L108.843 104.33C110.754 101.285 112.793 96.3451 113.841 91.2285C114.893 86.0935 114.921 80.8987 112.947 77.2666L113.826 76.7891ZM108.858 104.308C114.066 96.9279 116.79 91.8192 118.274 87.9294C119.754 84.0512 120.01 81.3667 120.255 78.7945L121.25 78.8892C121.003 81.4849 120.738 84.2784 119.209 88.2859C117.684 92.2817 114.91 97.4661 109.675 104.884L108.858 104.308ZM120.255 78.7945C120.313 78.1867 120.37 77.5807 120.444 76.9685L121.436 77.0872C121.365 77.6854 121.308 78.2795 121.25 78.8892L120.255 78.7945ZM120.443 77.0868C119.296 67.4139 118.38 46.5798 118.38 40.5002H119.38C119.38 46.5506 120.295 67.3442 121.437 76.969L120.443 77.0868ZM118.38 40.5002C118.38 37.8873 119 34.3082 119.757 30.8652C120.516 27.4117 121.422 24.0534 122.012 21.8706L122.977 22.1312C122.388 24.3153 121.487 27.6525 120.734 31.0799C119.978 34.5177 119.38 38.0048 119.38 40.5002H118.38ZM122.012 21.8706C122.233 21.0507 122.408 20.4023 122.515 19.9734L123.485 20.2152C123.375 20.6559 123.197 21.3161 122.977 22.1312L122.012 21.8706ZM123.353 20.448L123.353 20.4482L122.647 19.7404L122.647 19.7403L123.353 20.448ZM122.824 19.6263C122.824 19.6262 122.824 19.6262 122.824 19.6262L123.176 20.5621C123.176 20.5621 123.176 20.5621 123.176 20.5622L122.824 19.6263ZM122.515 19.9733C122.515 19.9732 122.515 19.9731 122.515 19.9729L123.485 20.2146C123.485 20.2147 123.485 20.2149 123.485 20.2151L122.515 19.9733ZM123.353 20.4474L123.353 20.448L122.646 19.7408L122.647 19.7401L123.353 20.4474ZM103.606 14.7687C105.128 17.6855 112.096 23.6636 122.823 19.6265L123.175 20.5624C111.93 24.7947 104.452 18.552 102.719 15.2313L103.606 14.7687ZM84.7837 23.2763C86.8453 22.9941 91.0635 21.5576 94.946 19.8072C96.8795 18.9354 98.7065 17.9961 100.119 17.0997C100.826 16.6512 101.419 16.2198 101.867 15.8195C102.324 15.4112 102.592 15.0694 102.701 14.8074L103.624 15.1926C103.428 15.6616 103.028 16.1238 102.534 16.5653C102.03 17.0148 101.388 17.4788 100.655 17.944C99.1879 18.875 97.3146 19.8362 95.357 20.7188C91.4572 22.477 87.1303 23.9644 84.9193 24.267L84.7837 23.2763ZM85.6785 31.6503C85.7451 31.5653 85.8188 31.4768 85.8994 31.3854L86.6496 32.0466C86.5806 32.1249 86.5194 32.1984 86.466 32.2667L85.6785 31.6503ZM86.6953 31.986C86.6108 32.1176 86.514 32.2277 86.4182 32.3196L85.7263 31.5975C85.7771 31.5489 85.8198 31.4987 85.8537 31.4459L86.6953 31.986Z" fill="#808080"/>
<path d="M73.8504 124.054C83.5096 132.94 68.4394 143.573 62 147.006C78.0986 138.927 79.4849 135.364 81.8997 132.133C77.8751 125.669 85.1194 125.669 89.144 127.285C96.8224 123.495 107.448 107.92 109.267 104.227C106.048 107.088 101.218 108.703 97.9983 107.088C100.413 113.551 91.7247 122.082 86.7293 123.246C80.4557 124.707 75.0074 124.922 73.8504 124.054Z" fill="#D9D9D9" stroke="#808080"/>
<path fill-rule="evenodd" clip-rule="evenodd" d="M53 133.268C54.2 135.431 57.68 140.405 62 143C66.32 140.405 69.8 135.431 71 133.268C70.25 134.195 68.12 135.863 65.6 135.122C63.08 134.38 62.15 127.398 62 124C61.85 127.398 60.92 134.38 58.4 135.122C55.88 135.863 53.75 134.195 53 133.268Z" fill="#D9D9D9"/>
<path d="M62 143L61.7425 143.429L62 143.583L62.2575 143.429L62 143ZM53 133.268L53.3887 132.954L52.5628 133.511L53 133.268ZM71 133.268L71.4372 133.511L70.6113 132.954L71 133.268ZM65.6 135.122L65.7411 134.642L65.6 135.122ZM62 124L62.4995 123.978H61.5005L62 124ZM58.4 135.122L58.2589 134.642L58.4 135.122ZM62.2575 142.571C58.0462 140.042 54.6188 135.155 53.4372 133.026L52.5628 133.511C53.7812 135.707 57.3138 140.768 61.7425 143.429L62.2575 142.571ZM62.2575 143.429C66.6862 140.768 70.2188 135.707 71.4372 133.511L70.5628 133.026C69.3812 135.155 65.9538 140.042 61.7425 142.571L62.2575 143.429ZM70.6113 132.954C70.2796 133.364 69.6185 133.963 68.7519 134.368C67.8928 134.77 66.8573 134.971 65.7411 134.642L65.4589 135.602C66.8627 136.015 68.1522 135.752 69.1756 135.274C70.1915 134.798 70.9704 134.1 71.3887 133.583L70.6113 132.954ZM65.7411 134.642C65.3041 134.514 64.8577 134.084 64.4342 133.309C64.0193 132.55 63.6746 131.548 63.3963 130.436C62.8406 128.215 62.5736 125.655 62.4995 123.978L61.5005 124.022C61.5764 125.743 61.8494 128.373 62.4262 130.679C62.7142 131.83 63.0839 132.924 63.5568 133.789C64.0211 134.638 64.6359 135.359 65.4589 135.602L65.7411 134.642ZM58.5411 135.602C59.3641 135.359 59.9789 134.638 60.4432 133.789C60.9161 132.924 61.2858 131.83 61.5738 130.679C62.1506 128.373 62.4236 125.743 62.4995 124.022L61.5005 123.978C61.4264 125.655 61.1594 128.215 60.6037 130.436C60.3254 131.548 59.9807 132.55 59.5658 133.309C59.1423 134.084 58.6959 134.514 58.2589 134.642L58.5411 135.602ZM52.6113 133.583C53.0296 134.1 53.8085 134.798 54.8244 135.274C55.8478 135.752 57.1373 136.015 58.5411 135.602L58.2589 134.642C57.1427 134.971 56.1072 134.77 55.2481 134.368C54.3815 133.963 53.7204 133.364 53.3887 132.954L52.6113 133.583Z" fill="#808080"/>
<path d="M41.2807 33.9269C40.5908 29.9223 45.4205 22 47.4908 22L54.3904 25.2503C52.3204 25.4728 48.8704 25.9178 48.8708 28.5875C48.8712 31.2572 54.3904 33.2594 56.4604 32.592C56.4604 34.7278 57.3804 38.3764 57.8404 39.9337C55.7708 34.5943 50.4804 33.9269 48.1804 37.264C49.1004 35.9292 50.2508 33.2594 47.4908 31.9246C46.1108 31.2572 43.3508 30.5897 41.2807 33.9269Z" fill="#D9D9D9" stroke="#808080"/>
<path d="M82.7182 33.9269C83.4081 29.9223 79.2681 23.248 77.1979 23.248L69.6085 25.2503C71.6785 25.4728 75.1285 25.9178 75.1281 28.5875C75.1277 31.2572 69.6085 33.2594 67.5385 32.592C67.5385 34.7278 66.6185 38.3764 66.1585 39.9337C68.2281 34.5943 73.5185 33.9269 75.8185 37.264C74.8985 35.9292 73.7481 33.2594 76.5081 31.9246C77.8881 31.2572 80.6481 30.5897 82.7182 33.9269Z" fill="#D9D9D9" stroke="#808080"/>
<path fill-rule="evenodd" clip-rule="evenodd" d="M48.0852 23.1212C50.2267 25.8986 52.9964 26.6606 55.452 26.6606C58.7006 30.1725 61.949 39.7814 61.9994 39.9308L62 39.9325C62.0503 39.7832 65.2987 30.1725 68.5474 26.6606C71.003 26.6606 73.7726 25.8986 75.9142 23.1212C78.0557 20.3439 79.1873 17.8121 78.3692 12.503C78.3685 14.2727 76.7327 17.8121 75.0964 16.0417C75.0964 2.77016 67.7292 1.00091 62 1M62 1C56.2707 1.00091 48.903 2.77016 48.903 16.0417C47.2667 17.8121 45.6308 14.2727 45.6301 12.503C44.8121 17.8121 45.9437 20.3439 48.0852 23.1212" fill="#D9D9D9"/>
<path d="M55.452 26.6606C52.9964 26.6606 50.2267 25.8986 48.0852 23.1212C45.9437 20.3439 44.8121 17.8121 45.6301 12.503C45.6308 14.2727 47.2667 17.8121 48.903 16.0417C48.903 2.77016 56.2707 1.00091 62 1C67.7292 1.00091 75.0964 2.77016 75.0964 16.0417C76.7327 17.8121 78.3685 14.2727 78.3692 12.503C79.1873 17.8121 78.0557 20.3439 75.9142 23.1212C73.7726 25.8986 71.003 26.6606 68.5474 26.6606C65.2987 30.1725 62.0503 39.7832 62 39.9325L61.9994 39.9308C61.949 39.7814 58.7006 30.1725 55.452 26.6606Z" stroke="#808080"/>
<path d="M53.8271 21.3252C51.873 19.4714 50.751 11.2541 54.4782 13.9106C55.7792 14.8378 56.0988 15.9169 57.7329 16.6907C59.367 17.4645 60.3368 17.6176 60.3369 21.3231C60.337 20.3965 59.0343 18.542 57.7323 20.3964C56.7033 21.8621 55.7793 23.1772 53.8271 21.3252Z" fill="#4D4D4D"/>
<path d="M70.1738 21.3252C72.1279 19.4714 73.25 11.2541 69.5228 13.9106C68.2218 14.8378 67.9022 15.9169 66.2681 16.6907C64.6339 17.4645 63.6642 17.6176 63.6641 21.3231C63.664 20.3965 64.9667 18.542 66.2687 20.3964C67.2977 21.8621 68.2216 23.1772 70.1738 21.3252Z" fill="#4D4D4D"/>
<path d="M61.1686 24.0059V27.5453C60.3367 27.5453 60.3367 26.6604 59.5049 25.7756C60.3367 25.7756 61.1686 24.5958 61.1686 24.0059Z" fill="#4D4D4D"/>
<path d="M62.8334 24.0059V27.5453C63.6652 27.5453 63.6652 26.6604 64.4971 25.7756C63.6652 25.7756 62.8334 24.5958 62.8334 24.0059Z" fill="#4D4D4D"/>
<path fill-rule="evenodd" clip-rule="evenodd" d="M62.0013 4.66797C61.6262 6.16716 60.471 9.40807 58.8506 9.40807C59.9008 10.1577 62.0013 12.2139 62.0013 15.4122V4.66797ZM62.0015 4.66797C62.3766 6.16716 63.5319 9.40807 65.1522 9.40807C64.102 10.1577 62.0015 12.2139 62.0015 15.4122V4.66797Z" fill="#4C4C4C"/>
<path fill-rule="evenodd" clip-rule="evenodd" d="M67.0418 6.56445C66.8168 7.53452 66.1236 9.40851 65.1514 9.40851C65.7815 9.89354 67.0418 11.4471 67.0418 13.5166V6.56445ZM67.0432 6.56445C67.2682 7.53452 67.9614 9.40851 68.9336 9.40851C68.3034 9.89354 67.0432 11.4471 67.0432 13.5166V6.56445Z" fill="#4C4C4C"/>
<path fill-rule="evenodd" clip-rule="evenodd" d="M56.9601 6.56445C57.1852 7.53452 57.8784 9.40851 58.8506 9.40851C58.2204 9.89354 56.9601 11.4471 56.9601 13.5166V6.56445ZM56.9588 6.56445C56.7337 7.53452 56.0406 9.40851 55.0684 9.40851C55.6985 9.89354 56.9588 11.4471 56.9588 13.5166V6.56445Z" fill="#4C4C4C"/>
<path d="M25.4849 78.56C30.9849 79.36 32.2249 80.64 32.2249 82.9C32.2249 83.6 32.0849 84.74 31.6649 85.24C31.2049 85.44 30.4649 85.52 29.7649 85.52C28.2449 85.52 26.0849 84.64 25.7649 82.42L25.1449 82.32C25.3449 84.28 24.9049 85.68 24.5049 86.58H25.1249C25.3449 86.16 25.6249 86.02 25.9649 86C26.5249 86.3 27.5049 86.78 29.3049 86.78C30.1649 86.78 31.2049 86.62 31.7649 86.26L32.7849 85.6C33.3849 85.2 34.5649 84.06 34.5649 81.96C34.5649 79.28 33.1049 77.32 26.8849 76.5L27.3249 73.9H32.4849C33.0849 73.9 33.2049 74.02 33.3249 74.24H33.7849C33.7049 73.58 33.8849 71.74 34.2849 71.04H33.7849C33.4849 71.76 33.2249 71.82 32.2249 71.82H26.1249V72.34C26.3649 72.56 26.4049 72.88 26.3249 73.44L25.4849 78.56Z" fill="#D9D9D9"/>
<path d="M53.2268 71.7L53.7468 70.46L49.2868 69.5L49.1268 69.96C50.0068 70.3 51.0268 70.82 51.0268 71.74V82.66C49.0668 82.86 47.1068 83.04 45.1068 83.26V81.6C46.9068 81.14 48.2868 79.88 48.1268 78.06C47.9068 75.88 45.5068 75.08 43.6468 75.46L43.1068 74.68L42.8068 74.82C42.7268 75.16 42.5068 75.36 42.1468 75.46C40.8468 75.88 39.6068 76.92 39.7068 78.68C39.7668 80.28 41.1468 81.48 42.9268 81.74L43.0068 83.5C41.9268 83.62 40.8268 83.78 39.7268 83.96C39.0468 83.96 38.4268 83.82 38.0068 83.66C37.7668 83.56 37.4868 83.44 37.3468 83.26C37.2268 83.08 37.2468 82.88 37.2668 82.68L36.7268 82.84C36.7868 83.36 37.0068 84.04 37.3468 84.38L39.2268 86.42L40.2868 85.7C43.7268 84.82 48.3668 84.06 49.5068 84.4C49.9068 83.88 50.5068 83.52 51.0268 83.34V85.74C51.0268 87.06 51.1268 88 51.1268 89.52H51.6868C51.8668 88 52.4468 86.8 53.2268 86.24V71.7ZM47.2068 74.22C48.0268 74.26 48.9868 74.44 49.4868 74.56L49.7068 74.2L48.4268 72.36L47.3268 72.78C46.5868 72.86 45.7068 72.92 44.7668 72.96L44.8068 71.92L45.4068 71L41.5868 70.42L41.4468 70.8C42.1468 71.02 42.7868 71.44 42.7868 72.04V73.02C41.7068 73.06 40.6468 73.06 39.7068 73.06C39.2468 73.06 38.6068 73 38.1468 72.96C37.8868 72.84 37.6668 72.72 37.5668 72.44L37.3068 72.56C37.3668 72.92 37.5068 73.42 37.7468 73.7L38.9468 75.08L39.9068 74.6C42.2468 74.38 45.1468 74.2 47.2068 74.22ZM44.4868 76.62L44.0268 75.98C45.2668 76.02 46.0468 77.18 46.0868 78.04C46.1268 79.1 45.4868 80.14 44.0868 80.24C42.8868 80.32 41.9068 79.6 41.8268 78.72C41.7268 77.86 42.3268 76.98 43.3268 76.78C43.7068 76.68 43.8868 76.76 44.1468 76.86L44.4868 76.62Z" fill="#D9D9D9"/>
<path d="M68.9268 71.76L65.9468 70.78L65.7468 71.22C66.4268 71.46 67.0668 72.04 67.1468 72.42C64.5868 72.42 62.6068 74.18 62.6068 76.42C62.6068 78.92 64.7068 80.52 67.2468 80.54C69.1068 80.56 70.9668 79.64 71.7068 78.1C71.8268 78.36 71.9868 78.64 72.1068 78.78L73.2868 79.88L74.1068 79.48L75.8068 79.3V84.5H76.3268C76.6668 83.6 77.2868 82.82 77.9868 82.34V71.7L78.5268 70.46L74.0868 69.5L73.9068 69.96C74.8068 70.3 75.8068 70.82 75.8068 71.74V73.72L73.7468 73.86C73.2868 73.86 72.8268 73.88 72.4068 73.86C72.1668 73.7 71.8668 73.62 71.7468 73.42L71.5468 73.54C71.6068 73.82 71.8468 74.22 72.0268 74.42L73.1668 75.62L73.9668 75.22L75.8068 75V78L73.8868 78.14C73.4268 78.14 72.9468 78.2 72.5068 78.18C72.2668 78.04 71.9868 77.98 71.8468 77.8C71.9668 77.46 72.0268 77.1 72.0468 76.72C72.1068 74.54 70.2868 73.22 68.4068 73.5C68.0468 73.58 67.7268 73.82 67.6268 74.12C67.7868 74.12 67.9668 74.1 68.1268 74.12C69.0268 74.22 69.8268 75.1 69.7868 76.64C69.7468 77.94 68.7868 79.02 67.3268 79.02C66.0468 79.02 64.9068 77.9 64.9068 76.42C64.9068 74.4 66.5468 73.36 68.2068 73.24L68.9268 71.76ZM79.0868 88.4L79.1868 88.04L77.4468 86.1L75.7268 86.9C73.9468 87.04 71.7268 87.08 69.5068 87.08V83.7L69.8868 82.82L65.9668 82.4L65.8068 82.72C66.4468 82.98 67.0668 83.3 67.2268 83.88C67.3468 84.72 67.3668 86.12 67.3668 86.9C67.3668 87.34 67.2268 88.14 67.1468 88.6C67.8068 88.5 68.7268 88.42 69.4068 88.4C71.6668 88.3 74.5268 88.22 76.7068 88.2L79.0868 88.4Z" fill="#D9D9D9"/>
<path d="M98.4905 71.7L99.0305 70.46L94.6105 69.5L94.4505 69.96C95.3305 70.3 96.3505 70.82 96.3505 71.74V77.74L94.4505 77.82V72.76L94.9705 71.52L90.6705 70.56L90.4905 71.02C91.3905 71.36 92.2905 71.9 92.2905 72.8V81.22C91.4105 81.4 90.4305 81.58 89.4105 81.74L90.2105 76.96L90.7505 76.08L87.3305 75.28L87.2105 75.68C87.7305 75.82 88.1705 76.2 88.1505 76.66L87.7305 81.96C86.9705 82.04 86.2305 82.12 85.4505 82.16C85.4505 81.5 85.8305 80.96 86.2305 80.66L85.8705 77.28L86.1905 76.26L82.7905 75.9L82.7105 76.36C83.3705 76.4 83.7705 76.86 83.8505 77.28L84.7305 82.2C84.4505 82.22 84.1705 82.24 83.8905 82.24C83.4305 82.24 82.9705 82.24 82.5105 82.2C82.2505 82.02 81.8705 81.88 81.7105 81.52L81.4505 81.68C81.5305 82.1 81.8105 82.62 82.0905 82.88L83.5505 84.3L84.4105 83.76C86.8305 83.44 89.5105 83.06 91.2105 82.6C91.3505 82.14 91.8505 81.82 92.2905 81.64V84.64C92.2905 85.98 92.4105 86.92 92.4105 88.44H93.0105C93.1705 86.92 93.7905 85.9 94.4505 85.14V79.3C95.0705 79.26 95.7105 79.22 96.3505 79.2V85.74C96.3505 87.06 96.4705 88 96.4705 89.52H97.0705C97.2305 88 97.8505 87 98.4905 86.24V71.7ZM89.4305 74.64C90.2505 74.68 91.0905 74.84 91.5905 74.94L91.8105 74.6L90.4305 72.86L89.5305 73.22C88.3105 73.42 85.4505 73.46 83.7505 73.46C83.2905 73.46 82.7905 73.4 82.3305 73.36C82.0705 73.24 81.7505 73.16 81.6505 72.88L81.3905 73C81.4505 73.36 81.6105 73.7 81.8505 73.98L82.8705 75.2L83.9105 74.86C84.7705 74.72 88.0305 74.62 89.4305 74.64Z" fill="#D9D9D9"/>
</g>
</svg>
