<svg width="124" height="156" viewBox="0 0 124 156" fill="none" xmlns="http://www.w3.org/2000/svg">
<g opacity="0.2">
<path fill-rule="evenodd" clip-rule="evenodd" d="M62 24H5.5V87C7.83333 93.8333 16.7 111.1 33.5 125.5C37.1667 125 44.7 124.6 45.5 127V133C47 136.333 52.4 143.8 62 147C71.6 143.8 77 136.333 78.5 133V127C79.3 124.6 86.8333 125 90.5 125.5C107.3 111.1 116.167 93.8333 118.5 87V24H62Z" fill="#2E2E2E"/>
<path fill-rule="evenodd" clip-rule="evenodd" d="M39.1485 23.7717C42.5665 24.2395 45.0758 23.8718 46.5 23.0921C37.6136 28.6261 37.1278 30.7846 37.7255 31.716C36.2795 30.0753 32.0743 27.0004 25.11 26.1108C17.786 25.1752 17.0932 33.4632 17.4999 36.5824L17.5 36.5824C17.5 36.5824 17.5 36.5824 17.4999 36.5824C17.5 36.5826 17.5 36.5827 17.5 36.5829L17.4994 36.5822C11.3197 34.5166 6.49355 59.7979 13.36 62.5546C4.00683 68.7575 7.86664 74.9603 10.6133 77.0279C6.49331 84.6091 10.8422 98.3931 14.7333 104.596C4.29002 89.798 3.73918 84.0097 3.24738 78.8418C3.18945 78.2331 3.13235 77.6331 3.05999 77.0279C4.20443 67.3791 5.11999 46.5652 5.11999 40.5002C5.11999 35.3919 2.68434 26.3678 1.50569 22.0009C1.28505 21.1834 1.10846 20.5291 1.00014 20.0943L1 20.0942C1.00004 20.0942 1.00008 20.0942 1.00011 20.0942C1.00008 20.0941 1.00004 20.0939 1 20.0938L1.00067 20.0944C11.9869 24.2291 19.2098 18.1187 20.8374 15C22.0582 17.9239 34.8759 23.1869 39.1485 23.7717ZM37.9277 31.9585C37.8677 31.8818 37.8003 31.8008 37.7255 31.716C37.7847 31.8082 37.8545 31.8883 37.9277 31.9585Z" fill="#D9D9D9"/>
<path d="M46.5 23.0921L46.7643 23.5165L46.2599 22.6535L46.5 23.0921ZM39.1485 23.7717L39.2163 23.2763L39.1485 23.7717ZM25.11 26.1108L25.0467 26.6067L25.11 26.1108ZM17.4999 36.5824L17.0041 36.647L17.0261 36.8157L17.1464 36.9359L17.4999 36.5824ZM17.5 36.5824L17.3563 37.0614L17.8536 36.2289L17.5 36.5824ZM17.4999 36.5824L17.6436 36.1035L16.9034 35.8815L17.0042 36.6477L17.4999 36.5824ZM17.5 36.5829L17.1464 36.9364L18.1879 37.9778L17.9957 36.5176L17.5 36.5829ZM17.4994 36.5822L17.8529 36.2287L17.7696 36.1454L17.6579 36.108L17.4994 36.5822ZM13.36 62.5546L13.6363 62.9713L14.4296 62.4453L13.5462 62.0906L13.36 62.5546ZM10.6133 77.0279L11.0526 77.2666L11.2585 76.8877L10.914 76.6284L10.6133 77.0279ZM14.7333 104.596L14.3248 104.884L15.1568 104.33L14.7333 104.596ZM3.24738 78.8418L2.74963 78.8892L3.24738 78.8418ZM3.05999 77.0279L2.56347 76.969L2.55646 77.0281L2.56353 77.0872L3.05999 77.0279ZM1.50569 22.0009L1.02296 22.1312H1.02296L1.50569 22.0009ZM1.00014 20.0943L1.48531 19.9734L1.45172 19.8386L1.35336 19.7404L1.00014 20.0943ZM1 20.0942L1.17612 19.6262L0.646774 20.448L1 20.0942ZM1.00011 20.0942L0.823991 20.5622L1.71559 20.8977L1.48528 19.9733L1.00011 20.0942ZM1 20.0938L1.35348 19.7401L0.0795382 18.4667L0.514819 20.2146L1 20.0938ZM1.00067 20.0944L0.647187 20.448L0.723528 20.5244L0.824549 20.5624L1.00067 20.0944ZM20.8374 15L21.2988 14.8074L20.8878 13.8228L20.3942 14.7687L20.8374 15ZM37.9277 31.9585L37.5818 32.3196L38.3215 31.6503L37.9277 31.9585ZM46.2599 22.6535C44.9713 23.359 42.5877 23.7377 39.2163 23.2763L39.0807 24.267C42.5454 24.7412 45.1803 24.3846 46.7401 23.5307L46.2599 22.6535ZM38.1463 31.4459C38.0713 31.329 38.0119 31.1592 38.081 30.87C38.1555 30.5584 38.3831 30.0991 38.9355 29.4558C40.0414 28.1681 42.3306 26.2776 46.7643 23.5165L46.2357 22.6677C41.783 25.4406 39.386 27.3964 38.1769 28.8043C37.5718 29.5088 37.2346 30.1097 37.1084 30.6376C36.9769 31.188 37.0809 31.6373 37.3047 31.9861L38.1463 31.4459ZM25.0467 26.6067C31.8985 27.482 35.99 30.503 37.3504 32.0466L38.1006 31.3854C36.569 29.6475 32.2501 26.5188 25.1734 25.6148L25.0467 26.6067ZM17.9957 36.5177C17.8001 35.0179 17.8733 32.2649 18.8631 30.0284C19.3546 28.918 20.0597 27.9621 21.0427 27.3352C22.0189 26.7127 23.3144 26.3854 25.0467 26.6067L25.1734 25.6148C23.2436 25.3683 21.706 25.7262 20.5051 26.492C19.3111 27.2535 18.4951 28.3891 17.9487 29.6237C16.8628 32.0771 16.7929 35.0277 17.0041 36.647L17.9957 36.5177ZM17.1464 36.9359L17.1464 36.936L17.8536 36.2289L17.8535 36.2288L17.1464 36.9359ZM17.6437 36.1035C17.6508 36.1057 17.6565 36.1076 17.6599 36.1087C17.663 36.1097 17.6656 36.1107 17.6651 36.1105C17.6651 36.1105 17.6651 36.1105 17.6651 36.1105C17.6651 36.1105 17.6651 36.1105 17.6651 36.1105C17.6651 36.1105 17.6651 36.1105 17.6651 36.1105C17.665 36.1105 17.6649 36.1104 17.6648 36.1104C17.6646 36.1103 17.6643 36.1102 17.6638 36.1101C17.663 36.1098 17.6616 36.1093 17.6598 36.1087C17.6565 36.1075 17.6508 36.1057 17.6436 36.1035L17.3563 37.0613C17.3491 37.0592 17.3434 37.0573 17.3401 37.0562C17.337 37.0551 17.3343 37.0542 17.3348 37.0544C17.3348 37.0544 17.3348 37.0544 17.3348 37.0544C17.3348 37.0544 17.3348 37.0544 17.3348 37.0544C17.3348 37.0544 17.3349 37.0544 17.3349 37.0544C17.3349 37.0544 17.335 37.0544 17.3351 37.0545C17.3353 37.0546 17.3357 37.0547 17.3361 37.0548C17.337 37.0551 17.3384 37.0556 17.3401 37.0562C17.3435 37.0573 17.3492 37.0592 17.3563 37.0614L17.6437 36.1035ZM17.9957 36.5176V36.5176V36.5176C17.9957 36.5176 17.9957 36.5176 17.9957 36.5176C17.9957 36.5176 17.9957 36.5176 17.9957 36.5176V36.5176V36.5176C17.9957 36.5176 17.9957 36.5176 17.9957 36.5176C17.9957 36.5176 17.9957 36.5176 17.9957 36.5176V36.5176V36.5176C17.9957 36.5176 17.9957 36.5176 17.9957 36.5176C17.9957 36.5176 17.9957 36.5176 17.9957 36.5176C17.9957 36.5176 17.9957 36.5176 17.9957 36.5176V36.5176V36.5176C17.9957 36.5176 17.9957 36.5176 17.9957 36.5176C17.9957 36.5176 17.9957 36.5176 17.9957 36.5176V36.5176C17.9957 36.5176 17.9957 36.5176 17.9957 36.5176C17.9957 36.5176 17.9957 36.5176 17.9957 36.5176C17.9957 36.5176 17.9957 36.5176 17.9957 36.5176C17.9957 36.5176 17.9957 36.5176 17.9957 36.5176V36.5176C17.9957 36.5176 17.9957 36.5176 17.9957 36.5176C17.9957 36.5176 17.9957 36.5176 17.9957 36.5176C17.9957 36.5176 17.9957 36.5176 17.9957 36.5176C17.9957 36.5176 17.9957 36.5176 17.9957 36.5176V36.5176C17.9957 36.5176 17.9957 36.5176 17.9957 36.5176C17.9957 36.5176 17.9957 36.5176 17.9957 36.5176C17.9957 36.5176 17.9957 36.5176 17.9957 36.5176V36.5176C17.9957 36.5176 17.9957 36.5176 17.9957 36.5176C17.9957 36.5176 17.9957 36.5176 17.9957 36.5176C17.9957 36.5176 17.9957 36.5176 17.9957 36.5176V36.5176C17.9957 36.5176 17.9957 36.5176 17.9957 36.5176C17.9957 36.5176 17.9957 36.5176 17.9957 36.5176C17.9957 36.5176 17.9957 36.5176 17.9957 36.5176V36.5176C17.9957 36.5176 17.9957 36.5176 17.9957 36.5176C17.9957 36.5176 17.9957 36.5176 17.9957 36.5176H17.9957C17.9957 36.5176 17.9957 36.5176 17.9957 36.5176V36.5176C17.9957 36.5176 17.9957 36.5176 17.9957 36.5176C17.9957 36.5176 17.9957 36.5176 17.9957 36.5176C17.9957 36.5176 17.9957 36.5176 17.9957 36.5176V36.5175C17.9957 36.5175 17.9957 36.5175 17.9957 36.5175C17.9957 36.5175 17.9957 36.5175 17.9957 36.5175H17.9957C17.9957 36.5175 17.9957 36.5175 17.9957 36.5175V36.5175C17.9957 36.5175 17.9957 36.5175 17.9957 36.5175C17.9957 36.5175 17.9957 36.5175 17.9957 36.5175C17.9957 36.5175 17.9957 36.5175 17.9957 36.5175V36.5175C17.9957 36.5175 17.9957 36.5175 17.9957 36.5175C17.9957 36.5175 17.9957 36.5175 17.9957 36.5175C17.9957 36.5175 17.9957 36.5175 17.9957 36.5175V36.5175V36.5175C17.9957 36.5175 17.9957 36.5175 17.9957 36.5175C17.9957 36.5175 17.9957 36.5175 17.9957 36.5175V36.5175V36.5175H17.9957C17.9957 36.5175 17.9957 36.5175 17.9957 36.5175C17.9957 36.5175 17.9957 36.5175 17.9957 36.5175V36.5175V36.5175C17.9957 36.5175 17.9957 36.5175 17.9957 36.5175C17.9957 36.5175 17.9957 36.5175 17.9957 36.5175V36.5175L17.9957 36.5175C17.9957 36.5175 17.9957 36.5175 17.9957 36.5175C17.9957 36.5175 17.9957 36.5175 17.9957 36.5175V36.5175V36.5175C17.9957 36.5175 17.9957 36.5175 17.9957 36.5175C17.9957 36.5175 17.9957 36.5175 17.9957 36.5175C17.9957 36.5175 17.9957 36.5175 17.9957 36.5175C17.9957 36.5175 17.9957 36.5175 17.9957 36.5175V36.5175C17.9957 36.5175 17.9957 36.5175 17.9957 36.5175C17.9957 36.5175 17.9957 36.5175 17.9957 36.5175C17.9957 36.5175 17.9957 36.5175 17.9957 36.5175V36.5175C17.9957 36.5175 17.9957 36.5175 17.9957 36.5175C17.9957 36.5175 17.9957 36.5175 17.9957 36.5175C17.9957 36.5175 17.9957 36.5175 17.9957 36.5175V36.5175C17.9957 36.5175 17.9957 36.5175 17.9957 36.5175C17.9957 36.5175 17.9957 36.5175 17.9957 36.5175C17.9957 36.5175 17.9957 36.5175 17.9957 36.5175V36.5175C17.9957 36.5175 17.9957 36.5175 17.9957 36.5175C17.9957 36.5175 17.9957 36.5175 17.9957 36.5175C17.9957 36.5175 17.9957 36.5175 17.9957 36.5175C17.9957 36.5175 17.9957 36.5175 17.9957 36.5175V36.5175C17.9957 36.5175 17.9957 36.5175 17.9957 36.5175C17.9957 36.5175 17.9957 36.5175 17.9957 36.5175C17.9957 36.5175 17.9957 36.5175 17.9957 36.5175V36.5174C17.9957 36.5174 17.9957 36.5174 17.9957 36.5174C17.9957 36.5174 17.9957 36.5174 17.9957 36.5174C17.9957 36.5174 17.9957 36.5174 17.9957 36.5174C17.9957 36.5174 17.9957 36.5174 17.9957 36.5174V36.5174C17.9957 36.5174 17.9957 36.5174 17.9957 36.5174C17.9957 36.5174 17.9957 36.5174 17.9957 36.5174C17.9957 36.5174 17.9957 36.5174 17.9957 36.5174V36.5174C17.9957 36.5174 17.9957 36.5174 17.9957 36.5174C17.9957 36.5174 17.9957 36.5174 17.9957 36.5174C17.9957 36.5174 17.9957 36.5174 17.9957 36.5174V36.5174C17.9957 36.5174 17.9957 36.5174 17.9957 36.5174C17.9957 36.5174 17.9957 36.5174 17.9957 36.5174C17.9957 36.5174 17.9957 36.5174 17.9957 36.5174V36.5174V36.5174C17.9957 36.5174 17.9957 36.5174 17.9957 36.5174C17.9957 36.5174 17.9957 36.5174 17.9957 36.5174V36.5174V36.5174C17.9957 36.5174 17.9957 36.5174 17.9957 36.5174C17.9957 36.5174 17.9957 36.5174 17.9957 36.5174V36.5174V36.5174C17.9957 36.5174 17.9957 36.5174 17.9957 36.5174C17.9957 36.5174 17.9957 36.5174 17.9957 36.5174C17.9957 36.5174 17.9957 36.5174 17.9957 36.5174V36.5174V36.5174C17.9957 36.5174 17.9957 36.5174 17.9957 36.5174C17.9957 36.5174 17.9957 36.5174 17.9957 36.5174V36.5174C17.9957 36.5174 17.9957 36.5174 17.9957 36.5174C17.9957 36.5174 17.9957 36.5174 17.9957 36.5174C17.9957 36.5174 17.9957 36.5174 17.9957 36.5174C17.9957 36.5174 17.9957 36.5174 17.9957 36.5174V36.5174C17.9957 36.5174 17.9957 36.5174 17.9957 36.5174C17.9957 36.5174 17.9957 36.5174 17.9957 36.5174C17.9957 36.5174 17.9957 36.5174 17.9957 36.5174C17.9957 36.5174 17.9957 36.5174 17.9957 36.5174V36.5174C17.9957 36.5174 17.9957 36.5174 17.9957 36.5174C17.9957 36.5174 17.9957 36.5174 17.9957 36.5174C17.9957 36.5174 17.9957 36.5174 17.9957 36.5174V36.5174C17.9957 36.5174 17.9957 36.5174 17.9957 36.5174C17.9957 36.5174 17.9957 36.5174 17.9957 36.5174C17.9957 36.5174 17.9957 36.5174 17.9957 36.5174V36.5174C17.9957 36.5174 17.9957 36.5174 17.9957 36.5174C17.9957 36.5174 17.9957 36.5174 17.9957 36.5174C17.9957 36.5173 17.9957 36.5173 17.9957 36.5173V36.5173C17.9957 36.5173 17.9957 36.5173 17.9957 36.5173C17.9957 36.5173 17.9957 36.5173 17.9957 36.5173H17.9957C17.9957 36.5173 17.9957 36.5173 17.9957 36.5173V36.5173C17.9957 36.5173 17.9957 36.5173 17.9957 36.5173C17.9957 36.5173 17.9957 36.5173 17.9957 36.5173C17.9957 36.5173 17.9957 36.5173 17.9957 36.5173V36.5173C17.9957 36.5173 17.9957 36.5173 17.9957 36.5173C17.9957 36.5173 17.9957 36.5173 17.9957 36.5173H17.9957C17.9957 36.5173 17.9957 36.5173 17.9957 36.5173V36.5173C17.9957 36.5173 17.9957 36.5173 17.9957 36.5173C17.9957 36.5173 17.9957 36.5173 17.9957 36.5173C17.9957 36.5173 17.9957 36.5173 17.9957 36.5173V36.5173C17.9957 36.5173 17.9957 36.5173 17.9957 36.5173C17.9957 36.5173 17.9957 36.5173 17.9957 36.5173C17.9957 36.5173 17.9957 36.5173 17.9957 36.5173V36.5173V36.5173C17.9957 36.5173 17.9957 36.5173 17.9957 36.5173C17.9957 36.5173 17.9957 36.5173 17.9957 36.5173V36.5173V36.5173H17.9957C17.9957 36.5173 17.9957 36.5173 17.9957 36.5173C17.9957 36.5173 17.9957 36.5173 17.9957 36.5173V36.5173V36.5173C17.9957 36.5173 17.9957 36.5173 17.9957 36.5173C17.9957 36.5173 17.9957 36.5173 17.9957 36.5173V36.5173L17.9957 36.5173C17.9957 36.5173 17.9957 36.5173 17.9957 36.5173C17.9957 36.5173 17.9957 36.5173 17.9957 36.5173V36.5173V36.5173C17.9957 36.5173 17.9957 36.5173 17.9957 36.5173C17.9957 36.5173 17.9957 36.5173 17.9957 36.5173C17.9957 36.5173 17.9957 36.5173 17.9957 36.5173C17.9957 36.5173 17.9957 36.5173 17.9957 36.5173V36.5173C17.9957 36.5173 17.9957 36.5173 17.9957 36.5173C17.9957 36.5173 17.9957 36.5173 17.9957 36.5173C17.9957 36.5173 17.9957 36.5173 17.9957 36.5173V36.5173C17.9957 36.5173 17.9957 36.5173 17.9957 36.5173C17.9957 36.5173 17.9957 36.5173 17.9957 36.5173C17.9957 36.5173 17.9957 36.5173 17.9957 36.5173V36.5173C17.9957 36.5173 17.9957 36.5173 17.9957 36.5173C17.9957 36.5173 17.9957 36.5173 17.9957 36.5173C17.9957 36.5172 17.9957 36.5172 17.9957 36.5172V36.5172C17.9957 36.5172 17.9957 36.5172 17.9957 36.5172C17.9957 36.5172 17.9957 36.5172 17.9957 36.5172C17.9957 36.5172 17.9957 36.5172 17.9957 36.5172C17.9957 36.5172 17.9957 36.5172 17.9957 36.5172V36.5172C17.9957 36.5172 17.9957 36.5172 17.9957 36.5172C17.9957 36.5172 17.9957 36.5172 17.9957 36.5172C17.9957 36.5172 17.9957 36.5172 17.9957 36.5172V36.5172C17.9957 36.5172 17.9957 36.5172 17.9957 36.5172C17.9957 36.5172 17.9957 36.5172 17.9957 36.5172C17.9957 36.5172 17.9957 36.5172 17.9957 36.5172C17.9957 36.5172 17.9957 36.5172 17.9957 36.5172V36.5172C17.9957 36.5172 17.9957 36.5172 17.9957 36.5172C17.9957 36.5172 17.9957 36.5172 17.9957 36.5172C17.9957 36.5172 17.9957 36.5172 17.9957 36.5172V36.5172C17.9957 36.5172 17.9957 36.5172 17.9957 36.5172C17.9957 36.5172 17.9957 36.5172 17.9957 36.5172C17.9957 36.5172 17.9957 36.5172 17.9957 36.5172V36.5172C17.9957 36.5172 17.9957 36.5172 17.9957 36.5172C17.9957 36.5172 17.9957 36.5172 17.9957 36.5172C17.9957 36.5172 17.9957 36.5172 17.9957 36.5172L17.0042 36.6477V36.6477V36.6477C17.0042 36.6477 17.0042 36.6477 17.0042 36.6477C17.0042 36.6477 17.0042 36.6477 17.0042 36.6477V36.6477V36.6477C17.0042 36.6477 17.0042 36.6477 17.0042 36.6477C17.0042 36.6477 17.0042 36.6477 17.0042 36.6477V36.6477V36.6477C17.0042 36.6477 17.0042 36.6477 17.0042 36.6477C17.0042 36.6477 17.0042 36.6477 17.0042 36.6477C17.0042 36.6477 17.0042 36.6477 17.0042 36.6477V36.6477V36.6477C17.0042 36.6477 17.0042 36.6477 17.0042 36.6477C17.0042 36.6477 17.0042 36.6477 17.0042 36.6477V36.6477C17.0042 36.6477 17.0042 36.6477 17.0042 36.6477C17.0042 36.6477 17.0042 36.6477 17.0042 36.6477C17.0042 36.6477 17.0042 36.6477 17.0042 36.6477C17.0042 36.6477 17.0042 36.6477 17.0042 36.6477V36.6477C17.0042 36.6477 17.0042 36.6477 17.0042 36.6477C17.0042 36.6477 17.0042 36.6477 17.0042 36.6477C17.0042 36.6477 17.0042 36.6477 17.0042 36.6477C17.0042 36.6477 17.0042 36.6477 17.0042 36.6477V36.6477C17.0042 36.6477 17.0042 36.6477 17.0042 36.6477C17.0042 36.6477 17.0042 36.6477 17.0042 36.6477C17.0042 36.6477 17.0042 36.6477 17.0042 36.6477V36.6477C17.0042 36.6477 17.0042 36.6477 17.0042 36.6477C17.0042 36.6477 17.0042 36.6477 17.0042 36.6477C17.0042 36.6477 17.0042 36.6477 17.0042 36.6477V36.6477C17.0042 36.6477 17.0042 36.6477 17.0042 36.6477C17.0042 36.6477 17.0042 36.6477 17.0042 36.6477C17.0042 36.6477 17.0042 36.6477 17.0042 36.6477V36.6477C17.0042 36.6477 17.0042 36.6477 17.0042 36.6477C17.0042 36.6477 17.0042 36.6477 17.0042 36.6477H17.0042C17.0042 36.6477 17.0042 36.6477 17.0042 36.6477V36.6477C17.0042 36.6477 17.0042 36.6477 17.0042 36.6477C17.0042 36.6477 17.0042 36.6477 17.0042 36.6477C17.0042 36.6477 17.0042 36.6477 17.0042 36.6477V36.6477C17.0042 36.6477 17.0042 36.6477 17.0042 36.6477C17.0042 36.6477 17.0042 36.6477 17.0042 36.6477H17.0042C17.0042 36.6478 17.0042 36.6478 17.0042 36.6478V36.6478C17.0042 36.6478 17.0042 36.6478 17.0042 36.6478C17.0042 36.6478 17.0042 36.6478 17.0042 36.6478C17.0042 36.6478 17.0042 36.6478 17.0042 36.6478V36.6478C17.0042 36.6478 17.0042 36.6478 17.0042 36.6478C17.0042 36.6478 17.0042 36.6478 17.0042 36.6478C17.0042 36.6478 17.0042 36.6478 17.0042 36.6478V36.6478V36.6478C17.0042 36.6478 17.0042 36.6478 17.0042 36.6478C17.0042 36.6478 17.0042 36.6478 17.0042 36.6478V36.6478V36.6478H17.0042C17.0042 36.6478 17.0042 36.6478 17.0042 36.6478C17.0042 36.6478 17.0042 36.6478 17.0042 36.6478V36.6478V36.6478C17.0042 36.6478 17.0042 36.6478 17.0042 36.6478C17.0042 36.6478 17.0042 36.6478 17.0042 36.6478V36.6478L17.0042 36.6478C17.0042 36.6478 17.0042 36.6478 17.0042 36.6478C17.0042 36.6478 17.0042 36.6478 17.0042 36.6478V36.6478V36.6478C17.0042 36.6478 17.0042 36.6478 17.0042 36.6478C17.0042 36.6478 17.0042 36.6478 17.0042 36.6478C17.0042 36.6478 17.0042 36.6478 17.0042 36.6478C17.0042 36.6478 17.0042 36.6478 17.0042 36.6478V36.6478C17.0042 36.6478 17.0042 36.6478 17.0042 36.6478C17.0042 36.6478 17.0042 36.6478 17.0042 36.6478C17.0042 36.6478 17.0042 36.6478 17.0042 36.6478V36.6478C17.0042 36.6478 17.0042 36.6478 17.0042 36.6478C17.0042 36.6478 17.0042 36.6478 17.0042 36.6478C17.0042 36.6478 17.0042 36.6478 17.0042 36.6478V36.6478C17.0042 36.6478 17.0042 36.6478 17.0042 36.6478C17.0042 36.6478 17.0042 36.6478 17.0042 36.6478C17.0042 36.6478 17.0042 36.6478 17.0042 36.6478V36.6478C17.0042 36.6478 17.0042 36.6478 17.0042 36.6478C17.0042 36.6478 17.0042 36.6478 17.0042 36.6478C17.0042 36.6478 17.0042 36.6478 17.0042 36.6478C17.0042 36.6478 17.0042 36.6478 17.0042 36.6478V36.6478C17.0042 36.6478 17.0042 36.6478 17.0042 36.6478C17.0042 36.6478 17.0042 36.6478 17.0042 36.6478C17.0042 36.6478 17.0042 36.6478 17.0042 36.6478V36.6478C17.0042 36.6478 17.0042 36.6478 17.0042 36.6478C17.0042 36.6478 17.0042 36.6478 17.0042 36.6479C17.0042 36.6479 17.0042 36.6479 17.0042 36.6479C17.0042 36.6479 17.0042 36.6479 17.0042 36.6479V36.6479C17.0042 36.6479 17.0042 36.6479 17.0042 36.6479C17.0042 36.6479 17.0042 36.6479 17.0042 36.6479C17.0042 36.6479 17.0042 36.6479 17.0042 36.6479V36.6479C17.0042 36.6479 17.0042 36.6479 17.0042 36.6479C17.0042 36.6479 17.0042 36.6479 17.0042 36.6479C17.0042 36.6479 17.0042 36.6479 17.0042 36.6479V36.6479C17.0042 36.6479 17.0042 36.6479 17.0042 36.6479C17.0042 36.6479 17.0042 36.6479 17.0042 36.6479C17.0042 36.6479 17.0042 36.6479 17.0042 36.6479V36.6479V36.6479C17.0042 36.6479 17.0042 36.6479 17.0042 36.6479C17.0042 36.6479 17.0042 36.6479 17.0042 36.6479V36.6479V36.6479C17.0042 36.6479 17.0042 36.6479 17.0042 36.6479C17.0042 36.6479 17.0042 36.6479 17.0042 36.6479V36.6479V36.6479C17.0042 36.6479 17.0042 36.6479 17.0042 36.6479C17.0042 36.6479 17.0042 36.6479 17.0042 36.6479C17.0042 36.6479 17.0042 36.6479 17.0042 36.6479V36.6479V36.6479C17.0042 36.6479 17.0042 36.6479 17.0042 36.6479C17.0042 36.6479 17.0042 36.6479 17.0042 36.6479V36.6479C17.0042 36.6479 17.0042 36.6479 17.0042 36.6479C17.0042 36.6479 17.0042 36.6479 17.0042 36.6479C17.0042 36.6479 17.0042 36.6479 17.0042 36.6479C17.0042 36.6479 17.0042 36.6479 17.0042 36.6479V36.6479C17.0042 36.6479 17.0042 36.6479 17.0042 36.6479C17.0042 36.6479 17.0042 36.6479 17.0042 36.6479C17.0042 36.6479 17.0042 36.6479 17.0042 36.6479C17.0043 36.6479 17.0043 36.6479 17.0043 36.6479V36.6479C17.0043 36.6479 17.0043 36.6479 17.0043 36.6479C17.0043 36.6479 17.0043 36.6479 17.0043 36.6479C17.0043 36.6479 17.0043 36.6479 17.0043 36.6479V36.6479C17.0043 36.6479 17.0043 36.6479 17.0043 36.6479C17.0043 36.6479 17.0043 36.6479 17.0043 36.6479C17.0043 36.6479 17.0043 36.6479 17.0043 36.6479V36.6479C17.0043 36.6479 17.0043 36.6479 17.0043 36.6479C17.0043 36.6479 17.0043 36.6479 17.0043 36.6479C17.0043 36.6479 17.0043 36.6479 17.0043 36.6479V36.6479C17.0043 36.6479 17.0043 36.6479 17.0043 36.6479C17.0043 36.6479 17.0043 36.6479 17.0043 36.648H17.0043C17.0043 36.648 17.0043 36.648 17.0043 36.648V36.648C17.0043 36.648 17.0043 36.648 17.0043 36.648C17.0043 36.648 17.0043 36.648 17.0043 36.648C17.0043 36.648 17.0043 36.648 17.0043 36.648V36.648C17.0043 36.648 17.0043 36.648 17.0043 36.648C17.0043 36.648 17.0043 36.648 17.0043 36.648H17.0043C17.0043 36.648 17.0043 36.648 17.0043 36.648V36.648C17.0043 36.648 17.0043 36.648 17.0043 36.648C17.0043 36.648 17.0043 36.648 17.0043 36.648C17.0043 36.648 17.0043 36.648 17.0043 36.648V36.648C17.0043 36.648 17.0043 36.648 17.0043 36.648C17.0043 36.648 17.0043 36.648 17.0043 36.648C17.0043 36.648 17.0043 36.648 17.0043 36.648V36.648V36.648C17.0043 36.648 17.0043 36.648 17.0043 36.648C17.0043 36.648 17.0043 36.648 17.0043 36.648V36.648V36.648H17.0043C17.0043 36.648 17.0043 36.648 17.0043 36.648C17.0043 36.648 17.0043 36.648 17.0043 36.648V36.648V36.648C17.0043 36.648 17.0043 36.648 17.0043 36.648C17.0043 36.648 17.0043 36.648 17.0043 36.648V36.648L17.0043 36.648C17.0043 36.648 17.0043 36.648 17.0043 36.648C17.0043 36.648 17.0043 36.648 17.0043 36.648V36.648V36.648C17.0043 36.648 17.0043 36.648 17.0043 36.648C17.0043 36.648 17.0043 36.648 17.0043 36.648C17.0043 36.648 17.0043 36.648 17.0043 36.648C17.0043 36.648 17.0043 36.648 17.0043 36.648V36.648C17.0043 36.648 17.0043 36.648 17.0043 36.648C17.0043 36.648 17.0043 36.648 17.0043 36.648C17.0043 36.648 17.0043 36.648 17.0043 36.648V36.648C17.0043 36.648 17.0043 36.648 17.0043 36.648C17.0043 36.648 17.0043 36.648 17.0043 36.648C17.0043 36.648 17.0043 36.648 17.0043 36.648V36.648C17.0043 36.648 17.0043 36.648 17.0043 36.648C17.0043 36.648 17.0043 36.648 17.0043 36.648C17.0043 36.648 17.0043 36.648 17.0043 36.648V36.648C17.0043 36.648 17.0043 36.648 17.0043 36.6481C17.0043 36.6481 17.0043 36.6481 17.0043 36.6481C17.0043 36.6481 17.0043 36.6481 17.0043 36.6481C17.0043 36.6481 17.0043 36.6481 17.0043 36.6481V36.6481C17.0043 36.6481 17.0043 36.6481 17.0043 36.6481C17.0043 36.6481 17.0043 36.6481 17.0043 36.6481C17.0043 36.6481 17.0043 36.6481 17.0043 36.6481V36.6481C17.0043 36.6481 17.0043 36.6481 17.0043 36.6481C17.0043 36.6481 17.0043 36.6481 17.0043 36.6481C17.0043 36.6481 17.0043 36.6481 17.0043 36.6481C17.0043 36.6481 17.0043 36.6481 17.0043 36.6481V36.6481C17.0043 36.6481 17.0043 36.6481 17.0043 36.6481C17.0043 36.6481 17.0043 36.6481 17.0043 36.6481C17.0043 36.6481 17.0043 36.6481 17.0043 36.6481V36.6481C17.0043 36.6481 17.0043 36.6481 17.0043 36.6481C17.0043 36.6481 17.0043 36.6481 17.0043 36.6481C17.0043 36.6481 17.0043 36.6481 17.0043 36.6481V36.6481C17.0043 36.6481 17.0043 36.6481 17.0043 36.6481C17.0043 36.6481 17.0043 36.6481 17.0043 36.6481C17.0043 36.6481 17.0043 36.6481 17.0043 36.6481L17.9957 36.5176ZM17.1458 36.9358L17.1464 36.9364L17.8536 36.2293L17.8529 36.2287L17.1458 36.9358ZM17.6579 36.108C16.7034 35.789 15.7882 36.0137 14.9781 36.583C14.1837 37.1414 13.471 38.0403 12.8459 39.133C11.5931 41.3233 10.611 44.4372 10.0449 47.6739C9.47826 50.913 9.31958 54.3241 9.7467 57.1185C9.96022 58.5155 10.3236 59.7816 10.8729 60.7998C11.4234 61.8203 12.1762 62.6182 13.1737 63.0187L13.5462 62.0906C12.8272 61.8019 12.2287 61.2067 11.753 60.325C11.2761 59.4411 10.9383 58.2959 10.7352 56.9674C10.3292 54.3109 10.4758 51.0138 11.0299 47.8462C11.5844 44.6762 12.5384 41.6847 13.714 39.6296C14.3031 38.5995 14.9277 37.8408 15.5531 37.4012C16.163 36.9726 16.7504 36.8591 17.3409 37.0564L17.6579 36.108ZM13.0836 62.138C8.31703 65.2991 6.79806 68.5478 6.94993 71.3688C7.09944 74.1459 8.8629 76.3361 10.3126 77.4273L10.914 76.6284C9.61704 75.6521 8.07727 73.7071 7.94849 71.3151C7.82208 68.9671 9.04976 66.0131 13.6363 62.9713L13.0836 62.138ZM10.174 76.7891C8.02786 80.7382 8.11372 86.226 9.1793 91.4291C10.2486 96.6505 12.3291 101.704 14.3097 104.862L15.1568 104.33C13.2463 101.285 11.2069 96.3451 10.159 91.2285C9.10734 86.0935 9.07876 80.8987 11.0526 77.2666L10.174 76.7891ZM15.1418 104.308C9.93371 96.9279 7.21006 91.8192 5.72568 87.9294C4.24576 84.0512 3.98991 81.3667 3.74513 78.7945L2.74963 78.8892C2.99665 81.4849 3.26213 84.2784 4.79139 88.2859C6.3162 92.2817 9.0896 97.4661 14.3248 104.884L15.1418 104.308ZM3.74513 78.7945C3.6873 78.1867 3.62965 77.5807 3.55646 76.9685L2.56353 77.0872C2.63505 77.6854 2.69161 78.2795 2.74963 78.8892L3.74513 78.7945ZM3.55651 77.0868C4.7038 67.4139 5.61999 46.5798 5.61999 40.5002H4.61999C4.61999 46.5506 3.70506 67.3442 2.56347 76.969L3.55651 77.0868ZM5.61999 40.5002C5.61999 37.8873 4.99999 34.3082 4.24317 30.8652C3.48407 27.4117 2.57755 24.0534 1.98841 21.8706L1.02296 22.1312C1.61248 24.3153 2.51311 27.6525 3.26649 31.0799C4.02216 34.5177 4.61999 38.0048 4.61999 40.5002H5.61999ZM1.98841 21.8706C1.76713 21.0507 1.59215 20.4023 1.48531 19.9734L0.514964 20.2152C0.624767 20.6559 0.802968 21.3161 1.02296 22.1312L1.98841 21.8706ZM0.646774 20.448L0.646912 20.4482L1.35336 19.7404L1.35323 19.7403L0.646774 20.448ZM1.17624 19.6263C1.1762 19.6262 1.17616 19.6262 1.17612 19.6262L0.823878 20.5621C0.823916 20.5621 0.823953 20.5621 0.823991 20.5622L1.17624 19.6263ZM1.48528 19.9733C1.48525 19.9732 1.48521 19.9731 1.48518 19.9729L0.514819 20.2146C0.514861 20.2147 0.514903 20.2149 0.514946 20.2151L1.48528 19.9733ZM0.646521 20.4474L0.647187 20.448L1.35414 19.7408L1.35348 19.7401L0.646521 20.4474ZM20.3942 14.7687C18.8719 17.6855 11.9037 23.6636 1.17678 19.6265L0.824549 20.5624C12.0701 24.7947 19.5477 18.552 21.2807 15.2313L20.3942 14.7687ZM39.2163 23.2763C37.1547 22.9941 32.9365 21.5576 29.054 19.8072C27.1205 18.9354 25.2935 17.9961 23.8806 17.0997C23.1737 16.6512 22.5807 16.2198 22.1326 15.8195C21.6755 15.4112 21.4082 15.0694 21.2988 14.8074L20.376 15.1926C20.5718 15.6616 20.9721 16.1238 21.4664 16.5653C21.9696 17.0148 22.6116 17.4788 23.3448 17.944C24.8121 18.875 26.6854 19.8362 28.643 20.7188C32.5428 22.477 36.8697 23.9644 39.0807 24.267L39.2163 23.2763ZM38.3215 31.6503C38.2549 31.5653 38.1812 31.4768 38.1006 31.3854L37.3504 32.0466C37.4194 32.1249 37.4806 32.1984 37.534 32.2667L38.3215 31.6503ZM37.3047 31.986C37.3892 32.1176 37.486 32.2277 37.5818 32.3196L38.2737 31.5975C38.2229 31.5489 38.1802 31.4987 38.1463 31.4459L37.3047 31.986Z" fill="#808080"/>
<path d="M50.1496 124.054C40.4904 132.94 55.5606 143.573 62 147.006C45.9014 138.927 44.5151 135.364 42.1003 132.133C46.1249 125.669 38.8806 125.669 34.856 127.285C27.1776 123.495 16.5523 107.92 14.7331 104.227C17.9525 107.088 22.782 108.703 26.0017 107.088C23.587 113.551 32.2753 122.082 37.2707 123.246C43.5443 124.707 48.9926 124.922 50.1496 124.054Z" fill="#D9D9D9" stroke="#808080"/>
<path fill-rule="evenodd" clip-rule="evenodd" d="M84.8515 23.7717C81.4335 24.2395 78.9242 23.8718 77.5 23.0921C86.3864 28.6261 86.8722 30.7846 86.2745 31.716C87.7205 30.0753 91.9257 27.0004 98.89 26.1108C106.214 25.1752 106.907 33.4632 106.5 36.5824L106.5 36.5824C106.5 36.5824 106.5 36.5824 106.5 36.5824C106.5 36.5826 106.5 36.5827 106.5 36.5829L106.501 36.5822C112.68 34.5166 117.506 59.7979 110.64 62.5546C119.993 68.7575 116.133 74.9603 113.387 77.0279C117.507 84.6091 113.158 98.3931 109.267 104.596C119.71 89.798 120.261 84.0097 120.753 78.8418C120.811 78.2331 120.868 77.6331 120.94 77.0279C119.796 67.3791 118.88 46.5652 118.88 40.5002C118.88 35.3919 121.316 26.3678 122.494 22.0009C122.715 21.1834 122.892 20.5291 123 20.0943L123 20.0942C123 20.0942 123 20.0942 123 20.0942C123 20.0941 123 20.0939 123 20.0938L122.999 20.0944C112.013 24.2291 104.79 18.1187 103.163 15C101.942 17.9239 89.1241 23.1869 84.8515 23.7717ZM86.0723 31.9585C86.1323 31.8818 86.1997 31.8008 86.2745 31.716C86.2153 31.8082 86.1455 31.8883 86.0723 31.9585Z" fill="#D9D9D9"/>
<path d="M77.5 23.0921L77.2357 23.5165L77.7401 22.6535L77.5 23.0921ZM84.8515 23.7717L84.7837 23.2763L84.8515 23.7717ZM98.89 26.1108L98.9533 26.6067L98.89 26.1108ZM106.5 36.5824L106.996 36.647L106.974 36.8157L106.854 36.9359L106.5 36.5824ZM106.5 36.5824L106.644 37.0614L106.146 36.2289L106.5 36.5824ZM106.5 36.5824L106.356 36.1035L107.097 35.8815L106.996 36.6477L106.5 36.5824ZM106.5 36.5829L106.854 36.9364L105.812 37.9778L106.004 36.5176L106.5 36.5829ZM106.501 36.5822L106.147 36.2287L106.23 36.1454L106.342 36.108L106.501 36.5822ZM110.64 62.5546L110.364 62.9713L109.57 62.4453L110.454 62.0906L110.64 62.5546ZM113.387 77.0279L112.947 77.2666L112.741 76.8877L113.086 76.6284L113.387 77.0279ZM109.267 104.596L109.675 104.884L108.843 104.33L109.267 104.596ZM120.753 78.8418L121.25 78.8892L120.753 78.8418ZM120.94 77.0279L121.437 76.969L121.444 77.0281L121.436 77.0872L120.94 77.0279ZM122.494 22.0009L122.977 22.1312H122.977L122.494 22.0009ZM123 20.0943L122.515 19.9734L122.548 19.8386L122.647 19.7404L123 20.0943ZM123 20.0942L122.824 19.6262L123.353 20.448L123 20.0942ZM123 20.0942L123.176 20.5622L122.284 20.8977L122.515 19.9733L123 20.0942ZM123 20.0938L122.647 19.7401L123.92 18.4667L123.485 20.2146L123 20.0938ZM122.999 20.0944L123.353 20.448L123.276 20.5244L123.175 20.5624L122.999 20.0944ZM103.163 15L102.701 14.8074L103.112 13.8228L103.606 14.7687L103.163 15ZM86.0723 31.9585L86.4182 32.3196L85.6785 31.6503L86.0723 31.9585ZM77.7401 22.6535C79.0287 23.359 81.4123 23.7377 84.7837 23.2763L84.9193 24.267C81.4546 24.7412 78.8197 24.3846 77.2599 23.5307L77.7401 22.6535ZM85.8537 31.4459C85.9287 31.329 85.9881 31.1592 85.919 30.87C85.8445 30.5584 85.6169 30.0991 85.0645 29.4558C83.9586 28.1681 81.6694 26.2776 77.2357 23.5165L77.7643 22.6677C82.217 25.4406 84.614 27.3964 85.8231 28.8043C86.4282 29.5088 86.7654 30.1097 86.8916 30.6376C87.0231 31.188 86.9191 31.6373 86.6953 31.9861L85.8537 31.4459ZM98.9533 26.6067C92.1015 27.482 88.01 30.503 86.6496 32.0466L85.8994 31.3854C87.431 29.6475 91.7499 26.5188 98.8266 25.6148L98.9533 26.6067ZM106.004 36.5177C106.2 35.0179 106.127 32.2649 105.137 30.0284C104.645 28.918 103.94 27.9621 102.957 27.3352C101.981 26.7127 100.686 26.3854 98.9533 26.6067L98.8266 25.6148C100.756 25.3683 102.294 25.7262 103.495 26.492C104.689 27.2535 105.505 28.3891 106.051 29.6237C107.137 32.0771 107.207 35.0277 106.996 36.647L106.004 36.5177ZM106.854 36.9359L106.854 36.936L106.146 36.2289L106.147 36.2288L106.854 36.9359ZM106.356 36.1035C106.349 36.1057 106.343 36.1076 106.34 36.1087C106.337 36.1097 106.334 36.1107 106.335 36.1105C106.335 36.1105 106.335 36.1105 106.335 36.1105C106.335 36.1105 106.335 36.1105 106.335 36.1105C106.335 36.1105 106.335 36.1105 106.335 36.1105C106.335 36.1105 106.335 36.1104 106.335 36.1104C106.335 36.1103 106.336 36.1102 106.336 36.1101C106.337 36.1098 106.338 36.1093 106.34 36.1087C106.344 36.1075 106.349 36.1057 106.356 36.1035L106.644 37.0613C106.651 37.0592 106.657 37.0573 106.66 37.0562C106.663 37.0551 106.666 37.0542 106.665 37.0544C106.665 37.0544 106.665 37.0544 106.665 37.0544C106.665 37.0544 106.665 37.0544 106.665 37.0544C106.665 37.0544 106.665 37.0544 106.665 37.0544C106.665 37.0544 106.665 37.0544 106.665 37.0545C106.665 37.0546 106.664 37.0547 106.664 37.0548C106.663 37.0551 106.662 37.0556 106.66 37.0562C106.657 37.0573 106.651 37.0592 106.644 37.0614L106.356 36.1035ZM106.004 36.5176V36.5176V36.5176C106.004 36.5176 106.004 36.5176 106.004 36.5176C106.004 36.5176 106.004 36.5176 106.004 36.5176V36.5176V36.5176C106.004 36.5176 106.004 36.5176 106.004 36.5176C106.004 36.5176 106.004 36.5176 106.004 36.5176V36.5176V36.5176C106.004 36.5176 106.004 36.5176 106.004 36.5176C106.004 36.5176 106.004 36.5176 106.004 36.5176C106.004 36.5176 106.004 36.5176 106.004 36.5176V36.5176V36.5176C106.004 36.5176 106.004 36.5176 106.004 36.5176C106.004 36.5176 106.004 36.5176 106.004 36.5176V36.5176C106.004 36.5176 106.004 36.5176 106.004 36.5176C106.004 36.5176 106.004 36.5176 106.004 36.5176C106.004 36.5176 106.004 36.5176 106.004 36.5176C106.004 36.5176 106.004 36.5176 106.004 36.5176V36.5176C106.004 36.5176 106.004 36.5176 106.004 36.5176C106.004 36.5176 106.004 36.5176 106.004 36.5176C106.004 36.5176 106.004 36.5176 106.004 36.5176C106.004 36.5176 106.004 36.5176 106.004 36.5176V36.5176C106.004 36.5176 106.004 36.5176 106.004 36.5176C106.004 36.5176 106.004 36.5176 106.004 36.5176C106.004 36.5176 106.004 36.5176 106.004 36.5176V36.5176C106.004 36.5176 106.004 36.5176 106.004 36.5176C106.004 36.5176 106.004 36.5176 106.004 36.5176C106.004 36.5176 106.004 36.5176 106.004 36.5176V36.5176C106.004 36.5176 106.004 36.5176 106.004 36.5176C106.004 36.5176 106.004 36.5176 106.004 36.5176C106.004 36.5176 106.004 36.5176 106.004 36.5176V36.5176C106.004 36.5176 106.004 36.5176 106.004 36.5176C106.004 36.5176 106.004 36.5176 106.004 36.5176H106.004C106.004 36.5176 106.004 36.5176 106.004 36.5176V36.5176C106.004 36.5176 106.004 36.5176 106.004 36.5176C106.004 36.5176 106.004 36.5176 106.004 36.5176C106.004 36.5176 106.004 36.5176 106.004 36.5176V36.5175C106.004 36.5175 106.004 36.5175 106.004 36.5175C106.004 36.5175 106.004 36.5175 106.004 36.5175H106.004C106.004 36.5175 106.004 36.5175 106.004 36.5175V36.5175C106.004 36.5175 106.004 36.5175 106.004 36.5175C106.004 36.5175 106.004 36.5175 106.004 36.5175C106.004 36.5175 106.004 36.5175 106.004 36.5175V36.5175C106.004 36.5175 106.004 36.5175 106.004 36.5175C106.004 36.5175 106.004 36.5175 106.004 36.5175C106.004 36.5175 106.004 36.5175 106.004 36.5175V36.5175V36.5175C106.004 36.5175 106.004 36.5175 106.004 36.5175C106.004 36.5175 106.004 36.5175 106.004 36.5175V36.5175V36.5175H106.004C106.004 36.5175 106.004 36.5175 106.004 36.5175C106.004 36.5175 106.004 36.5175 106.004 36.5175V36.5175V36.5175C106.004 36.5175 106.004 36.5175 106.004 36.5175C106.004 36.5175 106.004 36.5175 106.004 36.5175V36.5175L106.004 36.5175C106.004 36.5175 106.004 36.5175 106.004 36.5175C106.004 36.5175 106.004 36.5175 106.004 36.5175V36.5175V36.5175C106.004 36.5175 106.004 36.5175 106.004 36.5175C106.004 36.5175 106.004 36.5175 106.004 36.5175C106.004 36.5175 106.004 36.5175 106.004 36.5175C106.004 36.5175 106.004 36.5175 106.004 36.5175V36.5175C106.004 36.5175 106.004 36.5175 106.004 36.5175C106.004 36.5175 106.004 36.5175 106.004 36.5175C106.004 36.5175 106.004 36.5175 106.004 36.5175V36.5175C106.004 36.5175 106.004 36.5175 106.004 36.5175C106.004 36.5175 106.004 36.5175 106.004 36.5175C106.004 36.5175 106.004 36.5175 106.004 36.5175V36.5175C106.004 36.5175 106.004 36.5175 106.004 36.5175C106.004 36.5175 106.004 36.5175 106.004 36.5175C106.004 36.5175 106.004 36.5175 106.004 36.5175V36.5175C106.004 36.5175 106.004 36.5175 106.004 36.5175C106.004 36.5175 106.004 36.5175 106.004 36.5175C106.004 36.5175 106.004 36.5175 106.004 36.5175C106.004 36.5175 106.004 36.5175 106.004 36.5175V36.5175C106.004 36.5175 106.004 36.5175 106.004 36.5175C106.004 36.5175 106.004 36.5175 106.004 36.5175C106.004 36.5175 106.004 36.5175 106.004 36.5175V36.5174C106.004 36.5174 106.004 36.5174 106.004 36.5174C106.004 36.5174 106.004 36.5174 106.004 36.5174C106.004 36.5174 106.004 36.5174 106.004 36.5174C106.004 36.5174 106.004 36.5174 106.004 36.5174V36.5174C106.004 36.5174 106.004 36.5174 106.004 36.5174C106.004 36.5174 106.004 36.5174 106.004 36.5174C106.004 36.5174 106.004 36.5174 106.004 36.5174V36.5174C106.004 36.5174 106.004 36.5174 106.004 36.5174C106.004 36.5174 106.004 36.5174 106.004 36.5174C106.004 36.5174 106.004 36.5174 106.004 36.5174V36.5174C106.004 36.5174 106.004 36.5174 106.004 36.5174C106.004 36.5174 106.004 36.5174 106.004 36.5174C106.004 36.5174 106.004 36.5174 106.004 36.5174V36.5174V36.5174C106.004 36.5174 106.004 36.5174 106.004 36.5174C106.004 36.5174 106.004 36.5174 106.004 36.5174V36.5174V36.5174C106.004 36.5174 106.004 36.5174 106.004 36.5174C106.004 36.5174 106.004 36.5174 106.004 36.5174V36.5174V36.5174C106.004 36.5174 106.004 36.5174 106.004 36.5174C106.004 36.5174 106.004 36.5174 106.004 36.5174C106.004 36.5174 106.004 36.5174 106.004 36.5174V36.5174V36.5174C106.004 36.5174 106.004 36.5174 106.004 36.5174C106.004 36.5174 106.004 36.5174 106.004 36.5174V36.5174C106.004 36.5174 106.004 36.5174 106.004 36.5174C106.004 36.5174 106.004 36.5174 106.004 36.5174C106.004 36.5174 106.004 36.5174 106.004 36.5174C106.004 36.5174 106.004 36.5174 106.004 36.5174V36.5174C106.004 36.5174 106.004 36.5174 106.004 36.5174C106.004 36.5174 106.004 36.5174 106.004 36.5174C106.004 36.5174 106.004 36.5174 106.004 36.5174C106.004 36.5174 106.004 36.5174 106.004 36.5174V36.5174C106.004 36.5174 106.004 36.5174 106.004 36.5174C106.004 36.5174 106.004 36.5174 106.004 36.5174C106.004 36.5174 106.004 36.5174 106.004 36.5174V36.5174C106.004 36.5174 106.004 36.5174 106.004 36.5174C106.004 36.5174 106.004 36.5174 106.004 36.5174C106.004 36.5174 106.004 36.5174 106.004 36.5174V36.5174C106.004 36.5174 106.004 36.5174 106.004 36.5174C106.004 36.5174 106.004 36.5174 106.004 36.5174C106.004 36.5173 106.004 36.5173 106.004 36.5173V36.5173C106.004 36.5173 106.004 36.5173 106.004 36.5173C106.004 36.5173 106.004 36.5173 106.004 36.5173H106.004C106.004 36.5173 106.004 36.5173 106.004 36.5173V36.5173C106.004 36.5173 106.004 36.5173 106.004 36.5173C106.004 36.5173 106.004 36.5173 106.004 36.5173C106.004 36.5173 106.004 36.5173 106.004 36.5173V36.5173C106.004 36.5173 106.004 36.5173 106.004 36.5173C106.004 36.5173 106.004 36.5173 106.004 36.5173H106.004C106.004 36.5173 106.004 36.5173 106.004 36.5173V36.5173C106.004 36.5173 106.004 36.5173 106.004 36.5173C106.004 36.5173 106.004 36.5173 106.004 36.5173C106.004 36.5173 106.004 36.5173 106.004 36.5173V36.5173C106.004 36.5173 106.004 36.5173 106.004 36.5173C106.004 36.5173 106.004 36.5173 106.004 36.5173C106.004 36.5173 106.004 36.5173 106.004 36.5173V36.5173V36.5173C106.004 36.5173 106.004 36.5173 106.004 36.5173C106.004 36.5173 106.004 36.5173 106.004 36.5173V36.5173V36.5173H106.004C106.004 36.5173 106.004 36.5173 106.004 36.5173C106.004 36.5173 106.004 36.5173 106.004 36.5173V36.5173V36.5173C106.004 36.5173 106.004 36.5173 106.004 36.5173C106.004 36.5173 106.004 36.5173 106.004 36.5173V36.5173L106.004 36.5173C106.004 36.5173 106.004 36.5173 106.004 36.5173C106.004 36.5173 106.004 36.5173 106.004 36.5173V36.5173V36.5173C106.004 36.5173 106.004 36.5173 106.004 36.5173C106.004 36.5173 106.004 36.5173 106.004 36.5173C106.004 36.5173 106.004 36.5173 106.004 36.5173C106.004 36.5173 106.004 36.5173 106.004 36.5173V36.5173C106.004 36.5173 106.004 36.5173 106.004 36.5173C106.004 36.5173 106.004 36.5173 106.004 36.5173C106.004 36.5173 106.004 36.5173 106.004 36.5173V36.5173C106.004 36.5173 106.004 36.5173 106.004 36.5173C106.004 36.5173 106.004 36.5173 106.004 36.5173C106.004 36.5173 106.004 36.5173 106.004 36.5173V36.5173C106.004 36.5173 106.004 36.5173 106.004 36.5173C106.004 36.5173 106.004 36.5173 106.004 36.5173C106.004 36.5172 106.004 36.5172 106.004 36.5172V36.5172C106.004 36.5172 106.004 36.5172 106.004 36.5172C106.004 36.5172 106.004 36.5172 106.004 36.5172C106.004 36.5172 106.004 36.5172 106.004 36.5172C106.004 36.5172 106.004 36.5172 106.004 36.5172V36.5172C106.004 36.5172 106.004 36.5172 106.004 36.5172C106.004 36.5172 106.004 36.5172 106.004 36.5172C106.004 36.5172 106.004 36.5172 106.004 36.5172V36.5172C106.004 36.5172 106.004 36.5172 106.004 36.5172C106.004 36.5172 106.004 36.5172 106.004 36.5172C106.004 36.5172 106.004 36.5172 106.004 36.5172C106.004 36.5172 106.004 36.5172 106.004 36.5172V36.5172C106.004 36.5172 106.004 36.5172 106.004 36.5172C106.004 36.5172 106.004 36.5172 106.004 36.5172C106.004 36.5172 106.004 36.5172 106.004 36.5172V36.5172C106.004 36.5172 106.004 36.5172 106.004 36.5172C106.004 36.5172 106.004 36.5172 106.004 36.5172C106.004 36.5172 106.004 36.5172 106.004 36.5172V36.5172C106.004 36.5172 106.004 36.5172 106.004 36.5172C106.004 36.5172 106.004 36.5172 106.004 36.5172C106.004 36.5172 106.004 36.5172 106.004 36.5172L106.996 36.6477V36.6477V36.6477C106.996 36.6477 106.996 36.6477 106.996 36.6477C106.996 36.6477 106.996 36.6477 106.996 36.6477V36.6477V36.6477C106.996 36.6477 106.996 36.6477 106.996 36.6477C106.996 36.6477 106.996 36.6477 106.996 36.6477V36.6477V36.6477C106.996 36.6477 106.996 36.6477 106.996 36.6477C106.996 36.6477 106.996 36.6477 106.996 36.6477C106.996 36.6477 106.996 36.6477 106.996 36.6477V36.6477V36.6477C106.996 36.6477 106.996 36.6477 106.996 36.6477C106.996 36.6477 106.996 36.6477 106.996 36.6477V36.6477C106.996 36.6477 106.996 36.6477 106.996 36.6477C106.996 36.6477 106.996 36.6477 106.996 36.6477C106.996 36.6477 106.996 36.6477 106.996 36.6477C106.996 36.6477 106.996 36.6477 106.996 36.6477V36.6477C106.996 36.6477 106.996 36.6477 106.996 36.6477C106.996 36.6477 106.996 36.6477 106.996 36.6477C106.996 36.6477 106.996 36.6477 106.996 36.6477C106.996 36.6477 106.996 36.6477 106.996 36.6477V36.6477C106.996 36.6477 106.996 36.6477 106.996 36.6477C106.996 36.6477 106.996 36.6477 106.996 36.6477C106.996 36.6477 106.996 36.6477 106.996 36.6477V36.6477C106.996 36.6477 106.996 36.6477 106.996 36.6477C106.996 36.6477 106.996 36.6477 106.996 36.6477C106.996 36.6477 106.996 36.6477 106.996 36.6477V36.6477C106.996 36.6477 106.996 36.6477 106.996 36.6477C106.996 36.6477 106.996 36.6477 106.996 36.6477C106.996 36.6477 106.996 36.6477 106.996 36.6477V36.6477C106.996 36.6477 106.996 36.6477 106.996 36.6477C106.996 36.6477 106.996 36.6477 106.996 36.6477H106.996C106.996 36.6477 106.996 36.6477 106.996 36.6477V36.6477C106.996 36.6477 106.996 36.6477 106.996 36.6477C106.996 36.6477 106.996 36.6477 106.996 36.6477C106.996 36.6477 106.996 36.6477 106.996 36.6477V36.6477C106.996 36.6477 106.996 36.6477 106.996 36.6477C106.996 36.6477 106.996 36.6477 106.996 36.6477H106.996C106.996 36.6478 106.996 36.6478 106.996 36.6478V36.6478C106.996 36.6478 106.996 36.6478 106.996 36.6478C106.996 36.6478 106.996 36.6478 106.996 36.6478C106.996 36.6478 106.996 36.6478 106.996 36.6478V36.6478C106.996 36.6478 106.996 36.6478 106.996 36.6478C106.996 36.6478 106.996 36.6478 106.996 36.6478C106.996 36.6478 106.996 36.6478 106.996 36.6478V36.6478V36.6478C106.996 36.6478 106.996 36.6478 106.996 36.6478C106.996 36.6478 106.996 36.6478 106.996 36.6478V36.6478V36.6478H106.996C106.996 36.6478 106.996 36.6478 106.996 36.6478C106.996 36.6478 106.996 36.6478 106.996 36.6478V36.6478V36.6478C106.996 36.6478 106.996 36.6478 106.996 36.6478C106.996 36.6478 106.996 36.6478 106.996 36.6478V36.6478L106.996 36.6478C106.996 36.6478 106.996 36.6478 106.996 36.6478C106.996 36.6478 106.996 36.6478 106.996 36.6478V36.6478V36.6478C106.996 36.6478 106.996 36.6478 106.996 36.6478C106.996 36.6478 106.996 36.6478 106.996 36.6478C106.996 36.6478 106.996 36.6478 106.996 36.6478C106.996 36.6478 106.996 36.6478 106.996 36.6478V36.6478C106.996 36.6478 106.996 36.6478 106.996 36.6478C106.996 36.6478 106.996 36.6478 106.996 36.6478C106.996 36.6478 106.996 36.6478 106.996 36.6478V36.6478C106.996 36.6478 106.996 36.6478 106.996 36.6478C106.996 36.6478 106.996 36.6478 106.996 36.6478C106.996 36.6478 106.996 36.6478 106.996 36.6478V36.6478C106.996 36.6478 106.996 36.6478 106.996 36.6478C106.996 36.6478 106.996 36.6478 106.996 36.6478C106.996 36.6478 106.996 36.6478 106.996 36.6478V36.6478C106.996 36.6478 106.996 36.6478 106.996 36.6478C106.996 36.6478 106.996 36.6478 106.996 36.6478C106.996 36.6478 106.996 36.6478 106.996 36.6478C106.996 36.6478 106.996 36.6478 106.996 36.6478V36.6478C106.996 36.6478 106.996 36.6478 106.996 36.6478C106.996 36.6478 106.996 36.6478 106.996 36.6478C106.996 36.6478 106.996 36.6478 106.996 36.6478V36.6478C106.996 36.6478 106.996 36.6478 106.996 36.6478C106.996 36.6478 106.996 36.6478 106.996 36.6479C106.996 36.6479 106.996 36.6479 106.996 36.6479C106.996 36.6479 106.996 36.6479 106.996 36.6479V36.6479C106.996 36.6479 106.996 36.6479 106.996 36.6479C106.996 36.6479 106.996 36.6479 106.996 36.6479C106.996 36.6479 106.996 36.6479 106.996 36.6479V36.6479C106.996 36.6479 106.996 36.6479 106.996 36.6479C106.996 36.6479 106.996 36.6479 106.996 36.6479C106.996 36.6479 106.996 36.6479 106.996 36.6479V36.6479C106.996 36.6479 106.996 36.6479 106.996 36.6479C106.996 36.6479 106.996 36.6479 106.996 36.6479C106.996 36.6479 106.996 36.6479 106.996 36.6479V36.6479V36.6479C106.996 36.6479 106.996 36.6479 106.996 36.6479C106.996 36.6479 106.996 36.6479 106.996 36.6479V36.6479V36.6479C106.996 36.6479 106.996 36.6479 106.996 36.6479C106.996 36.6479 106.996 36.6479 106.996 36.6479V36.6479V36.6479C106.996 36.6479 106.996 36.6479 106.996 36.6479C106.996 36.6479 106.996 36.6479 106.996 36.6479C106.996 36.6479 106.996 36.6479 106.996 36.6479V36.6479V36.6479C106.996 36.6479 106.996 36.6479 106.996 36.6479C106.996 36.6479 106.996 36.6479 106.996 36.6479V36.6479C106.996 36.6479 106.996 36.6479 106.996 36.6479C106.996 36.6479 106.996 36.6479 106.996 36.6479C106.996 36.6479 106.996 36.6479 106.996 36.6479C106.996 36.6479 106.996 36.6479 106.996 36.6479V36.6479C106.996 36.6479 106.996 36.6479 106.996 36.6479C106.996 36.6479 106.996 36.6479 106.996 36.6479C106.996 36.6479 106.996 36.6479 106.996 36.6479C106.996 36.6479 106.996 36.6479 106.996 36.6479V36.6479C106.996 36.6479 106.996 36.6479 106.996 36.6479C106.996 36.6479 106.996 36.6479 106.996 36.6479C106.996 36.6479 106.996 36.6479 106.996 36.6479V36.6479C106.996 36.6479 106.996 36.6479 106.996 36.6479C106.996 36.6479 106.996 36.6479 106.996 36.6479C106.996 36.6479 106.996 36.6479 106.996 36.6479V36.6479C106.996 36.6479 106.996 36.6479 106.996 36.6479C106.996 36.6479 106.996 36.6479 106.996 36.6479C106.996 36.6479 106.996 36.6479 106.996 36.6479V36.6479C106.996 36.6479 106.996 36.6479 106.996 36.6479C106.996 36.6479 106.996 36.6479 106.996 36.648H106.996C106.996 36.648 106.996 36.648 106.996 36.648V36.648C106.996 36.648 106.996 36.648 106.996 36.648C106.996 36.648 106.996 36.648 106.996 36.648C106.996 36.648 106.996 36.648 106.996 36.648V36.648C106.996 36.648 106.996 36.648 106.996 36.648C106.996 36.648 106.996 36.648 106.996 36.648H106.996C106.996 36.648 106.996 36.648 106.996 36.648V36.648C106.996 36.648 106.996 36.648 106.996 36.648C106.996 36.648 106.996 36.648 106.996 36.648C106.996 36.648 106.996 36.648 106.996 36.648V36.648C106.996 36.648 106.996 36.648 106.996 36.648C106.996 36.648 106.996 36.648 106.996 36.648C106.996 36.648 106.996 36.648 106.996 36.648V36.648V36.648C106.996 36.648 106.996 36.648 106.996 36.648C106.996 36.648 106.996 36.648 106.996 36.648V36.648V36.648H106.996C106.996 36.648 106.996 36.648 106.996 36.648C106.996 36.648 106.996 36.648 106.996 36.648V36.648V36.648C106.996 36.648 106.996 36.648 106.996 36.648C106.996 36.648 106.996 36.648 106.996 36.648V36.648L106.996 36.648C106.996 36.648 106.996 36.648 106.996 36.648C106.996 36.648 106.996 36.648 106.996 36.648V36.648V36.648C106.996 36.648 106.996 36.648 106.996 36.648C106.996 36.648 106.996 36.648 106.996 36.648C106.996 36.648 106.996 36.648 106.996 36.648C106.996 36.648 106.996 36.648 106.996 36.648V36.648C106.996 36.648 106.996 36.648 106.996 36.648C106.996 36.648 106.996 36.648 106.996 36.648C106.996 36.648 106.996 36.648 106.996 36.648V36.648C106.996 36.648 106.996 36.648 106.996 36.648C106.996 36.648 106.996 36.648 106.996 36.648C106.996 36.648 106.996 36.648 106.996 36.648V36.648C106.996 36.648 106.996 36.648 106.996 36.648C106.996 36.648 106.996 36.648 106.996 36.648C106.996 36.648 106.996 36.648 106.996 36.648V36.648C106.996 36.648 106.996 36.648 106.996 36.6481C106.996 36.6481 106.996 36.6481 106.996 36.6481C106.996 36.6481 106.996 36.6481 106.996 36.6481C106.996 36.6481 106.996 36.6481 106.996 36.6481V36.6481C106.996 36.6481 106.996 36.6481 106.996 36.6481C106.996 36.6481 106.996 36.6481 106.996 36.6481C106.996 36.6481 106.996 36.6481 106.996 36.6481V36.6481C106.996 36.6481 106.996 36.6481 106.996 36.6481C106.996 36.6481 106.996 36.6481 106.996 36.6481C106.996 36.6481 106.996 36.6481 106.996 36.6481C106.996 36.6481 106.996 36.6481 106.996 36.6481V36.6481C106.996 36.6481 106.996 36.6481 106.996 36.6481C106.996 36.6481 106.996 36.6481 106.996 36.6481C106.996 36.6481 106.996 36.6481 106.996 36.6481V36.6481C106.996 36.6481 106.996 36.6481 106.996 36.6481C106.996 36.6481 106.996 36.6481 106.996 36.6481C106.996 36.6481 106.996 36.6481 106.996 36.6481V36.6481C106.996 36.6481 106.996 36.6481 106.996 36.6481C106.996 36.6481 106.996 36.6481 106.996 36.6481C106.996 36.6481 106.996 36.6481 106.996 36.6481L106.004 36.5176ZM106.854 36.9358L106.854 36.9364L106.146 36.2293L106.147 36.2287L106.854 36.9358ZM106.342 36.108C107.297 35.789 108.212 36.0137 109.022 36.583C109.816 37.1414 110.529 38.0403 111.154 39.133C112.407 41.3233 113.389 44.4372 113.955 47.6739C114.522 50.913 114.68 54.3241 114.253 57.1185C114.04 58.5155 113.676 59.7816 113.127 60.7998C112.577 61.8203 111.824 62.6182 110.826 63.0187L110.454 62.0906C111.173 61.8019 111.771 61.2067 112.247 60.325C112.724 59.4411 113.062 58.2959 113.265 56.9674C113.671 54.3109 113.524 51.0138 112.97 47.8462C112.416 44.6762 111.462 41.6847 110.286 39.6296C109.697 38.5995 109.072 37.8408 108.447 37.4012C107.837 36.9726 107.25 36.8591 106.659 37.0564L106.342 36.108ZM110.916 62.138C115.683 65.2991 117.202 68.5478 117.05 71.3688C116.901 74.1459 115.137 76.3361 113.687 77.4273L113.086 76.6284C114.383 75.6521 115.923 73.7071 116.052 71.3151C116.178 68.9671 114.95 66.0131 110.364 62.9713L110.916 62.138ZM113.826 76.7891C115.972 80.7382 115.886 86.226 114.821 91.4291C113.751 96.6505 111.671 101.704 109.69 104.862L108.843 104.33C110.754 101.285 112.793 96.3451 113.841 91.2285C114.893 86.0935 114.921 80.8987 112.947 77.2666L113.826 76.7891ZM108.858 104.308C114.066 96.9279 116.79 91.8192 118.274 87.9294C119.754 84.0512 120.01 81.3667 120.255 78.7945L121.25 78.8892C121.003 81.4849 120.738 84.2784 119.209 88.2859C117.684 92.2817 114.91 97.4661 109.675 104.884L108.858 104.308ZM120.255 78.7945C120.313 78.1867 120.37 77.5807 120.444 76.9685L121.436 77.0872C121.365 77.6854 121.308 78.2795 121.25 78.8892L120.255 78.7945ZM120.443 77.0868C119.296 67.4139 118.38 46.5798 118.38 40.5002H119.38C119.38 46.5506 120.295 67.3442 121.437 76.969L120.443 77.0868ZM118.38 40.5002C118.38 37.8873 119 34.3082 119.757 30.8652C120.516 27.4117 121.422 24.0534 122.012 21.8706L122.977 22.1312C122.388 24.3153 121.487 27.6525 120.734 31.0799C119.978 34.5177 119.38 38.0048 119.38 40.5002H118.38ZM122.012 21.8706C122.233 21.0507 122.408 20.4023 122.515 19.9734L123.485 20.2152C123.375 20.6559 123.197 21.3161 122.977 22.1312L122.012 21.8706ZM123.353 20.448L123.353 20.4482L122.647 19.7404L122.647 19.7403L123.353 20.448ZM122.824 19.6263C122.824 19.6262 122.824 19.6262 122.824 19.6262L123.176 20.5621C123.176 20.5621 123.176 20.5621 123.176 20.5622L122.824 19.6263ZM122.515 19.9733C122.515 19.9732 122.515 19.9731 122.515 19.9729L123.485 20.2146C123.485 20.2147 123.485 20.2149 123.485 20.2151L122.515 19.9733ZM123.353 20.4474L123.353 20.448L122.646 19.7408L122.647 19.7401L123.353 20.4474ZM103.606 14.7687C105.128 17.6855 112.096 23.6636 122.823 19.6265L123.175 20.5624C111.93 24.7947 104.452 18.552 102.719 15.2313L103.606 14.7687ZM84.7837 23.2763C86.8453 22.9941 91.0635 21.5576 94.946 19.8072C96.8795 18.9354 98.7065 17.9961 100.119 17.0997C100.826 16.6512 101.419 16.2198 101.867 15.8195C102.324 15.4112 102.592 15.0694 102.701 14.8074L103.624 15.1926C103.428 15.6616 103.028 16.1238 102.534 16.5653C102.03 17.0148 101.388 17.4788 100.655 17.944C99.1879 18.875 97.3146 19.8362 95.357 20.7188C91.4572 22.477 87.1303 23.9644 84.9193 24.267L84.7837 23.2763ZM85.6785 31.6503C85.7451 31.5653 85.8188 31.4768 85.8994 31.3854L86.6496 32.0466C86.5806 32.1249 86.5194 32.1984 86.466 32.2667L85.6785 31.6503ZM86.6953 31.986C86.6108 32.1176 86.514 32.2277 86.4182 32.3196L85.7263 31.5975C85.7771 31.5489 85.8198 31.4987 85.8537 31.4459L86.6953 31.986Z" fill="#808080"/>
<path d="M73.8504 124.054C83.5096 132.94 68.4394 143.573 62 147.006C78.0986 138.927 79.4849 135.364 81.8997 132.133C77.8751 125.669 85.1194 125.669 89.144 127.285C96.8224 123.495 107.448 107.92 109.267 104.227C106.048 107.088 101.218 108.703 97.9983 107.088C100.413 113.551 91.7247 122.082 86.7293 123.246C80.4557 124.707 75.0074 124.922 73.8504 124.054Z" fill="#D9D9D9" stroke="#808080"/>
<path fill-rule="evenodd" clip-rule="evenodd" d="M53 133.268C54.2 135.431 57.68 140.405 62 143C66.32 140.405 69.8 135.431 71 133.268C70.25 134.195 68.12 135.863 65.6 135.122C63.08 134.38 62.15 127.398 62 124C61.85 127.398 60.92 134.38 58.4 135.122C55.88 135.863 53.75 134.195 53 133.268Z" fill="#D9D9D9"/>
<path d="M62 143L61.7425 143.429L62 143.583L62.2575 143.429L62 143ZM53 133.268L53.3887 132.954L52.5628 133.511L53 133.268ZM71 133.268L71.4372 133.511L70.6113 132.954L71 133.268ZM65.6 135.122L65.7411 134.642L65.6 135.122ZM62 124L62.4995 123.978H61.5005L62 124ZM58.4 135.122L58.2589 134.642L58.4 135.122ZM62.2575 142.571C58.0462 140.042 54.6188 135.155 53.4372 133.026L52.5628 133.511C53.7812 135.707 57.3138 140.768 61.7425 143.429L62.2575 142.571ZM62.2575 143.429C66.6862 140.768 70.2188 135.707 71.4372 133.511L70.5628 133.026C69.3812 135.155 65.9538 140.042 61.7425 142.571L62.2575 143.429ZM70.6113 132.954C70.2796 133.364 69.6185 133.963 68.7519 134.368C67.8928 134.77 66.8573 134.971 65.7411 134.642L65.4589 135.602C66.8627 136.015 68.1522 135.752 69.1756 135.274C70.1915 134.798 70.9704 134.1 71.3887 133.583L70.6113 132.954ZM65.7411 134.642C65.3041 134.514 64.8577 134.084 64.4342 133.309C64.0193 132.55 63.6746 131.548 63.3963 130.436C62.8406 128.215 62.5736 125.655 62.4995 123.978L61.5005 124.022C61.5764 125.743 61.8494 128.373 62.4262 130.679C62.7142 131.83 63.0839 132.924 63.5568 133.789C64.0211 134.638 64.6359 135.359 65.4589 135.602L65.7411 134.642ZM58.5411 135.602C59.3641 135.359 59.9789 134.638 60.4432 133.789C60.9161 132.924 61.2858 131.83 61.5738 130.679C62.1506 128.373 62.4236 125.743 62.4995 124.022L61.5005 123.978C61.4264 125.655 61.1594 128.215 60.6037 130.436C60.3254 131.548 59.9807 132.55 59.5658 133.309C59.1423 134.084 58.6959 134.514 58.2589 134.642L58.5411 135.602ZM52.6113 133.583C53.0296 134.1 53.8085 134.798 54.8244 135.274C55.8478 135.752 57.1373 136.015 58.5411 135.602L58.2589 134.642C57.1427 134.971 56.1072 134.77 55.2481 134.368C54.3815 133.963 53.7204 133.364 53.3887 132.954L52.6113 133.583Z" fill="#808080"/>
<path d="M41.2807 33.9269C40.5908 29.9223 45.4205 22 47.4908 22L54.3904 25.2503C52.3204 25.4728 48.8704 25.9178 48.8708 28.5875C48.8712 31.2572 54.3904 33.2594 56.4604 32.592C56.4604 34.7278 57.3804 38.3764 57.8404 39.9337C55.7708 34.5943 50.4804 33.9269 48.1804 37.264C49.1004 35.9292 50.2508 33.2594 47.4908 31.9246C46.1108 31.2572 43.3508 30.5897 41.2807 33.9269Z" fill="#D9D9D9" stroke="#808080"/>
<path d="M82.7182 33.9269C83.4081 29.9223 79.2681 23.248 77.1979 23.248L69.6085 25.2503C71.6785 25.4728 75.1285 25.9178 75.1281 28.5875C75.1277 31.2572 69.6085 33.2594 67.5385 32.592C67.5385 34.7278 66.6185 38.3764 66.1585 39.9337C68.2281 34.5943 73.5185 33.9269 75.8185 37.264C74.8985 35.9292 73.7481 33.2594 76.5081 31.9246C77.8881 31.2572 80.6481 30.5897 82.7182 33.9269Z" fill="#D9D9D9" stroke="#808080"/>
<path fill-rule="evenodd" clip-rule="evenodd" d="M48.0852 23.1212C50.2267 25.8986 52.9964 26.6606 55.452 26.6606C58.7006 30.1725 61.949 39.7814 61.9994 39.9308L62 39.9325C62.0503 39.7832 65.2987 30.1725 68.5474 26.6606C71.003 26.6606 73.7726 25.8986 75.9142 23.1212C78.0557 20.3439 79.1873 17.8121 78.3692 12.503C78.3685 14.2727 76.7327 17.8121 75.0964 16.0417C75.0964 2.77016 67.7292 1.00091 62 1M62 1C56.2707 1.00091 48.903 2.77016 48.903 16.0417C47.2667 17.8121 45.6308 14.2727 45.6301 12.503C44.8121 17.8121 45.9437 20.3439 48.0852 23.1212" fill="#D9D9D9"/>
<path d="M55.452 26.6606C52.9964 26.6606 50.2267 25.8986 48.0852 23.1212C45.9437 20.3439 44.8121 17.8121 45.6301 12.503C45.6308 14.2727 47.2667 17.8121 48.903 16.0417C48.903 2.77016 56.2707 1.00091 62 1C67.7292 1.00091 75.0964 2.77016 75.0964 16.0417C76.7327 17.8121 78.3685 14.2727 78.3692 12.503C79.1873 17.8121 78.0557 20.3439 75.9142 23.1212C73.7726 25.8986 71.003 26.6606 68.5474 26.6606C65.2987 30.1725 62.0503 39.7832 62 39.9325L61.9994 39.9308C61.949 39.7814 58.7006 30.1725 55.452 26.6606Z" stroke="#808080"/>
<path d="M53.8271 21.3252C51.873 19.4714 50.751 11.2541 54.4782 13.9106C55.7792 14.8378 56.0988 15.9169 57.7329 16.6907C59.367 17.4645 60.3368 17.6176 60.3369 21.3231C60.337 20.3965 59.0343 18.542 57.7323 20.3964C56.7033 21.8621 55.7793 23.1772 53.8271 21.3252Z" fill="#4D4D4D"/>
<path d="M70.1738 21.3252C72.1279 19.4714 73.25 11.2541 69.5228 13.9106C68.2218 14.8378 67.9022 15.9169 66.2681 16.6907C64.6339 17.4645 63.6642 17.6176 63.6641 21.3231C63.664 20.3965 64.9667 18.542 66.2687 20.3964C67.2977 21.8621 68.2216 23.1772 70.1738 21.3252Z" fill="#4D4D4D"/>
<path d="M61.1686 24.0059V27.5453C60.3367 27.5453 60.3367 26.6604 59.5049 25.7756C60.3367 25.7756 61.1686 24.5958 61.1686 24.0059Z" fill="#4D4D4D"/>
<path d="M62.8334 24.0059V27.5453C63.6652 27.5453 63.6652 26.6604 64.4971 25.7756C63.6652 25.7756 62.8334 24.5958 62.8334 24.0059Z" fill="#4D4D4D"/>
<path fill-rule="evenodd" clip-rule="evenodd" d="M62.0013 4.66797C61.6262 6.16716 60.471 9.40807 58.8506 9.40807C59.9008 10.1577 62.0013 12.2139 62.0013 15.4122V4.66797ZM62.0015 4.66797C62.3766 6.16716 63.5319 9.40807 65.1522 9.40807C64.102 10.1577 62.0015 12.2139 62.0015 15.4122V4.66797Z" fill="#4C4C4C"/>
<path fill-rule="evenodd" clip-rule="evenodd" d="M67.0418 6.56445C66.8168 7.53452 66.1236 9.40851 65.1514 9.40851C65.7815 9.89354 67.0418 11.4471 67.0418 13.5166V6.56445ZM67.0432 6.56445C67.2682 7.53452 67.9614 9.40851 68.9336 9.40851C68.3034 9.89354 67.0432 11.4471 67.0432 13.5166V6.56445Z" fill="#4C4C4C"/>
<path fill-rule="evenodd" clip-rule="evenodd" d="M56.9601 6.56445C57.1852 7.53452 57.8784 9.40851 58.8506 9.40851C58.2204 9.89354 56.9601 11.4471 56.9601 13.5166V6.56445ZM56.9588 6.56445C56.7337 7.53452 56.0406 9.40851 55.0684 9.40851C55.6985 9.89354 56.9588 11.4471 56.9588 13.5166V6.56445Z" fill="#4C4C4C"/>
<path d="M37.8275 73.72C37.3275 73.72 36.9475 73.74 36.4875 73.7C36.2275 73.52 35.9675 73.58 35.8075 73.22L35.5475 73.36C35.6275 73.76 35.8475 74.12 36.1075 74.38L37.3075 75.54L38.2075 75.02C39.4875 74.88 40.7675 74.68 42.0675 74.6C40.7075 76.82 38.3675 79.06 36.4875 80.56C35.8475 81.08 35.8475 81.36 35.2475 81.72C35.0275 81.86 34.6475 81.94 34.2475 81.92L34.1875 82.5C35.5275 82.22 36.5875 81.82 37.7475 81.18C38.9475 80.52 40.2675 79.54 41.6075 78.2C41.7675 78.14 41.9275 78.1 42.0875 78.14C42.7275 78.32 44.0675 79.8 44.3675 80.86C44.4675 81.18 44.3475 81.34 44.0875 81.48L44.4675 81.72C44.7475 81.22 45.5675 80.88 45.7675 80.4C45.4675 79.68 45.8075 78.96 45.4675 78.24C44.3675 78.22 43.6875 77.96 43.3875 77.32C43.2075 77.28 43.0075 77.3 42.8675 77.38C42.7675 77.46 42.6275 77.54 42.5075 77.56C42.4275 77.58 42.3275 77.56 42.2275 77.54C42.9675 76.76 43.7075 75.86 44.4675 74.84C44.6075 74.58 45.0275 74.32 45.2875 74.2L43.1475 72.78C42.9475 73.06 42.7875 73.2 42.5075 73.32L41.4475 73.44L41.5075 72.36L42.1075 71.44L38.3075 70.84L38.1675 71.24C38.9275 71.44 39.4675 71.8 39.4675 72.48V73.64C38.9675 73.68 38.4475 73.72 37.8275 73.72ZM51.0075 70.46L46.5875 69.5L46.4075 69.96C47.3075 70.3 48.3075 70.82 48.3075 71.74V75.86L46.5475 76.06C46.1075 76.06 45.5475 76.1 45.1275 76.08C44.8875 75.92 44.5275 75.86 44.4075 75.66L44.2075 75.78C44.3075 76.08 44.5275 76.54 44.7275 76.72L45.9075 77.86L46.7075 77.4L48.3075 77.16V83.08H48.8275C49.1675 82.18 49.7675 81.4 50.4675 80.92V71.7L51.0075 70.46ZM45.5075 85.52C46.3675 85.96 48.6475 87.06 49.3475 88.2C49.5675 88.54 49.3875 88.76 49.1275 88.98L49.5675 89.18C49.7875 88.7 50.6275 88.28 50.8475 87.86C50.3475 87.16 50.4075 86.24 49.9875 85.38C48.6475 85.52 46.8275 85.4 46.3075 84.52C46.0475 84.48 45.9675 84.54 45.7875 84.62C45.6275 84.72 45.5475 84.78 45.4075 84.8C45.3475 84.82 45.2875 84.82 45.2475 84.82C45.5675 84.46 45.8675 84.06 46.1675 83.64C46.3675 83.36 46.6875 83.06 46.9875 82.9L42.8475 81.36L42.5675 81.84C43.3675 82.1 43.9875 82.6 43.8475 83.26C42.7275 85.04 40.6675 86.78 39.2075 87.8C38.6275 88.22 38.5275 88.42 38.1675 88.56C37.9475 88.66 37.6275 88.72 37.1875 88.66L37.1475 89.18C38.1475 89.12 39.4475 88.88 40.6075 88.28C41.8875 87.62 43.3075 86.74 44.6075 85.48C44.7075 85.44 44.8075 85.42 44.9075 85.4C45.0475 85.4 45.2875 85.4 45.5075 85.52Z" fill="#D9D9D9"/>
<path d="M64.5275 86.5C65.5675 86.5 67.3675 86.54 68.3275 86.64V86.06C66.9075 86.06 65.8275 86.04 65.8275 84.82V73.68C65.8275 72.56 66.3275 72.22 67.1275 71.64L66.9075 71.3C65.3875 72.16 62.2475 72.62 60.5675 72.62V73.08C62.9075 73.08 63.2275 73.52 63.2275 74.42V84.82C63.2275 86.04 62.1475 86.06 60.7275 86.06V86.64C61.6875 86.54 63.5075 86.5 64.5275 86.5Z" fill="#D9D9D9"/>
<path d="M79.7494 81.42C79.7094 81.84 79.4494 82.04 79.0694 82.16C77.4694 82.68 76.1894 83.92 76.2694 85.8C76.3694 87.92 78.4894 89.38 80.9494 89.32C83.3094 89.26 85.4494 87.84 85.4294 85.34C85.4094 83.02 83.0494 81.86 80.6494 82.14L80.0494 81.3L79.7494 81.42ZM83.3094 71.6C81.8094 71.1 80.2694 70.48 79.0494 69.84L78.6694 70.32C79.4894 70.64 80.2094 71.36 79.9094 71.98C78.7494 73.84 76.3094 75.76 74.9894 76.56C74.3294 76.96 74.0694 77.46 73.4094 77.62C73.0894 77.7 72.7494 77.68 72.4894 77.62L72.4294 78.16C72.9094 78.14 73.2894 78.1 73.5694 78.06C74.0294 77.98 74.6094 77.82 75.3494 77.58C76.9094 77.08 78.7494 76.04 80.3094 74.7C80.6494 74.54 80.9694 74.5 81.3294 74.58C82.2294 74.78 85.1294 76.28 86.6294 77.34C86.8894 77.52 86.9094 77.82 86.6694 78.06L87.0894 78.24C87.2694 77.54 87.9094 77.4 88.1494 76.8C87.3494 76.24 87.2094 75.14 86.3894 74.46C84.7494 74.52 83.1494 74.34 82.5894 73.54C82.3494 73.46 82.2494 73.48 82.0694 73.64C81.9094 73.8 81.7494 73.86 81.5694 73.92C81.4294 73.96 81.2494 74 81.0694 74C81.6094 73.48 82.1094 72.92 82.5294 72.34L83.3094 71.6ZM90.2894 80.7L90.4094 80.54L88.8494 78.28L87.0094 78.84C83.4294 79.02 77.8494 79.28 74.1894 79.18C73.5094 79.16 72.4694 78.96 71.9294 78.76C71.6694 78.6 71.4494 78.38 71.3894 78.08L70.9894 78.22C71.0694 78.6 71.1294 78.98 71.3294 79.22L72.9294 81.18L74.2694 80.74C77.8894 80.52 83.4894 80.26 87.8494 80.3L90.2894 80.7ZM81.4894 83.32L81.0894 82.78C82.4294 82.9 83.3094 83.96 83.3294 85.14C83.3494 86.58 82.4294 87.68 81.0294 87.74C79.6894 87.8 78.5094 86.88 78.4894 85.7C78.4694 84.64 79.2294 83.74 80.3294 83.5C80.7294 83.42 80.8894 83.5 81.1494 83.6L81.4894 83.32Z" fill="#D9D9D9"/>
</g>
</svg>
