<svg width="124" height="156" viewBox="0 0 124 156" fill="none" xmlns="http://www.w3.org/2000/svg">
<g opacity="0.2">
<path fill-rule="evenodd" clip-rule="evenodd" d="M62 24H5.5V87C7.83333 93.8333 16.7 111.1 33.5 125.5C37.1667 125 44.7 124.6 45.5 127V133C47 136.333 52.4 143.8 62 147C71.6 143.8 77 136.333 78.5 133V127C79.3 124.6 86.8333 125 90.5 125.5C107.3 111.1 116.167 93.8333 118.5 87V24H62Z" fill="#2E2E2E"/>
<path fill-rule="evenodd" clip-rule="evenodd" d="M39.1485 23.7717C42.5665 24.2395 45.0758 23.8718 46.5 23.0921C37.6136 28.6261 37.1278 30.7846 37.7255 31.716C36.2795 30.0753 32.0743 27.0004 25.11 26.1108C17.786 25.1752 17.0932 33.4632 17.4999 36.5824L17.5 36.5824C17.5 36.5824 17.5 36.5824 17.4999 36.5824C17.5 36.5826 17.5 36.5827 17.5 36.5829L17.4994 36.5822C11.3197 34.5166 6.49355 59.7979 13.36 62.5546C4.00683 68.7575 7.86664 74.9603 10.6133 77.0279C6.49331 84.6091 10.8422 98.3931 14.7333 104.596C4.29002 89.798 3.73918 84.0097 3.24738 78.8418C3.18945 78.2331 3.13235 77.6331 3.05999 77.0279C4.20443 67.3791 5.11999 46.5652 5.11999 40.5002C5.11999 35.3919 2.68434 26.3678 1.50569 22.0009C1.28505 21.1834 1.10846 20.5291 1.00014 20.0943L1 20.0942C1.00004 20.0942 1.00008 20.0942 1.00011 20.0942C1.00008 20.0941 1.00004 20.0939 1 20.0938L1.00067 20.0944C11.9869 24.2291 19.2098 18.1187 20.8374 15C22.0582 17.9239 34.8759 23.1869 39.1485 23.7717ZM37.9277 31.9585C37.8677 31.8818 37.8003 31.8008 37.7255 31.716C37.7847 31.8082 37.8545 31.8883 37.9277 31.9585Z" fill="#D9D9D9"/>
<path d="M46.5 23.0921L46.7643 23.5165L46.2599 22.6535L46.5 23.0921ZM39.1485 23.7717L39.2163 23.2763L39.1485 23.7717ZM25.11 26.1108L25.0467 26.6067L25.11 26.1108ZM17.4999 36.5824L17.0041 36.647L17.0261 36.8157L17.1464 36.9359L17.4999 36.5824ZM17.5 36.5824L17.3563 37.0614L17.8536 36.2289L17.5 36.5824ZM17.4999 36.5824L17.6436 36.1035L16.9034 35.8815L17.0042 36.6477L17.4999 36.5824ZM17.5 36.5829L17.1464 36.9364L18.1879 37.9778L17.9957 36.5176L17.5 36.5829ZM17.4994 36.5822L17.8529 36.2287L17.7696 36.1454L17.6579 36.108L17.4994 36.5822ZM13.36 62.5546L13.6363 62.9713L14.4296 62.4453L13.5462 62.0906L13.36 62.5546ZM10.6133 77.0279L11.0526 77.2666L11.2585 76.8877L10.914 76.6284L10.6133 77.0279ZM14.7333 104.596L14.3248 104.884L15.1568 104.33L14.7333 104.596ZM3.24738 78.8418L2.74963 78.8892L3.24738 78.8418ZM3.05999 77.0279L2.56347 76.969L2.55646 77.0281L2.56353 77.0872L3.05999 77.0279ZM1.50569 22.0009L1.02296 22.1312H1.02296L1.50569 22.0009ZM1.00014 20.0943L1.48531 19.9734L1.45172 19.8386L1.35336 19.7404L1.00014 20.0943ZM1 20.0942L1.17612 19.6262L0.646774 20.448L1 20.0942ZM1.00011 20.0942L0.823991 20.5622L1.71559 20.8977L1.48528 19.9733L1.00011 20.0942ZM1 20.0938L1.35348 19.7401L0.0795382 18.4667L0.514819 20.2146L1 20.0938ZM1.00067 20.0944L0.647187 20.448L0.723528 20.5244L0.824549 20.5624L1.00067 20.0944ZM20.8374 15L21.2988 14.8074L20.8878 13.8228L20.3942 14.7687L20.8374 15ZM37.9277 31.9585L37.5818 32.3196L38.3215 31.6503L37.9277 31.9585ZM46.2599 22.6535C44.9713 23.359 42.5877 23.7377 39.2163 23.2763L39.0807 24.267C42.5454 24.7412 45.1803 24.3846 46.7401 23.5307L46.2599 22.6535ZM38.1463 31.4459C38.0713 31.329 38.0119 31.1592 38.081 30.87C38.1555 30.5584 38.3831 30.0991 38.9355 29.4558C40.0414 28.1681 42.3306 26.2776 46.7643 23.5165L46.2357 22.6677C41.783 25.4406 39.386 27.3964 38.1769 28.8043C37.5718 29.5088 37.2346 30.1097 37.1084 30.6376C36.9769 31.188 37.0809 31.6373 37.3047 31.9861L38.1463 31.4459ZM25.0467 26.6067C31.8985 27.482 35.99 30.503 37.3504 32.0466L38.1006 31.3854C36.569 29.6475 32.2501 26.5188 25.1734 25.6148L25.0467 26.6067ZM17.9957 36.5177C17.8001 35.0179 17.8733 32.2649 18.8631 30.0284C19.3546 28.918 20.0597 27.9621 21.0427 27.3352C22.0189 26.7127 23.3144 26.3854 25.0467 26.6067L25.1734 25.6148C23.2436 25.3683 21.706 25.7262 20.5051 26.492C19.3111 27.2535 18.4951 28.3891 17.9487 29.6237C16.8628 32.0771 16.7929 35.0277 17.0041 36.647L17.9957 36.5177ZM17.1464 36.9359L17.1464 36.936L17.8536 36.2289L17.8535 36.2288L17.1464 36.9359ZM17.6437 36.1035C17.6508 36.1057 17.6565 36.1076 17.6599 36.1087C17.663 36.1097 17.6656 36.1107 17.6651 36.1105C17.6651 36.1105 17.6651 36.1105 17.6651 36.1105C17.6651 36.1105 17.6651 36.1105 17.6651 36.1105C17.6651 36.1105 17.6651 36.1105 17.6651 36.1105C17.665 36.1105 17.6649 36.1104 17.6648 36.1104C17.6646 36.1103 17.6643 36.1102 17.6638 36.1101C17.663 36.1098 17.6616 36.1093 17.6598 36.1087C17.6565 36.1075 17.6508 36.1057 17.6436 36.1035L17.3563 37.0613C17.3491 37.0592 17.3434 37.0573 17.3401 37.0562C17.337 37.0551 17.3343 37.0542 17.3348 37.0544C17.3348 37.0544 17.3348 37.0544 17.3348 37.0544C17.3348 37.0544 17.3348 37.0544 17.3348 37.0544C17.3348 37.0544 17.3349 37.0544 17.3349 37.0544C17.3349 37.0544 17.335 37.0544 17.3351 37.0545C17.3353 37.0546 17.3357 37.0547 17.3361 37.0548C17.337 37.0551 17.3384 37.0556 17.3401 37.0562C17.3435 37.0573 17.3492 37.0592 17.3563 37.0614L17.6437 36.1035ZM17.9957 36.5176V36.5176V36.5176C17.9957 36.5176 17.9957 36.5176 17.9957 36.5176C17.9957 36.5176 17.9957 36.5176 17.9957 36.5176V36.5176V36.5176C17.9957 36.5176 17.9957 36.5176 17.9957 36.5176C17.9957 36.5176 17.9957 36.5176 17.9957 36.5176V36.5176V36.5176C17.9957 36.5176 17.9957 36.5176 17.9957 36.5176C17.9957 36.5176 17.9957 36.5176 17.9957 36.5176C17.9957 36.5176 17.9957 36.5176 17.9957 36.5176V36.5176V36.5176C17.9957 36.5176 17.9957 36.5176 17.9957 36.5176C17.9957 36.5176 17.9957 36.5176 17.9957 36.5176V36.5176C17.9957 36.5176 17.9957 36.5176 17.9957 36.5176C17.9957 36.5176 17.9957 36.5176 17.9957 36.5176C17.9957 36.5176 17.9957 36.5176 17.9957 36.5176C17.9957 36.5176 17.9957 36.5176 17.9957 36.5176V36.5176C17.9957 36.5176 17.9957 36.5176 17.9957 36.5176C17.9957 36.5176 17.9957 36.5176 17.9957 36.5176C17.9957 36.5176 17.9957 36.5176 17.9957 36.5176C17.9957 36.5176 17.9957 36.5176 17.9957 36.5176V36.5176C17.9957 36.5176 17.9957 36.5176 17.9957 36.5176C17.9957 36.5176 17.9957 36.5176 17.9957 36.5176C17.9957 36.5176 17.9957 36.5176 17.9957 36.5176V36.5176C17.9957 36.5176 17.9957 36.5176 17.9957 36.5176C17.9957 36.5176 17.9957 36.5176 17.9957 36.5176C17.9957 36.5176 17.9957 36.5176 17.9957 36.5176V36.5176C17.9957 36.5176 17.9957 36.5176 17.9957 36.5176C17.9957 36.5176 17.9957 36.5176 17.9957 36.5176C17.9957 36.5176 17.9957 36.5176 17.9957 36.5176V36.5176C17.9957 36.5176 17.9957 36.5176 17.9957 36.5176C17.9957 36.5176 17.9957 36.5176 17.9957 36.5176H17.9957C17.9957 36.5176 17.9957 36.5176 17.9957 36.5176V36.5176C17.9957 36.5176 17.9957 36.5176 17.9957 36.5176C17.9957 36.5176 17.9957 36.5176 17.9957 36.5176C17.9957 36.5176 17.9957 36.5176 17.9957 36.5176V36.5175C17.9957 36.5175 17.9957 36.5175 17.9957 36.5175C17.9957 36.5175 17.9957 36.5175 17.9957 36.5175H17.9957C17.9957 36.5175 17.9957 36.5175 17.9957 36.5175V36.5175C17.9957 36.5175 17.9957 36.5175 17.9957 36.5175C17.9957 36.5175 17.9957 36.5175 17.9957 36.5175C17.9957 36.5175 17.9957 36.5175 17.9957 36.5175V36.5175C17.9957 36.5175 17.9957 36.5175 17.9957 36.5175C17.9957 36.5175 17.9957 36.5175 17.9957 36.5175C17.9957 36.5175 17.9957 36.5175 17.9957 36.5175V36.5175V36.5175C17.9957 36.5175 17.9957 36.5175 17.9957 36.5175C17.9957 36.5175 17.9957 36.5175 17.9957 36.5175V36.5175V36.5175H17.9957C17.9957 36.5175 17.9957 36.5175 17.9957 36.5175C17.9957 36.5175 17.9957 36.5175 17.9957 36.5175V36.5175V36.5175C17.9957 36.5175 17.9957 36.5175 17.9957 36.5175C17.9957 36.5175 17.9957 36.5175 17.9957 36.5175V36.5175L17.9957 36.5175C17.9957 36.5175 17.9957 36.5175 17.9957 36.5175C17.9957 36.5175 17.9957 36.5175 17.9957 36.5175V36.5175V36.5175C17.9957 36.5175 17.9957 36.5175 17.9957 36.5175C17.9957 36.5175 17.9957 36.5175 17.9957 36.5175C17.9957 36.5175 17.9957 36.5175 17.9957 36.5175C17.9957 36.5175 17.9957 36.5175 17.9957 36.5175V36.5175C17.9957 36.5175 17.9957 36.5175 17.9957 36.5175C17.9957 36.5175 17.9957 36.5175 17.9957 36.5175C17.9957 36.5175 17.9957 36.5175 17.9957 36.5175V36.5175C17.9957 36.5175 17.9957 36.5175 17.9957 36.5175C17.9957 36.5175 17.9957 36.5175 17.9957 36.5175C17.9957 36.5175 17.9957 36.5175 17.9957 36.5175V36.5175C17.9957 36.5175 17.9957 36.5175 17.9957 36.5175C17.9957 36.5175 17.9957 36.5175 17.9957 36.5175C17.9957 36.5175 17.9957 36.5175 17.9957 36.5175V36.5175C17.9957 36.5175 17.9957 36.5175 17.9957 36.5175C17.9957 36.5175 17.9957 36.5175 17.9957 36.5175C17.9957 36.5175 17.9957 36.5175 17.9957 36.5175C17.9957 36.5175 17.9957 36.5175 17.9957 36.5175V36.5175C17.9957 36.5175 17.9957 36.5175 17.9957 36.5175C17.9957 36.5175 17.9957 36.5175 17.9957 36.5175C17.9957 36.5175 17.9957 36.5175 17.9957 36.5175V36.5174C17.9957 36.5174 17.9957 36.5174 17.9957 36.5174C17.9957 36.5174 17.9957 36.5174 17.9957 36.5174C17.9957 36.5174 17.9957 36.5174 17.9957 36.5174C17.9957 36.5174 17.9957 36.5174 17.9957 36.5174V36.5174C17.9957 36.5174 17.9957 36.5174 17.9957 36.5174C17.9957 36.5174 17.9957 36.5174 17.9957 36.5174C17.9957 36.5174 17.9957 36.5174 17.9957 36.5174V36.5174C17.9957 36.5174 17.9957 36.5174 17.9957 36.5174C17.9957 36.5174 17.9957 36.5174 17.9957 36.5174C17.9957 36.5174 17.9957 36.5174 17.9957 36.5174V36.5174C17.9957 36.5174 17.9957 36.5174 17.9957 36.5174C17.9957 36.5174 17.9957 36.5174 17.9957 36.5174C17.9957 36.5174 17.9957 36.5174 17.9957 36.5174V36.5174V36.5174C17.9957 36.5174 17.9957 36.5174 17.9957 36.5174C17.9957 36.5174 17.9957 36.5174 17.9957 36.5174V36.5174V36.5174C17.9957 36.5174 17.9957 36.5174 17.9957 36.5174C17.9957 36.5174 17.9957 36.5174 17.9957 36.5174V36.5174V36.5174C17.9957 36.5174 17.9957 36.5174 17.9957 36.5174C17.9957 36.5174 17.9957 36.5174 17.9957 36.5174C17.9957 36.5174 17.9957 36.5174 17.9957 36.5174V36.5174V36.5174C17.9957 36.5174 17.9957 36.5174 17.9957 36.5174C17.9957 36.5174 17.9957 36.5174 17.9957 36.5174V36.5174C17.9957 36.5174 17.9957 36.5174 17.9957 36.5174C17.9957 36.5174 17.9957 36.5174 17.9957 36.5174C17.9957 36.5174 17.9957 36.5174 17.9957 36.5174C17.9957 36.5174 17.9957 36.5174 17.9957 36.5174V36.5174C17.9957 36.5174 17.9957 36.5174 17.9957 36.5174C17.9957 36.5174 17.9957 36.5174 17.9957 36.5174C17.9957 36.5174 17.9957 36.5174 17.9957 36.5174C17.9957 36.5174 17.9957 36.5174 17.9957 36.5174V36.5174C17.9957 36.5174 17.9957 36.5174 17.9957 36.5174C17.9957 36.5174 17.9957 36.5174 17.9957 36.5174C17.9957 36.5174 17.9957 36.5174 17.9957 36.5174V36.5174C17.9957 36.5174 17.9957 36.5174 17.9957 36.5174C17.9957 36.5174 17.9957 36.5174 17.9957 36.5174C17.9957 36.5174 17.9957 36.5174 17.9957 36.5174V36.5174C17.9957 36.5174 17.9957 36.5174 17.9957 36.5174C17.9957 36.5174 17.9957 36.5174 17.9957 36.5174C17.9957 36.5173 17.9957 36.5173 17.9957 36.5173V36.5173C17.9957 36.5173 17.9957 36.5173 17.9957 36.5173C17.9957 36.5173 17.9957 36.5173 17.9957 36.5173H17.9957C17.9957 36.5173 17.9957 36.5173 17.9957 36.5173V36.5173C17.9957 36.5173 17.9957 36.5173 17.9957 36.5173C17.9957 36.5173 17.9957 36.5173 17.9957 36.5173C17.9957 36.5173 17.9957 36.5173 17.9957 36.5173V36.5173C17.9957 36.5173 17.9957 36.5173 17.9957 36.5173C17.9957 36.5173 17.9957 36.5173 17.9957 36.5173H17.9957C17.9957 36.5173 17.9957 36.5173 17.9957 36.5173V36.5173C17.9957 36.5173 17.9957 36.5173 17.9957 36.5173C17.9957 36.5173 17.9957 36.5173 17.9957 36.5173C17.9957 36.5173 17.9957 36.5173 17.9957 36.5173V36.5173C17.9957 36.5173 17.9957 36.5173 17.9957 36.5173C17.9957 36.5173 17.9957 36.5173 17.9957 36.5173C17.9957 36.5173 17.9957 36.5173 17.9957 36.5173V36.5173V36.5173C17.9957 36.5173 17.9957 36.5173 17.9957 36.5173C17.9957 36.5173 17.9957 36.5173 17.9957 36.5173V36.5173V36.5173H17.9957C17.9957 36.5173 17.9957 36.5173 17.9957 36.5173C17.9957 36.5173 17.9957 36.5173 17.9957 36.5173V36.5173V36.5173C17.9957 36.5173 17.9957 36.5173 17.9957 36.5173C17.9957 36.5173 17.9957 36.5173 17.9957 36.5173V36.5173L17.9957 36.5173C17.9957 36.5173 17.9957 36.5173 17.9957 36.5173C17.9957 36.5173 17.9957 36.5173 17.9957 36.5173V36.5173V36.5173C17.9957 36.5173 17.9957 36.5173 17.9957 36.5173C17.9957 36.5173 17.9957 36.5173 17.9957 36.5173C17.9957 36.5173 17.9957 36.5173 17.9957 36.5173C17.9957 36.5173 17.9957 36.5173 17.9957 36.5173V36.5173C17.9957 36.5173 17.9957 36.5173 17.9957 36.5173C17.9957 36.5173 17.9957 36.5173 17.9957 36.5173C17.9957 36.5173 17.9957 36.5173 17.9957 36.5173V36.5173C17.9957 36.5173 17.9957 36.5173 17.9957 36.5173C17.9957 36.5173 17.9957 36.5173 17.9957 36.5173C17.9957 36.5173 17.9957 36.5173 17.9957 36.5173V36.5173C17.9957 36.5173 17.9957 36.5173 17.9957 36.5173C17.9957 36.5173 17.9957 36.5173 17.9957 36.5173C17.9957 36.5172 17.9957 36.5172 17.9957 36.5172V36.5172C17.9957 36.5172 17.9957 36.5172 17.9957 36.5172C17.9957 36.5172 17.9957 36.5172 17.9957 36.5172C17.9957 36.5172 17.9957 36.5172 17.9957 36.5172C17.9957 36.5172 17.9957 36.5172 17.9957 36.5172V36.5172C17.9957 36.5172 17.9957 36.5172 17.9957 36.5172C17.9957 36.5172 17.9957 36.5172 17.9957 36.5172C17.9957 36.5172 17.9957 36.5172 17.9957 36.5172V36.5172C17.9957 36.5172 17.9957 36.5172 17.9957 36.5172C17.9957 36.5172 17.9957 36.5172 17.9957 36.5172C17.9957 36.5172 17.9957 36.5172 17.9957 36.5172C17.9957 36.5172 17.9957 36.5172 17.9957 36.5172V36.5172C17.9957 36.5172 17.9957 36.5172 17.9957 36.5172C17.9957 36.5172 17.9957 36.5172 17.9957 36.5172C17.9957 36.5172 17.9957 36.5172 17.9957 36.5172V36.5172C17.9957 36.5172 17.9957 36.5172 17.9957 36.5172C17.9957 36.5172 17.9957 36.5172 17.9957 36.5172C17.9957 36.5172 17.9957 36.5172 17.9957 36.5172V36.5172C17.9957 36.5172 17.9957 36.5172 17.9957 36.5172C17.9957 36.5172 17.9957 36.5172 17.9957 36.5172C17.9957 36.5172 17.9957 36.5172 17.9957 36.5172L17.0042 36.6477V36.6477V36.6477C17.0042 36.6477 17.0042 36.6477 17.0042 36.6477C17.0042 36.6477 17.0042 36.6477 17.0042 36.6477V36.6477V36.6477C17.0042 36.6477 17.0042 36.6477 17.0042 36.6477C17.0042 36.6477 17.0042 36.6477 17.0042 36.6477V36.6477V36.6477C17.0042 36.6477 17.0042 36.6477 17.0042 36.6477C17.0042 36.6477 17.0042 36.6477 17.0042 36.6477C17.0042 36.6477 17.0042 36.6477 17.0042 36.6477V36.6477V36.6477C17.0042 36.6477 17.0042 36.6477 17.0042 36.6477C17.0042 36.6477 17.0042 36.6477 17.0042 36.6477V36.6477C17.0042 36.6477 17.0042 36.6477 17.0042 36.6477C17.0042 36.6477 17.0042 36.6477 17.0042 36.6477C17.0042 36.6477 17.0042 36.6477 17.0042 36.6477C17.0042 36.6477 17.0042 36.6477 17.0042 36.6477V36.6477C17.0042 36.6477 17.0042 36.6477 17.0042 36.6477C17.0042 36.6477 17.0042 36.6477 17.0042 36.6477C17.0042 36.6477 17.0042 36.6477 17.0042 36.6477C17.0042 36.6477 17.0042 36.6477 17.0042 36.6477V36.6477C17.0042 36.6477 17.0042 36.6477 17.0042 36.6477C17.0042 36.6477 17.0042 36.6477 17.0042 36.6477C17.0042 36.6477 17.0042 36.6477 17.0042 36.6477V36.6477C17.0042 36.6477 17.0042 36.6477 17.0042 36.6477C17.0042 36.6477 17.0042 36.6477 17.0042 36.6477C17.0042 36.6477 17.0042 36.6477 17.0042 36.6477V36.6477C17.0042 36.6477 17.0042 36.6477 17.0042 36.6477C17.0042 36.6477 17.0042 36.6477 17.0042 36.6477C17.0042 36.6477 17.0042 36.6477 17.0042 36.6477V36.6477C17.0042 36.6477 17.0042 36.6477 17.0042 36.6477C17.0042 36.6477 17.0042 36.6477 17.0042 36.6477H17.0042C17.0042 36.6477 17.0042 36.6477 17.0042 36.6477V36.6477C17.0042 36.6477 17.0042 36.6477 17.0042 36.6477C17.0042 36.6477 17.0042 36.6477 17.0042 36.6477C17.0042 36.6477 17.0042 36.6477 17.0042 36.6477V36.6477C17.0042 36.6477 17.0042 36.6477 17.0042 36.6477C17.0042 36.6477 17.0042 36.6477 17.0042 36.6477H17.0042C17.0042 36.6478 17.0042 36.6478 17.0042 36.6478V36.6478C17.0042 36.6478 17.0042 36.6478 17.0042 36.6478C17.0042 36.6478 17.0042 36.6478 17.0042 36.6478C17.0042 36.6478 17.0042 36.6478 17.0042 36.6478V36.6478C17.0042 36.6478 17.0042 36.6478 17.0042 36.6478C17.0042 36.6478 17.0042 36.6478 17.0042 36.6478C17.0042 36.6478 17.0042 36.6478 17.0042 36.6478V36.6478V36.6478C17.0042 36.6478 17.0042 36.6478 17.0042 36.6478C17.0042 36.6478 17.0042 36.6478 17.0042 36.6478V36.6478V36.6478H17.0042C17.0042 36.6478 17.0042 36.6478 17.0042 36.6478C17.0042 36.6478 17.0042 36.6478 17.0042 36.6478V36.6478V36.6478C17.0042 36.6478 17.0042 36.6478 17.0042 36.6478C17.0042 36.6478 17.0042 36.6478 17.0042 36.6478V36.6478L17.0042 36.6478C17.0042 36.6478 17.0042 36.6478 17.0042 36.6478C17.0042 36.6478 17.0042 36.6478 17.0042 36.6478V36.6478V36.6478C17.0042 36.6478 17.0042 36.6478 17.0042 36.6478C17.0042 36.6478 17.0042 36.6478 17.0042 36.6478C17.0042 36.6478 17.0042 36.6478 17.0042 36.6478C17.0042 36.6478 17.0042 36.6478 17.0042 36.6478V36.6478C17.0042 36.6478 17.0042 36.6478 17.0042 36.6478C17.0042 36.6478 17.0042 36.6478 17.0042 36.6478C17.0042 36.6478 17.0042 36.6478 17.0042 36.6478V36.6478C17.0042 36.6478 17.0042 36.6478 17.0042 36.6478C17.0042 36.6478 17.0042 36.6478 17.0042 36.6478C17.0042 36.6478 17.0042 36.6478 17.0042 36.6478V36.6478C17.0042 36.6478 17.0042 36.6478 17.0042 36.6478C17.0042 36.6478 17.0042 36.6478 17.0042 36.6478C17.0042 36.6478 17.0042 36.6478 17.0042 36.6478V36.6478C17.0042 36.6478 17.0042 36.6478 17.0042 36.6478C17.0042 36.6478 17.0042 36.6478 17.0042 36.6478C17.0042 36.6478 17.0042 36.6478 17.0042 36.6478C17.0042 36.6478 17.0042 36.6478 17.0042 36.6478V36.6478C17.0042 36.6478 17.0042 36.6478 17.0042 36.6478C17.0042 36.6478 17.0042 36.6478 17.0042 36.6478C17.0042 36.6478 17.0042 36.6478 17.0042 36.6478V36.6478C17.0042 36.6478 17.0042 36.6478 17.0042 36.6478C17.0042 36.6478 17.0042 36.6478 17.0042 36.6479C17.0042 36.6479 17.0042 36.6479 17.0042 36.6479C17.0042 36.6479 17.0042 36.6479 17.0042 36.6479V36.6479C17.0042 36.6479 17.0042 36.6479 17.0042 36.6479C17.0042 36.6479 17.0042 36.6479 17.0042 36.6479C17.0042 36.6479 17.0042 36.6479 17.0042 36.6479V36.6479C17.0042 36.6479 17.0042 36.6479 17.0042 36.6479C17.0042 36.6479 17.0042 36.6479 17.0042 36.6479C17.0042 36.6479 17.0042 36.6479 17.0042 36.6479V36.6479C17.0042 36.6479 17.0042 36.6479 17.0042 36.6479C17.0042 36.6479 17.0042 36.6479 17.0042 36.6479C17.0042 36.6479 17.0042 36.6479 17.0042 36.6479V36.6479V36.6479C17.0042 36.6479 17.0042 36.6479 17.0042 36.6479C17.0042 36.6479 17.0042 36.6479 17.0042 36.6479V36.6479V36.6479C17.0042 36.6479 17.0042 36.6479 17.0042 36.6479C17.0042 36.6479 17.0042 36.6479 17.0042 36.6479V36.6479V36.6479C17.0042 36.6479 17.0042 36.6479 17.0042 36.6479C17.0042 36.6479 17.0042 36.6479 17.0042 36.6479C17.0042 36.6479 17.0042 36.6479 17.0042 36.6479V36.6479V36.6479C17.0042 36.6479 17.0042 36.6479 17.0042 36.6479C17.0042 36.6479 17.0042 36.6479 17.0042 36.6479V36.6479C17.0042 36.6479 17.0042 36.6479 17.0042 36.6479C17.0042 36.6479 17.0042 36.6479 17.0042 36.6479C17.0042 36.6479 17.0042 36.6479 17.0042 36.6479C17.0042 36.6479 17.0042 36.6479 17.0042 36.6479V36.6479C17.0042 36.6479 17.0042 36.6479 17.0042 36.6479C17.0042 36.6479 17.0042 36.6479 17.0042 36.6479C17.0042 36.6479 17.0042 36.6479 17.0042 36.6479C17.0043 36.6479 17.0043 36.6479 17.0043 36.6479V36.6479C17.0043 36.6479 17.0043 36.6479 17.0043 36.6479C17.0043 36.6479 17.0043 36.6479 17.0043 36.6479C17.0043 36.6479 17.0043 36.6479 17.0043 36.6479V36.6479C17.0043 36.6479 17.0043 36.6479 17.0043 36.6479C17.0043 36.6479 17.0043 36.6479 17.0043 36.6479C17.0043 36.6479 17.0043 36.6479 17.0043 36.6479V36.6479C17.0043 36.6479 17.0043 36.6479 17.0043 36.6479C17.0043 36.6479 17.0043 36.6479 17.0043 36.6479C17.0043 36.6479 17.0043 36.6479 17.0043 36.6479V36.6479C17.0043 36.6479 17.0043 36.6479 17.0043 36.6479C17.0043 36.6479 17.0043 36.6479 17.0043 36.648H17.0043C17.0043 36.648 17.0043 36.648 17.0043 36.648V36.648C17.0043 36.648 17.0043 36.648 17.0043 36.648C17.0043 36.648 17.0043 36.648 17.0043 36.648C17.0043 36.648 17.0043 36.648 17.0043 36.648V36.648C17.0043 36.648 17.0043 36.648 17.0043 36.648C17.0043 36.648 17.0043 36.648 17.0043 36.648H17.0043C17.0043 36.648 17.0043 36.648 17.0043 36.648V36.648C17.0043 36.648 17.0043 36.648 17.0043 36.648C17.0043 36.648 17.0043 36.648 17.0043 36.648C17.0043 36.648 17.0043 36.648 17.0043 36.648V36.648C17.0043 36.648 17.0043 36.648 17.0043 36.648C17.0043 36.648 17.0043 36.648 17.0043 36.648C17.0043 36.648 17.0043 36.648 17.0043 36.648V36.648V36.648C17.0043 36.648 17.0043 36.648 17.0043 36.648C17.0043 36.648 17.0043 36.648 17.0043 36.648V36.648V36.648H17.0043C17.0043 36.648 17.0043 36.648 17.0043 36.648C17.0043 36.648 17.0043 36.648 17.0043 36.648V36.648V36.648C17.0043 36.648 17.0043 36.648 17.0043 36.648C17.0043 36.648 17.0043 36.648 17.0043 36.648V36.648L17.0043 36.648C17.0043 36.648 17.0043 36.648 17.0043 36.648C17.0043 36.648 17.0043 36.648 17.0043 36.648V36.648V36.648C17.0043 36.648 17.0043 36.648 17.0043 36.648C17.0043 36.648 17.0043 36.648 17.0043 36.648C17.0043 36.648 17.0043 36.648 17.0043 36.648C17.0043 36.648 17.0043 36.648 17.0043 36.648V36.648C17.0043 36.648 17.0043 36.648 17.0043 36.648C17.0043 36.648 17.0043 36.648 17.0043 36.648C17.0043 36.648 17.0043 36.648 17.0043 36.648V36.648C17.0043 36.648 17.0043 36.648 17.0043 36.648C17.0043 36.648 17.0043 36.648 17.0043 36.648C17.0043 36.648 17.0043 36.648 17.0043 36.648V36.648C17.0043 36.648 17.0043 36.648 17.0043 36.648C17.0043 36.648 17.0043 36.648 17.0043 36.648C17.0043 36.648 17.0043 36.648 17.0043 36.648V36.648C17.0043 36.648 17.0043 36.648 17.0043 36.6481C17.0043 36.6481 17.0043 36.6481 17.0043 36.6481C17.0043 36.6481 17.0043 36.6481 17.0043 36.6481C17.0043 36.6481 17.0043 36.6481 17.0043 36.6481V36.6481C17.0043 36.6481 17.0043 36.6481 17.0043 36.6481C17.0043 36.6481 17.0043 36.6481 17.0043 36.6481C17.0043 36.6481 17.0043 36.6481 17.0043 36.6481V36.6481C17.0043 36.6481 17.0043 36.6481 17.0043 36.6481C17.0043 36.6481 17.0043 36.6481 17.0043 36.6481C17.0043 36.6481 17.0043 36.6481 17.0043 36.6481C17.0043 36.6481 17.0043 36.6481 17.0043 36.6481V36.6481C17.0043 36.6481 17.0043 36.6481 17.0043 36.6481C17.0043 36.6481 17.0043 36.6481 17.0043 36.6481C17.0043 36.6481 17.0043 36.6481 17.0043 36.6481V36.6481C17.0043 36.6481 17.0043 36.6481 17.0043 36.6481C17.0043 36.6481 17.0043 36.6481 17.0043 36.6481C17.0043 36.6481 17.0043 36.6481 17.0043 36.6481V36.6481C17.0043 36.6481 17.0043 36.6481 17.0043 36.6481C17.0043 36.6481 17.0043 36.6481 17.0043 36.6481C17.0043 36.6481 17.0043 36.6481 17.0043 36.6481L17.9957 36.5176ZM17.1458 36.9358L17.1464 36.9364L17.8536 36.2293L17.8529 36.2287L17.1458 36.9358ZM17.6579 36.108C16.7034 35.789 15.7882 36.0137 14.9781 36.583C14.1837 37.1414 13.471 38.0403 12.8459 39.133C11.5931 41.3233 10.611 44.4372 10.0449 47.6739C9.47826 50.913 9.31958 54.3241 9.7467 57.1185C9.96022 58.5155 10.3236 59.7816 10.8729 60.7998C11.4234 61.8203 12.1762 62.6182 13.1737 63.0187L13.5462 62.0906C12.8272 61.8019 12.2287 61.2067 11.753 60.325C11.2761 59.4411 10.9383 58.2959 10.7352 56.9674C10.3292 54.3109 10.4758 51.0138 11.0299 47.8462C11.5844 44.6762 12.5384 41.6847 13.714 39.6296C14.3031 38.5995 14.9277 37.8408 15.5531 37.4012C16.163 36.9726 16.7504 36.8591 17.3409 37.0564L17.6579 36.108ZM13.0836 62.138C8.31703 65.2991 6.79806 68.5478 6.94993 71.3688C7.09944 74.1459 8.8629 76.3361 10.3126 77.4273L10.914 76.6284C9.61704 75.6521 8.07727 73.7071 7.94849 71.3151C7.82208 68.9671 9.04976 66.0131 13.6363 62.9713L13.0836 62.138ZM10.174 76.7891C8.02786 80.7382 8.11372 86.226 9.1793 91.4291C10.2486 96.6505 12.3291 101.704 14.3097 104.862L15.1568 104.33C13.2463 101.285 11.2069 96.3451 10.159 91.2285C9.10734 86.0935 9.07876 80.8987 11.0526 77.2666L10.174 76.7891ZM15.1418 104.308C9.93371 96.9279 7.21006 91.8192 5.72568 87.9294C4.24576 84.0512 3.98991 81.3667 3.74513 78.7945L2.74963 78.8892C2.99665 81.4849 3.26213 84.2784 4.79139 88.2859C6.3162 92.2817 9.0896 97.4661 14.3248 104.884L15.1418 104.308ZM3.74513 78.7945C3.6873 78.1867 3.62965 77.5807 3.55646 76.9685L2.56353 77.0872C2.63505 77.6854 2.69161 78.2795 2.74963 78.8892L3.74513 78.7945ZM3.55651 77.0868C4.7038 67.4139 5.61999 46.5798 5.61999 40.5002H4.61999C4.61999 46.5506 3.70506 67.3442 2.56347 76.969L3.55651 77.0868ZM5.61999 40.5002C5.61999 37.8873 4.99999 34.3082 4.24317 30.8652C3.48407 27.4117 2.57755 24.0534 1.98841 21.8706L1.02296 22.1312C1.61248 24.3153 2.51311 27.6525 3.26649 31.0799C4.02216 34.5177 4.61999 38.0048 4.61999 40.5002H5.61999ZM1.98841 21.8706C1.76713 21.0507 1.59215 20.4023 1.48531 19.9734L0.514964 20.2152C0.624767 20.6559 0.802968 21.3161 1.02296 22.1312L1.98841 21.8706ZM0.646774 20.448L0.646912 20.4482L1.35336 19.7404L1.35323 19.7403L0.646774 20.448ZM1.17624 19.6263C1.1762 19.6262 1.17616 19.6262 1.17612 19.6262L0.823878 20.5621C0.823916 20.5621 0.823953 20.5621 0.823991 20.5622L1.17624 19.6263ZM1.48528 19.9733C1.48525 19.9732 1.48521 19.9731 1.48518 19.9729L0.514819 20.2146C0.514861 20.2147 0.514903 20.2149 0.514946 20.2151L1.48528 19.9733ZM0.646521 20.4474L0.647187 20.448L1.35414 19.7408L1.35348 19.7401L0.646521 20.4474ZM20.3942 14.7687C18.8719 17.6855 11.9037 23.6636 1.17678 19.6265L0.824549 20.5624C12.0701 24.7947 19.5477 18.552 21.2807 15.2313L20.3942 14.7687ZM39.2163 23.2763C37.1547 22.9941 32.9365 21.5576 29.054 19.8072C27.1205 18.9354 25.2935 17.9961 23.8806 17.0997C23.1737 16.6512 22.5807 16.2198 22.1326 15.8195C21.6755 15.4112 21.4082 15.0694 21.2988 14.8074L20.376 15.1926C20.5718 15.6616 20.9721 16.1238 21.4664 16.5653C21.9696 17.0148 22.6116 17.4788 23.3448 17.944C24.8121 18.875 26.6854 19.8362 28.643 20.7188C32.5428 22.477 36.8697 23.9644 39.0807 24.267L39.2163 23.2763ZM38.3215 31.6503C38.2549 31.5653 38.1812 31.4768 38.1006 31.3854L37.3504 32.0466C37.4194 32.1249 37.4806 32.1984 37.534 32.2667L38.3215 31.6503ZM37.3047 31.986C37.3892 32.1176 37.486 32.2277 37.5818 32.3196L38.2737 31.5975C38.2229 31.5489 38.1802 31.4987 38.1463 31.4459L37.3047 31.986Z" fill="#808080"/>
<path d="M50.1496 124.054C40.4904 132.94 55.5606 143.573 62 147.006C45.9014 138.927 44.5151 135.364 42.1003 132.133C46.1249 125.669 38.8806 125.669 34.856 127.285C27.1776 123.495 16.5523 107.92 14.7331 104.227C17.9525 107.088 22.782 108.703 26.0017 107.088C23.587 113.551 32.2753 122.082 37.2707 123.246C43.5443 124.707 48.9926 124.922 50.1496 124.054Z" fill="#D9D9D9" stroke="#808080"/>
<path fill-rule="evenodd" clip-rule="evenodd" d="M84.8515 23.7717C81.4335 24.2395 78.9242 23.8718 77.5 23.0921C86.3864 28.6261 86.8722 30.7846 86.2745 31.716C87.7205 30.0753 91.9257 27.0004 98.89 26.1108C106.214 25.1752 106.907 33.4632 106.5 36.5824L106.5 36.5824C106.5 36.5824 106.5 36.5824 106.5 36.5824C106.5 36.5826 106.5 36.5827 106.5 36.5829L106.501 36.5822C112.68 34.5166 117.506 59.7979 110.64 62.5546C119.993 68.7575 116.133 74.9603 113.387 77.0279C117.507 84.6091 113.158 98.3931 109.267 104.596C119.71 89.798 120.261 84.0097 120.753 78.8418C120.811 78.2331 120.868 77.6331 120.94 77.0279C119.796 67.3791 118.88 46.5652 118.88 40.5002C118.88 35.3919 121.316 26.3678 122.494 22.0009C122.715 21.1834 122.892 20.5291 123 20.0943L123 20.0942C123 20.0942 123 20.0942 123 20.0942C123 20.0941 123 20.0939 123 20.0938L122.999 20.0944C112.013 24.2291 104.79 18.1187 103.163 15C101.942 17.9239 89.1241 23.1869 84.8515 23.7717ZM86.0723 31.9585C86.1323 31.8818 86.1997 31.8008 86.2745 31.716C86.2153 31.8082 86.1455 31.8883 86.0723 31.9585Z" fill="#D9D9D9"/>
<path d="M77.5 23.0921L77.2357 23.5165L77.7401 22.6535L77.5 23.0921ZM84.8515 23.7717L84.7837 23.2763L84.8515 23.7717ZM98.89 26.1108L98.9533 26.6067L98.89 26.1108ZM106.5 36.5824L106.996 36.647L106.974 36.8157L106.854 36.9359L106.5 36.5824ZM106.5 36.5824L106.644 37.0614L106.146 36.2289L106.5 36.5824ZM106.5 36.5824L106.356 36.1035L107.097 35.8815L106.996 36.6477L106.5 36.5824ZM106.5 36.5829L106.854 36.9364L105.812 37.9778L106.004 36.5176L106.5 36.5829ZM106.501 36.5822L106.147 36.2287L106.23 36.1454L106.342 36.108L106.501 36.5822ZM110.64 62.5546L110.364 62.9713L109.57 62.4453L110.454 62.0906L110.64 62.5546ZM113.387 77.0279L112.947 77.2666L112.741 76.8877L113.086 76.6284L113.387 77.0279ZM109.267 104.596L109.675 104.884L108.843 104.33L109.267 104.596ZM120.753 78.8418L121.25 78.8892L120.753 78.8418ZM120.94 77.0279L121.437 76.969L121.444 77.0281L121.436 77.0872L120.94 77.0279ZM122.494 22.0009L122.977 22.1312H122.977L122.494 22.0009ZM123 20.0943L122.515 19.9734L122.548 19.8386L122.647 19.7404L123 20.0943ZM123 20.0942L122.824 19.6262L123.353 20.448L123 20.0942ZM123 20.0942L123.176 20.5622L122.284 20.8977L122.515 19.9733L123 20.0942ZM123 20.0938L122.647 19.7401L123.92 18.4667L123.485 20.2146L123 20.0938ZM122.999 20.0944L123.353 20.448L123.276 20.5244L123.175 20.5624L122.999 20.0944ZM103.163 15L102.701 14.8074L103.112 13.8228L103.606 14.7687L103.163 15ZM86.0723 31.9585L86.4182 32.3196L85.6785 31.6503L86.0723 31.9585ZM77.7401 22.6535C79.0287 23.359 81.4123 23.7377 84.7837 23.2763L84.9193 24.267C81.4546 24.7412 78.8197 24.3846 77.2599 23.5307L77.7401 22.6535ZM85.8537 31.4459C85.9287 31.329 85.9881 31.1592 85.919 30.87C85.8445 30.5584 85.6169 30.0991 85.0645 29.4558C83.9586 28.1681 81.6694 26.2776 77.2357 23.5165L77.7643 22.6677C82.217 25.4406 84.614 27.3964 85.8231 28.8043C86.4282 29.5088 86.7654 30.1097 86.8916 30.6376C87.0231 31.188 86.9191 31.6373 86.6953 31.9861L85.8537 31.4459ZM98.9533 26.6067C92.1015 27.482 88.01 30.503 86.6496 32.0466L85.8994 31.3854C87.431 29.6475 91.7499 26.5188 98.8266 25.6148L98.9533 26.6067ZM106.004 36.5177C106.2 35.0179 106.127 32.2649 105.137 30.0284C104.645 28.918 103.94 27.9621 102.957 27.3352C101.981 26.7127 100.686 26.3854 98.9533 26.6067L98.8266 25.6148C100.756 25.3683 102.294 25.7262 103.495 26.492C104.689 27.2535 105.505 28.3891 106.051 29.6237C107.137 32.0771 107.207 35.0277 106.996 36.647L106.004 36.5177ZM106.854 36.9359L106.854 36.936L106.146 36.2289L106.147 36.2288L106.854 36.9359ZM106.356 36.1035C106.349 36.1057 106.343 36.1076 106.34 36.1087C106.337 36.1097 106.334 36.1107 106.335 36.1105C106.335 36.1105 106.335 36.1105 106.335 36.1105C106.335 36.1105 106.335 36.1105 106.335 36.1105C106.335 36.1105 106.335 36.1105 106.335 36.1105C106.335 36.1105 106.335 36.1104 106.335 36.1104C106.335 36.1103 106.336 36.1102 106.336 36.1101C106.337 36.1098 106.338 36.1093 106.34 36.1087C106.344 36.1075 106.349 36.1057 106.356 36.1035L106.644 37.0613C106.651 37.0592 106.657 37.0573 106.66 37.0562C106.663 37.0551 106.666 37.0542 106.665 37.0544C106.665 37.0544 106.665 37.0544 106.665 37.0544C106.665 37.0544 106.665 37.0544 106.665 37.0544C106.665 37.0544 106.665 37.0544 106.665 37.0544C106.665 37.0544 106.665 37.0544 106.665 37.0545C106.665 37.0546 106.664 37.0547 106.664 37.0548C106.663 37.0551 106.662 37.0556 106.66 37.0562C106.657 37.0573 106.651 37.0592 106.644 37.0614L106.356 36.1035ZM106.004 36.5176V36.5176V36.5176C106.004 36.5176 106.004 36.5176 106.004 36.5176C106.004 36.5176 106.004 36.5176 106.004 36.5176V36.5176V36.5176C106.004 36.5176 106.004 36.5176 106.004 36.5176C106.004 36.5176 106.004 36.5176 106.004 36.5176V36.5176V36.5176C106.004 36.5176 106.004 36.5176 106.004 36.5176C106.004 36.5176 106.004 36.5176 106.004 36.5176C106.004 36.5176 106.004 36.5176 106.004 36.5176V36.5176V36.5176C106.004 36.5176 106.004 36.5176 106.004 36.5176C106.004 36.5176 106.004 36.5176 106.004 36.5176V36.5176C106.004 36.5176 106.004 36.5176 106.004 36.5176C106.004 36.5176 106.004 36.5176 106.004 36.5176C106.004 36.5176 106.004 36.5176 106.004 36.5176C106.004 36.5176 106.004 36.5176 106.004 36.5176V36.5176C106.004 36.5176 106.004 36.5176 106.004 36.5176C106.004 36.5176 106.004 36.5176 106.004 36.5176C106.004 36.5176 106.004 36.5176 106.004 36.5176C106.004 36.5176 106.004 36.5176 106.004 36.5176V36.5176C106.004 36.5176 106.004 36.5176 106.004 36.5176C106.004 36.5176 106.004 36.5176 106.004 36.5176C106.004 36.5176 106.004 36.5176 106.004 36.5176V36.5176C106.004 36.5176 106.004 36.5176 106.004 36.5176C106.004 36.5176 106.004 36.5176 106.004 36.5176C106.004 36.5176 106.004 36.5176 106.004 36.5176V36.5176C106.004 36.5176 106.004 36.5176 106.004 36.5176C106.004 36.5176 106.004 36.5176 106.004 36.5176C106.004 36.5176 106.004 36.5176 106.004 36.5176V36.5176C106.004 36.5176 106.004 36.5176 106.004 36.5176C106.004 36.5176 106.004 36.5176 106.004 36.5176H106.004C106.004 36.5176 106.004 36.5176 106.004 36.5176V36.5176C106.004 36.5176 106.004 36.5176 106.004 36.5176C106.004 36.5176 106.004 36.5176 106.004 36.5176C106.004 36.5176 106.004 36.5176 106.004 36.5176V36.5175C106.004 36.5175 106.004 36.5175 106.004 36.5175C106.004 36.5175 106.004 36.5175 106.004 36.5175H106.004C106.004 36.5175 106.004 36.5175 106.004 36.5175V36.5175C106.004 36.5175 106.004 36.5175 106.004 36.5175C106.004 36.5175 106.004 36.5175 106.004 36.5175C106.004 36.5175 106.004 36.5175 106.004 36.5175V36.5175C106.004 36.5175 106.004 36.5175 106.004 36.5175C106.004 36.5175 106.004 36.5175 106.004 36.5175C106.004 36.5175 106.004 36.5175 106.004 36.5175V36.5175V36.5175C106.004 36.5175 106.004 36.5175 106.004 36.5175C106.004 36.5175 106.004 36.5175 106.004 36.5175V36.5175V36.5175H106.004C106.004 36.5175 106.004 36.5175 106.004 36.5175C106.004 36.5175 106.004 36.5175 106.004 36.5175V36.5175V36.5175C106.004 36.5175 106.004 36.5175 106.004 36.5175C106.004 36.5175 106.004 36.5175 106.004 36.5175V36.5175L106.004 36.5175C106.004 36.5175 106.004 36.5175 106.004 36.5175C106.004 36.5175 106.004 36.5175 106.004 36.5175V36.5175V36.5175C106.004 36.5175 106.004 36.5175 106.004 36.5175C106.004 36.5175 106.004 36.5175 106.004 36.5175C106.004 36.5175 106.004 36.5175 106.004 36.5175C106.004 36.5175 106.004 36.5175 106.004 36.5175V36.5175C106.004 36.5175 106.004 36.5175 106.004 36.5175C106.004 36.5175 106.004 36.5175 106.004 36.5175C106.004 36.5175 106.004 36.5175 106.004 36.5175V36.5175C106.004 36.5175 106.004 36.5175 106.004 36.5175C106.004 36.5175 106.004 36.5175 106.004 36.5175C106.004 36.5175 106.004 36.5175 106.004 36.5175V36.5175C106.004 36.5175 106.004 36.5175 106.004 36.5175C106.004 36.5175 106.004 36.5175 106.004 36.5175C106.004 36.5175 106.004 36.5175 106.004 36.5175V36.5175C106.004 36.5175 106.004 36.5175 106.004 36.5175C106.004 36.5175 106.004 36.5175 106.004 36.5175C106.004 36.5175 106.004 36.5175 106.004 36.5175C106.004 36.5175 106.004 36.5175 106.004 36.5175V36.5175C106.004 36.5175 106.004 36.5175 106.004 36.5175C106.004 36.5175 106.004 36.5175 106.004 36.5175C106.004 36.5175 106.004 36.5175 106.004 36.5175V36.5174C106.004 36.5174 106.004 36.5174 106.004 36.5174C106.004 36.5174 106.004 36.5174 106.004 36.5174C106.004 36.5174 106.004 36.5174 106.004 36.5174C106.004 36.5174 106.004 36.5174 106.004 36.5174V36.5174C106.004 36.5174 106.004 36.5174 106.004 36.5174C106.004 36.5174 106.004 36.5174 106.004 36.5174C106.004 36.5174 106.004 36.5174 106.004 36.5174V36.5174C106.004 36.5174 106.004 36.5174 106.004 36.5174C106.004 36.5174 106.004 36.5174 106.004 36.5174C106.004 36.5174 106.004 36.5174 106.004 36.5174V36.5174C106.004 36.5174 106.004 36.5174 106.004 36.5174C106.004 36.5174 106.004 36.5174 106.004 36.5174C106.004 36.5174 106.004 36.5174 106.004 36.5174V36.5174V36.5174C106.004 36.5174 106.004 36.5174 106.004 36.5174C106.004 36.5174 106.004 36.5174 106.004 36.5174V36.5174V36.5174C106.004 36.5174 106.004 36.5174 106.004 36.5174C106.004 36.5174 106.004 36.5174 106.004 36.5174V36.5174V36.5174C106.004 36.5174 106.004 36.5174 106.004 36.5174C106.004 36.5174 106.004 36.5174 106.004 36.5174C106.004 36.5174 106.004 36.5174 106.004 36.5174V36.5174V36.5174C106.004 36.5174 106.004 36.5174 106.004 36.5174C106.004 36.5174 106.004 36.5174 106.004 36.5174V36.5174C106.004 36.5174 106.004 36.5174 106.004 36.5174C106.004 36.5174 106.004 36.5174 106.004 36.5174C106.004 36.5174 106.004 36.5174 106.004 36.5174C106.004 36.5174 106.004 36.5174 106.004 36.5174V36.5174C106.004 36.5174 106.004 36.5174 106.004 36.5174C106.004 36.5174 106.004 36.5174 106.004 36.5174C106.004 36.5174 106.004 36.5174 106.004 36.5174C106.004 36.5174 106.004 36.5174 106.004 36.5174V36.5174C106.004 36.5174 106.004 36.5174 106.004 36.5174C106.004 36.5174 106.004 36.5174 106.004 36.5174C106.004 36.5174 106.004 36.5174 106.004 36.5174V36.5174C106.004 36.5174 106.004 36.5174 106.004 36.5174C106.004 36.5174 106.004 36.5174 106.004 36.5174C106.004 36.5174 106.004 36.5174 106.004 36.5174V36.5174C106.004 36.5174 106.004 36.5174 106.004 36.5174C106.004 36.5174 106.004 36.5174 106.004 36.5174C106.004 36.5173 106.004 36.5173 106.004 36.5173V36.5173C106.004 36.5173 106.004 36.5173 106.004 36.5173C106.004 36.5173 106.004 36.5173 106.004 36.5173H106.004C106.004 36.5173 106.004 36.5173 106.004 36.5173V36.5173C106.004 36.5173 106.004 36.5173 106.004 36.5173C106.004 36.5173 106.004 36.5173 106.004 36.5173C106.004 36.5173 106.004 36.5173 106.004 36.5173V36.5173C106.004 36.5173 106.004 36.5173 106.004 36.5173C106.004 36.5173 106.004 36.5173 106.004 36.5173H106.004C106.004 36.5173 106.004 36.5173 106.004 36.5173V36.5173C106.004 36.5173 106.004 36.5173 106.004 36.5173C106.004 36.5173 106.004 36.5173 106.004 36.5173C106.004 36.5173 106.004 36.5173 106.004 36.5173V36.5173C106.004 36.5173 106.004 36.5173 106.004 36.5173C106.004 36.5173 106.004 36.5173 106.004 36.5173C106.004 36.5173 106.004 36.5173 106.004 36.5173V36.5173V36.5173C106.004 36.5173 106.004 36.5173 106.004 36.5173C106.004 36.5173 106.004 36.5173 106.004 36.5173V36.5173V36.5173H106.004C106.004 36.5173 106.004 36.5173 106.004 36.5173C106.004 36.5173 106.004 36.5173 106.004 36.5173V36.5173V36.5173C106.004 36.5173 106.004 36.5173 106.004 36.5173C106.004 36.5173 106.004 36.5173 106.004 36.5173V36.5173L106.004 36.5173C106.004 36.5173 106.004 36.5173 106.004 36.5173C106.004 36.5173 106.004 36.5173 106.004 36.5173V36.5173V36.5173C106.004 36.5173 106.004 36.5173 106.004 36.5173C106.004 36.5173 106.004 36.5173 106.004 36.5173C106.004 36.5173 106.004 36.5173 106.004 36.5173C106.004 36.5173 106.004 36.5173 106.004 36.5173V36.5173C106.004 36.5173 106.004 36.5173 106.004 36.5173C106.004 36.5173 106.004 36.5173 106.004 36.5173C106.004 36.5173 106.004 36.5173 106.004 36.5173V36.5173C106.004 36.5173 106.004 36.5173 106.004 36.5173C106.004 36.5173 106.004 36.5173 106.004 36.5173C106.004 36.5173 106.004 36.5173 106.004 36.5173V36.5173C106.004 36.5173 106.004 36.5173 106.004 36.5173C106.004 36.5173 106.004 36.5173 106.004 36.5173C106.004 36.5172 106.004 36.5172 106.004 36.5172V36.5172C106.004 36.5172 106.004 36.5172 106.004 36.5172C106.004 36.5172 106.004 36.5172 106.004 36.5172C106.004 36.5172 106.004 36.5172 106.004 36.5172C106.004 36.5172 106.004 36.5172 106.004 36.5172V36.5172C106.004 36.5172 106.004 36.5172 106.004 36.5172C106.004 36.5172 106.004 36.5172 106.004 36.5172C106.004 36.5172 106.004 36.5172 106.004 36.5172V36.5172C106.004 36.5172 106.004 36.5172 106.004 36.5172C106.004 36.5172 106.004 36.5172 106.004 36.5172C106.004 36.5172 106.004 36.5172 106.004 36.5172C106.004 36.5172 106.004 36.5172 106.004 36.5172V36.5172C106.004 36.5172 106.004 36.5172 106.004 36.5172C106.004 36.5172 106.004 36.5172 106.004 36.5172C106.004 36.5172 106.004 36.5172 106.004 36.5172V36.5172C106.004 36.5172 106.004 36.5172 106.004 36.5172C106.004 36.5172 106.004 36.5172 106.004 36.5172C106.004 36.5172 106.004 36.5172 106.004 36.5172V36.5172C106.004 36.5172 106.004 36.5172 106.004 36.5172C106.004 36.5172 106.004 36.5172 106.004 36.5172C106.004 36.5172 106.004 36.5172 106.004 36.5172L106.996 36.6477V36.6477V36.6477C106.996 36.6477 106.996 36.6477 106.996 36.6477C106.996 36.6477 106.996 36.6477 106.996 36.6477V36.6477V36.6477C106.996 36.6477 106.996 36.6477 106.996 36.6477C106.996 36.6477 106.996 36.6477 106.996 36.6477V36.6477V36.6477C106.996 36.6477 106.996 36.6477 106.996 36.6477C106.996 36.6477 106.996 36.6477 106.996 36.6477C106.996 36.6477 106.996 36.6477 106.996 36.6477V36.6477V36.6477C106.996 36.6477 106.996 36.6477 106.996 36.6477C106.996 36.6477 106.996 36.6477 106.996 36.6477V36.6477C106.996 36.6477 106.996 36.6477 106.996 36.6477C106.996 36.6477 106.996 36.6477 106.996 36.6477C106.996 36.6477 106.996 36.6477 106.996 36.6477C106.996 36.6477 106.996 36.6477 106.996 36.6477V36.6477C106.996 36.6477 106.996 36.6477 106.996 36.6477C106.996 36.6477 106.996 36.6477 106.996 36.6477C106.996 36.6477 106.996 36.6477 106.996 36.6477C106.996 36.6477 106.996 36.6477 106.996 36.6477V36.6477C106.996 36.6477 106.996 36.6477 106.996 36.6477C106.996 36.6477 106.996 36.6477 106.996 36.6477C106.996 36.6477 106.996 36.6477 106.996 36.6477V36.6477C106.996 36.6477 106.996 36.6477 106.996 36.6477C106.996 36.6477 106.996 36.6477 106.996 36.6477C106.996 36.6477 106.996 36.6477 106.996 36.6477V36.6477C106.996 36.6477 106.996 36.6477 106.996 36.6477C106.996 36.6477 106.996 36.6477 106.996 36.6477C106.996 36.6477 106.996 36.6477 106.996 36.6477V36.6477C106.996 36.6477 106.996 36.6477 106.996 36.6477C106.996 36.6477 106.996 36.6477 106.996 36.6477H106.996C106.996 36.6477 106.996 36.6477 106.996 36.6477V36.6477C106.996 36.6477 106.996 36.6477 106.996 36.6477C106.996 36.6477 106.996 36.6477 106.996 36.6477C106.996 36.6477 106.996 36.6477 106.996 36.6477V36.6477C106.996 36.6477 106.996 36.6477 106.996 36.6477C106.996 36.6477 106.996 36.6477 106.996 36.6477H106.996C106.996 36.6478 106.996 36.6478 106.996 36.6478V36.6478C106.996 36.6478 106.996 36.6478 106.996 36.6478C106.996 36.6478 106.996 36.6478 106.996 36.6478C106.996 36.6478 106.996 36.6478 106.996 36.6478V36.6478C106.996 36.6478 106.996 36.6478 106.996 36.6478C106.996 36.6478 106.996 36.6478 106.996 36.6478C106.996 36.6478 106.996 36.6478 106.996 36.6478V36.6478V36.6478C106.996 36.6478 106.996 36.6478 106.996 36.6478C106.996 36.6478 106.996 36.6478 106.996 36.6478V36.6478V36.6478H106.996C106.996 36.6478 106.996 36.6478 106.996 36.6478C106.996 36.6478 106.996 36.6478 106.996 36.6478V36.6478V36.6478C106.996 36.6478 106.996 36.6478 106.996 36.6478C106.996 36.6478 106.996 36.6478 106.996 36.6478V36.6478L106.996 36.6478C106.996 36.6478 106.996 36.6478 106.996 36.6478C106.996 36.6478 106.996 36.6478 106.996 36.6478V36.6478V36.6478C106.996 36.6478 106.996 36.6478 106.996 36.6478C106.996 36.6478 106.996 36.6478 106.996 36.6478C106.996 36.6478 106.996 36.6478 106.996 36.6478C106.996 36.6478 106.996 36.6478 106.996 36.6478V36.6478C106.996 36.6478 106.996 36.6478 106.996 36.6478C106.996 36.6478 106.996 36.6478 106.996 36.6478C106.996 36.6478 106.996 36.6478 106.996 36.6478V36.6478C106.996 36.6478 106.996 36.6478 106.996 36.6478C106.996 36.6478 106.996 36.6478 106.996 36.6478C106.996 36.6478 106.996 36.6478 106.996 36.6478V36.6478C106.996 36.6478 106.996 36.6478 106.996 36.6478C106.996 36.6478 106.996 36.6478 106.996 36.6478C106.996 36.6478 106.996 36.6478 106.996 36.6478V36.6478C106.996 36.6478 106.996 36.6478 106.996 36.6478C106.996 36.6478 106.996 36.6478 106.996 36.6478C106.996 36.6478 106.996 36.6478 106.996 36.6478C106.996 36.6478 106.996 36.6478 106.996 36.6478V36.6478C106.996 36.6478 106.996 36.6478 106.996 36.6478C106.996 36.6478 106.996 36.6478 106.996 36.6478C106.996 36.6478 106.996 36.6478 106.996 36.6478V36.6478C106.996 36.6478 106.996 36.6478 106.996 36.6478C106.996 36.6478 106.996 36.6478 106.996 36.6479C106.996 36.6479 106.996 36.6479 106.996 36.6479C106.996 36.6479 106.996 36.6479 106.996 36.6479V36.6479C106.996 36.6479 106.996 36.6479 106.996 36.6479C106.996 36.6479 106.996 36.6479 106.996 36.6479C106.996 36.6479 106.996 36.6479 106.996 36.6479V36.6479C106.996 36.6479 106.996 36.6479 106.996 36.6479C106.996 36.6479 106.996 36.6479 106.996 36.6479C106.996 36.6479 106.996 36.6479 106.996 36.6479V36.6479C106.996 36.6479 106.996 36.6479 106.996 36.6479C106.996 36.6479 106.996 36.6479 106.996 36.6479C106.996 36.6479 106.996 36.6479 106.996 36.6479V36.6479V36.6479C106.996 36.6479 106.996 36.6479 106.996 36.6479C106.996 36.6479 106.996 36.6479 106.996 36.6479V36.6479V36.6479C106.996 36.6479 106.996 36.6479 106.996 36.6479C106.996 36.6479 106.996 36.6479 106.996 36.6479V36.6479V36.6479C106.996 36.6479 106.996 36.6479 106.996 36.6479C106.996 36.6479 106.996 36.6479 106.996 36.6479C106.996 36.6479 106.996 36.6479 106.996 36.6479V36.6479V36.6479C106.996 36.6479 106.996 36.6479 106.996 36.6479C106.996 36.6479 106.996 36.6479 106.996 36.6479V36.6479C106.996 36.6479 106.996 36.6479 106.996 36.6479C106.996 36.6479 106.996 36.6479 106.996 36.6479C106.996 36.6479 106.996 36.6479 106.996 36.6479C106.996 36.6479 106.996 36.6479 106.996 36.6479V36.6479C106.996 36.6479 106.996 36.6479 106.996 36.6479C106.996 36.6479 106.996 36.6479 106.996 36.6479C106.996 36.6479 106.996 36.6479 106.996 36.6479C106.996 36.6479 106.996 36.6479 106.996 36.6479V36.6479C106.996 36.6479 106.996 36.6479 106.996 36.6479C106.996 36.6479 106.996 36.6479 106.996 36.6479C106.996 36.6479 106.996 36.6479 106.996 36.6479V36.6479C106.996 36.6479 106.996 36.6479 106.996 36.6479C106.996 36.6479 106.996 36.6479 106.996 36.6479C106.996 36.6479 106.996 36.6479 106.996 36.6479V36.6479C106.996 36.6479 106.996 36.6479 106.996 36.6479C106.996 36.6479 106.996 36.6479 106.996 36.6479C106.996 36.6479 106.996 36.6479 106.996 36.6479V36.6479C106.996 36.6479 106.996 36.6479 106.996 36.6479C106.996 36.6479 106.996 36.6479 106.996 36.648H106.996C106.996 36.648 106.996 36.648 106.996 36.648V36.648C106.996 36.648 106.996 36.648 106.996 36.648C106.996 36.648 106.996 36.648 106.996 36.648C106.996 36.648 106.996 36.648 106.996 36.648V36.648C106.996 36.648 106.996 36.648 106.996 36.648C106.996 36.648 106.996 36.648 106.996 36.648H106.996C106.996 36.648 106.996 36.648 106.996 36.648V36.648C106.996 36.648 106.996 36.648 106.996 36.648C106.996 36.648 106.996 36.648 106.996 36.648C106.996 36.648 106.996 36.648 106.996 36.648V36.648C106.996 36.648 106.996 36.648 106.996 36.648C106.996 36.648 106.996 36.648 106.996 36.648C106.996 36.648 106.996 36.648 106.996 36.648V36.648V36.648C106.996 36.648 106.996 36.648 106.996 36.648C106.996 36.648 106.996 36.648 106.996 36.648V36.648V36.648H106.996C106.996 36.648 106.996 36.648 106.996 36.648C106.996 36.648 106.996 36.648 106.996 36.648V36.648V36.648C106.996 36.648 106.996 36.648 106.996 36.648C106.996 36.648 106.996 36.648 106.996 36.648V36.648L106.996 36.648C106.996 36.648 106.996 36.648 106.996 36.648C106.996 36.648 106.996 36.648 106.996 36.648V36.648V36.648C106.996 36.648 106.996 36.648 106.996 36.648C106.996 36.648 106.996 36.648 106.996 36.648C106.996 36.648 106.996 36.648 106.996 36.648C106.996 36.648 106.996 36.648 106.996 36.648V36.648C106.996 36.648 106.996 36.648 106.996 36.648C106.996 36.648 106.996 36.648 106.996 36.648C106.996 36.648 106.996 36.648 106.996 36.648V36.648C106.996 36.648 106.996 36.648 106.996 36.648C106.996 36.648 106.996 36.648 106.996 36.648C106.996 36.648 106.996 36.648 106.996 36.648V36.648C106.996 36.648 106.996 36.648 106.996 36.648C106.996 36.648 106.996 36.648 106.996 36.648C106.996 36.648 106.996 36.648 106.996 36.648V36.648C106.996 36.648 106.996 36.648 106.996 36.6481C106.996 36.6481 106.996 36.6481 106.996 36.6481C106.996 36.6481 106.996 36.6481 106.996 36.6481C106.996 36.6481 106.996 36.6481 106.996 36.6481V36.6481C106.996 36.6481 106.996 36.6481 106.996 36.6481C106.996 36.6481 106.996 36.6481 106.996 36.6481C106.996 36.6481 106.996 36.6481 106.996 36.6481V36.6481C106.996 36.6481 106.996 36.6481 106.996 36.6481C106.996 36.6481 106.996 36.6481 106.996 36.6481C106.996 36.6481 106.996 36.6481 106.996 36.6481C106.996 36.6481 106.996 36.6481 106.996 36.6481V36.6481C106.996 36.6481 106.996 36.6481 106.996 36.6481C106.996 36.6481 106.996 36.6481 106.996 36.6481C106.996 36.6481 106.996 36.6481 106.996 36.6481V36.6481C106.996 36.6481 106.996 36.6481 106.996 36.6481C106.996 36.6481 106.996 36.6481 106.996 36.6481C106.996 36.6481 106.996 36.6481 106.996 36.6481V36.6481C106.996 36.6481 106.996 36.6481 106.996 36.6481C106.996 36.6481 106.996 36.6481 106.996 36.6481C106.996 36.6481 106.996 36.6481 106.996 36.6481L106.004 36.5176ZM106.854 36.9358L106.854 36.9364L106.146 36.2293L106.147 36.2287L106.854 36.9358ZM106.342 36.108C107.297 35.789 108.212 36.0137 109.022 36.583C109.816 37.1414 110.529 38.0403 111.154 39.133C112.407 41.3233 113.389 44.4372 113.955 47.6739C114.522 50.913 114.68 54.3241 114.253 57.1185C114.04 58.5155 113.676 59.7816 113.127 60.7998C112.577 61.8203 111.824 62.6182 110.826 63.0187L110.454 62.0906C111.173 61.8019 111.771 61.2067 112.247 60.325C112.724 59.4411 113.062 58.2959 113.265 56.9674C113.671 54.3109 113.524 51.0138 112.97 47.8462C112.416 44.6762 111.462 41.6847 110.286 39.6296C109.697 38.5995 109.072 37.8408 108.447 37.4012C107.837 36.9726 107.25 36.8591 106.659 37.0564L106.342 36.108ZM110.916 62.138C115.683 65.2991 117.202 68.5478 117.05 71.3688C116.901 74.1459 115.137 76.3361 113.687 77.4273L113.086 76.6284C114.383 75.6521 115.923 73.7071 116.052 71.3151C116.178 68.9671 114.95 66.0131 110.364 62.9713L110.916 62.138ZM113.826 76.7891C115.972 80.7382 115.886 86.226 114.821 91.4291C113.751 96.6505 111.671 101.704 109.69 104.862L108.843 104.33C110.754 101.285 112.793 96.3451 113.841 91.2285C114.893 86.0935 114.921 80.8987 112.947 77.2666L113.826 76.7891ZM108.858 104.308C114.066 96.9279 116.79 91.8192 118.274 87.9294C119.754 84.0512 120.01 81.3667 120.255 78.7945L121.25 78.8892C121.003 81.4849 120.738 84.2784 119.209 88.2859C117.684 92.2817 114.91 97.4661 109.675 104.884L108.858 104.308ZM120.255 78.7945C120.313 78.1867 120.37 77.5807 120.444 76.9685L121.436 77.0872C121.365 77.6854 121.308 78.2795 121.25 78.8892L120.255 78.7945ZM120.443 77.0868C119.296 67.4139 118.38 46.5798 118.38 40.5002H119.38C119.38 46.5506 120.295 67.3442 121.437 76.969L120.443 77.0868ZM118.38 40.5002C118.38 37.8873 119 34.3082 119.757 30.8652C120.516 27.4117 121.422 24.0534 122.012 21.8706L122.977 22.1312C122.388 24.3153 121.487 27.6525 120.734 31.0799C119.978 34.5177 119.38 38.0048 119.38 40.5002H118.38ZM122.012 21.8706C122.233 21.0507 122.408 20.4023 122.515 19.9734L123.485 20.2152C123.375 20.6559 123.197 21.3161 122.977 22.1312L122.012 21.8706ZM123.353 20.448L123.353 20.4482L122.647 19.7404L122.647 19.7403L123.353 20.448ZM122.824 19.6263C122.824 19.6262 122.824 19.6262 122.824 19.6262L123.176 20.5621C123.176 20.5621 123.176 20.5621 123.176 20.5622L122.824 19.6263ZM122.515 19.9733C122.515 19.9732 122.515 19.9731 122.515 19.9729L123.485 20.2146C123.485 20.2147 123.485 20.2149 123.485 20.2151L122.515 19.9733ZM123.353 20.4474L123.353 20.448L122.646 19.7408L122.647 19.7401L123.353 20.4474ZM103.606 14.7687C105.128 17.6855 112.096 23.6636 122.823 19.6265L123.175 20.5624C111.93 24.7947 104.452 18.552 102.719 15.2313L103.606 14.7687ZM84.7837 23.2763C86.8453 22.9941 91.0635 21.5576 94.946 19.8072C96.8795 18.9354 98.7065 17.9961 100.119 17.0997C100.826 16.6512 101.419 16.2198 101.867 15.8195C102.324 15.4112 102.592 15.0694 102.701 14.8074L103.624 15.1926C103.428 15.6616 103.028 16.1238 102.534 16.5653C102.03 17.0148 101.388 17.4788 100.655 17.944C99.1879 18.875 97.3146 19.8362 95.357 20.7188C91.4572 22.477 87.1303 23.9644 84.9193 24.267L84.7837 23.2763ZM85.6785 31.6503C85.7451 31.5653 85.8188 31.4768 85.8994 31.3854L86.6496 32.0466C86.5806 32.1249 86.5194 32.1984 86.466 32.2667L85.6785 31.6503ZM86.6953 31.986C86.6108 32.1176 86.514 32.2277 86.4182 32.3196L85.7263 31.5975C85.7771 31.5489 85.8198 31.4987 85.8537 31.4459L86.6953 31.986Z" fill="#808080"/>
<path d="M73.8504 124.054C83.5096 132.94 68.4394 143.573 62 147.006C78.0986 138.927 79.4849 135.364 81.8997 132.133C77.8751 125.669 85.1194 125.669 89.144 127.285C96.8224 123.495 107.448 107.92 109.267 104.227C106.048 107.088 101.218 108.703 97.9983 107.088C100.413 113.551 91.7247 122.082 86.7293 123.246C80.4557 124.707 75.0074 124.922 73.8504 124.054Z" fill="#D9D9D9" stroke="#808080"/>
<path fill-rule="evenodd" clip-rule="evenodd" d="M53 133.268C54.2 135.431 57.68 140.405 62 143C66.32 140.405 69.8 135.431 71 133.268C70.25 134.195 68.12 135.863 65.6 135.122C63.08 134.38 62.15 127.398 62 124C61.85 127.398 60.92 134.38 58.4 135.122C55.88 135.863 53.75 134.195 53 133.268Z" fill="#D9D9D9"/>
<path d="M62 143L61.7425 143.429L62 143.583L62.2575 143.429L62 143ZM53 133.268L53.3887 132.954L52.5628 133.511L53 133.268ZM71 133.268L71.4372 133.511L70.6113 132.954L71 133.268ZM65.6 135.122L65.7411 134.642L65.6 135.122ZM62 124L62.4995 123.978H61.5005L62 124ZM58.4 135.122L58.2589 134.642L58.4 135.122ZM62.2575 142.571C58.0462 140.042 54.6188 135.155 53.4372 133.026L52.5628 133.511C53.7812 135.707 57.3138 140.768 61.7425 143.429L62.2575 142.571ZM62.2575 143.429C66.6862 140.768 70.2188 135.707 71.4372 133.511L70.5628 133.026C69.3812 135.155 65.9538 140.042 61.7425 142.571L62.2575 143.429ZM70.6113 132.954C70.2796 133.364 69.6185 133.963 68.7519 134.368C67.8928 134.77 66.8573 134.971 65.7411 134.642L65.4589 135.602C66.8627 136.015 68.1522 135.752 69.1756 135.274C70.1915 134.798 70.9704 134.1 71.3887 133.583L70.6113 132.954ZM65.7411 134.642C65.3041 134.514 64.8577 134.084 64.4342 133.309C64.0193 132.55 63.6746 131.548 63.3963 130.436C62.8406 128.215 62.5736 125.655 62.4995 123.978L61.5005 124.022C61.5764 125.743 61.8494 128.373 62.4262 130.679C62.7142 131.83 63.0839 132.924 63.5568 133.789C64.0211 134.638 64.6359 135.359 65.4589 135.602L65.7411 134.642ZM58.5411 135.602C59.3641 135.359 59.9789 134.638 60.4432 133.789C60.9161 132.924 61.2858 131.83 61.5738 130.679C62.1506 128.373 62.4236 125.743 62.4995 124.022L61.5005 123.978C61.4264 125.655 61.1594 128.215 60.6037 130.436C60.3254 131.548 59.9807 132.55 59.5658 133.309C59.1423 134.084 58.6959 134.514 58.2589 134.642L58.5411 135.602ZM52.6113 133.583C53.0296 134.1 53.8085 134.798 54.8244 135.274C55.8478 135.752 57.1373 136.015 58.5411 135.602L58.2589 134.642C57.1427 134.971 56.1072 134.77 55.2481 134.368C54.3815 133.963 53.7204 133.364 53.3887 132.954L52.6113 133.583Z" fill="#808080"/>
<path d="M41.2807 33.9269C40.5908 29.9223 45.4205 22 47.4908 22L54.3904 25.2503C52.3204 25.4728 48.8704 25.9178 48.8708 28.5875C48.8712 31.2572 54.3904 33.2594 56.4604 32.592C56.4604 34.7278 57.3804 38.3764 57.8404 39.9337C55.7708 34.5943 50.4804 33.9269 48.1804 37.264C49.1004 35.9292 50.2508 33.2594 47.4908 31.9246C46.1108 31.2572 43.3508 30.5897 41.2807 33.9269Z" fill="#D9D9D9" stroke="#808080"/>
<path d="M82.7182 33.9269C83.4081 29.9223 79.2681 23.248 77.1979 23.248L69.6085 25.2503C71.6785 25.4728 75.1285 25.9178 75.1281 28.5875C75.1277 31.2572 69.6085 33.2594 67.5385 32.592C67.5385 34.7278 66.6185 38.3764 66.1585 39.9337C68.2281 34.5943 73.5185 33.9269 75.8185 37.264C74.8985 35.9292 73.7481 33.2594 76.5081 31.9246C77.8881 31.2572 80.6481 30.5897 82.7182 33.9269Z" fill="#D9D9D9" stroke="#808080"/>
<path fill-rule="evenodd" clip-rule="evenodd" d="M48.0852 23.1212C50.2267 25.8986 52.9964 26.6606 55.452 26.6606C58.7006 30.1725 61.949 39.7814 61.9994 39.9308L62 39.9325C62.0503 39.7832 65.2987 30.1725 68.5474 26.6606C71.003 26.6606 73.7726 25.8986 75.9142 23.1212C78.0557 20.3439 79.1873 17.8121 78.3692 12.503C78.3685 14.2727 76.7327 17.8121 75.0964 16.0417C75.0964 2.77016 67.7292 1.00091 62 1M62 1C56.2707 1.00091 48.903 2.77016 48.903 16.0417C47.2667 17.8121 45.6308 14.2727 45.6301 12.503C44.8121 17.8121 45.9437 20.3439 48.0852 23.1212" fill="#D9D9D9"/>
<path d="M55.452 26.6606C52.9964 26.6606 50.2267 25.8986 48.0852 23.1212C45.9437 20.3439 44.8121 17.8121 45.6301 12.503C45.6308 14.2727 47.2667 17.8121 48.903 16.0417C48.903 2.77016 56.2707 1.00091 62 1C67.7292 1.00091 75.0964 2.77016 75.0964 16.0417C76.7327 17.8121 78.3685 14.2727 78.3692 12.503C79.1873 17.8121 78.0557 20.3439 75.9142 23.1212C73.7726 25.8986 71.003 26.6606 68.5474 26.6606C65.2987 30.1725 62.0503 39.7832 62 39.9325L61.9994 39.9308C61.949 39.7814 58.7006 30.1725 55.452 26.6606Z" stroke="#808080"/>
<path d="M53.8271 21.3252C51.873 19.4714 50.751 11.2541 54.4782 13.9106C55.7792 14.8378 56.0988 15.9169 57.7329 16.6907C59.367 17.4645 60.3368 17.6176 60.3369 21.3231C60.337 20.3965 59.0343 18.542 57.7323 20.3964C56.7033 21.8621 55.7793 23.1772 53.8271 21.3252Z" fill="#4D4D4D"/>
<path d="M70.1738 21.3252C72.1279 19.4714 73.25 11.2541 69.5228 13.9106C68.2218 14.8378 67.9022 15.9169 66.2681 16.6907C64.6339 17.4645 63.6642 17.6176 63.6641 21.3231C63.664 20.3965 64.9667 18.542 66.2687 20.3964C67.2977 21.8621 68.2216 23.1772 70.1738 21.3252Z" fill="#4D4D4D"/>
<path d="M61.1686 24.0059V27.5453C60.3367 27.5453 60.3367 26.6604 59.5049 25.7756C60.3367 25.7756 61.1686 24.5958 61.1686 24.0059Z" fill="#4D4D4D"/>
<path d="M62.8334 24.0059V27.5453C63.6652 27.5453 63.6652 26.6604 64.4971 25.7756C63.6652 25.7756 62.8334 24.5958 62.8334 24.0059Z" fill="#4D4D4D"/>
<path fill-rule="evenodd" clip-rule="evenodd" d="M62.0013 4.66797C61.6262 6.16716 60.471 9.40807 58.8506 9.40807C59.9008 10.1577 62.0013 12.2139 62.0013 15.4122V4.66797ZM62.0015 4.66797C62.3766 6.16716 63.5319 9.40807 65.1522 9.40807C64.102 10.1577 62.0015 12.2139 62.0015 15.4122V4.66797Z" fill="#4C4C4C"/>
<path fill-rule="evenodd" clip-rule="evenodd" d="M67.0418 6.56445C66.8168 7.53452 66.1236 9.40851 65.1514 9.40851C65.7815 9.89354 67.0418 11.4471 67.0418 13.5166V6.56445ZM67.0432 6.56445C67.2682 7.53452 67.9614 9.40851 68.9336 9.40851C68.3034 9.89354 67.0432 11.4471 67.0432 13.5166V6.56445Z" fill="#4C4C4C"/>
<path fill-rule="evenodd" clip-rule="evenodd" d="M56.9601 6.56445C57.1852 7.53452 57.8784 9.40851 58.8506 9.40851C58.2204 9.89354 56.9601 11.4471 56.9601 13.5166V6.56445ZM56.9588 6.56445C56.7337 7.53452 56.0406 9.40851 55.0684 9.40851C55.6985 9.89354 56.9588 11.4471 56.9588 13.5166V6.56445Z" fill="#4C4C4C"/>
<path d="M28.4544 77.08C29.1744 77.72 30.7344 79.2 31.2144 80.52C31.3544 80.9 31.0744 81.22 30.8344 81.42L31.2744 81.64C31.5344 81.22 32.5344 80.64 32.7944 80.22C32.5344 79.5 32.6544 78.42 32.3544 77.56C30.9544 77.28 29.7344 76.92 29.2944 75.92C29.0144 75.96 28.9144 75.96 28.7344 76.1C28.6544 76.18 28.4744 76.3 28.3144 76.32C28.2344 76.34 28.1344 76.34 28.0344 76.3C28.6144 75.42 29.1144 74.48 29.4344 73.52C29.5744 73.24 29.9544 72.9 30.2544 72.74L26.0944 71.18L25.8144 71.66C26.6144 72 27.0744 72.52 27.0344 73.18C26.2744 75.68 24.5344 78.06 22.8744 79.8C22.3744 80.36 22.2144 80.9 21.8344 81.18C21.5944 81.36 21.2144 81.42 20.7944 81.44L20.7744 82.02C21.7744 81.76 23.1744 81.12 24.1744 80.4C25.1944 79.62 26.3944 78.48 27.4344 77.14C27.5944 77 27.7544 76.9 27.9144 76.9C28.0544 76.9 28.3144 76.96 28.4544 77.08ZM37.9144 70.46L33.4544 69.5L33.2744 69.96C34.1744 70.3 35.1744 70.82 35.1744 71.74V84.5H35.6944C36.0344 83.6 36.6744 82.82 37.3744 82.34V71.7L37.9144 70.46ZM38.7944 88.4L38.8744 88.04L37.1544 86.1L35.4344 86.9C33.6344 87.04 31.2944 87.08 29.0544 87.08V83.64L29.4544 82.74L25.4944 82.32L25.3544 82.66C25.9944 82.9 26.6144 83.22 26.7944 83.82C26.9144 84.64 26.9344 86.12 26.9344 86.9C26.9344 87.34 26.7944 88.14 26.7144 88.6C27.3544 88.5 28.2944 88.42 28.9744 88.4C31.2144 88.3 34.2344 88.22 36.4144 88.2L38.7944 88.4Z" fill="#D9D9D9"/>
<path d="M56.1582 71.7L56.6982 70.46L52.2582 69.5L52.0982 69.96C52.9782 70.3 53.9782 70.82 53.9782 71.74V81.62C51.7582 81.88 49.4982 82.2 47.1982 82.54L47.1582 78.68L47.5382 77.58L43.4982 77.02L43.3982 77.46C44.1782 77.64 44.9382 78.2 44.9582 78.88L45.1382 82.84L43.2382 83.1C42.5582 83.1 41.9782 83.04 41.5582 82.88C41.3182 82.76 41.0182 82.66 40.8782 82.46C40.7582 82.28 40.7782 82.04 40.7982 81.86L40.2782 82C40.3382 82.52 40.5582 83.24 40.8982 83.6L42.6982 85.42L43.7582 84.78C47.1182 83.84 51.9982 82.88 53.1182 83.3C53.3382 82.92 53.6382 82.64 53.9782 82.46V85.74C53.9782 87.06 54.1182 88 54.1182 89.52H54.7582C54.9182 88 55.5182 87 56.1582 86.24V79.6C56.7182 79.54 57.2182 79.5 57.6182 79.48L59.7982 79.58L59.8982 79.2L58.4782 77.48L57.1382 78.12C56.8182 78.18 56.4982 78.22 56.1582 78.24V71.7ZM44.0582 74.56C45.9582 74.36 47.5582 74.24 49.5382 74.18C49.5782 75.78 49.5182 78.66 49.2182 80.78L49.6982 80.86C49.9982 80.04 50.5182 79.6 51.2182 79.3C51.5582 78.18 51.7982 75.7 51.8582 74.22C51.8582 73.88 52.0982 73.56 52.4382 73.32L50.3582 72.18C50.0982 72.42 49.7782 72.66 49.4582 72.76C47.8582 72.94 45.8982 73.1 43.5182 73.1C43.1582 73.1 42.4582 73.08 42.0982 72.98C41.9182 72.9 41.6382 72.76 41.6182 72.52L41.2982 72.66C41.3582 73.06 41.5582 73.38 41.7182 73.58L43.0182 75.06L44.0582 74.56Z" fill="#D9D9D9"/>
<path d="M81.4782 88.7L81.6382 88.48L80.4382 86.82L79.3982 87.12C79.5382 86.7 79.9982 86.32 80.3982 86.12L80.6782 84C80.7782 83.68 80.9382 83.36 81.2982 83.12L79.2582 82.06C79.0182 82.34 78.6582 82.5 78.2982 82.58C76.5582 82.74 73.8582 82.86 71.4382 82.78C70.9582 82.76 70.3182 82.66 69.9782 82.56C69.8182 82.5 69.5782 82.44 69.4582 82.18L69.2182 82.36C69.2982 82.64 69.4182 83 69.5582 83.14L70.4982 84.24L70.9982 89.72H71.5382C71.6182 89.36 71.7782 89.04 71.9782 88.78C74.2182 88.68 76.8182 88.6 79.1182 88.6L81.4782 88.7ZM70.6782 74.48C70.6182 74.84 70.3782 75.04 69.9782 75.16C68.6782 75.54 67.4182 76.64 67.4782 78.36C67.5382 80.28 69.4782 81.66 71.7582 81.58C73.9982 81.48 75.9582 80.1 75.8582 77.86C75.7582 75.82 73.3782 74.84 71.5182 75.14L70.9982 74.38L70.6782 74.48ZM81.5582 70.46L77.1382 69.5L76.9582 69.96C77.8582 70.3 78.8582 70.82 78.8582 71.74V81.66H79.3782C79.7782 80.82 80.3182 80.12 81.0182 79.74V77.34C81.6582 77.28 82.3582 77.26 82.7782 77.22L84.7182 77.34L84.8382 76.94L83.4182 75.22L82.0782 75.88C81.7182 75.94 81.3982 75.98 81.0182 75.98V71.7L81.5582 70.46ZM74.9182 73.9C75.7382 73.94 76.7182 74.14 77.2182 74.24L77.4382 73.9L76.1982 72.02L75.0382 72.48C74.3182 72.56 73.4782 72.6 72.6182 72.66L72.6582 71.62L73.2382 70.68L69.5182 70.14L69.3182 70.5C70.0182 70.66 70.6382 71.08 70.6382 71.76V72.74C69.5782 72.76 68.5382 72.78 67.5982 72.78C67.1582 72.78 66.6182 72.68 66.1782 72.64C65.8982 72.5 65.5982 72.32 65.4982 72.04L65.2382 72.18C65.2982 72.52 65.4982 72.96 65.7182 73.26L66.7182 74.6L67.7182 74.22C70.0782 73.98 72.8582 73.88 74.9182 73.9ZM72.7982 87.38L72.7382 84.2C74.8782 84.1 76.4982 84.04 78.4782 84.04L78.4182 87.24C76.8182 87.32 74.6782 87.36 72.7982 87.38ZM72.3382 76.3L71.9182 75.72C73.1382 75.86 73.8382 77.02 73.8582 77.82C73.8782 78.94 73.1582 79.96 71.7782 80.04C70.5982 80.12 69.6182 79.44 69.5582 78.42C69.4982 77.46 70.2382 76.62 71.1782 76.5C71.5782 76.44 71.7582 76.48 72.0182 76.58L72.3382 76.3Z" fill="#D9D9D9"/>
<path d="M87.6419 73.74C87.2619 73.74 87.0219 73.72 86.7019 73.64C86.4819 73.52 86.3619 73.48 86.3219 73.26L85.9819 73.38C86.0619 73.72 86.1019 73.96 86.3419 74.24L87.3619 75.46L88.1019 75.06C88.5019 74.94 88.8819 74.92 89.3019 74.94C88.8019 77.98 87.6019 80.38 86.6219 81.82C86.3219 82.22 86.2419 82.68 85.9819 82.88C85.7819 83.06 85.5019 83.14 85.2219 83.14L85.3219 83.66C85.6819 83.52 85.9219 83.4 86.1819 83.28C86.6819 83.02 87.2419 82.64 87.8019 82.1C88.9419 81 90.6619 78.36 91.5019 75.04L91.9419 75.34L92.5019 74.9C92.8619 74.8 93.1619 74.78 93.6219 74.78C93.1419 78.3 91.4619 81.5 90.4019 83.12C90.0619 83.62 89.9419 84.3 89.6619 84.56C89.4619 84.74 89.1019 84.9 88.8219 84.92L88.9819 85.46C89.3619 85.26 89.6019 85.12 89.8419 84.98C90.4019 84.64 90.9819 84.18 91.6819 83.5C92.6019 82.56 93.8219 80.82 94.7219 78.64C94.7419 78.64 94.7419 78.66 94.7619 78.66L95.8019 79.78L96.6019 79.32L97.1219 79.24V84.68C97.1219 86.02 97.2619 86.92 97.2619 88.44H97.8419C98.0219 86.92 98.5619 85.96 99.2219 85.2V72.74L99.7019 71.52L95.6619 70.56L95.5019 71.02C96.3819 71.34 97.1219 71.88 97.1219 72.78V77.92L96.4819 77.98C96.0219 78 95.5419 78.02 95.1019 78L95.0019 77.94C95.3619 76.96 95.6619 75.9 95.8419 74.8C95.8819 74.46 96.2019 74.12 96.5219 74L94.2019 72.86C94.0419 73.16 93.8819 73.34 93.4819 73.48C92.8219 73.62 92.0619 73.7 91.3019 73.68L90.0419 73.04C89.8619 73.34 89.6219 73.46 89.2419 73.62C88.7219 73.72 88.1019 73.74 87.6419 73.74ZM103.002 71.68L103.482 70.46L99.2619 69.5L99.0819 69.96C99.9819 70.3 100.902 70.8 100.902 71.72V85.78C100.902 87.1 101.042 88 101.042 89.52H101.622C101.802 88 102.342 87.04 103.002 86.28V71.68Z" fill="#D9D9D9"/>
</g>
</svg>
