<svg width="current" height="current" viewBox="0 0 180 52" fill="none" xmlns="http://www.w3.org/2000/svg">
<path fill-rule="evenodd" clip-rule="evenodd" d="M8 14.9167V16.5V35.5V37.0833C17.5194 37.0833 22.2791 42.3611 23.4691 45H87.5152H92.4848H156.531C157.721 42.3611 162.481 37.0833 172 37.0833V35.5V16.5V14.9167C162.481 14.9167 157.721 9.63889 156.531 7H92.4848H87.5152H23.4691C22.2791 9.63889 17.5194 14.9167 8 14.9167Z" fill="url(#paint0_linear_749_8854)"/>
<mask id="path-2-outside-1_749_8854" maskUnits="userSpaceOnUse" x="0" y="0" width="180" height="52" fill="black">
<rect fill="white" width="180" height="52"/>
<path fill-rule="evenodd" clip-rule="evenodd" d="M2 13.9995V12.0001C12.216 12.0001 17.324 5.33335 18.601 2H87.3332H92.6668H161.399C162.676 5.33335 167.784 12.0001 178 12.0001V13.9995V38.0002V39.9997C167.784 39.9997 162.676 46.6664 161.399 49.9998H92.6668H87.3332H18.601C17.324 46.6664 12.216 39.9997 2 39.9997V38.0002V13.9995ZM8.10156 16.545V14.9207C17.6089 14.9207 22.3626 9.5065 23.551 6.7994H87.516H92.4794H156.444C157.633 9.5065 162.386 14.9207 171.894 14.9207V16.545V36.0361V37.6603C162.386 37.6603 157.633 43.0745 156.444 45.7816H92.4794H87.516H23.551C22.3626 43.0745 17.6089 37.6603 8.10156 37.6603V36.0361V16.545Z"/>
</mask>
<path fill-rule="evenodd" clip-rule="evenodd" d="M2 13.9995V12.0001C12.216 12.0001 17.324 5.33335 18.601 2H87.3332H92.6668H161.399C162.676 5.33335 167.784 12.0001 178 12.0001V13.9995V38.0002V39.9997C167.784 39.9997 162.676 46.6664 161.399 49.9998H92.6668H87.3332H18.601C17.324 46.6664 12.216 39.9997 2 39.9997V38.0002V13.9995ZM8.10156 16.545V14.9207C17.6089 14.9207 22.3626 9.5065 23.551 6.7994H87.516H92.4794H156.444C157.633 9.5065 162.386 14.9207 171.894 14.9207V16.545V36.0361V37.6603C162.386 37.6603 157.633 43.0745 156.444 45.7816H92.4794H87.516H23.551C22.3626 43.0745 17.6089 37.6603 8.10156 37.6603V36.0361V16.545Z" fill="#D9D9D9"/>
<path d="M2 12.0001V10.0001H0V12.0001H2ZM18.601 2V0H17.2254L16.7333 1.28451L18.601 2ZM161.399 2L163.267 1.28452L162.775 0H161.399V2ZM178 12.0001H180V10.0001H178V12.0001ZM178 39.9997V41.9997H180V39.9997H178ZM161.399 49.9998V51.9998H162.775L163.267 50.7153L161.399 49.9998ZM18.601 49.9998L16.7333 50.7153L17.2254 51.9998H18.601V49.9998ZM2 39.9997H0V41.9997H2V39.9997ZM8.10156 14.9207V12.9207H6.10156V14.9207H8.10156ZM23.551 6.7994V4.7994H22.2448L21.7197 5.99546L23.551 6.7994ZM156.444 6.7994L158.276 5.99546L157.751 4.7994H156.444V6.7994ZM171.894 14.9207H173.894V12.9207H171.894V14.9207ZM171.894 37.6603V39.6603H173.894V37.6603H171.894ZM156.444 45.7816V47.7816H157.751L158.276 46.5856L156.444 45.7816ZM23.551 45.7816L21.7197 46.5856L22.2448 47.7816H23.551V45.7816ZM8.10156 37.6603H6.10156V39.6603H8.10156V37.6603ZM0 12.0001V13.9995H4V12.0001H0ZM16.7333 1.28451C15.6899 4.00814 11.2248 10.0001 2 10.0001V14.0001C13.2072 14.0001 18.958 6.65857 20.4686 2.71549L16.7333 1.28451ZM87.3332 0H18.601V4H87.3332V0ZM92.6668 0H87.3332V4H92.6668V0ZM161.399 0H92.6668V4H161.399V0ZM178 10.0001C168.775 10.0001 164.31 4.00814 163.267 1.28452L159.531 2.71548C161.042 6.65857 166.793 14.0001 178 14.0001V10.0001ZM180 13.9995V12.0001H176V13.9995H180ZM180 38.0002V13.9995H176V38.0002H180ZM180 39.9997V38.0002H176V39.9997H180ZM163.267 50.7153C164.31 47.9916 168.775 41.9997 178 41.9997V37.9997C166.793 37.9997 161.042 45.3412 159.531 49.2843L163.267 50.7153ZM92.6668 51.9998H161.399V47.9998H92.6668V51.9998ZM87.3332 51.9998H92.6668V47.9998H87.3332V51.9998ZM18.601 51.9998H87.3332V47.9998H18.601V51.9998ZM2 41.9997C11.2248 41.9997 15.6899 47.9916 16.7333 50.7153L20.4686 49.2843C18.958 45.3412 13.2072 37.9997 2 37.9997V41.9997ZM0 38.0002V39.9997H4V38.0002H0ZM0 13.9995V38.0002H4V13.9995H0ZM6.10156 14.9207V16.545H10.1016V14.9207H6.10156ZM21.7197 5.99546C20.8352 8.01031 16.7782 12.9207 8.10156 12.9207V16.9207C18.4396 16.9207 23.89 11.0027 25.3823 7.60335L21.7197 5.99546ZM87.516 4.7994H23.551V8.7994H87.516V4.7994ZM92.4794 4.7994H87.516V8.7994H92.4794V4.7994ZM156.444 4.7994H92.4794V8.7994H156.444V4.7994ZM171.894 12.9207C163.217 12.9207 159.16 8.01031 158.276 5.99546L154.613 7.60335C156.105 11.0027 161.556 16.9207 171.894 16.9207V12.9207ZM173.894 16.545V14.9207H169.894V16.545H173.894ZM173.894 36.0361V16.545H169.894V36.0361H173.894ZM173.894 37.6603V36.0361H169.894V37.6603H173.894ZM158.276 46.5856C159.16 44.5707 163.217 39.6603 171.894 39.6603V35.6603C161.556 35.6603 156.105 41.5784 154.613 44.9777L158.276 46.5856ZM92.4794 47.7816H156.444V43.7816H92.4794V47.7816ZM87.516 47.7816H92.4794V43.7816H87.516V47.7816ZM23.551 47.7816H87.516V43.7816H23.551V47.7816ZM8.10156 39.6603C16.7782 39.6603 20.8352 44.5707 21.7197 46.5856L25.3823 44.9777C23.89 41.5784 18.4396 35.6603 8.10156 35.6603V39.6603ZM6.10156 36.0361V37.6603H10.1016V36.0361H6.10156ZM6.10156 16.545V36.0361H10.1016V16.545H6.10156Z" fill="#808080" mask="url(#path-2-outside-1_749_8854)"/>
<defs>
<linearGradient id="paint0_linear_749_8854" x1="90" y1="7" x2="90" y2="45" gradientUnits="userSpaceOnUse">
<stop stop-opacity="0.5"/>
<stop offset="1"/>
</linearGradient>
</defs>
</svg>
