<svg width="522" height="96" viewBox="0 0 522 96" fill="none" xmlns="http://www.w3.org/2000/svg">
<rect x="261" y="27" width="246" height="59" rx="20" fill="#292929"/>
<path fill-rule="evenodd" clip-rule="evenodd" d="M362.587 23.896C355.427 23.8104 349.565 23.7402 345 13C347.5 27.5 321 26.8007 313 21.5C308.9 29 281.838 25.3 289.752 18.5C261 18.5 261 42.4999 261 49.9999V50C261.666 40.5 268 24.5 278.5 38C274.5 22.5 299.546 25.2 297.172 34C297.427 33.8413 297.782 33.5928 298.217 33.2884C301.435 31.0351 309.036 25.7142 313 31C318 26 327.731 26.7694 334.605 32C334.442 30.3333 336.589 27.9777 340.5 27C342.5 26.5 352 25.5 350 31C370 21.5 382 29.5 384 31C375.898 24.0552 368.76 23.9698 362.587 23.896Z" fill="#4D4D4D"/>
<path d="M345 13L345.46 12.8044L344.507 13.085L345 13ZM362.587 23.896L362.581 24.3959L362.581 24.3959L362.587 23.896ZM313 21.5L313.276 21.0832L312.822 20.7825L312.561 21.2602L313 21.5ZM289.752 18.5L290.078 18.8792L291.101 18H289.752V18.5ZM261 50H260.5L261.499 50.035L261 50ZM278.5 38L278.105 38.307L278.984 37.8751L278.5 38ZM297.172 34L296.689 33.8698L296.359 35.0948L297.436 34.4245L297.172 34ZM298.217 33.2884L297.93 32.8788L297.93 32.8788L298.217 33.2884ZM313 31L312.6 31.3L312.946 31.7612L313.353 31.3536L313 31ZM334.605 32L334.303 32.3979L335.215 33.0922L335.103 31.9511L334.605 32ZM340.5 27L340.621 27.4851L340.621 27.4851L340.5 27ZM350 31L349.53 30.8291L349.113 31.9746L350.214 31.4516L350 31ZM384 31L383.7 31.4L384.325 30.6204L384 31ZM344.54 13.1956C346.853 18.638 349.531 21.4571 352.608 22.8964C355.655 24.321 359.024 24.3534 362.581 24.3959L362.593 23.396C358.989 23.3529 355.848 23.3074 353.032 21.9905C350.247 20.6883 347.712 18.1022 345.46 12.8044L344.54 13.1956ZM312.724 21.9168C314.808 23.2978 318.043 24.351 321.646 24.9406C325.259 25.532 329.293 25.6657 333.004 25.1709C336.704 24.6774 340.14 23.5512 342.501 21.5741C344.894 19.57 346.148 16.717 345.493 12.915L344.507 13.085C345.102 16.533 343.981 19.0301 341.859 20.8074C339.704 22.6117 336.483 23.698 332.871 24.1797C329.27 24.6599 325.335 24.5312 321.807 23.9538C318.269 23.3746 315.192 22.3526 313.276 21.0832L312.724 21.9168ZM289.426 18.1208C288.388 19.0134 287.823 19.9387 287.811 20.8825C287.799 21.8357 288.351 22.6401 289.158 23.2832C290.756 24.5568 293.638 25.4364 296.805 25.8581C299.994 26.2828 303.57 26.2561 306.624 25.6417C309.643 25.0342 312.301 23.8206 313.439 21.7398L312.561 21.2602C311.649 22.9294 309.386 24.0658 306.426 24.6614C303.5 25.2501 300.037 25.2797 296.937 24.8669C293.815 24.4511 291.159 23.5994 289.781 22.5012C289.1 21.9583 288.804 21.4167 288.811 20.8953C288.818 20.3644 289.138 19.6866 290.078 18.8792L289.426 18.1208ZM261.5 49.9999C261.5 46.2436 261.507 38.4841 265.038 31.6674C266.798 28.27 269.432 25.1114 273.382 22.7987C277.335 20.4849 282.634 19 289.752 19V18C282.494 18 277.012 19.5151 272.877 21.9357C268.741 24.3573 265.984 27.6674 264.15 31.2074C260.493 38.2657 260.5 46.2562 260.5 49.9999H261.5ZM261.5 50V49.9999H260.5V50H261.5ZM278.895 37.693C276.238 34.2778 273.767 32.6209 271.489 32.3473C269.181 32.07 267.233 33.2284 265.682 35.0509C264.133 36.87 262.925 39.4069 262.063 42.0645C261.199 44.7277 260.671 47.549 260.501 49.965L261.499 50.035C261.662 47.701 262.175 44.9598 263.015 42.373C263.855 39.7806 265.012 37.38 266.443 35.6991C267.871 34.0216 269.517 33.1175 271.37 33.3402C273.254 33.5666 275.512 34.9722 278.105 38.307L278.895 37.693ZM297.655 34.1302C298.325 31.6448 297.024 29.6297 294.963 28.3116C292.911 26.9988 290.024 26.3041 287.211 26.3877C284.402 26.4713 281.576 27.3357 279.706 29.249C277.81 31.1894 276.982 34.1194 278.016 38.1249L278.984 37.8751C278.018 34.1306 278.821 31.5856 280.421 29.9479C282.049 28.283 284.586 27.4662 287.241 27.3873C289.894 27.3084 292.573 27.9699 294.424 29.154C296.267 30.3328 297.206 31.9552 296.689 33.8698L297.655 34.1302ZM297.93 32.8788C297.49 33.1869 297.149 33.4257 296.908 33.5755L297.436 34.4245C297.706 34.2569 298.074 33.9988 298.504 33.698L297.93 32.8788ZM313.4 30.7C312.33 29.2734 310.996 28.5463 309.548 28.3169C308.119 28.0903 306.609 28.3536 305.168 28.8437C302.292 29.8214 299.531 31.7583 297.93 32.8788L298.504 33.698C300.122 32.5652 302.77 30.715 305.49 29.7904C306.846 29.3293 308.181 29.1127 309.392 29.3046C310.585 29.4937 311.688 30.0837 312.6 31.3L313.4 30.7ZM334.908 31.6021C331.393 28.9278 327.147 27.3912 323.128 27.1643C319.112 26.9376 315.274 28.0187 312.646 30.6464L313.353 31.3536C315.726 28.9813 319.253 27.9471 323.072 28.1627C326.887 28.3781 330.943 29.8416 334.303 32.3979L334.908 31.6021ZM340.379 26.5149C338.356 27.0207 336.763 27.8888 335.687 28.8727C334.629 29.8403 334.004 30.9894 334.108 32.0489L335.103 31.9511C335.043 31.3439 335.41 30.4818 336.362 29.6106C337.297 28.7555 338.734 27.957 340.621 27.4851L340.379 26.5149ZM350.47 31.1709C351.017 29.6656 350.806 28.4823 350.002 27.6393C349.246 26.846 348.047 26.4487 346.828 26.2561C344.371 25.8682 341.427 26.2529 340.379 26.5149L340.621 27.4851C341.573 27.2471 344.379 26.8818 346.672 27.2439C347.827 27.4263 348.754 27.779 349.279 28.3294C349.756 28.8302 349.983 29.5844 349.53 30.8291L350.47 31.1709ZM384.3 30.6C382.199 29.0243 370.001 20.946 349.785 30.5484L350.214 31.4516C369.999 22.054 381.801 29.9757 383.7 31.4L384.3 30.6ZM362.581 24.3959C368.73 24.4695 375.713 24.5553 383.675 31.3796L384.325 30.6204C376.082 23.5551 368.79 23.4701 362.593 23.396L362.581 24.3959Z" fill="#292929"/>
<path fill-rule="evenodd" clip-rule="evenodd" d="M405.413 23.896C412.573 23.8104 418.435 23.7402 423 13C420.5 27.5 447 26.8007 455 21.5C459.1 29 486.162 25.3 478.248 18.5C507 18.5 507 42.4999 507 49.9999V50C506.334 40.5 500 24.5 489.5 38C493.5 22.5 468.454 25.2 470.828 34C470.573 33.8413 470.218 33.5928 469.783 33.2884C466.565 31.0351 458.964 25.7142 455 31C450 26 440.269 26.7694 433.395 32C433.558 30.3333 431.411 27.9777 427.5 27C425.5 26.5 416 25.5 418 31C398 21.5 386 29.5 384 31C392.102 24.0552 399.24 23.9698 405.413 23.896Z" fill="#4D4D4D"/>
<path d="M423 13L422.54 12.8044L423.493 13.085L423 13ZM405.413 23.896L405.419 24.3959L405.419 24.3959L405.413 23.896ZM455 21.5L454.724 21.0832L455.178 20.7825L455.439 21.2602L455 21.5ZM478.248 18.5L477.922 18.8792L476.899 18H478.248V18.5ZM507 50H507.5L506.501 50.035L507 50ZM489.5 38L489.895 38.307L489.016 37.8751L489.5 38ZM470.828 34L471.311 33.8698L471.641 35.0948L470.564 34.4245L470.828 34ZM469.783 33.2884L470.07 32.8788L470.07 32.8788L469.783 33.2884ZM455 31L455.4 31.3L455.054 31.7612L454.647 31.3536L455 31ZM433.395 32L433.697 32.3979L432.785 33.0922L432.897 31.9511L433.395 32ZM427.5 27L427.379 27.4851L427.379 27.4851L427.5 27ZM418 31L418.47 30.8291L418.887 31.9746L417.786 31.4516L418 31ZM384 31L384.3 31.4L383.675 30.6204L384 31ZM423.46 13.1956C421.147 18.638 418.469 21.4571 415.392 22.8964C412.345 24.321 408.976 24.3534 405.419 24.3959L405.407 23.396C409.011 23.3529 412.152 23.3074 414.968 21.9905C417.753 20.6883 420.288 18.1022 422.54 12.8044L423.46 13.1956ZM455.276 21.9168C453.192 23.2978 449.957 24.351 446.354 24.9406C442.741 25.532 438.707 25.6657 434.996 25.1709C431.296 24.6774 427.86 23.5512 425.499 21.5741C423.106 19.57 421.852 16.717 422.507 12.915L423.493 13.085C422.898 16.533 424.019 19.0301 426.141 20.8074C428.296 22.6117 431.517 23.698 435.129 24.1797C438.73 24.6599 442.665 24.5312 446.193 23.9538C449.731 23.3746 452.808 22.3526 454.724 21.0832L455.276 21.9168ZM478.574 18.1208C479.612 19.0134 480.177 19.9387 480.189 20.8825C480.201 21.8357 479.649 22.6401 478.842 23.2832C477.244 24.5568 474.362 25.4364 471.195 25.8581C468.006 26.2828 464.43 26.2561 461.376 25.6417C458.357 25.0342 455.699 23.8206 454.561 21.7398L455.439 21.2602C456.351 22.9294 458.614 24.0658 461.574 24.6614C464.5 25.2501 467.963 25.2797 471.063 24.8669C474.185 24.4511 476.841 23.5994 478.219 22.5012C478.9 21.9583 479.196 21.4167 479.189 20.8953C479.182 20.3644 478.862 19.6866 477.922 18.8792L478.574 18.1208ZM506.5 49.9999C506.5 46.2436 506.493 38.4841 502.962 31.6674C501.202 28.27 498.568 25.1114 494.618 22.7987C490.665 20.4849 485.366 19 478.248 19V18C485.506 18 490.988 19.5151 495.123 21.9357C499.259 24.3573 502.016 27.6674 503.85 31.2074C507.507 38.2657 507.5 46.2562 507.5 49.9999H506.5ZM506.5 50V49.9999H507.5V50H506.5ZM489.105 37.693C491.762 34.2778 494.233 32.6209 496.511 32.3473C498.819 32.07 500.767 33.2284 502.318 35.0509C503.867 36.87 505.075 39.4069 505.937 42.0645C506.801 44.7277 507.329 47.549 507.499 49.965L506.501 50.035C506.338 47.701 505.825 44.9598 504.985 42.373C504.145 39.7806 502.988 37.38 501.557 35.6991C500.129 34.0216 498.483 33.1175 496.63 33.3402C494.746 33.5666 492.488 34.9722 489.895 38.307L489.105 37.693ZM470.345 34.1302C469.675 31.6448 470.976 29.6297 473.037 28.3116C475.089 26.9988 477.976 26.3041 480.789 26.3877C483.598 26.4713 486.424 27.3357 488.294 29.249C490.19 31.1894 491.018 34.1194 489.984 38.1249L489.016 37.8751C489.982 34.1306 489.179 31.5856 487.579 29.9479C485.951 28.283 483.414 27.4662 480.759 27.3873C478.106 27.3084 475.427 27.9699 473.576 29.154C471.733 30.3328 470.794 31.9552 471.311 33.8698L470.345 34.1302ZM470.07 32.8788C470.51 33.1869 470.851 33.4257 471.092 33.5755L470.564 34.4245C470.294 34.2569 469.926 33.9988 469.496 33.698L470.07 32.8788ZM454.6 30.7C455.67 29.2734 457.004 28.5463 458.452 28.3169C459.881 28.0903 461.391 28.3536 462.832 28.8437C465.708 29.8214 468.469 31.7583 470.07 32.8788L469.496 33.698C467.878 32.5652 465.23 30.715 462.51 29.7904C461.154 29.3293 459.819 29.1127 458.608 29.3046C457.415 29.4937 456.312 30.0837 455.4 31.3L454.6 30.7ZM433.092 31.6021C436.607 28.9278 440.853 27.3912 444.872 27.1643C448.888 26.9376 452.726 28.0187 455.354 30.6464L454.647 31.3536C452.274 28.9813 448.747 27.9471 444.928 28.1627C441.113 28.3781 437.057 29.8416 433.697 32.3979L433.092 31.6021ZM427.621 26.5149C429.644 27.0207 431.237 27.8888 432.313 28.8727C433.371 29.8403 433.996 30.9894 433.892 32.0489L432.897 31.9511C432.957 31.3439 432.59 30.4818 431.638 29.6106C430.703 28.7555 429.266 27.957 427.379 27.4851L427.621 26.5149ZM417.53 31.1709C416.983 29.6656 417.194 28.4823 417.998 27.6393C418.754 26.846 419.953 26.4487 421.172 26.2561C423.629 25.8682 426.573 26.2529 427.621 26.5149L427.379 27.4851C426.427 27.2471 423.621 26.8818 421.328 27.2439C420.173 27.4263 419.246 27.779 418.721 28.3294C418.244 28.8302 418.017 29.5844 418.47 30.8291L417.53 31.1709ZM383.7 30.6C385.801 29.0243 397.999 20.946 418.215 30.5484L417.786 31.4516C398.001 22.054 386.199 29.9757 384.3 31.4L383.7 30.6ZM405.419 24.3959C399.27 24.4695 392.287 24.5553 384.325 31.3796L383.675 30.6204C391.918 23.5551 399.21 23.4701 405.407 23.396L405.419 24.3959Z" fill="#292929"/>
<path fill-rule="evenodd" clip-rule="evenodd" d="M256.374 58.0111C260.063 58.2326 261 61.7253 261 63.5C261 61.7253 261.937 58.2326 265.626 58.0111C265.757 58.0159 265.883 58.0117 266 58C265.872 58 265.747 58.0037 265.626 58.0111C263.881 57.9477 261 56.322 261 50C261 56.322 258.119 57.9477 256.374 58.0111ZM256 58C256.128 58 256.253 58.0037 256.374 58.0111C256.243 58.0159 256.117 58.0117 256 58Z" fill="#4D4D4D"/>
<path d="M266 58L266.05 58.4975L266 57.5V58ZM256 58V57.5L255.95 58.4975L256 58ZM261.5 63.5C261.5 62.5428 261.251 61.1292 260.495 59.9098C259.726 58.668 258.432 57.6337 256.404 57.512L256.345 58.5102C258.005 58.6099 259.024 59.4327 259.645 60.4363C260.281 61.4623 260.5 62.6825 260.5 63.5H261.5ZM261.5 63.5C261.5 62.6825 261.719 61.4623 262.355 60.4363C262.976 59.4327 263.995 58.6099 265.655 58.5102L265.596 57.512C263.568 57.6337 262.274 58.668 261.505 59.9098C260.749 61.1292 260.5 62.5428 260.5 63.5H261.5ZM265.607 58.5107C265.761 58.5163 265.909 58.5116 266.05 58.4975L265.95 57.5025C265.856 57.5119 265.754 57.5154 265.644 57.5114L265.607 58.5107ZM266 57.5C265.862 57.5 265.728 57.504 265.596 57.512L265.655 58.5102C265.767 58.5035 265.882 58.5 266 58.5V57.5ZM265.644 57.5114C264.915 57.4849 263.898 57.1302 263.053 56.0452C262.204 54.9556 261.5 53.0899 261.5 50H260.5C260.5 53.2321 261.236 55.3401 262.264 56.6597C263.296 57.984 264.591 58.4738 265.607 58.5107L265.644 57.5114ZM256.393 58.5107C257.409 58.4738 258.704 57.984 259.736 56.6597C260.764 55.3401 261.5 53.2321 261.5 50H260.5C260.5 53.0899 259.796 54.9556 258.947 56.0452C258.102 57.1302 257.085 57.4849 256.356 57.5114L256.393 58.5107ZM256 58.5C256.118 58.5 256.233 58.5035 256.345 58.5102L256.404 57.512C256.272 57.504 256.138 57.5 256 57.5V58.5ZM256.356 57.5114C256.246 57.5154 256.144 57.5119 256.05 57.5025L255.95 58.4975C256.091 58.5116 256.239 58.5163 256.393 58.5107L256.356 57.5114Z" fill="#292929"/>
<path fill-rule="evenodd" clip-rule="evenodd" d="M511.626 58.0111C507.937 58.2326 507 61.7253 507 63.5C507 61.7253 506.063 58.2326 502.374 58.0111C502.243 58.0159 502.117 58.0117 502 58C502.128 58 502.253 58.0037 502.374 58.0111C504.119 57.9477 507 56.322 507 50C507 56.322 509.881 57.9477 511.626 58.0111ZM512 58C511.872 58 511.747 58.0037 511.626 58.0111C511.757 58.0159 511.883 58.0117 512 58Z" fill="#4D4D4D"/>
<path d="M502 58L501.95 58.4975L502 57.5V58ZM512 58V57.5L512.05 58.4975L512 58ZM506.5 63.5C506.5 62.5428 506.749 61.1292 507.505 59.9098C508.274 58.668 509.568 57.6337 511.596 57.512L511.655 58.5102C509.995 58.6099 508.976 59.4327 508.355 60.4363C507.719 61.4623 507.5 62.6825 507.5 63.5H506.5ZM506.5 63.5C506.5 62.6825 506.281 61.4623 505.645 60.4363C505.024 59.4327 504.005 58.6099 502.345 58.5102L502.404 57.512C504.432 57.6337 505.726 58.668 506.495 59.9098C507.251 61.1292 507.5 62.5428 507.5 63.5H506.5ZM502.393 58.5107C502.239 58.5163 502.091 58.5116 501.95 58.4975L502.05 57.5025C502.144 57.5119 502.246 57.5154 502.356 57.5114L502.393 58.5107ZM502 57.5C502.138 57.5 502.272 57.504 502.404 57.512L502.345 58.5102C502.233 58.5035 502.118 58.5 502 58.5V57.5ZM502.356 57.5114C503.085 57.4849 504.102 57.1302 504.947 56.0452C505.796 54.9556 506.5 53.0899 506.5 50H507.5C507.5 53.2321 506.764 55.3401 505.736 56.6597C504.704 57.984 503.409 58.4738 502.393 58.5107L502.356 57.5114ZM511.607 58.5107C510.591 58.4738 509.296 57.984 508.264 56.6597C507.236 55.3401 506.5 53.2321 506.5 50H507.5C507.5 53.0899 508.204 54.9556 509.053 56.0452C509.898 57.1302 510.915 57.4849 511.644 57.5114L511.607 58.5107ZM512 58.5C511.882 58.5 511.767 58.5035 511.655 58.5102L511.596 57.512C511.728 57.504 511.862 57.5 512 57.5V58.5ZM511.644 57.5114C511.754 57.5154 511.856 57.5119 511.95 57.5025L512.05 58.4975C511.909 58.5116 511.761 58.5163 511.607 58.5107L511.644 57.5114Z" fill="#292929"/>
<path fill-rule="evenodd" clip-rule="evenodd" d="M379.5 6C367.5 12.5 374.5 22 374.5 22C374.5 22 363 26.5 363 12C363 12 355 14.5 350 21C357.626 15.916 359.591 18.379 362.1 21.5229C363.046 22.7078 364.068 23.9893 365.5 25C368.941 27.4289 370.989 27.3552 372.871 27.2875C375.639 27.1879 378.048 27.1012 384 35C389.952 27.1012 392.361 27.1879 395.129 27.2875C397.011 27.3552 399.059 27.4289 402.5 25C403.932 23.9893 404.954 22.7078 405.9 21.5229C408.409 18.379 410.374 15.916 418 21C413 14.5 405 12 405 12C405 26.5 393.5 22 393.5 22C393.5 22 400.5 12.5 388.5 6C398 11.8983 388 26.6441 384 24.678C380 26.6441 370 11.8983 379.5 6Z" fill="#4D4D4D"/>
<path d="M374.5 22L374.682 22.4656L375.289 22.2281L374.903 21.7034L374.5 22ZM379.5 6L379.764 6.42478L379.262 5.56035L379.5 6ZM363 12H363.5V11.3199L362.851 11.5228L363 12ZM350 21L349.604 20.6951L350.277 21.416L350 21ZM362.1 21.5229L362.491 21.2111L362.491 21.2111L362.1 21.5229ZM365.5 25L365.788 24.5915L365.788 24.5915L365.5 25ZM372.871 27.2875L372.889 27.7872L372.889 27.7872L372.871 27.2875ZM384 35L383.601 35.3009L384 35.8308L384.399 35.3009L384 35ZM395.129 27.2875L395.111 27.7872L395.111 27.7872L395.129 27.2875ZM402.5 25L402.212 24.5915L402.212 24.5915L402.5 25ZM405.9 21.5229L405.509 21.2111L405.509 21.2111L405.9 21.5229ZM418 21L417.723 21.416L418.396 20.6951L418 21ZM405 12L405.149 11.5228L404.5 11.3199V12H405ZM393.5 22L393.097 21.7034L392.711 22.2281L393.318 22.4656L393.5 22ZM388.5 6L388.738 5.56035L388.236 6.42478L388.5 6ZM384 24.678L384.221 24.2292L384 24.1208L383.779 24.2292L384 24.678ZM374.5 22C374.903 21.7034 374.903 21.7036 374.903 21.7037C374.903 21.7037 374.903 21.7039 374.903 21.7039C374.903 21.7039 374.903 21.7038 374.903 21.7035C374.902 21.7029 374.901 21.7018 374.9 21.7002C374.898 21.6968 374.894 21.6912 374.888 21.6835C374.877 21.6679 374.86 21.6435 374.838 21.6108C374.793 21.5453 374.728 21.4462 374.648 21.3167C374.488 21.0575 374.271 20.6773 374.046 20.2005C373.594 19.2441 373.117 17.9137 372.998 16.3984C372.88 14.8888 373.116 13.195 374.09 11.4903C375.066 9.78327 376.801 8.03053 379.738 6.43965L379.262 5.56035C376.199 7.21947 374.309 9.09173 373.222 10.9941C372.134 12.8987 371.87 14.7987 372.002 16.4766C372.133 18.1488 372.656 19.5996 373.142 20.6276C373.385 21.143 373.621 21.5558 373.797 21.8415C373.885 21.9844 373.959 22.0959 374.011 22.1727C374.037 22.2111 374.058 22.2409 374.072 22.2616C374.08 22.272 374.086 22.2802 374.09 22.286C374.092 22.2889 374.094 22.2913 374.095 22.293C374.096 22.2939 374.096 22.2947 374.096 22.2953C374.097 22.2956 374.097 22.2959 374.097 22.296C374.097 22.2963 374.097 22.2966 374.5 22ZM362.5 12C362.5 15.6858 363.23 18.231 364.381 19.957C365.539 21.6941 367.092 22.5551 368.634 22.9238C370.163 23.2895 371.676 23.1708 372.792 22.9686C373.353 22.8669 373.821 22.7429 374.15 22.6438C374.315 22.5942 374.445 22.5506 374.536 22.519C374.581 22.5032 374.616 22.4904 374.641 22.4812C374.653 22.4767 374.663 22.473 374.67 22.4704C374.673 22.4691 374.676 22.468 374.678 22.4672C374.679 22.4668 374.68 22.4665 374.681 22.4662C374.681 22.4661 374.681 22.4659 374.682 22.4659C374.682 22.4657 374.682 22.4656 374.5 22C374.318 21.5344 374.318 21.5343 374.318 21.5342C374.318 21.5342 374.318 21.5342 374.318 21.5342C374.318 21.5342 374.318 21.5343 374.318 21.5344C374.317 21.5347 374.316 21.5352 374.314 21.536C374.309 21.5376 374.303 21.5402 374.293 21.5437C374.274 21.5507 374.245 21.5613 374.206 21.575C374.128 21.6022 374.011 21.6412 373.862 21.6863C373.562 21.7766 373.131 21.8909 372.614 21.9846C371.574 22.173 370.212 22.273 368.866 21.9512C367.533 21.6324 366.211 20.8997 365.213 19.4023C364.207 17.894 363.5 15.5642 363.5 12H362.5ZM350.396 21.3049C352.839 18.129 356.025 15.9193 358.615 14.501C359.908 13.7931 361.046 13.2856 361.86 12.9555C362.266 12.7906 362.592 12.6701 362.814 12.5914C362.925 12.552 363.01 12.523 363.067 12.5041C363.095 12.4947 363.116 12.4877 363.13 12.4833C363.137 12.481 363.142 12.4794 363.145 12.4784C363.147 12.4779 363.148 12.4776 363.149 12.4774C363.149 12.4773 363.149 12.4772 363.149 12.4772C363.149 12.4772 363.149 12.4772 363.149 12.4772C363.149 12.4772 363.149 12.4772 363 12C362.851 11.5228 362.851 11.5228 362.851 11.5229C362.85 11.5229 362.85 11.523 362.85 11.523C362.85 11.5232 362.849 11.5233 362.848 11.5235C362.847 11.524 362.845 11.5245 362.843 11.5253C362.838 11.5267 362.832 11.5288 362.823 11.5315C362.807 11.5369 362.783 11.5448 362.751 11.5552C362.688 11.5761 362.597 11.6072 362.479 11.6489C362.244 11.7322 361.905 11.8579 361.484 12.0289C360.641 12.3707 359.467 12.8944 358.135 13.624C355.475 15.0807 352.161 17.371 349.604 20.6951L350.396 21.3049ZM362.491 21.2111C361.265 19.6744 360.038 18.1041 358.073 17.6869C356.103 17.2688 353.554 18.0296 349.723 20.584L350.277 21.416C354.072 18.8864 356.318 18.3367 357.865 18.6651C359.417 18.9945 360.427 20.2276 361.709 21.8348L362.491 21.2111ZM365.788 24.5915C364.423 23.6277 363.441 22.4018 362.491 21.2111L361.709 21.8348C362.65 23.0137 363.713 24.3509 365.212 25.4085L365.788 24.5915ZM372.853 26.7878C371.912 26.8217 370.99 26.853 369.885 26.5932C368.782 26.334 367.467 25.7768 365.788 24.5915L365.212 25.4085C366.973 26.6521 368.404 27.2725 369.656 27.5667C370.905 27.8604 371.948 27.821 372.889 27.7872L372.853 26.7878ZM384.399 34.6991C381.412 30.7349 379.271 28.7139 377.487 27.7087C375.666 26.6832 374.251 26.7375 372.853 26.7878L372.889 27.7872C374.259 27.7379 375.432 27.6991 376.996 28.58C378.596 29.4813 380.636 31.3664 383.601 35.3009L384.399 34.6991ZM384.399 35.3009C387.364 31.3664 389.404 29.4813 391.004 28.58C392.568 27.6991 393.741 27.7379 395.111 27.7872L395.147 26.7878C393.749 26.7375 392.334 26.6832 390.513 27.7087C388.729 28.7139 386.588 30.7349 383.601 34.6991L384.399 35.3009ZM395.111 27.7872C396.052 27.821 397.095 27.8604 398.344 27.5667C399.596 27.2725 401.027 26.6521 402.788 25.4085L402.212 24.5915C400.533 25.7768 399.218 26.334 398.115 26.5932C397.01 26.853 396.088 26.8217 395.147 26.7878L395.111 27.7872ZM402.788 25.4085C404.287 24.3509 405.35 23.0137 406.291 21.8348L405.509 21.2111C404.559 22.4018 403.577 23.6277 402.212 24.5915L402.788 25.4085ZM406.291 21.8348C407.573 20.2276 408.583 18.9945 410.135 18.6651C411.682 18.3367 413.928 18.8864 417.723 21.416L418.277 20.584C414.446 18.0296 411.897 17.2688 409.927 17.6869C407.962 18.1041 406.735 19.6744 405.509 21.2111L406.291 21.8348ZM418.396 20.6951C415.839 17.371 412.525 15.0807 409.865 13.624C408.533 12.8944 407.359 12.3707 406.516 12.0289C406.095 11.8579 405.756 11.7322 405.521 11.6489C405.403 11.6072 405.312 11.5761 405.249 11.5552C405.217 11.5448 405.193 11.5369 405.177 11.5315C405.168 11.5288 405.162 11.5267 405.157 11.5253C405.155 11.5245 405.153 11.524 405.152 11.5235C405.151 11.5233 405.15 11.5232 405.15 11.523C405.15 11.523 405.15 11.5229 405.149 11.5229C405.149 11.5228 405.149 11.5228 405 12C404.851 12.4772 404.851 12.4772 404.851 12.4772C404.851 12.4772 404.851 12.4772 404.851 12.4772C404.851 12.4772 404.851 12.4773 404.851 12.4774C404.852 12.4776 404.853 12.4779 404.855 12.4784C404.858 12.4794 404.863 12.481 404.87 12.4833C404.884 12.4877 404.905 12.4947 404.933 12.5041C404.99 12.523 405.075 12.552 405.186 12.5914C405.408 12.6701 405.734 12.7906 406.14 12.9555C406.954 13.2856 408.092 13.7931 409.385 14.501C411.975 15.9193 415.161 18.129 417.604 21.3049L418.396 20.6951ZM404.5 12C404.5 15.5642 403.793 17.894 402.787 19.4023C401.789 20.8997 400.467 21.6324 399.134 21.9512C397.788 22.273 396.426 22.173 395.386 21.9846C394.869 21.8909 394.438 21.7766 394.138 21.6863C393.989 21.6412 393.872 21.6022 393.794 21.575C393.755 21.5613 393.726 21.5507 393.707 21.5437C393.697 21.5402 393.691 21.5376 393.686 21.536C393.684 21.5352 393.683 21.5347 393.682 21.5344C393.682 21.5343 393.682 21.5342 393.682 21.5342C393.682 21.5342 393.682 21.5342 393.682 21.5342C393.682 21.5343 393.682 21.5344 393.5 22C393.318 22.4656 393.318 22.4657 393.318 22.4659C393.319 22.4659 393.319 22.4661 393.319 22.4662C393.32 22.4665 393.321 22.4668 393.322 22.4672C393.324 22.468 393.327 22.4691 393.33 22.4704C393.337 22.473 393.347 22.4767 393.359 22.4812C393.384 22.4904 393.419 22.5032 393.464 22.519C393.555 22.5506 393.685 22.5942 393.85 22.6438C394.179 22.7429 394.647 22.8669 395.208 22.9686C396.324 23.1708 397.837 23.2895 399.366 22.9238C400.908 22.5551 402.461 21.6941 403.619 19.957C404.77 18.231 405.5 15.6858 405.5 12H404.5ZM393.5 22C393.903 22.2966 393.903 22.2963 393.903 22.296C393.903 22.2959 393.903 22.2956 393.904 22.2953C393.904 22.2947 393.904 22.2939 393.905 22.293C393.906 22.2913 393.908 22.2889 393.91 22.286C393.914 22.2802 393.92 22.272 393.928 22.2616C393.942 22.2409 393.963 22.2111 393.989 22.1727C394.041 22.0959 394.115 21.9844 394.203 21.8415C394.379 21.5558 394.615 21.143 394.858 20.6276C395.344 19.5996 395.867 18.1488 395.998 16.4766C396.13 14.7987 395.866 12.8987 394.778 10.9941C393.691 9.09173 391.801 7.21947 388.738 5.56035L388.262 6.43965C391.199 8.03053 392.934 9.78327 393.91 11.4903C394.884 13.195 395.12 14.8888 395.002 16.3984C394.883 17.9137 394.406 19.2441 393.954 20.2005C393.729 20.6773 393.512 21.0575 393.352 21.3167C393.272 21.4462 393.207 21.5453 393.162 21.6108C393.14 21.6435 393.123 21.6679 393.112 21.6835C393.106 21.6912 393.102 21.6968 393.1 21.7002C393.099 21.7018 393.098 21.7029 393.097 21.7035C393.097 21.7038 393.097 21.7039 393.097 21.7039C393.097 21.7039 393.097 21.7037 393.097 21.7037C393.097 21.7036 393.097 21.7034 393.5 22ZM388.236 6.42478C390.483 7.81982 391.559 9.71772 391.873 11.7594C392.19 13.8205 391.735 16.0578 390.854 18.0891C389.973 20.1199 388.685 21.9006 387.395 23.0443C386.749 23.6168 386.122 24.0124 385.564 24.2107C385.008 24.4084 384.562 24.397 384.221 24.2292L383.779 25.1267C384.438 25.4504 385.18 25.4084 385.899 25.153C386.616 24.8981 387.353 24.4182 388.058 23.7926C389.471 22.5401 390.84 20.6343 391.771 18.4871C392.702 16.3405 393.216 13.9083 392.861 11.6072C392.504 9.28652 391.267 7.12933 388.764 5.57522L388.236 6.42478ZM379.236 5.57522C376.733 7.12933 375.496 9.28652 375.139 11.6072C374.784 13.9083 375.298 16.3405 376.229 18.4871C377.16 20.6343 378.529 22.5401 379.942 23.7926C380.648 24.4182 381.384 24.8981 382.101 25.153C382.82 25.4084 383.562 25.4504 384.221 25.1267L383.779 24.2292C383.438 24.397 382.992 24.4084 382.436 24.2107C381.878 24.0124 381.251 23.6168 380.605 23.0443C379.315 21.9006 378.027 20.1199 377.146 18.0891C376.265 16.0578 375.81 13.8205 376.127 11.7594C376.441 9.71772 377.517 7.81982 379.764 6.42478L379.236 5.57522Z" fill="#292929"/>
<path fill-rule="evenodd" clip-rule="evenodd" d="M384 1C383.2 8.43203 376.433 21.016 366.83 11.322C366.907 11.9855 367.009 12.6394 367.11 13.2833C367.84 17.9708 368.489 22.1363 359 25.7196C359.292 25.7196 359.7 25.5393 360.197 25.3198C362.2 24.4343 365.648 22.9104 368.793 30C368.76 29.5753 368.641 29.021 368.503 28.3824C367.959 25.8625 367.133 22.0308 370.264 19.678C374.189 16.1032 384 15.7907 384 25C384 15.7907 393.811 16.1032 397.736 19.678C400.867 22.0308 400.041 25.8625 399.497 28.3824C399.359 29.021 399.24 29.5753 399.207 30C402.352 22.9104 405.8 24.4343 407.803 25.3198C408.3 25.5393 408.708 25.7196 409 25.7196C399.511 22.1363 400.16 17.9708 400.89 13.2833C400.991 12.6394 401.093 11.9855 401.17 11.322C391.567 21.016 384.8 8.43203 384 1Z" fill="#4D4D4D"/>
<path d="M366.83 11.322L367.185 10.9702L366.166 9.9409L366.333 11.3799L366.83 11.322ZM384 1L384.497 0.946474H383.503L384 1ZM367.11 13.2833L366.616 13.3603L366.616 13.3603L367.11 13.2833ZM359 25.7196L358.823 25.2518L359 26.2196V25.7196ZM360.197 25.3198L359.995 24.8625L359.995 24.8625L360.197 25.3198ZM368.793 30L368.335 30.2027L369.291 29.962L368.793 30ZM368.503 28.3824L368.992 28.277L368.992 28.277L368.503 28.3824ZM370.264 19.678L370.565 20.0777L370.583 20.0635L370.601 20.0476L370.264 19.678ZM397.736 19.678L397.399 20.0476L397.417 20.0635L397.435 20.0777L397.736 19.678ZM399.497 28.3824L399.008 28.277L399.008 28.277L399.497 28.3824ZM399.207 30L398.709 29.962L399.665 30.2027L399.207 30ZM407.803 25.3198L408.005 24.8625L408.005 24.8625L407.803 25.3198ZM409 25.7196V26.2196L409.177 25.2518L409 25.7196ZM400.89 13.2833L401.384 13.3603L401.384 13.3603L400.89 13.2833ZM401.17 11.322L401.667 11.3799L401.834 9.9409L400.815 10.9702L401.17 11.322ZM366.475 11.6739C368.931 14.1531 371.268 15.2706 373.435 15.3437C375.605 15.4169 377.5 14.4388 379.062 12.9445C382.162 9.97731 384.088 4.84986 384.497 1.05353L383.503 0.946474C383.111 4.58217 381.254 9.46271 378.37 12.222C376.94 13.591 375.293 14.4058 373.468 14.3443C371.64 14.2826 369.531 13.3379 367.185 10.9702L366.475 11.6739ZM367.604 13.2064C367.503 12.5609 367.403 11.9165 367.327 11.2642L366.333 11.3799C366.412 12.0546 366.515 12.7178 366.616 13.3603L367.604 13.2064ZM359.177 26.1873C363.969 24.3775 366.33 22.3751 367.343 20.1205C368.347 17.8869 367.964 15.5194 367.604 13.2064L366.616 13.3603C366.986 15.7347 367.292 17.7938 366.431 19.7106C365.579 21.6064 363.52 23.4784 358.823 25.2518L359.177 26.1873ZM359.995 24.8625C359.742 24.9743 359.533 25.0664 359.352 25.1318C359.165 25.1995 359.056 25.2196 359 25.2196V26.2196C359.236 26.2196 359.478 26.1495 359.692 26.0722C359.912 25.9926 360.155 25.8848 360.399 25.7771L359.995 24.8625ZM369.25 29.7973C367.651 26.1938 365.914 24.6365 364.193 24.1856C362.496 23.7408 360.978 24.4279 359.995 24.8625L360.399 25.7771C361.419 25.3262 362.626 24.8086 363.94 25.1529C365.23 25.4911 366.789 26.7165 368.335 30.2027L369.25 29.7973ZM368.014 28.4878C368.155 29.14 368.265 29.6554 368.294 30.038L369.291 29.962C369.256 29.4953 369.126 28.902 368.992 28.277L368.014 28.4878ZM369.964 19.2782C368.256 20.5614 367.632 22.2566 367.507 23.9304C367.384 25.5807 367.745 27.2383 368.014 28.4878L368.992 28.277C368.718 27.0067 368.394 25.4884 368.504 24.0048C368.613 22.5445 369.141 21.1474 370.565 20.0777L369.964 19.2782ZM384.5 25C384.5 22.6068 383.861 20.7815 382.794 19.4657C381.728 18.1513 380.27 17.3883 378.708 17.0559C375.612 16.3973 372.013 17.4091 369.928 19.3083L370.601 20.0476C372.44 18.3721 375.709 17.4403 378.5 18.034C379.881 18.3279 381.121 18.9901 382.017 20.0955C382.913 21.1995 383.5 22.7886 383.5 25H384.5ZM384.5 25C384.5 22.7886 385.087 21.1995 385.983 20.0955C386.879 18.9901 388.119 18.3279 389.5 18.034C392.291 17.4403 395.56 18.3721 397.399 20.0476L398.072 19.3083C395.987 17.4091 392.388 16.3973 389.292 17.0559C387.73 17.3883 386.272 18.1513 385.206 19.4657C384.139 20.7815 383.5 22.6068 383.5 25H384.5ZM397.435 20.0777C398.859 21.1474 399.387 22.5445 399.496 24.0047C399.606 25.4884 399.282 27.0066 399.008 28.277L399.986 28.4878C400.255 27.2383 400.616 25.5807 400.493 23.9304C400.368 22.2566 399.744 20.5614 398.036 19.2782L397.435 20.0777ZM399.008 28.277C398.874 28.902 398.744 29.4953 398.709 29.962L399.706 30.038C399.735 29.6554 399.845 29.14 399.986 28.4878L399.008 28.277ZM399.665 30.2027C401.211 26.7165 402.77 25.4911 404.06 25.1529C405.374 24.8086 406.581 25.3262 407.601 25.7771L408.005 24.8625C407.022 24.4279 405.504 23.7408 403.807 24.1856C402.086 24.6365 400.349 26.1938 398.75 29.7973L399.665 30.2027ZM407.601 25.7771C407.845 25.8848 408.088 25.9926 408.308 26.0722C408.522 26.1495 408.764 26.2196 409 26.2196V25.2196C408.944 25.2196 408.835 25.1995 408.648 25.1318C408.467 25.0664 408.258 24.9743 408.005 24.8625L407.601 25.7771ZM409.177 25.2518C404.48 23.4784 402.421 21.6064 401.569 19.7106C400.708 17.7938 401.014 15.7347 401.384 13.3603L400.396 13.2064C400.036 15.5194 399.653 17.8869 400.657 20.1205C401.67 22.3751 404.031 24.3775 408.823 26.1873L409.177 25.2518ZM401.384 13.3603C401.485 12.7178 401.588 12.0546 401.667 11.3799L400.673 11.2642C400.597 11.9165 400.497 12.5609 400.396 13.2064L401.384 13.3603ZM400.815 10.9702C398.469 13.3379 396.36 14.2826 394.532 14.3443C392.707 14.4058 391.06 13.591 389.63 12.222C386.746 9.46271 384.889 4.58217 384.497 0.946474L383.503 1.05353C383.912 4.84986 385.838 9.97731 388.938 12.9445C390.5 14.4388 392.395 15.4169 394.565 15.3437C396.732 15.2706 399.069 14.1531 401.525 11.6739L400.815 10.9702Z" fill="#292929"/>
<path fill-rule="evenodd" clip-rule="evenodd" d="M384 22C383.259 22.1667 381.422 23.3 380 26.5C381.333 26.5 384 28.1 384 34.5C384 28.1 386.667 26.5 388 26.5C386.578 23.3 384.741 22.1667 384 22Z" fill="#4D4D4D"/>
<path d="M380 26.5L379.543 26.2969L379.231 27H380V26.5ZM384 22L384.11 21.5122L384 21.4875L383.89 21.5122L384 22ZM388 26.5V27H388.769L388.457 26.2969L388 26.5ZM380.457 26.7031C381.841 23.5881 383.577 22.6076 384.11 22.4878L383.89 21.5122C382.941 21.7257 381.003 23.0119 379.543 26.2969L380.457 26.7031ZM384.5 34.5C384.5 28.0061 381.762 26 380 26V27C380.905 27 383.5 28.1939 383.5 34.5H384.5ZM384.5 34.5C384.5 28.1939 387.095 27 388 27V26C386.238 26 383.5 28.0061 383.5 34.5H384.5ZM388.457 26.2969C386.997 23.0119 385.059 21.7257 384.11 21.5122L383.89 22.4878C384.423 22.6076 386.159 23.5881 387.543 26.7031L388.457 26.2969Z" fill="#292929"/>
<path d="M372.341 86.0141C377.971 87.3044 382.806 83.9874 384.52 82.1677C374.656 87.6095 371.662 83.0865 371.398 80.1447C370.215 86.0593 365.552 86.6303 363.5 86.0141C374.695 92.1104 367.685 93.2868 362.65 93.2755C368.394 95.9343 375.019 92.4877 377.614 90.4321C371.57 91.3518 371.58 87.87 372.341 86.0141Z" fill="#D9D9D9" stroke="#808080"/>
<path d="M396.659 86.0141C391.029 87.3044 386.194 83.9874 384.48 82.1677C394.344 87.6095 397.338 83.0865 397.602 80.1447C398.785 86.0593 402.948 86.6163 405 86C393.805 92.0964 401.315 93.2868 406.35 93.2755C400.606 95.9343 393.981 92.4877 391.386 90.4321C397.43 91.3518 397.42 87.87 396.659 86.0141Z" fill="#D9D9D9" stroke="#808080"/>
<path fill-rule="evenodd" clip-rule="evenodd" d="M384.5 89.5C383.759 89.3333 381.922 88.2 380.5 85C381.833 85 384.5 83.4 384.5 77C384.5 83.4 387.167 85 388.5 85C387.078 88.2 385.241 89.3333 384.5 89.5Z" fill="#B3B3B3"/>
<path d="M380.5 85L380.043 85.2031L379.731 84.5L380.5 84.5L380.5 85ZM384.5 89.5L384.61 89.9878L384.5 90.0125L384.39 89.9878L384.5 89.5ZM388.5 85L388.5 84.5L389.269 84.5L388.957 85.2031L388.5 85ZM380.957 84.7969C382.341 87.9119 384.077 88.8924 384.61 89.0122L384.39 89.9878C383.441 89.7743 381.503 88.4881 380.043 85.2031L380.957 84.7969ZM385 77C385 83.4939 382.262 85.5 380.5 85.5L380.5 84.5C381.405 84.5 384 83.3061 384 77L385 77ZM385 77C385 83.3061 387.595 84.5 388.5 84.5L388.5 85.5C386.738 85.5 384 83.4939 384 77L385 77ZM388.957 85.2031C387.497 88.4881 385.559 89.7743 384.61 89.9878L384.39 89.0122C384.923 88.8924 386.659 87.9119 388.043 84.7969L388.957 85.2031Z" fill="#808080"/>
<path d="M440.5 81.5C432.1 86.3 412.5 84.5 405 86C417.5 84 431.333 89.5 431.5 91.5C431.5 90.5 431.5 88 436.5 87C442.331 85.8338 446 89.3333 447 91.5C452.2 90.7 461 87.6667 466.5 86C450.9 86 443.833 82.8333 440.5 81.5Z" fill="#D9D9D9" stroke="#808080"/>
<path d="M466.5 86C468.122 86.1758 469.92 86.2981 471.83 86.3421C486.82 87.3859 488.438 88.389 492.5 92C493.5 84.5 502 80.5 521.5 80.5C508 78.5 507.333 70.5 507 63.5C507 82.5679 486.219 86.6735 471.83 86.3421C470.215 86.2296 468.445 86.1167 466.5 86Z" fill="#D9D9D9"/>
<path d="M466.5 86C480.333 87.5 507 85.1 507 63.5C507.333 70.5 508 78.5 521.5 80.5C502 80.5 493.5 84.5 492.5 92C488 88 486.5 87.2 466.5 86Z" stroke="#808080"/>
<path d="M328 81.5C336.4 86.3 356 84.5 363.5 86C351 84 337.167 89.5 337 91.5C337 90.5 337 88 332 87C326.169 85.8338 322.5 89.3333 321.5 91.5C316.3 90.7 307.5 87.6667 302 86C317.6 86 324.667 82.8333 328 81.5Z" fill="#D9D9D9" stroke="#808080"/>
<path fill-rule="evenodd" clip-rule="evenodd" d="M220 86C221.342 86.1455 222.81 86.2543 224.366 86.3125C222.993 86.1971 221.539 86.0923 220 86ZM260.896 65.7641C259.242 83.3051 238.27 86.832 224.366 86.3125C240.84 87.6971 245.692 90.6154 246 92C248.297 88.9683 250.488 86.7489 252.598 85.2014C255.346 83.4741 258.12 82.3399 261 82.2651C263.88 82.3399 266.654 83.4741 269.402 85.2014C271.512 86.7489 273.703 88.9683 276 92C276.308 90.6154 281.16 87.6971 297.634 86.3125C299.19 86.2543 300.658 86.1455 302 86C300.461 86.0923 299.007 86.1971 297.634 86.3125C283.73 86.832 262.758 83.3051 261.104 65.7641C261.082 65.3373 261.063 64.9032 261.043 64.4582C261.03 64.1445 261.015 63.8255 261 63.5C260.985 63.8255 260.97 64.1445 260.957 64.4582C260.937 64.9032 260.918 65.3374 260.896 65.7641Z" fill="#D9D9D9"/>
<path d="M220 86L220.03 85.5009L219.946 86.4971L220 86ZM260.896 65.7641L261.394 65.8111L261.395 65.8006L261.395 65.79L260.896 65.7641ZM246 92L245.512 92.1085L245.746 93.163L246.399 92.3019L246 92ZM252.598 85.2014L252.332 84.7781L252.317 84.7876L252.302 84.7982L252.598 85.2014ZM261 82.2651L261.013 81.7652L261 81.7649L260.987 81.7652L261 82.2651ZM269.402 85.2014L269.698 84.7982L269.683 84.7876L269.668 84.7781L269.402 85.2014ZM276 92L275.601 92.3019L276.254 93.163L276.488 92.1085L276 92ZM302 86L302.054 86.4971L301.97 85.5009L302 86ZM261.104 65.7641L260.605 65.79L260.605 65.8005L260.606 65.8111L261.104 65.7641ZM261.043 64.4582L260.544 64.4803L260.544 64.4803L261.043 64.4582ZM261 63.5L261.499 63.4762H260.501L261 63.5ZM260.957 64.4582L261.456 64.4803L261.456 64.4803L260.957 64.4582ZM219.946 86.4971C221.3 86.6439 222.78 86.7536 224.347 86.8121L224.384 85.8128C222.84 85.7551 221.384 85.6471 220.054 85.5029L219.946 86.4971ZM224.408 85.8142C223.03 85.6985 221.572 85.5934 220.03 85.5009L219.97 86.4991C221.505 86.5912 222.955 86.6957 224.324 86.8107L224.408 85.8142ZM260.398 65.7172C259.594 74.2465 254.11 79.3862 247.032 82.3498C239.937 85.3203 231.298 86.0712 224.384 85.8128L224.347 86.8121C231.337 87.0733 240.137 86.3204 247.418 83.2722C254.715 80.217 260.544 74.8228 261.394 65.8111L260.398 65.7172ZM224.324 86.8107C232.541 87.5013 237.831 88.5724 241.091 89.6318C242.722 90.1618 243.828 90.6834 244.535 91.1414C245.269 91.6177 245.48 91.9659 245.512 92.1085L246.488 91.8915C246.366 91.3418 245.855 90.8059 245.079 90.3024C244.274 89.7805 243.079 89.2264 241.4 88.6807C238.039 87.5886 232.665 86.5083 224.408 85.8142L224.324 86.8107ZM246.399 92.3019C248.675 89.2969 250.833 87.1159 252.894 85.6046L252.302 84.7982C250.143 86.382 247.918 88.6397 245.601 91.6981L246.399 92.3019ZM260.987 81.7652C257.983 81.8433 255.12 83.0256 252.332 84.7781L252.864 85.6248C255.572 83.9226 258.258 82.8365 261.013 82.7649L260.987 81.7652ZM260.987 82.7649C263.742 82.8365 266.428 83.9226 269.136 85.6248L269.668 84.7781C266.88 83.0256 264.017 81.8433 261.013 81.7652L260.987 82.7649ZM276.399 91.6981C274.082 88.6397 271.857 86.382 269.698 84.7982L269.106 85.6046C271.167 87.1159 273.325 89.2969 275.601 92.3019L276.399 91.6981ZM297.592 85.8142C289.335 86.5083 283.961 87.5886 280.6 88.6807C278.921 89.2264 277.726 89.7805 276.921 90.3024C276.145 90.8059 275.634 91.3418 275.512 91.8915L276.488 92.1085C276.52 91.9659 276.731 91.6177 277.465 91.1414C278.172 90.6834 279.278 90.1618 280.909 89.6318C284.169 88.5724 289.459 87.5013 297.676 86.8107L297.592 85.8142ZM301.946 85.5029C300.616 85.6471 299.16 85.7551 297.616 85.8128L297.653 86.8121C299.22 86.7536 300.7 86.6439 302.054 86.4971L301.946 85.5029ZM297.676 86.8107C299.045 86.6957 300.495 86.5912 302.03 86.4991L301.97 85.5009C300.428 85.5934 298.97 85.6985 297.592 85.8142L297.676 86.8107ZM260.606 65.8111C261.456 74.8228 267.285 80.217 274.582 83.2722C281.863 86.3204 290.663 87.0733 297.653 86.8121L297.616 85.8128C290.702 86.0712 282.063 85.3203 274.968 82.3498C267.89 79.3861 262.406 74.2464 261.602 65.7172L260.606 65.8111ZM261.604 65.7383C261.582 65.3137 261.563 64.8815 261.543 64.4362L260.544 64.4803C260.563 64.9248 260.583 65.361 260.605 65.79L261.604 65.7383ZM261.543 64.4362C261.529 64.1227 261.515 63.8028 261.499 63.4762L260.501 63.5238C260.516 63.8483 260.53 64.1664 260.544 64.4803L261.543 64.4362ZM261.456 64.4803C261.47 64.1664 261.484 63.8483 261.499 63.5238L260.501 63.4762C260.485 63.8028 260.471 64.1227 260.457 64.4362L261.456 64.4803ZM261.395 65.79C261.417 65.361 261.437 64.9248 261.456 64.4803L260.457 64.4362C260.437 64.8815 260.418 65.3138 260.396 65.7383L261.395 65.79Z" fill="#808080"/>
<rect x="15" y="27" width="246" height="59" rx="20" fill="#4C4C4C"/>
<path fill-rule="evenodd" clip-rule="evenodd" d="M116.587 23.896C109.427 23.8104 103.565 23.7402 98.9999 13C101.5 27.5 74.9999 26.8007 66.9999 21.5C62.8999 29 35.8383 25.3 43.7522 18.5C15 18.5 15 42.4999 15 49.9999V50C15.6663 40.5 22 24.5 32.4999 38C28.5 22.5 53.5462 25.2 51.172 34C51.4271 33.8413 51.7819 33.5928 52.2168 33.2884C55.4353 31.0351 63.0356 25.7142 66.9999 31C71.9999 26 81.7309 26.7694 88.6053 32C88.4416 30.3333 90.5891 27.9777 94.4999 27C96.4999 26.5 106 25.5 104 31C124 21.5 136 29.5 138 31C129.898 24.0552 122.76 23.9698 116.587 23.896Z" fill="#D9D9D9"/>
<path d="M98.9999 13L99.4601 12.8044L98.5072 13.085L98.9999 13ZM116.587 23.896L116.581 24.3959L116.581 24.3959L116.587 23.896ZM66.9999 21.5L67.2761 21.0832L66.8223 20.7825L66.5612 21.2602L66.9999 21.5ZM43.7522 18.5L44.0781 18.8792L45.1014 18H43.7522V18.5ZM15 50H14.5L15.4988 50.035L15 50ZM32.4999 38L32.1052 38.307L32.9841 37.8751L32.4999 38ZM51.172 34L50.6892 33.8698L50.3587 35.0948L51.4361 34.4245L51.172 34ZM52.2168 33.2884L51.9301 32.8788L51.9301 32.8788L52.2168 33.2884ZM66.9999 31L66.5999 31.3L66.9458 31.7612L67.3535 31.3536L66.9999 31ZM88.6053 32L88.3025 32.3979L89.215 33.0922L89.1029 31.9511L88.6053 32ZM94.4999 27L94.6212 27.4851L94.6212 27.4851L94.4999 27ZM104 31L103.53 30.8291L103.113 31.9746L104.214 31.4516L104 31ZM138 31L137.7 31.4L138.325 30.6204L138 31ZM98.5398 13.1956C100.853 18.638 103.531 21.4571 106.608 22.8964C109.655 24.321 113.024 24.3534 116.581 24.3959L116.593 23.396C112.989 23.3529 109.848 23.3074 107.032 21.9905C104.247 20.6883 101.712 18.1022 99.4601 12.8044L98.5398 13.1956ZM66.7237 21.9168C68.8079 23.2978 72.0433 24.351 75.6457 24.9406C79.2586 25.532 83.2928 25.6657 87.0035 25.1709C90.7042 24.6774 94.1396 23.5512 96.5006 21.5741C98.8939 19.57 100.148 16.717 99.4927 12.915L98.5072 13.085C99.1017 16.533 97.981 19.0301 95.8586 20.8074C93.704 22.6117 90.4831 23.698 86.8713 24.1797C83.2696 24.6599 79.335 24.5312 75.8073 23.9538C72.2691 23.3746 69.1919 22.3526 67.2761 21.0832L66.7237 21.9168ZM43.4264 18.1208C42.3875 19.0134 41.8229 19.9387 41.8109 20.8825C41.7987 21.8357 42.3508 22.6401 43.1578 23.2832C44.756 24.5568 47.6384 25.4364 50.8048 25.8581C53.9935 26.2828 57.5699 26.2561 60.6235 25.6417C63.6431 25.0342 66.3012 23.8206 67.4386 21.7398L66.5612 21.2602C65.6487 22.9294 63.3865 24.0658 60.4263 24.6614C57.5 25.2501 54.0368 25.2797 50.9368 24.8669C47.8146 24.4511 45.1592 23.5994 43.781 22.5012C43.0998 21.9583 42.8041 21.4167 42.8108 20.8953C42.8176 20.3644 43.1385 19.6866 44.0781 18.8792L43.4264 18.1208ZM15.5 49.9999C15.5 46.2436 15.5065 38.4841 19.038 31.6674C20.7981 28.27 23.4321 25.1114 27.3825 22.7987C31.3345 20.4849 36.6344 19 43.7522 19V18C36.494 18 31.0117 19.5151 26.8772 21.9357C22.741 24.3573 19.984 27.6674 18.1501 31.2074C14.4935 38.2657 14.5 46.2562 14.5 49.9999H15.5ZM15.5 50V49.9999H14.5V50H15.5ZM32.8946 37.693C30.2383 34.2778 27.7665 32.6209 25.4893 32.3473C23.1812 32.07 21.233 33.2284 19.6816 35.0509C18.1332 36.87 16.9254 39.4069 16.0633 42.0645C15.1994 44.7277 14.6707 47.549 14.5012 49.965L15.4988 50.035C15.6625 47.701 16.1754 44.9598 17.0145 42.373C17.8555 39.7806 19.0123 37.38 20.4431 35.6991C21.871 34.0216 23.5165 33.1175 25.37 33.3402C27.2542 33.5666 29.5115 34.9722 32.1052 38.307L32.8946 37.693ZM51.6547 34.1302C52.3253 31.6448 51.0236 29.6297 48.963 28.3116C46.9107 26.9988 44.0237 26.3041 41.2114 26.3877C38.4018 26.4713 35.5761 27.3357 33.7062 29.249C31.8098 31.1894 30.9821 34.1194 32.0158 38.1249L32.9841 37.8751C32.0178 34.1306 32.8209 31.5856 34.4214 29.9479C36.0486 28.283 38.586 27.4662 41.2412 27.3873C43.8937 27.3084 46.573 27.9699 48.4242 29.154C50.267 30.3328 51.2058 31.9552 50.6892 33.8698L51.6547 34.1302ZM51.9301 32.8788C51.4899 33.1869 51.1485 33.4257 50.9078 33.5755L51.4361 34.4245C51.7056 34.2569 52.074 33.9988 52.5036 33.698L51.9301 32.8788ZM67.3999 30.7C66.33 29.2734 64.9957 28.5463 63.5485 28.3169C62.1185 28.0903 60.6093 28.3536 59.1677 28.8437C56.2917 29.8214 53.5305 31.7583 51.9301 32.8788L52.5036 33.698C54.1216 32.5652 56.7698 30.715 59.4896 29.7904C60.846 29.3293 62.1813 29.1127 63.3919 29.3046C64.5853 29.4937 65.6877 30.0837 66.5999 31.3L67.3999 30.7ZM88.9081 31.6021C85.3934 28.9278 81.1469 27.3912 77.1279 27.1643C73.1119 26.9376 69.2741 28.0187 66.6464 30.6464L67.3535 31.3536C69.7257 28.9813 73.2534 27.9471 77.0715 28.1627C80.8866 28.3781 84.9428 29.8416 88.3025 32.3979L88.9081 31.6021ZM94.3787 26.5149C92.3556 27.0207 90.7629 27.8888 89.6872 28.8727C88.6293 29.8403 88.0037 30.9894 88.1077 32.0489L89.1029 31.9511C89.0433 31.3439 89.4096 30.4818 90.3622 29.6106C91.297 28.7555 92.7335 27.957 94.6212 27.4851L94.3787 26.5149ZM104.47 31.1709C105.017 29.6656 104.806 28.4823 104.002 27.6393C103.246 26.846 102.047 26.4487 100.828 26.2561C98.3713 25.8682 95.4269 26.2529 94.3787 26.5149L94.6212 27.4851C95.573 27.2471 98.3786 26.8818 100.672 27.2439C101.827 27.4263 102.754 27.779 103.279 28.3294C103.756 28.8302 103.983 29.5844 103.53 30.8291L104.47 31.1709ZM138.3 30.6C136.199 29.0243 124.001 20.946 103.785 30.5484L104.214 31.4516C123.999 22.054 135.801 29.9757 137.7 31.4L138.3 30.6ZM116.581 24.3959C122.73 24.4695 129.713 24.5553 137.675 31.3796L138.325 30.6204C130.082 23.5551 122.79 23.4701 116.593 23.396L116.581 24.3959Z" fill="#808080"/>
<path fill-rule="evenodd" clip-rule="evenodd" d="M159.413 23.896C166.573 23.8104 172.435 23.7402 177 13C174.5 27.5 201 26.8007 209 21.5C213.1 29 240.162 25.3 232.248 18.5C261 18.5 261 42.4999 261 49.9999V50C260.334 40.5 254 24.5 243.5 38C247.5 22.5 222.454 25.2 224.828 34C224.573 33.8413 224.218 33.5928 223.783 33.2884C220.565 31.0351 212.964 25.7142 209 31C204 26 194.269 26.7694 187.395 32C187.558 30.3333 185.411 27.9777 181.5 27C179.5 26.5 170 25.5 172 31C152 21.5 140 29.5 138 31C146.102 24.0552 153.24 23.9698 159.413 23.896Z" fill="#D9D9D9"/>
<path d="M177 13L176.54 12.8044L177.493 13.085L177 13ZM159.413 23.896L159.419 24.3959L159.419 24.3959L159.413 23.896ZM209 21.5L208.724 21.0832L209.178 20.7825L209.439 21.2602L209 21.5ZM232.248 18.5L231.922 18.8792L230.899 18H232.248V18.5ZM261 50H261.5L260.501 50.035L261 50ZM243.5 38L243.895 38.307L243.016 37.8751L243.5 38ZM224.828 34L225.311 33.8698L225.641 35.0948L224.564 34.4245L224.828 34ZM223.783 33.2884L224.07 32.8788L224.07 32.8788L223.783 33.2884ZM209 31L209.4 31.3L209.054 31.7612L208.647 31.3536L209 31ZM187.395 32L187.697 32.3979L186.785 33.0922L186.897 31.9511L187.395 32ZM181.5 27L181.379 27.4851L181.379 27.4851L181.5 27ZM172 31L172.47 30.8291L172.887 31.9746L171.786 31.4516L172 31ZM138 31L138.3 31.4L137.675 30.6204L138 31ZM177.46 13.1956C175.147 18.638 172.469 21.4571 169.392 22.8964C166.345 24.321 162.976 24.3534 159.419 24.3959L159.407 23.396C163.011 23.3529 166.152 23.3074 168.968 21.9905C171.753 20.6883 174.288 18.1022 176.54 12.8044L177.46 13.1956ZM209.276 21.9168C207.192 23.2978 203.957 24.351 200.354 24.9406C196.741 25.532 192.707 25.6657 188.996 25.1709C185.296 24.6774 181.86 23.5512 179.499 21.5741C177.106 19.57 175.852 16.717 176.507 12.915L177.493 13.085C176.898 16.533 178.019 19.0301 180.141 20.8074C182.296 22.6117 185.517 23.698 189.129 24.1797C192.73 24.6599 196.665 24.5312 200.193 23.9538C203.731 23.3746 206.808 22.3526 208.724 21.0832L209.276 21.9168ZM232.574 18.1208C233.612 19.0134 234.177 19.9387 234.189 20.8825C234.201 21.8357 233.649 22.6401 232.842 23.2832C231.244 24.5568 228.362 25.4364 225.195 25.8581C222.006 26.2828 218.43 26.2561 215.376 25.6417C212.357 25.0342 209.699 23.8206 208.561 21.7398L209.439 21.2602C210.351 22.9294 212.614 24.0658 215.574 24.6614C218.5 25.2501 221.963 25.2797 225.063 24.8669C228.185 24.4511 230.841 23.5994 232.219 22.5012C232.9 21.9583 233.196 21.4167 233.189 20.8953C233.182 20.3644 232.862 19.6866 231.922 18.8792L232.574 18.1208ZM260.5 49.9999C260.5 46.2436 260.493 38.4841 256.962 31.6674C255.202 28.27 252.568 25.1114 248.618 22.7987C244.665 20.4849 239.366 19 232.248 19V18C239.506 18 244.988 19.5151 249.123 21.9357C253.259 24.3573 256.016 27.6674 257.85 31.2074C261.507 38.2657 261.5 46.2562 261.5 49.9999H260.5ZM260.5 50V49.9999H261.5V50H260.5ZM243.105 37.693C245.762 34.2778 248.233 32.6209 250.511 32.3473C252.819 32.07 254.767 33.2284 256.318 35.0509C257.867 36.87 259.075 39.4069 259.937 42.0645C260.801 44.7277 261.329 47.549 261.499 49.965L260.501 50.035C260.338 47.701 259.825 44.9598 258.985 42.373C258.145 39.7806 256.988 37.38 255.557 35.6991C254.129 34.0216 252.483 33.1175 250.63 33.3402C248.746 33.5666 246.488 34.9722 243.895 38.307L243.105 37.693ZM224.345 34.1302C223.675 31.6448 224.976 29.6297 227.037 28.3116C229.089 26.9988 231.976 26.3041 234.789 26.3877C237.598 26.4713 240.424 27.3357 242.294 29.249C244.19 31.1894 245.018 34.1194 243.984 38.1249L243.016 37.8751C243.982 34.1306 243.179 31.5856 241.579 29.9479C239.951 28.283 237.414 27.4662 234.759 27.3873C232.106 27.3084 229.427 27.9699 227.576 29.154C225.733 30.3328 224.794 31.9552 225.311 33.8698L224.345 34.1302ZM224.07 32.8788C224.51 33.1869 224.851 33.4257 225.092 33.5755L224.564 34.4245C224.294 34.2569 223.926 33.9988 223.496 33.698L224.07 32.8788ZM208.6 30.7C209.67 29.2734 211.004 28.5463 212.452 28.3169C213.881 28.0903 215.391 28.3536 216.832 28.8437C219.708 29.8214 222.469 31.7583 224.07 32.8788L223.496 33.698C221.878 32.5652 219.23 30.715 216.51 29.7904C215.154 29.3293 213.819 29.1127 212.608 29.3046C211.415 29.4937 210.312 30.0837 209.4 31.3L208.6 30.7ZM187.092 31.6021C190.607 28.9278 194.853 27.3912 198.872 27.1643C202.888 26.9376 206.726 28.0187 209.354 30.6464L208.647 31.3536C206.274 28.9813 202.747 27.9471 198.928 28.1627C195.113 28.3781 191.057 29.8416 187.697 32.3979L187.092 31.6021ZM181.621 26.5149C183.644 27.0207 185.237 27.8888 186.313 28.8727C187.371 29.8403 187.996 30.9894 187.892 32.0489L186.897 31.9511C186.957 31.3439 186.59 30.4818 185.638 29.6106C184.703 28.7555 183.266 27.957 181.379 27.4851L181.621 26.5149ZM171.53 31.1709C170.983 29.6656 171.194 28.4823 171.998 27.6393C172.754 26.846 173.953 26.4487 175.172 26.2561C177.629 25.8682 180.573 26.2529 181.621 26.5149L181.379 27.4851C180.427 27.2471 177.621 26.8818 175.328 27.2439C174.173 27.4263 173.246 27.779 172.721 28.3294C172.244 28.8302 172.017 29.5844 172.47 30.8291L171.53 31.1709ZM137.7 30.6C139.801 29.0243 151.999 20.946 172.215 30.5484L171.786 31.4516C152.001 22.054 140.199 29.9757 138.3 31.4L137.7 30.6ZM159.419 24.3959C153.27 24.4695 146.287 24.5553 138.325 31.3796L137.675 30.6204C145.918 23.5551 153.21 23.4701 159.407 23.396L159.419 24.3959Z" fill="#808080"/>
<path fill-rule="evenodd" clip-rule="evenodd" d="M10.3745 58.0111C14.0629 58.2326 15 61.7253 15 63.5C15 61.7253 15.9371 58.2326 19.6255 58.0111C19.7574 58.0159 19.8828 58.0117 20 58C19.8721 58 19.7473 58.0037 19.6255 58.0111C17.8811 57.9477 15 56.322 15 50C15 56.322 12.1189 57.9477 10.3745 58.0111ZM10 58C10.1279 58 10.2527 58.0037 10.3745 58.0111C10.2426 58.0159 10.1172 58.0117 10 58Z" fill="#D9D9D9"/>
<path d="M20 58L20.0498 58.4975L20 57.5V58ZM10 58V57.5L9.95025 58.4975L10 58ZM15.5 63.5C15.5 62.5428 15.2507 61.1292 14.4955 59.9098C13.7264 58.668 12.432 57.6337 10.4044 57.512L10.3445 58.5102C12.0054 58.6099 13.0238 59.4327 13.6453 60.4363C14.2808 61.4623 14.5 62.6825 14.5 63.5H15.5ZM15.5 63.5C15.5 62.6825 15.7192 61.4623 16.3547 60.4363C16.9762 59.4327 17.9946 58.6099 19.6555 58.5102L19.5956 57.512C17.568 57.6337 16.2736 58.668 15.5045 59.9098C14.7493 61.1292 14.5 62.5428 14.5 63.5H15.5ZM19.6074 58.5107C19.7611 58.5163 19.9092 58.5116 20.0498 58.4975L19.9502 57.5025C19.8565 57.5119 19.7538 57.5154 19.6437 57.5114L19.6074 58.5107ZM20 57.5C19.8624 57.5 19.7276 57.504 19.5956 57.512L19.6555 58.5102C19.7671 58.5035 19.8819 58.5 20 58.5V57.5ZM19.6437 57.5114C18.9153 57.4849 17.8982 57.1302 17.0531 56.0452C16.2043 54.9556 15.5 53.0899 15.5 50H14.5C14.5 53.2321 15.2362 55.3401 16.2642 56.6597C17.2957 57.984 18.5914 58.4738 19.6074 58.5107L19.6437 57.5114ZM10.3926 58.5107C11.4086 58.4738 12.7043 57.984 13.7358 56.6597C14.7638 55.3401 15.5 53.2321 15.5 50H14.5C14.5 53.0899 13.7957 54.9556 12.9469 56.0452C12.1018 57.1302 11.0847 57.4849 10.3563 57.5114L10.3926 58.5107ZM10 58.5C10.1181 58.5 10.2329 58.5035 10.3445 58.5102L10.4044 57.512C10.2724 57.504 10.1376 57.5 10 57.5V58.5ZM10.3563 57.5114C10.2462 57.5154 10.1435 57.5119 10.0498 57.5025L9.95025 58.4975C10.0908 58.5116 10.2389 58.5163 10.3926 58.5107L10.3563 57.5114Z" fill="#808080"/>
<path fill-rule="evenodd" clip-rule="evenodd" d="M265.626 58.0111C261.937 58.2326 261 61.7253 261 63.5C261 61.7253 260.063 58.2326 256.374 58.0111C256.243 58.0159 256.117 58.0117 256 58C256.128 58 256.253 58.0037 256.374 58.0111C258.119 57.9477 261 56.322 261 50C261 56.322 263.881 57.9477 265.626 58.0111ZM266 58C265.872 58 265.747 58.0037 265.626 58.0111C265.757 58.0159 265.883 58.0117 266 58Z" fill="#D9D9D9"/>
<path d="M256 58L255.95 58.4975L256 57.5V58ZM266 58V57.5L266.05 58.4975L266 58ZM260.5 63.5C260.5 62.5428 260.749 61.1292 261.505 59.9098C262.274 58.668 263.568 57.6337 265.596 57.512L265.655 58.5102C263.995 58.6099 262.976 59.4327 262.355 60.4363C261.719 61.4623 261.5 62.6825 261.5 63.5H260.5ZM260.5 63.5C260.5 62.6825 260.281 61.4623 259.645 60.4363C259.024 59.4327 258.005 58.6099 256.345 58.5102L256.404 57.512C258.432 57.6337 259.726 58.668 260.495 59.9098C261.251 61.1292 261.5 62.5428 261.5 63.5H260.5ZM256.393 58.5107C256.239 58.5163 256.091 58.5116 255.95 58.4975L256.05 57.5025C256.144 57.5119 256.246 57.5154 256.356 57.5114L256.393 58.5107ZM256 57.5C256.138 57.5 256.272 57.504 256.404 57.512L256.345 58.5102C256.233 58.5035 256.118 58.5 256 58.5V57.5ZM256.356 57.5114C257.085 57.4849 258.102 57.1302 258.947 56.0452C259.796 54.9556 260.5 53.0899 260.5 50H261.5C261.5 53.2321 260.764 55.3401 259.736 56.6597C258.704 57.984 257.409 58.4738 256.393 58.5107L256.356 57.5114ZM265.607 58.5107C264.591 58.4738 263.296 57.984 262.264 56.6597C261.236 55.3401 260.5 53.2321 260.5 50H261.5C261.5 53.0899 262.204 54.9556 263.053 56.0452C263.898 57.1302 264.915 57.4849 265.644 57.5114L265.607 58.5107ZM266 58.5C265.882 58.5 265.767 58.5035 265.655 58.5102L265.596 57.512C265.728 57.504 265.862 57.5 266 57.5V58.5ZM265.644 57.5114C265.754 57.5154 265.856 57.5119 265.95 57.5025L266.05 58.4975C265.909 58.5116 265.761 58.5163 265.607 58.5107L265.644 57.5114Z" fill="#808080"/>
<path fill-rule="evenodd" clip-rule="evenodd" d="M133.5 6C121.5 12.5 128.5 22 128.5 22C128.5 22 117 26.5 117 12C117 12 109 14.5 104 21C111.626 15.916 113.591 18.379 116.1 21.5229C117.046 22.7078 118.068 23.9893 119.5 25C122.941 27.4289 124.989 27.3552 126.871 27.2875C129.639 27.1879 132.048 27.1012 138 35C143.952 27.1012 146.361 27.1879 149.129 27.2875C151.011 27.3552 153.059 27.4289 156.5 25C157.932 23.9893 158.954 22.7078 159.9 21.5229C162.409 18.379 164.374 15.916 172 21C167 14.5 159 12 159 12C159 26.5 147.5 22 147.5 22C147.5 22 154.5 12.5 142.5 6C152 11.8983 142 26.6441 138 24.678C134 26.6441 124 11.8983 133.5 6Z" fill="#D9D9D9"/>
<path d="M128.5 22L128.682 22.4656L129.289 22.2281L128.903 21.7034L128.5 22ZM133.5 6L133.764 6.42478L133.262 5.56035L133.5 6ZM117 12H117.5V11.3199L116.851 11.5228L117 12ZM104 21L103.604 20.6951L104.277 21.416L104 21ZM116.1 21.5229L116.491 21.2111L116.491 21.2111L116.1 21.5229ZM119.5 25L119.788 24.5915L119.788 24.5915L119.5 25ZM126.871 27.2875L126.889 27.7872L126.889 27.7872L126.871 27.2875ZM138 35L137.601 35.3009L138 35.8308L138.399 35.3009L138 35ZM149.129 27.2875L149.111 27.7872L149.111 27.7872L149.129 27.2875ZM156.5 25L156.212 24.5915L156.212 24.5915L156.5 25ZM159.9 21.5229L159.509 21.2111L159.509 21.2111L159.9 21.5229ZM172 21L171.723 21.416L172.396 20.6951L172 21ZM159 12L159.149 11.5228L158.5 11.3199V12H159ZM147.5 22L147.097 21.7034L146.711 22.2281L147.318 22.4656L147.5 22ZM142.5 6L142.738 5.56035L142.236 6.42478L142.5 6ZM138 24.678L138.221 24.2292L138 24.1208L137.779 24.2292L138 24.678ZM128.5 22C128.903 21.7034 128.903 21.7036 128.903 21.7037C128.903 21.7037 128.903 21.7039 128.903 21.7039C128.903 21.7039 128.903 21.7038 128.903 21.7035C128.902 21.7029 128.901 21.7018 128.9 21.7002C128.898 21.6968 128.894 21.6912 128.888 21.6835C128.877 21.6679 128.86 21.6435 128.838 21.6108C128.793 21.5453 128.728 21.4462 128.648 21.3167C128.488 21.0575 128.271 20.6773 128.046 20.2005C127.594 19.2441 127.117 17.9137 126.998 16.3984C126.88 14.8888 127.116 13.195 128.09 11.4903C129.066 9.78327 130.801 8.03053 133.738 6.43965L133.262 5.56035C130.199 7.21947 128.309 9.09173 127.222 10.9941C126.134 12.8987 125.87 14.7987 126.002 16.4766C126.133 18.1488 126.656 19.5996 127.142 20.6276C127.385 21.143 127.621 21.5558 127.797 21.8415C127.885 21.9844 127.959 22.0959 128.011 22.1727C128.037 22.2111 128.058 22.2409 128.072 22.2616C128.08 22.272 128.086 22.2802 128.09 22.286C128.092 22.2889 128.094 22.2913 128.095 22.293C128.096 22.2939 128.096 22.2947 128.096 22.2953C128.097 22.2956 128.097 22.2959 128.097 22.296C128.097 22.2963 128.097 22.2966 128.5 22ZM116.5 12C116.5 15.6858 117.23 18.231 118.381 19.957C119.539 21.6941 121.092 22.5551 122.634 22.9238C124.163 23.2895 125.676 23.1708 126.792 22.9686C127.353 22.8669 127.821 22.7429 128.15 22.6438C128.315 22.5942 128.445 22.5506 128.536 22.519C128.581 22.5032 128.616 22.4904 128.641 22.4812C128.653 22.4767 128.663 22.473 128.67 22.4704C128.673 22.4691 128.676 22.468 128.678 22.4672C128.679 22.4668 128.68 22.4665 128.681 22.4662C128.681 22.4661 128.681 22.4659 128.682 22.4659C128.682 22.4657 128.682 22.4656 128.5 22C128.318 21.5344 128.318 21.5343 128.318 21.5342C128.318 21.5342 128.318 21.5342 128.318 21.5342C128.318 21.5342 128.318 21.5343 128.318 21.5344C128.317 21.5347 128.316 21.5352 128.314 21.536C128.309 21.5376 128.303 21.5402 128.293 21.5437C128.274 21.5507 128.245 21.5613 128.206 21.575C128.128 21.6022 128.011 21.6412 127.862 21.6863C127.562 21.7766 127.131 21.8909 126.614 21.9846C125.574 22.173 124.212 22.273 122.866 21.9512C121.533 21.6324 120.211 20.8997 119.213 19.4023C118.207 17.894 117.5 15.5642 117.5 12H116.5ZM104.396 21.3049C106.839 18.129 110.025 15.9193 112.615 14.501C113.908 13.7931 115.046 13.2856 115.86 12.9555C116.266 12.7906 116.592 12.6701 116.814 12.5914C116.925 12.552 117.01 12.523 117.067 12.5041C117.095 12.4947 117.116 12.4877 117.13 12.4833C117.137 12.481 117.142 12.4794 117.145 12.4784C117.147 12.4779 117.148 12.4776 117.149 12.4774C117.149 12.4773 117.149 12.4772 117.149 12.4772C117.149 12.4772 117.149 12.4772 117.149 12.4772C117.149 12.4772 117.149 12.4772 117 12C116.851 11.5228 116.851 11.5228 116.851 11.5229C116.85 11.5229 116.85 11.523 116.85 11.523C116.85 11.5232 116.849 11.5233 116.848 11.5235C116.847 11.524 116.845 11.5245 116.843 11.5253C116.838 11.5267 116.832 11.5288 116.823 11.5315C116.807 11.5369 116.783 11.5448 116.751 11.5552C116.688 11.5761 116.597 11.6072 116.479 11.6489C116.244 11.7322 115.905 11.8579 115.484 12.0289C114.641 12.3707 113.467 12.8944 112.135 13.624C109.475 15.0807 106.161 17.371 103.604 20.6951L104.396 21.3049ZM116.491 21.2111C115.265 19.6744 114.038 18.1041 112.073 17.6869C110.103 17.2688 107.554 18.0296 103.723 20.584L104.277 21.416C108.072 18.8864 110.318 18.3367 111.865 18.6651C113.417 18.9945 114.427 20.2276 115.709 21.8348L116.491 21.2111ZM119.788 24.5915C118.423 23.6277 117.441 22.4018 116.491 21.2111L115.709 21.8348C116.65 23.0137 117.713 24.3509 119.212 25.4085L119.788 24.5915ZM126.853 26.7878C125.912 26.8217 124.99 26.853 123.885 26.5932C122.782 26.334 121.467 25.7768 119.788 24.5915L119.212 25.4085C120.973 26.6521 122.404 27.2725 123.656 27.5667C124.905 27.8604 125.948 27.821 126.889 27.7872L126.853 26.7878ZM138.399 34.6991C135.412 30.7349 133.271 28.7139 131.487 27.7087C129.666 26.6832 128.251 26.7375 126.853 26.7878L126.889 27.7872C128.259 27.7379 129.432 27.6991 130.996 28.58C132.596 29.4813 134.636 31.3664 137.601 35.3009L138.399 34.6991ZM138.399 35.3009C141.364 31.3664 143.404 29.4813 145.004 28.58C146.568 27.6991 147.741 27.7379 149.111 27.7872L149.147 26.7878C147.749 26.7375 146.334 26.6832 144.513 27.7087C142.729 28.7139 140.588 30.7349 137.601 34.6991L138.399 35.3009ZM149.111 27.7872C150.052 27.821 151.095 27.8604 152.344 27.5667C153.596 27.2725 155.027 26.6521 156.788 25.4085L156.212 24.5915C154.533 25.7768 153.218 26.334 152.115 26.5932C151.01 26.853 150.088 26.8217 149.147 26.7878L149.111 27.7872ZM156.788 25.4085C158.287 24.3509 159.35 23.0137 160.291 21.8348L159.509 21.2111C158.559 22.4018 157.577 23.6277 156.212 24.5915L156.788 25.4085ZM160.291 21.8348C161.573 20.2276 162.583 18.9945 164.135 18.6651C165.682 18.3367 167.928 18.8864 171.723 21.416L172.277 20.584C168.446 18.0296 165.897 17.2688 163.927 17.6869C161.962 18.1041 160.735 19.6744 159.509 21.2111L160.291 21.8348ZM172.396 20.6951C169.839 17.371 166.525 15.0807 163.865 13.624C162.533 12.8944 161.359 12.3707 160.516 12.0289C160.095 11.8579 159.756 11.7322 159.521 11.6489C159.403 11.6072 159.312 11.5761 159.249 11.5552C159.217 11.5448 159.193 11.5369 159.177 11.5315C159.168 11.5288 159.162 11.5267 159.157 11.5253C159.155 11.5245 159.153 11.524 159.152 11.5235C159.151 11.5233 159.15 11.5232 159.15 11.523C159.15 11.523 159.15 11.5229 159.149 11.5229C159.149 11.5228 159.149 11.5228 159 12C158.851 12.4772 158.851 12.4772 158.851 12.4772C158.851 12.4772 158.851 12.4772 158.851 12.4772C158.851 12.4772 158.851 12.4773 158.851 12.4774C158.852 12.4776 158.853 12.4779 158.855 12.4784C158.858 12.4794 158.863 12.481 158.87 12.4833C158.884 12.4877 158.905 12.4947 158.933 12.5041C158.99 12.523 159.075 12.552 159.186 12.5914C159.408 12.6701 159.734 12.7906 160.14 12.9555C160.954 13.2856 162.092 13.7931 163.385 14.501C165.975 15.9193 169.161 18.129 171.604 21.3049L172.396 20.6951ZM158.5 12C158.5 15.5642 157.793 17.894 156.787 19.4023C155.789 20.8997 154.467 21.6324 153.134 21.9512C151.788 22.273 150.426 22.173 149.386 21.9846C148.869 21.8909 148.438 21.7766 148.138 21.6863C147.989 21.6412 147.872 21.6022 147.794 21.575C147.755 21.5613 147.726 21.5507 147.707 21.5437C147.697 21.5402 147.691 21.5376 147.686 21.536C147.684 21.5352 147.683 21.5347 147.682 21.5344C147.682 21.5343 147.682 21.5342 147.682 21.5342C147.682 21.5342 147.682 21.5342 147.682 21.5342C147.682 21.5343 147.682 21.5344 147.5 22C147.318 22.4656 147.318 22.4657 147.318 22.4659C147.319 22.4659 147.319 22.4661 147.319 22.4662C147.32 22.4665 147.321 22.4668 147.322 22.4672C147.324 22.468 147.327 22.4691 147.33 22.4704C147.337 22.473 147.347 22.4767 147.359 22.4812C147.384 22.4904 147.419 22.5032 147.464 22.519C147.555 22.5506 147.685 22.5942 147.85 22.6438C148.179 22.7429 148.647 22.8669 149.208 22.9686C150.324 23.1708 151.837 23.2895 153.366 22.9238C154.908 22.5551 156.461 21.6941 157.619 19.957C158.77 18.231 159.5 15.6858 159.5 12H158.5ZM147.5 22C147.903 22.2966 147.903 22.2963 147.903 22.296C147.903 22.2959 147.903 22.2956 147.904 22.2953C147.904 22.2947 147.904 22.2939 147.905 22.293C147.906 22.2913 147.908 22.2889 147.91 22.286C147.914 22.2802 147.92 22.272 147.928 22.2616C147.942 22.2409 147.963 22.2111 147.989 22.1727C148.041 22.0959 148.115 21.9844 148.203 21.8415C148.379 21.5558 148.615 21.143 148.858 20.6276C149.344 19.5996 149.867 18.1488 149.998 16.4766C150.13 14.7987 149.866 12.8987 148.778 10.9941C147.691 9.09173 145.801 7.21947 142.738 5.56035L142.262 6.43965C145.199 8.03053 146.934 9.78327 147.91 11.4903C148.884 13.195 149.12 14.8888 149.002 16.3984C148.883 17.9137 148.406 19.2441 147.954 20.2005C147.729 20.6773 147.512 21.0575 147.352 21.3167C147.272 21.4462 147.207 21.5453 147.162 21.6108C147.14 21.6435 147.123 21.6679 147.112 21.6835C147.106 21.6912 147.102 21.6968 147.1 21.7002C147.099 21.7018 147.098 21.7029 147.097 21.7035C147.097 21.7038 147.097 21.7039 147.097 21.7039C147.097 21.7039 147.097 21.7037 147.097 21.7037C147.097 21.7036 147.097 21.7034 147.5 22ZM142.236 6.42478C144.483 7.81982 145.559 9.71772 145.873 11.7594C146.19 13.8205 145.735 16.0578 144.854 18.0891C143.973 20.1199 142.685 21.9006 141.395 23.0443C140.749 23.6168 140.122 24.0124 139.564 24.2107C139.008 24.4084 138.562 24.397 138.221 24.2292L137.779 25.1267C138.438 25.4504 139.18 25.4084 139.899 25.153C140.616 24.8981 141.353 24.4182 142.058 23.7926C143.471 22.5401 144.84 20.6343 145.771 18.4871C146.702 16.3405 147.216 13.9083 146.861 11.6072C146.504 9.28652 145.267 7.12933 142.764 5.57522L142.236 6.42478ZM133.236 5.57522C130.733 7.12933 129.496 9.28652 129.139 11.6072C128.784 13.9083 129.298 16.3405 130.229 18.4871C131.16 20.6343 132.529 22.5401 133.942 23.7926C134.648 24.4182 135.384 24.8981 136.101 25.153C136.82 25.4084 137.562 25.4504 138.221 25.1267L137.779 24.2292C137.438 24.397 136.992 24.4084 136.436 24.2107C135.878 24.0124 135.251 23.6168 134.605 23.0443C133.315 21.9006 132.027 20.1199 131.146 18.0891C130.265 16.0578 129.81 13.8205 130.127 11.7594C130.441 9.71772 131.517 7.81982 133.764 6.42478L133.236 5.57522Z" fill="#808080"/>
<path fill-rule="evenodd" clip-rule="evenodd" d="M138 1C137.2 8.43203 130.433 21.016 120.83 11.322C120.907 11.9855 121.009 12.6394 121.11 13.2833C121.84 17.9708 122.489 22.1363 113 25.7196C113.292 25.7196 113.7 25.5393 114.197 25.3198C116.2 24.4343 119.648 22.9104 122.793 30C122.76 29.5753 122.641 29.021 122.503 28.3824C121.959 25.8625 121.133 22.0308 124.264 19.678C128.189 16.1032 138 15.7907 138 25C138 15.7907 147.811 16.1032 151.736 19.678C154.867 22.0308 154.041 25.8625 153.497 28.3824C153.359 29.021 153.24 29.5753 153.207 30C156.352 22.9104 159.8 24.4343 161.803 25.3198C162.3 25.5393 162.708 25.7196 163 25.7196C153.511 22.1363 154.16 17.9708 154.89 13.2833C154.991 12.6394 155.093 11.9855 155.17 11.322C145.567 21.016 138.8 8.43203 138 1Z" fill="#D9D9D9"/>
<path d="M120.83 11.322L121.185 10.9702L120.166 9.9409L120.333 11.3799L120.83 11.322ZM138 1L138.497 0.946474H137.503L138 1ZM121.11 13.2833L120.616 13.3603L120.616 13.3603L121.11 13.2833ZM113 25.7196L112.823 25.2518L113 26.2196V25.7196ZM114.197 25.3198L113.995 24.8625L113.995 24.8625L114.197 25.3198ZM122.793 30L122.335 30.2027L123.291 29.962L122.793 30ZM122.503 28.3824L122.992 28.277L122.992 28.277L122.503 28.3824ZM124.264 19.678L124.565 20.0777L124.583 20.0635L124.601 20.0476L124.264 19.678ZM151.736 19.678L151.399 20.0476L151.417 20.0635L151.435 20.0777L151.736 19.678ZM153.497 28.3824L153.008 28.277L153.008 28.277L153.497 28.3824ZM153.207 30L152.709 29.962L153.665 30.2027L153.207 30ZM161.803 25.3198L162.005 24.8625L162.005 24.8625L161.803 25.3198ZM163 25.7196V26.2196L163.177 25.2518L163 25.7196ZM154.89 13.2833L155.384 13.3603L155.384 13.3603L154.89 13.2833ZM155.17 11.322L155.667 11.3799L155.834 9.9409L154.815 10.9702L155.17 11.322ZM120.475 11.6739C122.931 14.1531 125.268 15.2706 127.435 15.3437C129.605 15.4169 131.5 14.4388 133.062 12.9445C136.162 9.97731 138.088 4.84986 138.497 1.05353L137.503 0.946474C137.111 4.58217 135.254 9.46271 132.37 12.222C130.94 13.591 129.293 14.4058 127.468 14.3443C125.64 14.2826 123.531 13.3379 121.185 10.9702L120.475 11.6739ZM121.604 13.2064C121.503 12.5609 121.403 11.9165 121.327 11.2642L120.333 11.3799C120.412 12.0546 120.515 12.7178 120.616 13.3603L121.604 13.2064ZM113.177 26.1873C117.969 24.3775 120.33 22.3751 121.343 20.1205C122.347 17.8869 121.964 15.5194 121.604 13.2064L120.616 13.3603C120.986 15.7347 121.292 17.7938 120.431 19.7106C119.579 21.6064 117.52 23.4784 112.823 25.2518L113.177 26.1873ZM113.995 24.8625C113.742 24.9743 113.533 25.0664 113.352 25.1318C113.165 25.1995 113.056 25.2196 113 25.2196V26.2196C113.236 26.2196 113.478 26.1495 113.692 26.0722C113.912 25.9926 114.155 25.8848 114.399 25.7771L113.995 24.8625ZM123.25 29.7973C121.651 26.1938 119.914 24.6365 118.193 24.1856C116.496 23.7408 114.978 24.4279 113.995 24.8625L114.399 25.7771C115.419 25.3262 116.626 24.8086 117.94 25.1529C119.23 25.4911 120.789 26.7165 122.335 30.2027L123.25 29.7973ZM122.014 28.4878C122.155 29.14 122.265 29.6554 122.294 30.038L123.291 29.962C123.256 29.4953 123.126 28.902 122.992 28.277L122.014 28.4878ZM123.964 19.2782C122.256 20.5614 121.632 22.2566 121.507 23.9304C121.384 25.5807 121.745 27.2383 122.014 28.4878L122.992 28.277C122.718 27.0067 122.394 25.4884 122.504 24.0048C122.613 22.5445 123.141 21.1474 124.565 20.0777L123.964 19.2782ZM138.5 25C138.5 22.6068 137.861 20.7815 136.794 19.4657C135.728 18.1513 134.27 17.3883 132.708 17.0559C129.612 16.3973 126.013 17.4091 123.928 19.3083L124.601 20.0476C126.44 18.3721 129.709 17.4403 132.5 18.034C133.881 18.3279 135.121 18.9901 136.017 20.0955C136.913 21.1995 137.5 22.7886 137.5 25H138.5ZM138.5 25C138.5 22.7886 139.087 21.1995 139.983 20.0955C140.879 18.9901 142.119 18.3279 143.5 18.034C146.291 17.4403 149.56 18.3721 151.399 20.0476L152.072 19.3083C149.987 17.4091 146.388 16.3973 143.292 17.0559C141.73 17.3883 140.272 18.1513 139.206 19.4657C138.139 20.7815 137.5 22.6068 137.5 25H138.5ZM151.435 20.0777C152.859 21.1474 153.387 22.5445 153.496 24.0047C153.606 25.4884 153.282 27.0066 153.008 28.277L153.986 28.4878C154.255 27.2383 154.616 25.5807 154.493 23.9304C154.368 22.2566 153.744 20.5614 152.036 19.2782L151.435 20.0777ZM153.008 28.277C152.874 28.902 152.744 29.4953 152.709 29.962L153.706 30.038C153.735 29.6554 153.845 29.14 153.986 28.4878L153.008 28.277ZM153.665 30.2027C155.211 26.7165 156.77 25.4911 158.06 25.1529C159.374 24.8086 160.581 25.3262 161.601 25.7771L162.005 24.8625C161.022 24.4279 159.504 23.7408 157.807 24.1856C156.086 24.6365 154.349 26.1938 152.75 29.7973L153.665 30.2027ZM161.601 25.7771C161.845 25.8848 162.088 25.9926 162.308 26.0722C162.522 26.1495 162.764 26.2196 163 26.2196V25.2196C162.944 25.2196 162.835 25.1995 162.648 25.1318C162.467 25.0664 162.258 24.9743 162.005 24.8625L161.601 25.7771ZM163.177 25.2518C158.48 23.4784 156.421 21.6064 155.569 19.7106C154.708 17.7938 155.014 15.7347 155.384 13.3603L154.396 13.2064C154.036 15.5194 153.653 17.8869 154.657 20.1205C155.67 22.3751 158.031 24.3775 162.823 26.1873L163.177 25.2518ZM155.384 13.3603C155.485 12.7178 155.588 12.0546 155.667 11.3799L154.673 11.2642C154.597 11.9165 154.497 12.5609 154.396 13.2064L155.384 13.3603ZM154.815 10.9702C152.469 13.3379 150.36 14.2826 148.532 14.3443C146.707 14.4058 145.06 13.591 143.63 12.222C140.746 9.46271 138.889 4.58217 138.497 0.946474L137.503 1.05353C137.912 4.84986 139.838 9.97731 142.938 12.9445C144.5 14.4388 146.395 15.4169 148.565 15.3437C150.732 15.2706 153.069 14.1531 155.525 11.6739L154.815 10.9702Z" fill="#808080"/>
<path fill-rule="evenodd" clip-rule="evenodd" d="M138 22C137.259 22.1667 135.422 23.3 134 26.5C135.333 26.5 138 28.1 138 34.5C138 28.1 140.667 26.5 142 26.5C140.578 23.3 138.741 22.1667 138 22Z" fill="#D9D9D9"/>
<path d="M134 26.5L133.543 26.2969L133.231 27H134V26.5ZM138 22L138.11 21.5122L138 21.4875L137.89 21.5122L138 22ZM142 26.5V27H142.769L142.457 26.2969L142 26.5ZM134.457 26.7031C135.841 23.5881 137.577 22.6076 138.11 22.4878L137.89 21.5122C136.941 21.7257 135.003 23.0119 133.543 26.2969L134.457 26.7031ZM138.5 34.5C138.5 28.0061 135.762 26 134 26V27C134.905 27 137.5 28.1939 137.5 34.5H138.5ZM138.5 34.5C138.5 28.1939 141.095 27 142 27V26C140.238 26 137.5 28.0061 137.5 34.5H138.5ZM142.457 26.2969C140.997 23.0119 139.059 21.7257 138.11 21.5122L137.89 22.4878C138.423 22.6076 140.159 23.5881 141.543 26.7031L142.457 26.2969Z" fill="#808080"/>
<path d="M149.659 86.0141C144.029 87.3044 139.194 83.9874 137.48 82.1677C147.344 87.6095 150.338 83.0865 150.602 80.1447C151.785 86.0593 156.448 86.6303 158.5 86.0141C147.305 92.1104 154.315 93.2868 159.35 93.2755C153.606 95.9343 146.981 92.4877 144.386 90.4321C150.43 91.3518 150.42 87.87 149.659 86.0141Z" fill="#D9D9D9" stroke="#808080"/>
<path d="M125.341 86.0141C130.971 87.3044 135.806 83.9874 137.52 82.1677C127.656 87.6095 124.662 83.0865 124.398 80.1447C123.215 86.0593 119.052 86.6163 117 86C128.195 92.0964 120.685 93.2868 115.65 93.2755C121.394 95.9343 128.019 92.4877 130.614 90.4321C124.57 91.3518 124.58 87.87 125.341 86.0141Z" fill="#D9D9D9" stroke="#808080"/>
<path fill-rule="evenodd" clip-rule="evenodd" d="M137.5 89.5C138.241 89.3333 140.078 88.2 141.5 85C140.167 85 137.5 83.4 137.5 77C137.5 83.4 134.833 85 133.5 85C134.922 88.2 136.759 89.3333 137.5 89.5Z" fill="#B3B3B3"/>
<path d="M141.5 85L141.957 85.2031L142.269 84.5L141.5 84.5L141.5 85ZM137.5 89.5L137.39 89.9878L137.5 90.0125L137.61 89.9878L137.5 89.5ZM133.5 85L133.5 84.5L132.731 84.5L133.043 85.2031L133.5 85ZM141.043 84.7969C139.659 87.9119 137.923 88.8924 137.39 89.0122L137.61 89.9878C138.559 89.7743 140.497 88.4881 141.957 85.2031L141.043 84.7969ZM137 77C137 83.4939 139.738 85.5 141.5 85.5L141.5 84.5C140.595 84.5 138 83.3061 138 77L137 77ZM137 77C137 83.3061 134.405 84.5 133.5 84.5L133.5 85.5C135.262 85.5 138 83.4939 138 77L137 77ZM133.043 85.2031C134.503 88.4881 136.441 89.7743 137.39 89.9878L137.61 89.0122C137.077 88.8924 135.341 87.9119 133.957 84.7969L133.043 85.2031Z" fill="#808080"/>
<path d="M81.5 81.5C89.9 86.3 109.5 84.5 117 86C104.5 84 90.6667 89.5 90.5 91.5C90.5 90.5 90.5 88 85.5 87C79.669 85.8338 76 89.3333 75 91.5C69.8 90.7 61 87.6667 55.5 86C71.1 86 78.1667 82.8333 81.5 81.5Z" fill="#D9D9D9" stroke="#808080"/>
<path d="M55.5 86C53.8784 86.1758 52.0804 86.2981 50.1698 86.3421C35.1798 87.3859 33.5623 88.389 29.5 92C28.5 84.5 20 80.5 0.5 80.5C14 78.5 14.6667 70.5 15 63.5C15 82.5679 35.7811 86.6735 50.1698 86.3421C51.7847 86.2296 53.5549 86.1167 55.5 86Z" fill="#D9D9D9"/>
<path d="M55.5 86C41.6667 87.5 15 85.1 15 63.5C14.6667 70.5 14 78.5 0.5 80.5C20 80.5 28.5 84.5 29.5 92C34 88 35.5 87.2 55.5 86Z" stroke="#808080"/>
<path d="M194 81.5C185.6 86.3 166 84.5 158.5 86C171 84 184.833 89.5 185 91.5C185 90.5 185 88 190 87C195.831 85.8338 199.5 89.3333 200.5 91.5C205.7 90.7 214.5 87.6667 220 86C204.4 86 197.333 82.8333 194 81.5Z" fill="#D9D9D9" stroke="#808080"/>
<path fill-rule="evenodd" clip-rule="evenodd" d="M220 86C221.342 86.1455 222.81 86.2543 224.366 86.3125C222.993 86.1971 221.539 86.0923 220 86ZM260.896 65.7641C259.242 83.3051 238.27 86.832 224.366 86.3125C240.84 87.6971 245.692 90.6154 246 92C248.297 88.9683 250.488 86.7489 252.598 85.2014C255.346 83.4741 258.12 82.3399 261 82.2651C263.88 82.3399 266.654 83.4741 269.402 85.2014C271.512 86.7489 273.703 88.9683 276 92C276.308 90.6154 281.16 87.6971 297.634 86.3125C299.19 86.2543 300.658 86.1455 302 86C300.461 86.0923 299.007 86.1971 297.634 86.3125C283.73 86.832 262.758 83.3051 261.104 65.7641C261.082 65.3373 261.063 64.9032 261.043 64.4582C261.03 64.1445 261.015 63.8255 261 63.5C260.985 63.8255 260.97 64.1445 260.957 64.4582C260.937 64.9032 260.918 65.3374 260.896 65.7641Z" fill="#D9D9D9"/>
<path d="M220 86L220.03 85.5009L219.946 86.4971L220 86ZM260.896 65.7641L261.394 65.8111L261.395 65.8006L261.395 65.79L260.896 65.7641ZM246 92L245.512 92.1085L245.746 93.163L246.399 92.3019L246 92ZM252.598 85.2014L252.332 84.7781L252.317 84.7876L252.302 84.7982L252.598 85.2014ZM261 82.2651L261.013 81.7652L261 81.7649L260.987 81.7652L261 82.2651ZM269.402 85.2014L269.698 84.7982L269.683 84.7876L269.668 84.7781L269.402 85.2014ZM276 92L275.601 92.3019L276.254 93.163L276.488 92.1085L276 92ZM302 86L302.054 86.4971L301.97 85.5009L302 86ZM261.104 65.7641L260.605 65.79L260.605 65.8005L260.606 65.8111L261.104 65.7641ZM261.043 64.4582L260.544 64.4803L260.544 64.4803L261.043 64.4582ZM261 63.5L261.499 63.4762H260.501L261 63.5ZM260.957 64.4582L261.456 64.4803L261.456 64.4803L260.957 64.4582ZM219.946 86.4971C221.3 86.6439 222.78 86.7536 224.347 86.8121L224.384 85.8128C222.84 85.7551 221.384 85.6471 220.054 85.5029L219.946 86.4971ZM224.408 85.8142C223.03 85.6985 221.572 85.5934 220.03 85.5009L219.97 86.4991C221.505 86.5912 222.955 86.6957 224.324 86.8107L224.408 85.8142ZM260.398 65.7172C259.594 74.2465 254.11 79.3862 247.032 82.3498C239.937 85.3203 231.298 86.0712 224.384 85.8128L224.347 86.8121C231.337 87.0733 240.137 86.3204 247.418 83.2722C254.715 80.217 260.544 74.8228 261.394 65.8111L260.398 65.7172ZM224.324 86.8107C232.541 87.5013 237.831 88.5724 241.091 89.6318C242.722 90.1618 243.828 90.6834 244.535 91.1414C245.269 91.6177 245.48 91.9659 245.512 92.1085L246.488 91.8915C246.366 91.3418 245.855 90.8059 245.079 90.3024C244.274 89.7805 243.079 89.2264 241.4 88.6807C238.039 87.5886 232.665 86.5083 224.408 85.8142L224.324 86.8107ZM246.399 92.3019C248.675 89.2969 250.833 87.1159 252.894 85.6046L252.302 84.7982C250.143 86.382 247.918 88.6397 245.601 91.6981L246.399 92.3019ZM260.987 81.7652C257.983 81.8433 255.12 83.0256 252.332 84.7781L252.864 85.6248C255.572 83.9226 258.258 82.8365 261.013 82.7649L260.987 81.7652ZM260.987 82.7649C263.742 82.8365 266.428 83.9226 269.136 85.6248L269.668 84.7781C266.88 83.0256 264.017 81.8433 261.013 81.7652L260.987 82.7649ZM276.399 91.6981C274.082 88.6397 271.857 86.382 269.698 84.7982L269.106 85.6046C271.167 87.1159 273.325 89.2969 275.601 92.3019L276.399 91.6981ZM297.592 85.8142C289.335 86.5083 283.961 87.5886 280.6 88.6807C278.921 89.2264 277.726 89.7805 276.921 90.3024C276.145 90.8059 275.634 91.3418 275.512 91.8915L276.488 92.1085C276.52 91.9659 276.731 91.6177 277.465 91.1414C278.172 90.6834 279.278 90.1618 280.909 89.6318C284.169 88.5724 289.459 87.5013 297.676 86.8107L297.592 85.8142ZM301.946 85.5029C300.616 85.6471 299.16 85.7551 297.616 85.8128L297.653 86.8121C299.22 86.7536 300.7 86.6439 302.054 86.4971L301.946 85.5029ZM297.676 86.8107C299.045 86.6957 300.495 86.5912 302.03 86.4991L301.97 85.5009C300.428 85.5934 298.97 85.6985 297.592 85.8142L297.676 86.8107ZM260.606 65.8111C261.456 74.8228 267.285 80.217 274.582 83.2722C281.863 86.3204 290.663 87.0733 297.653 86.8121L297.616 85.8128C290.702 86.0712 282.063 85.3203 274.968 82.3498C267.89 79.3861 262.406 74.2464 261.602 65.7172L260.606 65.8111ZM261.604 65.7383C261.582 65.3137 261.563 64.8815 261.543 64.4362L260.544 64.4803C260.563 64.9248 260.583 65.361 260.605 65.79L261.604 65.7383ZM261.543 64.4362C261.529 64.1227 261.515 63.8028 261.499 63.4762L260.501 63.5238C260.516 63.8483 260.53 64.1664 260.544 64.4803L261.543 64.4362ZM261.456 64.4803C261.47 64.1664 261.484 63.8483 261.499 63.5238L260.501 63.4762C260.485 63.8028 260.471 64.1227 260.457 64.4362L261.456 64.4803ZM261.395 65.79C261.417 65.361 261.437 64.9248 261.456 64.4803L260.457 64.4362C260.437 64.8815 260.418 65.3138 260.396 65.7383L261.395 65.79Z" fill="#808080"/>
</svg>
