<svg width="523" height="96" viewBox="0 0 523 96" fill="none" xmlns="http://www.w3.org/2000/svg">
<rect width="246" height="59" rx="20" transform="matrix(-1 0 0 1 507.5 27)" fill="#4C4C4C"/>
<path fill-rule="evenodd" clip-rule="evenodd" d="M405.913 23.896C413.073 23.8104 418.935 23.7402 423.5 13C421 27.5 447.5 26.8007 455.5 21.5C459.6 29 486.662 25.3 478.748 18.5C507.5 18.5 507.5 42.4999 507.5 49.9999V50C506.834 40.5 500.5 24.5 490 38C494 22.5 468.954 25.2 471.328 34C471.073 33.8413 470.718 33.5928 470.283 33.2884C467.065 31.0351 459.464 25.7142 455.5 31C450.5 26 440.769 26.7694 433.895 32C434.058 30.3333 431.911 27.9777 428 27C426 26.5 416.5 25.5 418.5 31C398.5 21.5 386.5 29.5 384.5 31C392.602 24.0552 399.74 23.9698 405.913 23.896Z" fill="#D9D9D9"/>
<path d="M423.5 13L423.04 12.8044L423.993 13.085L423.5 13ZM405.913 23.896L405.919 24.3959L405.919 24.3959L405.913 23.896ZM455.5 21.5L455.224 21.0832L455.678 20.7825L455.939 21.2602L455.5 21.5ZM478.748 18.5L478.422 18.8792L477.399 18H478.748V18.5ZM507.5 50H508L507.001 50.035L507.5 50ZM490 38L490.395 38.307L489.516 37.8751L490 38ZM471.328 34L471.811 33.8698L472.141 35.0948L471.064 34.4245L471.328 34ZM470.283 33.2884L470.57 32.8788L470.57 32.8788L470.283 33.2884ZM455.5 31L455.9 31.3L455.554 31.7612L455.147 31.3536L455.5 31ZM433.895 32L434.197 32.3979L433.285 33.0922L433.397 31.9511L433.895 32ZM428 27L427.879 27.4851L427.879 27.4851L428 27ZM418.5 31L418.97 30.8291L419.387 31.9746L418.286 31.4516L418.5 31ZM384.5 31L384.8 31.4L384.175 30.6204L384.5 31ZM423.96 13.1956C421.647 18.638 418.969 21.4571 415.892 22.8964C412.845 24.321 409.476 24.3534 405.919 24.3959L405.907 23.396C409.511 23.3529 412.652 23.3074 415.468 21.9905C418.253 20.6883 420.788 18.1022 423.04 12.8044L423.96 13.1956ZM455.776 21.9168C453.692 23.2978 450.457 24.351 446.854 24.9406C443.241 25.532 439.207 25.6657 435.496 25.1709C431.796 24.6774 428.36 23.5512 425.999 21.5741C423.606 19.57 422.352 16.717 423.007 12.915L423.993 13.085C423.398 16.533 424.519 19.0301 426.641 20.8074C428.796 22.6117 432.017 23.698 435.629 24.1797C439.23 24.6599 443.165 24.5312 446.693 23.9538C450.231 23.3746 453.308 22.3526 455.224 21.0832L455.776 21.9168ZM479.074 18.1208C480.112 19.0134 480.677 19.9387 480.689 20.8825C480.701 21.8357 480.149 22.6401 479.342 23.2832C477.744 24.5568 474.862 25.4364 471.695 25.8581C468.506 26.2828 464.93 26.2561 461.876 25.6417C458.857 25.0342 456.199 23.8206 455.061 21.7398L455.939 21.2602C456.851 22.9294 459.114 24.0658 462.074 24.6614C465 25.2501 468.463 25.2797 471.563 24.8669C474.685 24.4511 477.341 23.5994 478.719 22.5012C479.4 21.9583 479.696 21.4167 479.689 20.8953C479.682 20.3644 479.362 19.6866 478.422 18.8792L479.074 18.1208ZM507 49.9999C507 46.2436 506.993 38.4841 503.462 31.6674C501.702 28.27 499.068 25.1114 495.118 22.7987C491.165 20.4849 485.866 19 478.748 19V18C486.006 18 491.488 19.5151 495.623 21.9357C499.759 24.3573 502.516 27.6674 504.35 31.2074C508.007 38.2657 508 46.2562 508 49.9999H507ZM507 50V49.9999H508V50H507ZM489.605 37.693C492.262 34.2778 494.733 32.6209 497.011 32.3473C499.319 32.07 501.267 33.2284 502.818 35.0509C504.367 36.87 505.575 39.4069 506.437 42.0645C507.301 44.7277 507.829 47.549 507.999 49.965L507.001 50.035C506.838 47.701 506.325 44.9598 505.485 42.373C504.645 39.7806 503.488 37.38 502.057 35.6991C500.629 34.0216 498.983 33.1175 497.13 33.3402C495.246 33.5666 492.988 34.9722 490.395 38.307L489.605 37.693ZM470.845 34.1302C470.175 31.6448 471.476 29.6297 473.537 28.3116C475.589 26.9988 478.476 26.3041 481.289 26.3877C484.098 26.4713 486.924 27.3357 488.794 29.249C490.69 31.1894 491.518 34.1194 490.484 38.1249L489.516 37.8751C490.482 34.1306 489.679 31.5856 488.079 29.9479C486.451 28.283 483.914 27.4662 481.259 27.3873C478.606 27.3084 475.927 27.9699 474.076 29.154C472.233 30.3328 471.294 31.9552 471.811 33.8698L470.845 34.1302ZM470.57 32.8788C471.01 33.1869 471.351 33.4257 471.592 33.5755L471.064 34.4245C470.794 34.2569 470.426 33.9988 469.996 33.698L470.57 32.8788ZM455.1 30.7C456.17 29.2734 457.504 28.5463 458.952 28.3169C460.381 28.0903 461.891 28.3536 463.332 28.8437C466.208 29.8214 468.969 31.7583 470.57 32.8788L469.996 33.698C468.378 32.5652 465.73 30.715 463.01 29.7904C461.654 29.3293 460.319 29.1127 459.108 29.3046C457.915 29.4937 456.812 30.0837 455.9 31.3L455.1 30.7ZM433.592 31.6021C437.107 28.9278 441.353 27.3912 445.372 27.1643C449.388 26.9376 453.226 28.0187 455.854 30.6464L455.147 31.3536C452.774 28.9813 449.247 27.9471 445.428 28.1627C441.613 28.3781 437.557 29.8416 434.197 32.3979L433.592 31.6021ZM428.121 26.5149C430.144 27.0207 431.737 27.8888 432.813 28.8727C433.871 29.8403 434.496 30.9894 434.392 32.0489L433.397 31.9511C433.457 31.3439 433.09 30.4818 432.138 29.6106C431.203 28.7555 429.766 27.957 427.879 27.4851L428.121 26.5149ZM418.03 31.1709C417.483 29.6656 417.694 28.4823 418.498 27.6393C419.254 26.846 420.453 26.4487 421.672 26.2561C424.129 25.8682 427.073 26.2529 428.121 26.5149L427.879 27.4851C426.927 27.2471 424.121 26.8818 421.828 27.2439C420.673 27.4263 419.746 27.779 419.221 28.3294C418.744 28.8302 418.517 29.5844 418.97 30.8291L418.03 31.1709ZM384.2 30.6C386.301 29.0243 398.499 20.946 418.715 30.5484L418.286 31.4516C398.501 22.054 386.699 29.9757 384.8 31.4L384.2 30.6ZM405.919 24.3959C399.77 24.4695 392.787 24.5553 384.825 31.3796L384.175 30.6204C392.418 23.5551 399.71 23.4701 405.907 23.396L405.919 24.3959Z" fill="#808080"/>
<path fill-rule="evenodd" clip-rule="evenodd" d="M363.087 23.896C355.927 23.8104 350.065 23.7402 345.5 13C348 27.5 321.5 26.8007 313.5 21.5C309.4 29 282.338 25.3 290.252 18.5C261.5 18.5 261.5 42.4999 261.5 49.9999V50C262.166 40.5 268.5 24.5 279 38C275 22.5 300.046 25.2 297.672 34C297.927 33.8413 298.282 33.5928 298.717 33.2884C301.935 31.0351 309.536 25.7142 313.5 31C318.5 26 328.231 26.7694 335.105 32C334.942 30.3333 337.089 27.9777 341 27C343 26.5 352.5 25.5 350.5 31C370.5 21.5 382.5 29.5 384.5 31C376.398 24.0552 369.26 23.9698 363.087 23.896Z" fill="#D9D9D9"/>
<path d="M345.5 13L345.96 12.8044L345.007 13.085L345.5 13ZM363.087 23.896L363.081 24.3959L363.081 24.3959L363.087 23.896ZM313.5 21.5L313.776 21.0832L313.322 20.7825L313.061 21.2602L313.5 21.5ZM290.252 18.5L290.578 18.8792L291.601 18H290.252V18.5ZM261.5 50H261L261.999 50.035L261.5 50ZM279 38L278.605 38.307L279.484 37.8751L279 38ZM297.672 34L297.189 33.8698L296.859 35.0948L297.936 34.4245L297.672 34ZM298.717 33.2884L298.43 32.8788L298.43 32.8788L298.717 33.2884ZM313.5 31L313.1 31.3L313.446 31.7612L313.853 31.3536L313.5 31ZM335.105 32L334.803 32.3979L335.715 33.0922L335.603 31.9511L335.105 32ZM341 27L341.121 27.4851L341.121 27.4851L341 27ZM350.5 31L350.03 30.8291L349.613 31.9746L350.714 31.4516L350.5 31ZM384.5 31L384.2 31.4L384.825 30.6204L384.5 31ZM345.04 13.1956C347.353 18.638 350.031 21.4571 353.108 22.8964C356.155 24.321 359.524 24.3534 363.081 24.3959L363.093 23.396C359.489 23.3529 356.348 23.3074 353.532 21.9905C350.747 20.6883 348.212 18.1022 345.96 12.8044L345.04 13.1956ZM313.224 21.9168C315.308 23.2978 318.543 24.351 322.146 24.9406C325.759 25.532 329.793 25.6657 333.504 25.1709C337.204 24.6774 340.64 23.5512 343.001 21.5741C345.394 19.57 346.648 16.717 345.993 12.915L345.007 13.085C345.602 16.533 344.481 19.0301 342.359 20.8074C340.204 22.6117 336.983 23.698 333.371 24.1797C329.77 24.6599 325.835 24.5312 322.307 23.9538C318.769 23.3746 315.692 22.3526 313.776 21.0832L313.224 21.9168ZM289.926 18.1208C288.888 19.0134 288.323 19.9387 288.311 20.8825C288.299 21.8357 288.851 22.6401 289.658 23.2832C291.256 24.5568 294.138 25.4364 297.305 25.8581C300.494 26.2828 304.07 26.2561 307.124 25.6417C310.143 25.0342 312.801 23.8206 313.939 21.7398L313.061 21.2602C312.149 22.9294 309.886 24.0658 306.926 24.6614C304 25.2501 300.537 25.2797 297.437 24.8669C294.315 24.4511 291.659 23.5994 290.281 22.5012C289.6 21.9583 289.304 21.4167 289.311 20.8953C289.318 20.3644 289.638 19.6866 290.578 18.8792L289.926 18.1208ZM262 49.9999C262 46.2436 262.007 38.4841 265.538 31.6674C267.298 28.27 269.932 25.1114 273.882 22.7987C277.835 20.4849 283.134 19 290.252 19V18C282.994 18 277.512 19.5151 273.377 21.9357C269.241 24.3573 266.484 27.6674 264.65 31.2074C260.993 38.2657 261 46.2562 261 49.9999H262ZM262 50V49.9999H261V50H262ZM279.395 37.693C276.738 34.2778 274.267 32.6209 271.989 32.3473C269.681 32.07 267.733 33.2284 266.182 35.0509C264.633 36.87 263.425 39.4069 262.563 42.0645C261.699 44.7277 261.171 47.549 261.001 49.965L261.999 50.035C262.162 47.701 262.675 44.9598 263.515 42.373C264.355 39.7806 265.512 37.38 266.943 35.6991C268.371 34.0216 270.017 33.1175 271.87 33.3402C273.754 33.5666 276.012 34.9722 278.605 38.307L279.395 37.693ZM298.155 34.1302C298.825 31.6448 297.524 29.6297 295.463 28.3116C293.411 26.9988 290.524 26.3041 287.711 26.3877C284.902 26.4713 282.076 27.3357 280.206 29.249C278.31 31.1894 277.482 34.1194 278.516 38.1249L279.484 37.8751C278.518 34.1306 279.321 31.5856 280.921 29.9479C282.549 28.283 285.086 27.4662 287.741 27.3873C290.394 27.3084 293.073 27.9699 294.924 29.154C296.767 30.3328 297.706 31.9552 297.189 33.8698L298.155 34.1302ZM298.43 32.8788C297.99 33.1869 297.649 33.4257 297.408 33.5755L297.936 34.4245C298.206 34.2569 298.574 33.9988 299.004 33.698L298.43 32.8788ZM313.9 30.7C312.83 29.2734 311.496 28.5463 310.048 28.3169C308.619 28.0903 307.109 28.3536 305.668 28.8437C302.792 29.8214 300.031 31.7583 298.43 32.8788L299.004 33.698C300.622 32.5652 303.27 30.715 305.99 29.7904C307.346 29.3293 308.681 29.1127 309.892 29.3046C311.085 29.4937 312.188 30.0837 313.1 31.3L313.9 30.7ZM335.408 31.6021C331.893 28.9278 327.647 27.3912 323.628 27.1643C319.612 26.9376 315.774 28.0187 313.146 30.6464L313.853 31.3536C316.226 28.9813 319.753 27.9471 323.572 28.1627C327.387 28.3781 331.443 29.8416 334.803 32.3979L335.408 31.6021ZM340.879 26.5149C338.856 27.0207 337.263 27.8888 336.187 28.8727C335.129 29.8403 334.504 30.9894 334.608 32.0489L335.603 31.9511C335.543 31.3439 335.91 30.4818 336.862 29.6106C337.797 28.7555 339.234 27.957 341.121 27.4851L340.879 26.5149ZM350.97 31.1709C351.517 29.6656 351.306 28.4823 350.502 27.6393C349.746 26.846 348.547 26.4487 347.328 26.2561C344.871 25.8682 341.927 26.2529 340.879 26.5149L341.121 27.4851C342.073 27.2471 344.879 26.8818 347.172 27.2439C348.327 27.4263 349.254 27.779 349.779 28.3294C350.256 28.8302 350.483 29.5844 350.03 30.8291L350.97 31.1709ZM384.8 30.6C382.699 29.0243 370.501 20.946 350.285 30.5484L350.714 31.4516C370.499 22.054 382.301 29.9757 384.2 31.4L384.8 30.6ZM363.081 24.3959C369.23 24.4695 376.213 24.5553 384.175 31.3796L384.825 30.6204C376.582 23.5551 369.29 23.4701 363.093 23.396L363.081 24.3959Z" fill="#808080"/>
<path fill-rule="evenodd" clip-rule="evenodd" d="M512.126 58.0111C508.437 58.2326 507.5 61.7253 507.5 63.5C507.5 61.7253 506.563 58.2326 502.874 58.0111C502.743 58.0159 502.617 58.0117 502.5 58C502.628 58 502.753 58.0037 502.874 58.0111C504.619 57.9477 507.5 56.322 507.5 50C507.5 56.322 510.381 57.9477 512.126 58.0111ZM512.5 58C512.372 58 512.247 58.0037 512.126 58.0111C512.257 58.0159 512.383 58.0117 512.5 58Z" fill="#D9D9D9"/>
<path d="M502.5 58L502.45 58.4975L502.5 57.5V58ZM512.5 58V57.5L512.55 58.4975L512.5 58ZM507 63.5C507 62.5428 507.249 61.1292 508.005 59.9098C508.774 58.668 510.068 57.6337 512.096 57.512L512.155 58.5102C510.495 58.6099 509.476 59.4327 508.855 60.4363C508.219 61.4623 508 62.6825 508 63.5H507ZM507 63.5C507 62.6825 506.781 61.4623 506.145 60.4363C505.524 59.4327 504.505 58.6099 502.845 58.5102L502.904 57.512C504.932 57.6337 506.226 58.668 506.995 59.9098C507.751 61.1292 508 62.5428 508 63.5H507ZM502.893 58.5107C502.739 58.5163 502.591 58.5116 502.45 58.4975L502.55 57.5025C502.644 57.5119 502.746 57.5154 502.856 57.5114L502.893 58.5107ZM502.5 57.5C502.638 57.5 502.772 57.504 502.904 57.512L502.845 58.5102C502.733 58.5035 502.618 58.5 502.5 58.5V57.5ZM502.856 57.5114C503.585 57.4849 504.602 57.1302 505.447 56.0452C506.296 54.9556 507 53.0899 507 50H508C508 53.2321 507.264 55.3401 506.236 56.6597C505.204 57.984 503.909 58.4738 502.893 58.5107L502.856 57.5114ZM512.107 58.5107C511.091 58.4738 509.796 57.984 508.764 56.6597C507.736 55.3401 507 53.2321 507 50H508C508 53.0899 508.704 54.9556 509.553 56.0452C510.398 57.1302 511.415 57.4849 512.144 57.5114L512.107 58.5107ZM512.5 58.5C512.382 58.5 512.267 58.5035 512.155 58.5102L512.096 57.512C512.228 57.504 512.362 57.5 512.5 57.5V58.5ZM512.144 57.5114C512.254 57.5154 512.356 57.5119 512.45 57.5025L512.55 58.4975C512.409 58.5116 512.261 58.5163 512.107 58.5107L512.144 57.5114Z" fill="#808080"/>
<path fill-rule="evenodd" clip-rule="evenodd" d="M256.874 58.0111C260.563 58.2326 261.5 61.7253 261.5 63.5C261.5 61.7253 262.437 58.2326 266.126 58.0111C266.257 58.0159 266.383 58.0117 266.5 58C266.372 58 266.247 58.0037 266.126 58.0111C264.381 57.9477 261.5 56.322 261.5 50C261.5 56.322 258.619 57.9477 256.874 58.0111ZM256.5 58C256.628 58 256.753 58.0037 256.874 58.0111C256.743 58.0159 256.617 58.0117 256.5 58Z" fill="#D9D9D9"/>
<path d="M266.5 58L266.55 58.4975L266.5 57.5V58ZM256.5 58V57.5L256.45 58.4975L256.5 58ZM262 63.5C262 62.5428 261.751 61.1292 260.995 59.9098C260.226 58.668 258.932 57.6337 256.904 57.512L256.845 58.5102C258.505 58.6099 259.524 59.4327 260.145 60.4363C260.781 61.4623 261 62.6825 261 63.5H262ZM262 63.5C262 62.6825 262.219 61.4623 262.855 60.4363C263.476 59.4327 264.495 58.6099 266.155 58.5102L266.096 57.512C264.068 57.6337 262.774 58.668 262.005 59.9098C261.249 61.1292 261 62.5428 261 63.5H262ZM266.107 58.5107C266.261 58.5163 266.409 58.5116 266.55 58.4975L266.45 57.5025C266.356 57.5119 266.254 57.5154 266.144 57.5114L266.107 58.5107ZM266.5 57.5C266.362 57.5 266.228 57.504 266.096 57.512L266.155 58.5102C266.267 58.5035 266.382 58.5 266.5 58.5V57.5ZM266.144 57.5114C265.415 57.4849 264.398 57.1302 263.553 56.0452C262.704 54.9556 262 53.0899 262 50H261C261 53.2321 261.736 55.3401 262.764 56.6597C263.796 57.984 265.091 58.4738 266.107 58.5107L266.144 57.5114ZM256.893 58.5107C257.909 58.4738 259.204 57.984 260.236 56.6597C261.264 55.3401 262 53.2321 262 50H261C261 53.0899 260.296 54.9556 259.447 56.0452C258.602 57.1302 257.585 57.4849 256.856 57.5114L256.893 58.5107ZM256.5 58.5C256.618 58.5 256.733 58.5035 256.845 58.5102L256.904 57.512C256.772 57.504 256.638 57.5 256.5 57.5V58.5ZM256.856 57.5114C256.746 57.5154 256.644 57.5119 256.55 57.5025L256.45 58.4975C256.591 58.5116 256.739 58.5163 256.893 58.5107L256.856 57.5114Z" fill="#808080"/>
<path fill-rule="evenodd" clip-rule="evenodd" d="M389 6C401 12.5 394 22 394 22C394 22 405.5 26.5 405.5 12C405.5 12 413.5 14.5 418.5 21C410.874 15.916 408.909 18.379 406.4 21.5229C405.454 22.7078 404.432 23.9893 403 25C399.559 27.4289 397.511 27.3552 395.629 27.2875C392.861 27.1879 390.452 27.1012 384.5 35C378.548 27.1012 376.139 27.1879 373.371 27.2875C371.489 27.3552 369.441 27.4289 366 25C364.568 23.9893 363.546 22.7078 362.6 21.5229C360.091 18.379 358.126 15.916 350.5 21C355.5 14.5 363.5 12 363.5 12C363.5 26.5 375 22 375 22C375 22 368 12.5 380 6C370.5 11.8983 380.5 26.6441 384.5 24.678C388.5 26.6441 398.5 11.8983 389 6Z" fill="#D9D9D9"/>
<path d="M394 22L393.818 22.4656L393.211 22.2281L393.597 21.7034L394 22ZM389 6L388.736 6.42478L389.238 5.56035L389 6ZM405.5 12H405V11.3199L405.649 11.5228L405.5 12ZM418.5 21L418.896 20.6951L418.223 21.416L418.5 21ZM406.4 21.5229L406.009 21.2111L406.009 21.2111L406.4 21.5229ZM403 25L402.712 24.5915L402.712 24.5915L403 25ZM395.629 27.2875L395.611 27.7872L395.611 27.7872L395.629 27.2875ZM384.5 35L384.899 35.3009L384.5 35.8308L384.101 35.3009L384.5 35ZM373.371 27.2875L373.389 27.7872L373.389 27.7872L373.371 27.2875ZM366 25L366.288 24.5915L366.288 24.5915L366 25ZM362.6 21.5229L362.991 21.2111L362.991 21.2111L362.6 21.5229ZM350.5 21L350.777 21.416L350.104 20.6951L350.5 21ZM363.5 12L363.351 11.5228L364 11.3199V12H363.5ZM375 22L375.403 21.7034L375.789 22.2281L375.182 22.4656L375 22ZM380 6L379.762 5.56035L380.264 6.42478L380 6ZM384.5 24.678L384.279 24.2292L384.5 24.1208L384.721 24.2292L384.5 24.678ZM394 22C393.597 21.7034 393.597 21.7036 393.597 21.7037C393.597 21.7037 393.597 21.7039 393.597 21.7039C393.597 21.7039 393.597 21.7038 393.597 21.7035C393.598 21.7029 393.599 21.7018 393.6 21.7002C393.602 21.6968 393.606 21.6912 393.612 21.6835C393.623 21.6679 393.64 21.6435 393.662 21.6108C393.707 21.5453 393.772 21.4462 393.852 21.3167C394.012 21.0575 394.229 20.6773 394.454 20.2005C394.906 19.2441 395.383 17.9137 395.502 16.3984C395.62 14.8888 395.384 13.195 394.41 11.4903C393.434 9.78327 391.699 8.03053 388.762 6.43965L389.238 5.56035C392.301 7.21947 394.191 9.09173 395.278 10.9941C396.366 12.8987 396.63 14.7987 396.498 16.4766C396.367 18.1488 395.844 19.5996 395.358 20.6276C395.115 21.143 394.879 21.5558 394.703 21.8415C394.615 21.9844 394.541 22.0959 394.489 22.1727C394.463 22.2111 394.442 22.2409 394.428 22.2616C394.42 22.272 394.414 22.2802 394.41 22.286C394.408 22.2889 394.406 22.2913 394.405 22.293C394.404 22.2939 394.404 22.2947 394.404 22.2953C394.403 22.2956 394.403 22.2959 394.403 22.296C394.403 22.2963 394.403 22.2966 394 22ZM406 12C406 15.6858 405.27 18.231 404.119 19.957C402.961 21.6941 401.408 22.5551 399.866 22.9238C398.337 23.2895 396.824 23.1708 395.708 22.9686C395.147 22.8669 394.679 22.7429 394.35 22.6438C394.185 22.5942 394.055 22.5506 393.964 22.519C393.919 22.5032 393.884 22.4904 393.859 22.4812C393.847 22.4767 393.837 22.473 393.83 22.4704C393.827 22.4691 393.824 22.468 393.822 22.4672C393.821 22.4668 393.82 22.4665 393.819 22.4662C393.819 22.4661 393.819 22.4659 393.818 22.4659C393.818 22.4657 393.818 22.4656 394 22C394.182 21.5344 394.182 21.5343 394.182 21.5342C394.182 21.5342 394.182 21.5342 394.182 21.5342C394.182 21.5342 394.182 21.5343 394.182 21.5344C394.183 21.5347 394.184 21.5352 394.186 21.536C394.191 21.5376 394.197 21.5402 394.207 21.5437C394.226 21.5507 394.255 21.5613 394.294 21.575C394.372 21.6022 394.489 21.6412 394.638 21.6863C394.938 21.7766 395.369 21.8909 395.886 21.9846C396.926 22.173 398.288 22.273 399.634 21.9512C400.967 21.6324 402.289 20.8997 403.287 19.4023C404.293 17.894 405 15.5642 405 12H406ZM418.104 21.3049C415.661 18.129 412.475 15.9193 409.885 14.501C408.592 13.7931 407.454 13.2856 406.64 12.9555C406.234 12.7906 405.908 12.6701 405.686 12.5914C405.575 12.552 405.49 12.523 405.433 12.5041C405.405 12.4947 405.384 12.4877 405.37 12.4833C405.363 12.481 405.358 12.4794 405.355 12.4784C405.353 12.4779 405.352 12.4776 405.351 12.4774C405.351 12.4773 405.351 12.4772 405.351 12.4772C405.351 12.4772 405.351 12.4772 405.351 12.4772C405.351 12.4772 405.351 12.4772 405.5 12C405.649 11.5228 405.649 11.5228 405.649 11.5229C405.65 11.5229 405.65 11.523 405.65 11.523C405.65 11.5232 405.651 11.5233 405.652 11.5235C405.653 11.524 405.655 11.5245 405.657 11.5253C405.662 11.5267 405.668 11.5288 405.677 11.5315C405.693 11.5369 405.717 11.5448 405.749 11.5552C405.812 11.5761 405.903 11.6072 406.021 11.6489C406.256 11.7322 406.595 11.8579 407.016 12.0289C407.859 12.3707 409.033 12.8944 410.365 13.624C413.025 15.0807 416.339 17.371 418.896 20.6951L418.104 21.3049ZM406.009 21.2111C407.235 19.6744 408.462 18.1041 410.427 17.6869C412.397 17.2688 414.946 18.0296 418.777 20.584L418.223 21.416C414.428 18.8864 412.182 18.3367 410.635 18.6651C409.083 18.9945 408.073 20.2276 406.791 21.8348L406.009 21.2111ZM402.712 24.5915C404.077 23.6277 405.059 22.4018 406.009 21.2111L406.791 21.8348C405.85 23.0137 404.787 24.3509 403.288 25.4085L402.712 24.5915ZM395.647 26.7878C396.588 26.8217 397.51 26.853 398.615 26.5932C399.718 26.334 401.033 25.7768 402.712 24.5915L403.288 25.4085C401.527 26.6521 400.096 27.2725 398.844 27.5667C397.595 27.8604 396.552 27.821 395.611 27.7872L395.647 26.7878ZM384.101 34.6991C387.088 30.7349 389.229 28.7139 391.013 27.7087C392.834 26.6832 394.249 26.7375 395.647 26.7878L395.611 27.7872C394.241 27.7379 393.068 27.6991 391.504 28.58C389.904 29.4813 387.864 31.3664 384.899 35.3009L384.101 34.6991ZM384.101 35.3009C381.136 31.3664 379.096 29.4813 377.496 28.58C375.932 27.6991 374.759 27.7379 373.389 27.7872L373.353 26.7878C374.751 26.7375 376.166 26.6832 377.987 27.7087C379.771 28.7139 381.912 30.7349 384.899 34.6991L384.101 35.3009ZM373.389 27.7872C372.448 27.821 371.405 27.8604 370.156 27.5667C368.904 27.2725 367.473 26.6521 365.712 25.4085L366.288 24.5915C367.967 25.7768 369.282 26.334 370.385 26.5932C371.49 26.853 372.412 26.8217 373.353 26.7878L373.389 27.7872ZM365.712 25.4085C364.213 24.3509 363.15 23.0137 362.209 21.8348L362.991 21.2111C363.941 22.4018 364.923 23.6277 366.288 24.5915L365.712 25.4085ZM362.209 21.8348C360.927 20.2276 359.917 18.9945 358.365 18.6651C356.818 18.3367 354.572 18.8864 350.777 21.416L350.223 20.584C354.054 18.0296 356.603 17.2688 358.573 17.6869C360.538 18.1041 361.765 19.6744 362.991 21.2111L362.209 21.8348ZM350.104 20.6951C352.661 17.371 355.975 15.0807 358.635 13.624C359.967 12.8944 361.141 12.3707 361.984 12.0289C362.405 11.8579 362.744 11.7322 362.979 11.6489C363.097 11.6072 363.188 11.5761 363.251 11.5552C363.283 11.5448 363.307 11.5369 363.323 11.5315C363.332 11.5288 363.338 11.5267 363.343 11.5253C363.345 11.5245 363.347 11.524 363.348 11.5235C363.349 11.5233 363.35 11.5232 363.35 11.523C363.35 11.523 363.35 11.5229 363.351 11.5229C363.351 11.5228 363.351 11.5228 363.5 12C363.649 12.4772 363.649 12.4772 363.649 12.4772C363.649 12.4772 363.649 12.4772 363.649 12.4772C363.649 12.4772 363.649 12.4773 363.649 12.4774C363.648 12.4776 363.647 12.4779 363.645 12.4784C363.642 12.4794 363.637 12.481 363.63 12.4833C363.616 12.4877 363.595 12.4947 363.567 12.5041C363.51 12.523 363.425 12.552 363.314 12.5914C363.092 12.6701 362.766 12.7906 362.36 12.9555C361.546 13.2856 360.408 13.7931 359.115 14.501C356.525 15.9193 353.339 18.129 350.896 21.3049L350.104 20.6951ZM364 12C364 15.5642 364.707 17.894 365.713 19.4023C366.711 20.8997 368.033 21.6324 369.366 21.9512C370.712 22.273 372.074 22.173 373.114 21.9846C373.631 21.8909 374.062 21.7766 374.362 21.6863C374.511 21.6412 374.628 21.6022 374.706 21.575C374.745 21.5613 374.774 21.5507 374.793 21.5437C374.803 21.5402 374.809 21.5376 374.814 21.536C374.816 21.5352 374.817 21.5347 374.818 21.5344C374.818 21.5343 374.818 21.5342 374.818 21.5342C374.818 21.5342 374.818 21.5342 374.818 21.5342C374.818 21.5343 374.818 21.5344 375 22C375.182 22.4656 375.182 22.4657 375.182 22.4659C375.181 22.4659 375.181 22.4661 375.181 22.4662C375.18 22.4665 375.179 22.4668 375.178 22.4672C375.176 22.468 375.173 22.4691 375.17 22.4704C375.163 22.473 375.153 22.4767 375.141 22.4812C375.116 22.4904 375.081 22.5032 375.036 22.519C374.945 22.5506 374.815 22.5942 374.65 22.6438C374.321 22.7429 373.853 22.8669 373.292 22.9686C372.176 23.1708 370.663 23.2895 369.134 22.9238C367.592 22.5551 366.039 21.6941 364.881 19.957C363.73 18.231 363 15.6858 363 12H364ZM375 22C374.597 22.2966 374.597 22.2963 374.597 22.296C374.597 22.2959 374.597 22.2956 374.596 22.2953C374.596 22.2947 374.596 22.2939 374.595 22.293C374.594 22.2913 374.592 22.2889 374.59 22.286C374.586 22.2802 374.58 22.272 374.572 22.2616C374.558 22.2409 374.537 22.2111 374.511 22.1727C374.459 22.0959 374.385 21.9844 374.297 21.8415C374.121 21.5558 373.885 21.143 373.642 20.6276C373.156 19.5996 372.633 18.1488 372.502 16.4766C372.37 14.7987 372.634 12.8987 373.722 10.9941C374.809 9.09173 376.699 7.21947 379.762 5.56035L380.238 6.43965C377.301 8.03053 375.566 9.78327 374.59 11.4903C373.616 13.195 373.38 14.8888 373.498 16.3984C373.617 17.9137 374.094 19.2441 374.546 20.2005C374.771 20.6773 374.988 21.0575 375.148 21.3167C375.228 21.4462 375.293 21.5453 375.338 21.6108C375.36 21.6435 375.377 21.6679 375.388 21.6835C375.394 21.6912 375.398 21.6968 375.4 21.7002C375.401 21.7018 375.402 21.7029 375.403 21.7035C375.403 21.7038 375.403 21.7039 375.403 21.7039C375.403 21.7039 375.403 21.7037 375.403 21.7037C375.403 21.7036 375.403 21.7034 375 22ZM380.264 6.42478C378.017 7.81982 376.941 9.71772 376.627 11.7594C376.31 13.8205 376.765 16.0578 377.646 18.0891C378.527 20.1199 379.815 21.9006 381.105 23.0443C381.751 23.6168 382.378 24.0124 382.936 24.2107C383.492 24.4084 383.938 24.397 384.279 24.2292L384.721 25.1267C384.062 25.4504 383.32 25.4084 382.601 25.153C381.884 24.8981 381.147 24.4182 380.442 23.7926C379.029 22.5401 377.66 20.6343 376.729 18.4871C375.798 16.3405 375.284 13.9083 375.639 11.6072C375.996 9.28652 377.233 7.12933 379.736 5.57522L380.264 6.42478ZM389.264 5.57522C391.767 7.12933 393.004 9.28652 393.361 11.6072C393.716 13.9083 393.202 16.3405 392.271 18.4871C391.34 20.6343 389.971 22.5401 388.558 23.7926C387.852 24.4182 387.116 24.8981 386.399 25.153C385.68 25.4084 384.938 25.4504 384.279 25.1267L384.721 24.2292C385.062 24.397 385.508 24.4084 386.064 24.2107C386.622 24.0124 387.249 23.6168 387.895 23.0443C389.185 21.9006 390.473 20.1199 391.354 18.0891C392.235 16.0578 392.69 13.8205 392.373 11.7594C392.059 9.71772 390.983 7.81982 388.736 6.42478L389.264 5.57522Z" fill="#808080"/>
<path fill-rule="evenodd" clip-rule="evenodd" d="M384.5 1C385.3 8.43203 392.067 21.016 401.67 11.322C401.593 11.9855 401.491 12.6394 401.39 13.2833C400.66 17.9708 400.011 22.1363 409.5 25.7196C409.208 25.7196 408.8 25.5393 408.303 25.3198C406.3 24.4343 402.852 22.9104 399.707 30C399.74 29.5753 399.859 29.021 399.997 28.3824C400.541 25.8625 401.367 22.0308 398.236 19.678C394.311 16.1032 384.5 15.7907 384.5 25C384.5 15.7907 374.689 16.1032 370.764 19.678C367.633 22.0308 368.459 25.8625 369.003 28.3824C369.141 29.021 369.26 29.5753 369.293 30C366.148 22.9104 362.7 24.4343 360.697 25.3198C360.2 25.5393 359.792 25.7196 359.5 25.7196C368.989 22.1363 368.34 17.9708 367.61 13.2833C367.509 12.6394 367.407 11.9855 367.33 11.322C376.933 21.016 383.7 8.43203 384.5 1Z" fill="#D9D9D9"/>
<path d="M401.67 11.322L401.315 10.9702L402.334 9.9409L402.167 11.3799L401.67 11.322ZM384.5 1L384.003 0.946474H384.997L384.5 1ZM401.39 13.2833L401.884 13.3603L401.884 13.3603L401.39 13.2833ZM409.5 25.7196L409.677 25.2518L409.5 26.2196V25.7196ZM408.303 25.3198L408.505 24.8625L408.505 24.8625L408.303 25.3198ZM399.707 30L400.165 30.2027L399.209 29.962L399.707 30ZM399.997 28.3824L399.508 28.277L399.508 28.277L399.997 28.3824ZM398.236 19.678L397.935 20.0777L397.917 20.0635L397.899 20.0476L398.236 19.678ZM370.764 19.678L371.101 20.0476L371.083 20.0635L371.065 20.0777L370.764 19.678ZM369.003 28.3824L369.492 28.277L369.492 28.277L369.003 28.3824ZM369.293 30L369.791 29.962L368.835 30.2027L369.293 30ZM360.697 25.3198L360.495 24.8625L360.495 24.8625L360.697 25.3198ZM359.5 25.7196V26.2196L359.323 25.2518L359.5 25.7196ZM367.61 13.2833L367.116 13.3603L367.116 13.3603L367.61 13.2833ZM367.33 11.322L366.833 11.3799L366.666 9.9409L367.685 10.9702L367.33 11.322ZM402.025 11.6739C399.569 14.1531 397.232 15.2706 395.065 15.3437C392.895 15.4169 391 14.4388 389.438 12.9445C386.338 9.97731 384.412 4.84986 384.003 1.05353L384.997 0.946474C385.389 4.58217 387.246 9.46271 390.13 12.222C391.56 13.591 393.207 14.4058 395.032 14.3443C396.86 14.2826 398.969 13.3379 401.315 10.9702L402.025 11.6739ZM400.896 13.2064C400.997 12.5609 401.097 11.9165 401.173 11.2642L402.167 11.3799C402.088 12.0546 401.985 12.7178 401.884 13.3603L400.896 13.2064ZM409.323 26.1873C404.531 24.3775 402.17 22.3751 401.157 20.1205C400.153 17.8869 400.536 15.5194 400.896 13.2064L401.884 13.3603C401.514 15.7347 401.208 17.7938 402.069 19.7106C402.921 21.6064 404.98 23.4784 409.677 25.2518L409.323 26.1873ZM408.505 24.8625C408.758 24.9743 408.967 25.0664 409.148 25.1318C409.335 25.1995 409.444 25.2196 409.5 25.2196V26.2196C409.264 26.2196 409.022 26.1495 408.808 26.0722C408.588 25.9926 408.345 25.8848 408.101 25.7771L408.505 24.8625ZM399.25 29.7973C400.849 26.1938 402.586 24.6365 404.307 24.1856C406.004 23.7408 407.522 24.4279 408.505 24.8625L408.101 25.7771C407.081 25.3262 405.874 24.8086 404.56 25.1529C403.27 25.4911 401.711 26.7165 400.165 30.2027L399.25 29.7973ZM400.486 28.4878C400.345 29.14 400.235 29.6554 400.206 30.038L399.209 29.962C399.244 29.4953 399.374 28.902 399.508 28.277L400.486 28.4878ZM398.536 19.2782C400.244 20.5614 400.868 22.2566 400.993 23.9304C401.116 25.5807 400.755 27.2383 400.486 28.4878L399.508 28.277C399.782 27.0067 400.106 25.4884 399.996 24.0048C399.887 22.5445 399.359 21.1474 397.935 20.0777L398.536 19.2782ZM384 25C384 22.6068 384.639 20.7815 385.706 19.4657C386.772 18.1513 388.23 17.3883 389.792 17.0559C392.888 16.3973 396.487 17.4091 398.572 19.3083L397.899 20.0476C396.06 18.3721 392.791 17.4403 390 18.034C388.619 18.3279 387.379 18.9901 386.483 20.0955C385.587 21.1995 385 22.7886 385 25H384ZM384 25C384 22.7886 383.413 21.1995 382.517 20.0955C381.621 18.9901 380.381 18.3279 379 18.034C376.209 17.4403 372.94 18.3721 371.101 20.0476L370.428 19.3083C372.513 17.4091 376.112 16.3973 379.208 17.0559C380.77 17.3883 382.228 18.1513 383.294 19.4657C384.361 20.7815 385 22.6068 385 25H384ZM371.065 20.0777C369.641 21.1474 369.113 22.5445 369.004 24.0047C368.894 25.4884 369.218 27.0066 369.492 28.277L368.514 28.4878C368.245 27.2383 367.884 25.5807 368.007 23.9304C368.132 22.2566 368.756 20.5614 370.464 19.2782L371.065 20.0777ZM369.492 28.277C369.626 28.902 369.756 29.4953 369.791 29.962L368.794 30.038C368.765 29.6554 368.655 29.14 368.514 28.4878L369.492 28.277ZM368.835 30.2027C367.289 26.7165 365.73 25.4911 364.44 25.1529C363.126 24.8086 361.919 25.3262 360.899 25.7771L360.495 24.8625C361.478 24.4279 362.996 23.7408 364.693 24.1856C366.414 24.6365 368.151 26.1938 369.75 29.7973L368.835 30.2027ZM360.899 25.7771C360.655 25.8848 360.412 25.9926 360.192 26.0722C359.978 26.1495 359.736 26.2196 359.5 26.2196V25.2196C359.556 25.2196 359.665 25.1995 359.852 25.1318C360.033 25.0664 360.242 24.9743 360.495 24.8625L360.899 25.7771ZM359.323 25.2518C364.02 23.4784 366.079 21.6064 366.931 19.7106C367.792 17.7938 367.486 15.7347 367.116 13.3603L368.104 13.2064C368.464 15.5194 368.847 17.8869 367.843 20.1205C366.83 22.3751 364.469 24.3775 359.677 26.1873L359.323 25.2518ZM367.116 13.3603C367.015 12.7178 366.912 12.0546 366.833 11.3799L367.827 11.2642C367.903 11.9165 368.003 12.5609 368.104 13.2064L367.116 13.3603ZM367.685 10.9702C370.031 13.3379 372.14 14.2826 373.968 14.3443C375.793 14.4058 377.44 13.591 378.87 12.222C381.754 9.46271 383.611 4.58217 384.003 0.946474L384.997 1.05353C384.588 4.84986 382.662 9.97731 379.562 12.9445C378 14.4388 376.105 15.4169 373.935 15.3437C371.768 15.2706 369.431 14.1531 366.975 11.6739L367.685 10.9702Z" fill="#808080"/>
<path fill-rule="evenodd" clip-rule="evenodd" d="M384.5 22C385.241 22.1667 387.078 23.3 388.5 26.5C387.167 26.5 384.5 28.1 384.5 34.5C384.5 28.1 381.833 26.5 380.5 26.5C381.922 23.3 383.759 22.1667 384.5 22Z" fill="#D9D9D9"/>
<path d="M388.5 26.5L388.957 26.2969L389.269 27H388.5V26.5ZM384.5 22L384.39 21.5122L384.5 21.4875L384.61 21.5122L384.5 22ZM380.5 26.5V27H379.731L380.043 26.2969L380.5 26.5ZM388.043 26.7031C386.659 23.5881 384.923 22.6076 384.39 22.4878L384.61 21.5122C385.559 21.7257 387.497 23.0119 388.957 26.2969L388.043 26.7031ZM384 34.5C384 28.0061 386.738 26 388.5 26V27C387.595 27 385 28.1939 385 34.5H384ZM384 34.5C384 28.1939 381.405 27 380.5 27V26C382.262 26 385 28.0061 385 34.5H384ZM380.043 26.2969C381.503 23.0119 383.441 21.7257 384.39 21.5122L384.61 22.4878C384.077 22.6076 382.341 23.5881 380.957 26.7031L380.043 26.2969Z" fill="#808080"/>
<path d="M372.841 86.0141C378.471 87.3044 383.306 83.9874 385.02 82.1677C375.156 87.6095 372.162 83.0865 371.898 80.1447C370.715 86.0593 366.052 86.6303 364 86.0141C375.195 92.1104 368.185 93.2868 363.15 93.2755C368.894 95.9343 375.519 92.4877 378.114 90.4321C372.07 91.3518 372.08 87.87 372.841 86.0141Z" fill="#D9D9D9" stroke="#808080"/>
<path d="M397.159 86.0141C391.529 87.3044 386.694 83.9874 384.98 82.1677C394.844 87.6095 397.838 83.0865 398.102 80.1447C399.285 86.0593 403.448 86.6163 405.5 86C394.305 92.0964 401.815 93.2868 406.85 93.2755C401.106 95.9343 394.481 92.4877 391.886 90.4321C397.93 91.3518 397.92 87.87 397.159 86.0141Z" fill="#D9D9D9" stroke="#808080"/>
<path fill-rule="evenodd" clip-rule="evenodd" d="M385 89.5C384.259 89.3333 382.422 88.2 381 85C382.333 85 385 83.4 385 77C385 83.4 387.667 85 389 85C387.578 88.2 385.741 89.3333 385 89.5Z" fill="#B3B3B3"/>
<path d="M381 85L380.543 85.2031L380.231 84.5L381 84.5L381 85ZM385 89.5L385.11 89.9878L385 90.0125L384.89 89.9878L385 89.5ZM389 85L389 84.5L389.769 84.5L389.457 85.2031L389 85ZM381.457 84.7969C382.841 87.9119 384.577 88.8924 385.11 89.0122L384.89 89.9878C383.941 89.7743 382.003 88.4881 380.543 85.2031L381.457 84.7969ZM385.5 77C385.5 83.4939 382.762 85.5 381 85.5L381 84.5C381.905 84.5 384.5 83.3061 384.5 77L385.5 77ZM385.5 77C385.5 83.3061 388.095 84.5 389 84.5L389 85.5C387.238 85.5 384.5 83.4939 384.5 77L385.5 77ZM389.457 85.2031C387.997 88.4881 386.059 89.7743 385.11 89.9878L384.89 89.0122C385.423 88.8924 387.159 87.9119 388.543 84.7969L389.457 85.2031Z" fill="#808080"/>
<path d="M441 81.5C432.6 86.3 413 84.5 405.5 86C418 84 431.833 89.5 432 91.5C432 90.5 432 88 437 87C442.831 85.8338 446.5 89.3333 447.5 91.5C452.7 90.7 461.5 87.6667 467 86C451.4 86 444.333 82.8333 441 81.5Z" fill="#D9D9D9" stroke="#808080"/>
<path d="M467 86C468.622 86.1758 470.42 86.2981 472.33 86.3421C487.32 87.3859 488.938 88.389 493 92C494 84.5 502.5 80.5 522 80.5C508.5 78.5 507.833 70.5 507.5 63.5C507.5 82.5679 486.719 86.6735 472.33 86.3421C470.715 86.2296 468.945 86.1167 467 86Z" fill="#D9D9D9"/>
<path d="M467 86C480.833 87.5 507.5 85.1 507.5 63.5C507.833 70.5 508.5 78.5 522 80.5C502.5 80.5 494 84.5 493 92C488.5 88 487 87.2 467 86Z" stroke="#808080"/>
<path d="M328.5 81.5C336.9 86.3 356.5 84.5 364 86C351.5 84 337.667 89.5 337.5 91.5C337.5 90.5 337.5 88 332.5 87C326.669 85.8338 323 89.3333 322 91.5C316.8 90.7 308 87.6667 302.5 86C318.1 86 325.167 82.8333 328.5 81.5Z" fill="#D9D9D9" stroke="#808080"/>
<path fill-rule="evenodd" clip-rule="evenodd" d="M302.5 86C301.158 86.1455 299.69 86.2543 298.134 86.3125C299.507 86.1971 300.961 86.0923 302.5 86ZM261.604 65.7641C263.258 83.3051 284.23 86.832 298.134 86.3125C281.66 87.6971 276.808 90.6154 276.5 92C274.203 88.9683 272.012 86.7489 269.902 85.2014C267.154 83.4741 264.38 82.3399 261.5 82.2651C258.62 82.3399 255.846 83.4741 253.098 85.2014C250.988 86.7489 248.797 88.9683 246.5 92C246.192 90.6154 241.34 87.6971 224.866 86.3125C223.31 86.2543 221.842 86.1455 220.5 86C222.039 86.0923 223.493 86.1971 224.866 86.3125C238.77 86.832 259.742 83.3051 261.396 65.7641C261.418 65.3373 261.437 64.9032 261.457 64.4582C261.47 64.1445 261.485 63.8255 261.5 63.5C261.515 63.8255 261.53 64.1445 261.543 64.4582C261.563 64.9032 261.582 65.3374 261.604 65.7641Z" fill="#D9D9D9"/>
<path d="M302.5 86L302.47 85.5009L302.554 86.4971L302.5 86ZM261.604 65.7641L261.106 65.8111L261.105 65.8006L261.105 65.79L261.604 65.7641ZM276.5 92L276.988 92.1085L276.754 93.163L276.101 92.3019L276.5 92ZM269.902 85.2014L270.168 84.7781L270.183 84.7876L270.198 84.7982L269.902 85.2014ZM261.5 82.2651L261.487 81.7652L261.5 81.7649L261.513 81.7652L261.5 82.2651ZM253.098 85.2014L252.802 84.7982L252.817 84.7876L252.832 84.7781L253.098 85.2014ZM246.5 92L246.899 92.3019L246.246 93.163L246.012 92.1085L246.5 92ZM220.5 86L220.446 86.4971L220.53 85.5009L220.5 86ZM261.396 65.7641L261.895 65.79L261.895 65.8005L261.894 65.8111L261.396 65.7641ZM261.457 64.4582L261.956 64.4803L261.956 64.4803L261.457 64.4582ZM261.5 63.5L261.001 63.4762H261.999L261.5 63.5ZM261.543 64.4582L261.044 64.4803L261.044 64.4803L261.543 64.4582ZM302.554 86.4971C301.2 86.6439 299.72 86.7536 298.153 86.8121L298.116 85.8128C299.66 85.7551 301.116 85.6471 302.446 85.5029L302.554 86.4971ZM298.092 85.8142C299.47 85.6985 300.928 85.5934 302.47 85.5009L302.53 86.4991C300.995 86.5912 299.545 86.6957 298.176 86.8107L298.092 85.8142ZM262.102 65.7172C262.906 74.2465 268.39 79.3862 275.468 82.3498C282.563 85.3203 291.202 86.0712 298.116 85.8128L298.153 86.8121C291.163 87.0733 282.363 86.3204 275.082 83.2722C267.785 80.217 261.956 74.8228 261.106 65.8111L262.102 65.7172ZM298.176 86.8107C289.959 87.5013 284.669 88.5724 281.409 89.6318C279.778 90.1618 278.672 90.6834 277.965 91.1414C277.231 91.6177 277.02 91.9659 276.988 92.1085L276.012 91.8915C276.134 91.3418 276.645 90.8059 277.421 90.3024C278.226 89.7805 279.421 89.2264 281.1 88.6807C284.461 87.5886 289.835 86.5083 298.092 85.8142L298.176 86.8107ZM276.101 92.3019C273.825 89.2969 271.667 87.1159 269.606 85.6046L270.198 84.7982C272.357 86.382 274.582 88.6397 276.899 91.6981L276.101 92.3019ZM261.513 81.7652C264.517 81.8433 267.38 83.0256 270.168 84.7781L269.636 85.6248C266.928 83.9226 264.242 82.8365 261.487 82.7649L261.513 81.7652ZM261.513 82.7649C258.758 82.8365 256.072 83.9226 253.364 85.6248L252.832 84.7781C255.62 83.0256 258.483 81.8433 261.487 81.7652L261.513 82.7649ZM246.101 91.6981C248.418 88.6397 250.643 86.382 252.802 84.7982L253.394 85.6046C251.333 87.1159 249.175 89.2969 246.899 92.3019L246.101 91.6981ZM224.908 85.8142C233.165 86.5083 238.539 87.5886 241.9 88.6807C243.579 89.2264 244.774 89.7805 245.579 90.3024C246.355 90.8059 246.866 91.3418 246.988 91.8915L246.012 92.1085C245.98 91.9659 245.769 91.6177 245.035 91.1414C244.328 90.6834 243.222 90.1618 241.591 89.6318C238.331 88.5724 233.041 87.5013 224.824 86.8107L224.908 85.8142ZM220.554 85.5029C221.884 85.6471 223.34 85.7551 224.884 85.8128L224.847 86.8121C223.28 86.7536 221.8 86.6439 220.446 86.4971L220.554 85.5029ZM224.824 86.8107C223.455 86.6957 222.005 86.5912 220.47 86.4991L220.53 85.5009C222.072 85.5934 223.53 85.6985 224.908 85.8142L224.824 86.8107ZM261.894 65.8111C261.044 74.8228 255.215 80.217 247.918 83.2722C240.637 86.3204 231.837 87.0733 224.847 86.8121L224.884 85.8128C231.798 86.0712 240.437 85.3203 247.532 82.3498C254.61 79.3861 260.094 74.2464 260.898 65.7172L261.894 65.8111ZM260.896 65.7383C260.918 65.3137 260.937 64.8815 260.957 64.4362L261.956 64.4803C261.937 64.9248 261.917 65.361 261.895 65.79L260.896 65.7383ZM260.957 64.4362C260.971 64.1227 260.985 63.8028 261.001 63.4762L261.999 63.5238C261.984 63.8483 261.97 64.1664 261.956 64.4803L260.957 64.4362ZM261.044 64.4803C261.03 64.1664 261.016 63.8483 261.001 63.5238L261.999 63.4762C262.015 63.8028 262.029 64.1227 262.043 64.4362L261.044 64.4803ZM261.105 65.79C261.083 65.361 261.063 64.9248 261.044 64.4803L262.043 64.4362C262.063 64.8815 262.082 65.3138 262.104 65.7383L261.105 65.79Z" fill="#808080"/>
<rect width="246" height="59" rx="20" transform="matrix(-1 0 0 1 261.5 27)" fill="#292929"/>
<path fill-rule="evenodd" clip-rule="evenodd" d="M159.913 23.896C167.073 23.8104 172.935 23.7402 177.5 13C175 27.5 201.5 26.8007 209.5 21.5C213.6 29 240.662 25.3 232.748 18.5C261.5 18.5 261.5 42.4999 261.5 49.9999V50C260.834 40.5 254.5 24.5 244 38C248 22.5 222.954 25.2 225.328 34C225.073 33.8413 224.718 33.5928 224.283 33.2884C221.065 31.0351 213.464 25.7142 209.5 31C204.5 26 194.769 26.7694 187.895 32C188.058 30.3333 185.911 27.9777 182 27C180 26.5 170.5 25.5 172.5 31C152.5 21.5 140.5 29.5 138.5 31C146.602 24.0552 153.74 23.9698 159.913 23.896Z" fill="#4D4D4D"/>
<path d="M177.5 13L177.04 12.8044L177.993 13.085L177.5 13ZM159.913 23.896L159.919 24.3959L159.919 24.3959L159.913 23.896ZM209.5 21.5L209.224 21.0832L209.678 20.7825L209.939 21.2602L209.5 21.5ZM232.748 18.5L232.422 18.8792L231.399 18H232.748V18.5ZM261.5 50H262L261.001 50.035L261.5 50ZM244 38L244.395 38.307L243.516 37.8751L244 38ZM225.328 34L225.811 33.8698L226.141 35.0948L225.064 34.4245L225.328 34ZM224.283 33.2884L224.57 32.8788L224.57 32.8788L224.283 33.2884ZM209.5 31L209.9 31.3L209.554 31.7612L209.147 31.3536L209.5 31ZM187.895 32L188.197 32.3979L187.285 33.0922L187.397 31.9511L187.895 32ZM182 27L181.879 27.4851L181.879 27.4851L182 27ZM172.5 31L172.97 30.8291L173.387 31.9746L172.286 31.4516L172.5 31ZM138.5 31L138.8 31.4L138.175 30.6204L138.5 31ZM177.96 13.1956C175.647 18.638 172.969 21.4571 169.892 22.8964C166.845 24.321 163.476 24.3534 159.919 24.3959L159.907 23.396C163.511 23.3529 166.652 23.3074 169.468 21.9905C172.253 20.6883 174.788 18.1022 177.04 12.8044L177.96 13.1956ZM209.776 21.9168C207.692 23.2978 204.457 24.351 200.854 24.9406C197.241 25.532 193.207 25.6657 189.496 25.1709C185.796 24.6774 182.36 23.5512 179.999 21.5741C177.606 19.57 176.352 16.717 177.007 12.915L177.993 13.085C177.398 16.533 178.519 19.0301 180.641 20.8074C182.796 22.6117 186.017 23.698 189.629 24.1797C193.23 24.6599 197.165 24.5312 200.693 23.9538C204.231 23.3746 207.308 22.3526 209.224 21.0832L209.776 21.9168ZM233.074 18.1208C234.112 19.0134 234.677 19.9387 234.689 20.8825C234.701 21.8357 234.149 22.6401 233.342 23.2832C231.744 24.5568 228.862 25.4364 225.695 25.8581C222.506 26.2828 218.93 26.2561 215.876 25.6417C212.857 25.0342 210.199 23.8206 209.061 21.7398L209.939 21.2602C210.851 22.9294 213.114 24.0658 216.074 24.6614C219 25.2501 222.463 25.2797 225.563 24.8669C228.685 24.4511 231.341 23.5994 232.719 22.5012C233.4 21.9583 233.696 21.4167 233.689 20.8953C233.682 20.3644 233.362 19.6866 232.422 18.8792L233.074 18.1208ZM261 49.9999C261 46.2436 260.993 38.4841 257.462 31.6674C255.702 28.27 253.068 25.1114 249.118 22.7987C245.165 20.4849 239.866 19 232.748 19V18C240.006 18 245.488 19.5151 249.623 21.9357C253.759 24.3573 256.516 27.6674 258.35 31.2074C262.007 38.2657 262 46.2562 262 49.9999H261ZM261 50V49.9999H262V50H261ZM243.605 37.693C246.262 34.2778 248.733 32.6209 251.011 32.3473C253.319 32.07 255.267 33.2284 256.818 35.0509C258.367 36.87 259.575 39.4069 260.437 42.0645C261.301 44.7277 261.829 47.549 261.999 49.965L261.001 50.035C260.838 47.701 260.325 44.9598 259.485 42.373C258.645 39.7806 257.488 37.38 256.057 35.6991C254.629 34.0216 252.983 33.1175 251.13 33.3402C249.246 33.5666 246.988 34.9722 244.395 38.307L243.605 37.693ZM224.845 34.1302C224.175 31.6448 225.476 29.6297 227.537 28.3116C229.589 26.9988 232.476 26.3041 235.289 26.3877C238.098 26.4713 240.924 27.3357 242.794 29.249C244.69 31.1894 245.518 34.1194 244.484 38.1249L243.516 37.8751C244.482 34.1306 243.679 31.5856 242.079 29.9479C240.451 28.283 237.914 27.4662 235.259 27.3873C232.606 27.3084 229.927 27.9699 228.076 29.154C226.233 30.3328 225.294 31.9552 225.811 33.8698L224.845 34.1302ZM224.57 32.8788C225.01 33.1869 225.351 33.4257 225.592 33.5755L225.064 34.4245C224.794 34.2569 224.426 33.9988 223.996 33.698L224.57 32.8788ZM209.1 30.7C210.17 29.2734 211.504 28.5463 212.952 28.3169C214.381 28.0903 215.891 28.3536 217.332 28.8437C220.208 29.8214 222.969 31.7583 224.57 32.8788L223.996 33.698C222.378 32.5652 219.73 30.715 217.01 29.7904C215.654 29.3293 214.319 29.1127 213.108 29.3046C211.915 29.4937 210.812 30.0837 209.9 31.3L209.1 30.7ZM187.592 31.6021C191.107 28.9278 195.353 27.3912 199.372 27.1643C203.388 26.9376 207.226 28.0187 209.854 30.6464L209.147 31.3536C206.774 28.9813 203.247 27.9471 199.428 28.1627C195.613 28.3781 191.557 29.8416 188.197 32.3979L187.592 31.6021ZM182.121 26.5149C184.144 27.0207 185.737 27.8888 186.813 28.8727C187.871 29.8403 188.496 30.9894 188.392 32.0489L187.397 31.9511C187.457 31.3439 187.09 30.4818 186.138 29.6106C185.203 28.7555 183.766 27.957 181.879 27.4851L182.121 26.5149ZM172.03 31.1709C171.483 29.6656 171.694 28.4823 172.498 27.6393C173.254 26.846 174.453 26.4487 175.672 26.2561C178.129 25.8682 181.073 26.2529 182.121 26.5149L181.879 27.4851C180.927 27.2471 178.121 26.8818 175.828 27.2439C174.673 27.4263 173.746 27.779 173.221 28.3294C172.744 28.8302 172.517 29.5844 172.97 30.8291L172.03 31.1709ZM138.2 30.6C140.301 29.0243 152.499 20.946 172.715 30.5484L172.286 31.4516C152.501 22.054 140.699 29.9757 138.8 31.4L138.2 30.6ZM159.919 24.3959C153.77 24.4695 146.787 24.5553 138.825 31.3796L138.175 30.6204C146.418 23.5551 153.71 23.4701 159.907 23.396L159.919 24.3959Z" fill="#292929"/>
<path fill-rule="evenodd" clip-rule="evenodd" d="M117.087 23.896C109.927 23.8104 104.065 23.7402 99.4999 13C102 27.5 75.4999 26.8007 67.4999 21.5C63.3999 29 36.3383 25.3 44.2522 18.5C15.5 18.5 15.5 42.4999 15.5 49.9999V50C16.1663 40.5 22.5 24.5 32.9999 38C29 22.5 54.0462 25.2 51.672 34C51.9271 33.8413 52.2819 33.5928 52.7168 33.2884C55.9353 31.0351 63.5356 25.7142 67.4999 31C72.4999 26 82.2309 26.7694 89.1053 32C88.9416 30.3333 91.0891 27.9777 94.9999 27C96.9999 26.5 106.5 25.5 104.5 31C124.5 21.5 136.5 29.5 138.5 31C130.398 24.0552 123.26 23.9698 117.087 23.896Z" fill="#4D4D4D"/>
<path d="M99.4999 13L99.9601 12.8044L99.0072 13.085L99.4999 13ZM117.087 23.896L117.081 24.3959L117.081 24.3959L117.087 23.896ZM67.4999 21.5L67.7761 21.0832L67.3223 20.7825L67.0612 21.2602L67.4999 21.5ZM44.2522 18.5L44.5781 18.8792L45.6014 18H44.2522V18.5ZM15.5 50H15L15.9988 50.035L15.5 50ZM32.9999 38L32.6052 38.307L33.4841 37.8751L32.9999 38ZM51.672 34L51.1892 33.8698L50.8587 35.0948L51.9361 34.4245L51.672 34ZM52.7168 33.2884L52.4301 32.8788L52.4301 32.8788L52.7168 33.2884ZM67.4999 31L67.0999 31.3L67.4458 31.7612L67.8535 31.3536L67.4999 31ZM89.1053 32L88.8025 32.3979L89.715 33.0922L89.6029 31.9511L89.1053 32ZM94.9999 27L95.1212 27.4851L95.1212 27.4851L94.9999 27ZM104.5 31L104.03 30.8291L103.613 31.9746L104.714 31.4516L104.5 31ZM138.5 31L138.2 31.4L138.825 30.6204L138.5 31ZM99.0398 13.1956C101.353 18.638 104.031 21.4571 107.108 22.8964C110.155 24.321 113.524 24.3534 117.081 24.3959L117.093 23.396C113.489 23.3529 110.348 23.3074 107.532 21.9905C104.747 20.6883 102.212 18.1022 99.9601 12.8044L99.0398 13.1956ZM67.2237 21.9168C69.3079 23.2978 72.5433 24.351 76.1457 24.9406C79.7586 25.532 83.7928 25.6657 87.5035 25.1709C91.2042 24.6774 94.6396 23.5512 97.0006 21.5741C99.3939 19.57 100.648 16.717 99.9927 12.915L99.0072 13.085C99.6017 16.533 98.481 19.0301 96.3586 20.8074C94.204 22.6117 90.9831 23.698 87.3713 24.1797C83.7696 24.6599 79.835 24.5312 76.3073 23.9538C72.7691 23.3746 69.6919 22.3526 67.7761 21.0832L67.2237 21.9168ZM43.9264 18.1208C42.8875 19.0134 42.3229 19.9387 42.3109 20.8825C42.2987 21.8357 42.8508 22.6401 43.6578 23.2832C45.256 24.5568 48.1384 25.4364 51.3048 25.8581C54.4935 26.2828 58.0699 26.2561 61.1235 25.6417C64.1431 25.0342 66.8012 23.8206 67.9386 21.7398L67.0612 21.2602C66.1487 22.9294 63.8865 24.0658 60.9263 24.6614C58 25.2501 54.5368 25.2797 51.4368 24.8669C48.3146 24.4511 45.6592 23.5994 44.281 22.5012C43.5998 21.9583 43.3041 21.4167 43.3108 20.8953C43.3176 20.3644 43.6385 19.6866 44.5781 18.8792L43.9264 18.1208ZM16 49.9999C16 46.2436 16.0065 38.4841 19.538 31.6674C21.2981 28.27 23.9321 25.1114 27.8825 22.7987C31.8345 20.4849 37.1344 19 44.2522 19V18C36.994 18 31.5117 19.5151 27.3772 21.9357C23.241 24.3573 20.484 27.6674 18.6501 31.2074C14.9935 38.2657 15 46.2562 15 49.9999H16ZM16 50V49.9999H15V50H16ZM33.3946 37.693C30.7383 34.2778 28.2665 32.6209 25.9893 32.3473C23.6812 32.07 21.733 33.2284 20.1816 35.0509C18.6332 36.87 17.4254 39.4069 16.5633 42.0645C15.6994 44.7277 15.1707 47.549 15.0012 49.965L15.9988 50.035C16.1625 47.701 16.6754 44.9598 17.5145 42.373C18.3555 39.7806 19.5123 37.38 20.9431 35.6991C22.371 34.0216 24.0165 33.1175 25.87 33.3402C27.7542 33.5666 30.0115 34.9722 32.6052 38.307L33.3946 37.693ZM52.1547 34.1302C52.8253 31.6448 51.5236 29.6297 49.463 28.3116C47.4107 26.9988 44.5237 26.3041 41.7114 26.3877C38.9018 26.4713 36.0761 27.3357 34.2062 29.249C32.3098 31.1894 31.4821 34.1194 32.5158 38.1249L33.4841 37.8751C32.5178 34.1306 33.3209 31.5856 34.9214 29.9479C36.5486 28.283 39.086 27.4662 41.7412 27.3873C44.3937 27.3084 47.073 27.9699 48.9242 29.154C50.767 30.3328 51.7058 31.9552 51.1892 33.8698L52.1547 34.1302ZM52.4301 32.8788C51.9899 33.1869 51.6485 33.4257 51.4078 33.5755L51.9361 34.4245C52.2056 34.2569 52.574 33.9988 53.0036 33.698L52.4301 32.8788ZM67.8999 30.7C66.83 29.2734 65.4957 28.5463 64.0485 28.3169C62.6185 28.0903 61.1093 28.3536 59.6677 28.8437C56.7917 29.8214 54.0305 31.7583 52.4301 32.8788L53.0036 33.698C54.6216 32.5652 57.2698 30.715 59.9896 29.7904C61.346 29.3293 62.6813 29.1127 63.8919 29.3046C65.0853 29.4937 66.1877 30.0837 67.0999 31.3L67.8999 30.7ZM89.4081 31.6021C85.8934 28.9278 81.6469 27.3912 77.6279 27.1643C73.6119 26.9376 69.7741 28.0187 67.1464 30.6464L67.8535 31.3536C70.2257 28.9813 73.7534 27.9471 77.5715 28.1627C81.3866 28.3781 85.4428 29.8416 88.8025 32.3979L89.4081 31.6021ZM94.8787 26.5149C92.8556 27.0207 91.2629 27.8888 90.1872 28.8727C89.1293 29.8403 88.5037 30.9894 88.6077 32.0489L89.6029 31.9511C89.5433 31.3439 89.9096 30.4818 90.8622 29.6106C91.797 28.7555 93.2335 27.957 95.1212 27.4851L94.8787 26.5149ZM104.97 31.1709C105.517 29.6656 105.306 28.4823 104.502 27.6393C103.746 26.846 102.547 26.4487 101.328 26.2561C98.8713 25.8682 95.9269 26.2529 94.8787 26.5149L95.1212 27.4851C96.073 27.2471 98.8786 26.8818 101.172 27.2439C102.327 27.4263 103.254 27.779 103.779 28.3294C104.256 28.8302 104.483 29.5844 104.03 30.8291L104.97 31.1709ZM138.8 30.6C136.699 29.0243 124.501 20.946 104.285 30.5484L104.714 31.4516C124.499 22.054 136.301 29.9757 138.2 31.4L138.8 30.6ZM117.081 24.3959C123.23 24.4695 130.213 24.5553 138.175 31.3796L138.825 30.6204C130.582 23.5551 123.29 23.4701 117.093 23.396L117.081 24.3959Z" fill="#292929"/>
<path fill-rule="evenodd" clip-rule="evenodd" d="M266.126 58.0111C262.437 58.2326 261.5 61.7253 261.5 63.5C261.5 61.7253 260.563 58.2326 256.874 58.0111C256.743 58.0159 256.617 58.0117 256.5 58C256.628 58 256.753 58.0037 256.874 58.0111C258.619 57.9477 261.5 56.322 261.5 50C261.5 56.322 264.381 57.9477 266.126 58.0111ZM266.5 58C266.372 58 266.247 58.0037 266.126 58.0111C266.257 58.0159 266.383 58.0117 266.5 58Z" fill="#4D4D4D"/>
<path d="M256.5 58L256.45 58.4975L256.5 57.5V58ZM266.5 58V57.5L266.55 58.4975L266.5 58ZM261 63.5C261 62.5428 261.249 61.1292 262.005 59.9098C262.774 58.668 264.068 57.6337 266.096 57.512L266.155 58.5102C264.495 58.6099 263.476 59.4327 262.855 60.4363C262.219 61.4623 262 62.6825 262 63.5H261ZM261 63.5C261 62.6825 260.781 61.4623 260.145 60.4363C259.524 59.4327 258.505 58.6099 256.845 58.5102L256.904 57.512C258.932 57.6337 260.226 58.668 260.995 59.9098C261.751 61.1292 262 62.5428 262 63.5H261ZM256.893 58.5107C256.739 58.5163 256.591 58.5116 256.45 58.4975L256.55 57.5025C256.644 57.5119 256.746 57.5154 256.856 57.5114L256.893 58.5107ZM256.5 57.5C256.638 57.5 256.772 57.504 256.904 57.512L256.845 58.5102C256.733 58.5035 256.618 58.5 256.5 58.5V57.5ZM256.856 57.5114C257.585 57.4849 258.602 57.1302 259.447 56.0452C260.296 54.9556 261 53.0899 261 50H262C262 53.2321 261.264 55.3401 260.236 56.6597C259.204 57.984 257.909 58.4738 256.893 58.5107L256.856 57.5114ZM266.107 58.5107C265.091 58.4738 263.796 57.984 262.764 56.6597C261.736 55.3401 261 53.2321 261 50H262C262 53.0899 262.704 54.9556 263.553 56.0452C264.398 57.1302 265.415 57.4849 266.144 57.5114L266.107 58.5107ZM266.5 58.5C266.382 58.5 266.267 58.5035 266.155 58.5102L266.096 57.512C266.228 57.504 266.362 57.5 266.5 57.5V58.5ZM266.144 57.5114C266.254 57.5154 266.356 57.5119 266.45 57.5025L266.55 58.4975C266.409 58.5116 266.261 58.5163 266.107 58.5107L266.144 57.5114Z" fill="#292929"/>
<path fill-rule="evenodd" clip-rule="evenodd" d="M10.8745 58.0111C14.5629 58.2326 15.5 61.7253 15.5 63.5C15.5 61.7253 16.4371 58.2326 20.1255 58.0111C20.2574 58.0159 20.3828 58.0117 20.5 58C20.3721 58 20.2473 58.0037 20.1255 58.0111C18.3811 57.9477 15.5 56.322 15.5 50C15.5 56.322 12.6189 57.9477 10.8745 58.0111ZM10.5 58C10.6279 58 10.7527 58.0037 10.8745 58.0111C10.7426 58.0159 10.6172 58.0117 10.5 58Z" fill="#4D4D4D"/>
<path d="M20.5 58L20.5498 58.4975L20.5 57.5V58ZM10.5 58V57.5L10.4502 58.4975L10.5 58ZM16 63.5C16 62.5428 15.7507 61.1292 14.9955 59.9098C14.2264 58.668 12.932 57.6337 10.9044 57.512L10.8445 58.5102C12.5054 58.6099 13.5238 59.4327 14.1453 60.4363C14.7808 61.4623 15 62.6825 15 63.5H16ZM16 63.5C16 62.6825 16.2192 61.4623 16.8547 60.4363C17.4762 59.4327 18.4946 58.6099 20.1555 58.5102L20.0956 57.512C18.068 57.6337 16.7736 58.668 16.0045 59.9098C15.2493 61.1292 15 62.5428 15 63.5H16ZM20.1074 58.5107C20.2611 58.5163 20.4092 58.5116 20.5498 58.4975L20.4502 57.5025C20.3565 57.5119 20.2538 57.5154 20.1437 57.5114L20.1074 58.5107ZM20.5 57.5C20.3624 57.5 20.2276 57.504 20.0956 57.512L20.1555 58.5102C20.2671 58.5035 20.3819 58.5 20.5 58.5V57.5ZM20.1437 57.5114C19.4153 57.4849 18.3982 57.1302 17.5531 56.0452C16.7043 54.9556 16 53.0899 16 50H15C15 53.2321 15.7362 55.3401 16.7642 56.6597C17.7957 57.984 19.0914 58.4738 20.1074 58.5107L20.1437 57.5114ZM10.8926 58.5107C11.9086 58.4738 13.2043 57.984 14.2358 56.6597C15.2638 55.3401 16 53.2321 16 50H15C15 53.0899 14.2957 54.9556 13.4469 56.0452C12.6018 57.1302 11.5847 57.4849 10.8563 57.5114L10.8926 58.5107ZM10.5 58.5C10.6181 58.5 10.7329 58.5035 10.8445 58.5102L10.9044 57.512C10.7724 57.504 10.6376 57.5 10.5 57.5V58.5ZM10.8563 57.5114C10.7462 57.5154 10.6435 57.5119 10.5498 57.5025L10.4502 58.4975C10.5908 58.5116 10.7389 58.5163 10.8926 58.5107L10.8563 57.5114Z" fill="#292929"/>
<path fill-rule="evenodd" clip-rule="evenodd" d="M143 6C155 12.5 148 22 148 22C148 22 159.5 26.5 159.5 12C159.5 12 167.5 14.5 172.5 21C164.874 15.916 162.909 18.379 160.4 21.5229C159.454 22.7078 158.432 23.9893 157 25C153.559 27.4289 151.511 27.3552 149.629 27.2875C146.861 27.1879 144.452 27.1012 138.5 35C132.548 27.1012 130.139 27.1879 127.371 27.2875C125.489 27.3552 123.441 27.4289 120 25C118.568 23.9893 117.546 22.7078 116.6 21.5229C114.091 18.379 112.126 15.916 104.5 21C109.5 14.5 117.5 12 117.5 12C117.5 26.5 129 22 129 22C129 22 122 12.5 134 6C124.5 11.8983 134.5 26.6441 138.5 24.678C142.5 26.6441 152.5 11.8983 143 6Z" fill="#4D4D4D"/>
<path d="M148 22L147.818 22.4656L147.211 22.2281L147.597 21.7034L148 22ZM143 6L142.736 6.42478L143.238 5.56035L143 6ZM159.5 12H159V11.3199L159.649 11.5228L159.5 12ZM172.5 21L172.896 20.6951L172.223 21.416L172.5 21ZM160.4 21.5229L160.009 21.2111L160.009 21.2111L160.4 21.5229ZM157 25L156.712 24.5915L156.712 24.5915L157 25ZM149.629 27.2875L149.611 27.7872L149.611 27.7872L149.629 27.2875ZM138.5 35L138.899 35.3009L138.5 35.8308L138.101 35.3009L138.5 35ZM127.371 27.2875L127.389 27.7872L127.389 27.7872L127.371 27.2875ZM120 25L120.288 24.5915L120.288 24.5915L120 25ZM116.6 21.5229L116.991 21.2111L116.991 21.2111L116.6 21.5229ZM104.5 21L104.777 21.416L104.104 20.6951L104.5 21ZM117.5 12L117.351 11.5228L118 11.3199V12H117.5ZM129 22L129.403 21.7034L129.789 22.2281L129.182 22.4656L129 22ZM134 6L133.762 5.56035L134.264 6.42478L134 6ZM138.5 24.678L138.279 24.2292L138.5 24.1208L138.721 24.2292L138.5 24.678ZM148 22C147.597 21.7034 147.597 21.7036 147.597 21.7037C147.597 21.7037 147.597 21.7039 147.597 21.7039C147.597 21.7039 147.597 21.7038 147.597 21.7035C147.598 21.7029 147.599 21.7018 147.6 21.7002C147.602 21.6968 147.606 21.6912 147.612 21.6835C147.623 21.6679 147.64 21.6435 147.662 21.6108C147.707 21.5453 147.772 21.4462 147.852 21.3167C148.012 21.0575 148.229 20.6773 148.454 20.2005C148.906 19.2441 149.383 17.9137 149.502 16.3984C149.62 14.8888 149.384 13.195 148.41 11.4903C147.434 9.78327 145.699 8.03053 142.762 6.43965L143.238 5.56035C146.301 7.21947 148.191 9.09173 149.278 10.9941C150.366 12.8987 150.63 14.7987 150.498 16.4766C150.367 18.1488 149.844 19.5996 149.358 20.6276C149.115 21.143 148.879 21.5558 148.703 21.8415C148.615 21.9844 148.541 22.0959 148.489 22.1727C148.463 22.2111 148.442 22.2409 148.428 22.2616C148.42 22.272 148.414 22.2802 148.41 22.286C148.408 22.2889 148.406 22.2913 148.405 22.293C148.404 22.2939 148.404 22.2947 148.404 22.2953C148.403 22.2956 148.403 22.2959 148.403 22.296C148.403 22.2963 148.403 22.2966 148 22ZM160 12C160 15.6858 159.27 18.231 158.119 19.957C156.961 21.6941 155.408 22.5551 153.866 22.9238C152.337 23.2895 150.824 23.1708 149.708 22.9686C149.147 22.8669 148.679 22.7429 148.35 22.6438C148.185 22.5942 148.055 22.5506 147.964 22.519C147.919 22.5032 147.884 22.4904 147.859 22.4812C147.847 22.4767 147.837 22.473 147.83 22.4704C147.827 22.4691 147.824 22.468 147.822 22.4672C147.821 22.4668 147.82 22.4665 147.819 22.4662C147.819 22.4661 147.819 22.4659 147.818 22.4659C147.818 22.4657 147.818 22.4656 148 22C148.182 21.5344 148.182 21.5343 148.182 21.5342C148.182 21.5342 148.182 21.5342 148.182 21.5342C148.182 21.5342 148.182 21.5343 148.182 21.5344C148.183 21.5347 148.184 21.5352 148.186 21.536C148.191 21.5376 148.197 21.5402 148.207 21.5437C148.226 21.5507 148.255 21.5613 148.294 21.575C148.372 21.6022 148.489 21.6412 148.638 21.6863C148.938 21.7766 149.369 21.8909 149.886 21.9846C150.926 22.173 152.288 22.273 153.634 21.9512C154.967 21.6324 156.289 20.8997 157.287 19.4023C158.293 17.894 159 15.5642 159 12H160ZM172.104 21.3049C169.661 18.129 166.475 15.9193 163.885 14.501C162.592 13.7931 161.454 13.2856 160.64 12.9555C160.234 12.7906 159.908 12.6701 159.686 12.5914C159.575 12.552 159.49 12.523 159.433 12.5041C159.405 12.4947 159.384 12.4877 159.37 12.4833C159.363 12.481 159.358 12.4794 159.355 12.4784C159.353 12.4779 159.352 12.4776 159.351 12.4774C159.351 12.4773 159.351 12.4772 159.351 12.4772C159.351 12.4772 159.351 12.4772 159.351 12.4772C159.351 12.4772 159.351 12.4772 159.5 12C159.649 11.5228 159.649 11.5228 159.649 11.5229C159.65 11.5229 159.65 11.523 159.65 11.523C159.65 11.5232 159.651 11.5233 159.652 11.5235C159.653 11.524 159.655 11.5245 159.657 11.5253C159.662 11.5267 159.668 11.5288 159.677 11.5315C159.693 11.5369 159.717 11.5448 159.749 11.5552C159.812 11.5761 159.903 11.6072 160.021 11.6489C160.256 11.7322 160.595 11.8579 161.016 12.0289C161.859 12.3707 163.033 12.8944 164.365 13.624C167.025 15.0807 170.339 17.371 172.896 20.6951L172.104 21.3049ZM160.009 21.2111C161.235 19.6744 162.462 18.1041 164.427 17.6869C166.397 17.2688 168.946 18.0296 172.777 20.584L172.223 21.416C168.428 18.8864 166.182 18.3367 164.635 18.6651C163.083 18.9945 162.073 20.2276 160.791 21.8348L160.009 21.2111ZM156.712 24.5915C158.077 23.6277 159.059 22.4018 160.009 21.2111L160.791 21.8348C159.85 23.0137 158.787 24.3509 157.288 25.4085L156.712 24.5915ZM149.647 26.7878C150.588 26.8217 151.51 26.853 152.615 26.5932C153.718 26.334 155.033 25.7768 156.712 24.5915L157.288 25.4085C155.527 26.6521 154.096 27.2725 152.844 27.5667C151.595 27.8604 150.552 27.821 149.611 27.7872L149.647 26.7878ZM138.101 34.6991C141.088 30.7349 143.229 28.7139 145.013 27.7087C146.834 26.6832 148.249 26.7375 149.647 26.7878L149.611 27.7872C148.241 27.7379 147.068 27.6991 145.504 28.58C143.904 29.4813 141.864 31.3664 138.899 35.3009L138.101 34.6991ZM138.101 35.3009C135.136 31.3664 133.096 29.4813 131.496 28.58C129.932 27.6991 128.759 27.7379 127.389 27.7872L127.353 26.7878C128.751 26.7375 130.166 26.6832 131.987 27.7087C133.771 28.7139 135.912 30.7349 138.899 34.6991L138.101 35.3009ZM127.389 27.7872C126.448 27.821 125.405 27.8604 124.156 27.5667C122.904 27.2725 121.473 26.6521 119.712 25.4085L120.288 24.5915C121.967 25.7768 123.282 26.334 124.385 26.5932C125.49 26.853 126.412 26.8217 127.353 26.7878L127.389 27.7872ZM119.712 25.4085C118.213 24.3509 117.15 23.0137 116.209 21.8348L116.991 21.2111C117.941 22.4018 118.923 23.6277 120.288 24.5915L119.712 25.4085ZM116.209 21.8348C114.927 20.2276 113.917 18.9945 112.365 18.6651C110.818 18.3367 108.572 18.8864 104.777 21.416L104.223 20.584C108.054 18.0296 110.603 17.2688 112.573 17.6869C114.538 18.1041 115.765 19.6744 116.991 21.2111L116.209 21.8348ZM104.104 20.6951C106.661 17.371 109.975 15.0807 112.635 13.624C113.967 12.8944 115.141 12.3707 115.984 12.0289C116.405 11.8579 116.744 11.7322 116.979 11.6489C117.097 11.6072 117.188 11.5761 117.251 11.5552C117.283 11.5448 117.307 11.5369 117.323 11.5315C117.332 11.5288 117.338 11.5267 117.343 11.5253C117.345 11.5245 117.347 11.524 117.348 11.5235C117.349 11.5233 117.35 11.5232 117.35 11.523C117.35 11.523 117.35 11.5229 117.351 11.5229C117.351 11.5228 117.351 11.5228 117.5 12C117.649 12.4772 117.649 12.4772 117.649 12.4772C117.649 12.4772 117.649 12.4772 117.649 12.4772C117.649 12.4772 117.649 12.4773 117.649 12.4774C117.648 12.4776 117.647 12.4779 117.645 12.4784C117.642 12.4794 117.637 12.481 117.63 12.4833C117.616 12.4877 117.595 12.4947 117.567 12.5041C117.51 12.523 117.425 12.552 117.314 12.5914C117.092 12.6701 116.766 12.7906 116.36 12.9555C115.546 13.2856 114.408 13.7931 113.115 14.501C110.525 15.9193 107.339 18.129 104.896 21.3049L104.104 20.6951ZM118 12C118 15.5642 118.707 17.894 119.713 19.4023C120.711 20.8997 122.033 21.6324 123.366 21.9512C124.712 22.273 126.074 22.173 127.114 21.9846C127.631 21.8909 128.062 21.7766 128.362 21.6863C128.511 21.6412 128.628 21.6022 128.706 21.575C128.745 21.5613 128.774 21.5507 128.793 21.5437C128.803 21.5402 128.809 21.5376 128.814 21.536C128.816 21.5352 128.817 21.5347 128.818 21.5344C128.818 21.5343 128.818 21.5342 128.818 21.5342C128.818 21.5342 128.818 21.5342 128.818 21.5342C128.818 21.5343 128.818 21.5344 129 22C129.182 22.4656 129.182 22.4657 129.182 22.4659C129.181 22.4659 129.181 22.4661 129.181 22.4662C129.18 22.4665 129.179 22.4668 129.178 22.4672C129.176 22.468 129.173 22.4691 129.17 22.4704C129.163 22.473 129.153 22.4767 129.141 22.4812C129.116 22.4904 129.081 22.5032 129.036 22.519C128.945 22.5506 128.815 22.5942 128.65 22.6438C128.321 22.7429 127.853 22.8669 127.292 22.9686C126.176 23.1708 124.663 23.2895 123.134 22.9238C121.592 22.5551 120.039 21.6941 118.881 19.957C117.73 18.231 117 15.6858 117 12H118ZM129 22C128.597 22.2966 128.597 22.2963 128.597 22.296C128.597 22.2959 128.597 22.2956 128.596 22.2953C128.596 22.2947 128.596 22.2939 128.595 22.293C128.594 22.2913 128.592 22.2889 128.59 22.286C128.586 22.2802 128.58 22.272 128.572 22.2616C128.558 22.2409 128.537 22.2111 128.511 22.1727C128.459 22.0959 128.385 21.9844 128.297 21.8415C128.121 21.5558 127.885 21.143 127.642 20.6276C127.156 19.5996 126.633 18.1488 126.502 16.4766C126.37 14.7987 126.634 12.8987 127.722 10.9941C128.809 9.09173 130.699 7.21947 133.762 5.56035L134.238 6.43965C131.301 8.03053 129.566 9.78327 128.59 11.4903C127.616 13.195 127.38 14.8888 127.498 16.3984C127.617 17.9137 128.094 19.2441 128.546 20.2005C128.771 20.6773 128.988 21.0575 129.148 21.3167C129.228 21.4462 129.293 21.5453 129.338 21.6108C129.36 21.6435 129.377 21.6679 129.388 21.6835C129.394 21.6912 129.398 21.6968 129.4 21.7002C129.401 21.7018 129.402 21.7029 129.403 21.7035C129.403 21.7038 129.403 21.7039 129.403 21.7039C129.403 21.7039 129.403 21.7037 129.403 21.7037C129.403 21.7036 129.403 21.7034 129 22ZM134.264 6.42478C132.017 7.81982 130.941 9.71772 130.627 11.7594C130.31 13.8205 130.765 16.0578 131.646 18.0891C132.527 20.1199 133.815 21.9006 135.105 23.0443C135.751 23.6168 136.378 24.0124 136.936 24.2107C137.492 24.4084 137.938 24.397 138.279 24.2292L138.721 25.1267C138.062 25.4504 137.32 25.4084 136.601 25.153C135.884 24.8981 135.147 24.4182 134.442 23.7926C133.029 22.5401 131.66 20.6343 130.729 18.4871C129.798 16.3405 129.284 13.9083 129.639 11.6072C129.996 9.28652 131.233 7.12933 133.736 5.57522L134.264 6.42478ZM143.264 5.57522C145.767 7.12933 147.004 9.28652 147.361 11.6072C147.716 13.9083 147.202 16.3405 146.271 18.4871C145.34 20.6343 143.971 22.5401 142.558 23.7926C141.852 24.4182 141.116 24.8981 140.399 25.153C139.68 25.4084 138.938 25.4504 138.279 25.1267L138.721 24.2292C139.062 24.397 139.508 24.4084 140.064 24.2107C140.622 24.0124 141.249 23.6168 141.895 23.0443C143.185 21.9006 144.473 20.1199 145.354 18.0891C146.235 16.0578 146.69 13.8205 146.373 11.7594C146.059 9.71772 144.983 7.81982 142.736 6.42478L143.264 5.57522Z" fill="#292929"/>
<path fill-rule="evenodd" clip-rule="evenodd" d="M138.5 1C139.3 8.43203 146.067 21.016 155.67 11.322C155.593 11.9855 155.491 12.6394 155.39 13.2833C154.66 17.9708 154.011 22.1363 163.5 25.7196C163.208 25.7196 162.8 25.5393 162.303 25.3198C160.3 24.4343 156.852 22.9104 153.707 30C153.74 29.5753 153.859 29.021 153.997 28.3824C154.541 25.8625 155.367 22.0308 152.236 19.678C148.311 16.1032 138.5 15.7907 138.5 25C138.5 15.7907 128.689 16.1032 124.764 19.678C121.633 22.0308 122.459 25.8625 123.003 28.3824C123.141 29.021 123.26 29.5753 123.293 30C120.148 22.9104 116.7 24.4343 114.697 25.3198C114.2 25.5393 113.792 25.7196 113.5 25.7196C122.989 22.1363 122.34 17.9708 121.61 13.2833C121.509 12.6394 121.407 11.9855 121.33 11.322C130.933 21.016 137.7 8.43203 138.5 1Z" fill="#4D4D4D"/>
<path d="M155.67 11.322L155.315 10.9702L156.334 9.9409L156.167 11.3799L155.67 11.322ZM138.5 1L138.003 0.946474H138.997L138.5 1ZM155.39 13.2833L155.884 13.3603L155.884 13.3603L155.39 13.2833ZM163.5 25.7196L163.677 25.2518L163.5 26.2196V25.7196ZM162.303 25.3198L162.505 24.8625L162.505 24.8625L162.303 25.3198ZM153.707 30L154.165 30.2027L153.209 29.962L153.707 30ZM153.997 28.3824L153.508 28.277L153.508 28.277L153.997 28.3824ZM152.236 19.678L151.935 20.0777L151.917 20.0635L151.899 20.0476L152.236 19.678ZM124.764 19.678L125.101 20.0476L125.083 20.0635L125.065 20.0777L124.764 19.678ZM123.003 28.3824L123.492 28.277L123.492 28.277L123.003 28.3824ZM123.293 30L123.791 29.962L122.835 30.2027L123.293 30ZM114.697 25.3198L114.495 24.8625L114.495 24.8625L114.697 25.3198ZM113.5 25.7196V26.2196L113.323 25.2518L113.5 25.7196ZM121.61 13.2833L121.116 13.3603L121.116 13.3603L121.61 13.2833ZM121.33 11.322L120.833 11.3799L120.666 9.9409L121.685 10.9702L121.33 11.322ZM156.025 11.6739C153.569 14.1531 151.232 15.2706 149.065 15.3437C146.895 15.4169 145 14.4388 143.438 12.9445C140.338 9.97731 138.412 4.84986 138.003 1.05353L138.997 0.946474C139.389 4.58217 141.246 9.46271 144.13 12.222C145.56 13.591 147.207 14.4058 149.032 14.3443C150.86 14.2826 152.969 13.3379 155.315 10.9702L156.025 11.6739ZM154.896 13.2064C154.997 12.5609 155.097 11.9165 155.173 11.2642L156.167 11.3799C156.088 12.0546 155.985 12.7178 155.884 13.3603L154.896 13.2064ZM163.323 26.1873C158.531 24.3775 156.17 22.3751 155.157 20.1205C154.153 17.8869 154.536 15.5194 154.896 13.2064L155.884 13.3603C155.514 15.7347 155.208 17.7938 156.069 19.7106C156.921 21.6064 158.98 23.4784 163.677 25.2518L163.323 26.1873ZM162.505 24.8625C162.758 24.9743 162.967 25.0664 163.148 25.1318C163.335 25.1995 163.444 25.2196 163.5 25.2196V26.2196C163.264 26.2196 163.022 26.1495 162.808 26.0722C162.588 25.9926 162.345 25.8848 162.101 25.7771L162.505 24.8625ZM153.25 29.7973C154.849 26.1938 156.586 24.6365 158.307 24.1856C160.004 23.7408 161.522 24.4279 162.505 24.8625L162.101 25.7771C161.081 25.3262 159.874 24.8086 158.56 25.1529C157.27 25.4911 155.711 26.7165 154.165 30.2027L153.25 29.7973ZM154.486 28.4878C154.345 29.14 154.235 29.6554 154.206 30.038L153.209 29.962C153.244 29.4953 153.374 28.902 153.508 28.277L154.486 28.4878ZM152.536 19.2782C154.244 20.5614 154.868 22.2566 154.993 23.9304C155.116 25.5807 154.755 27.2383 154.486 28.4878L153.508 28.277C153.782 27.0067 154.106 25.4884 153.996 24.0048C153.887 22.5445 153.359 21.1474 151.935 20.0777L152.536 19.2782ZM138 25C138 22.6068 138.639 20.7815 139.706 19.4657C140.772 18.1513 142.23 17.3883 143.792 17.0559C146.888 16.3973 150.487 17.4091 152.572 19.3083L151.899 20.0476C150.06 18.3721 146.791 17.4403 144 18.034C142.619 18.3279 141.379 18.9901 140.483 20.0955C139.587 21.1995 139 22.7886 139 25H138ZM138 25C138 22.7886 137.413 21.1995 136.517 20.0955C135.621 18.9901 134.381 18.3279 133 18.034C130.209 17.4403 126.94 18.3721 125.101 20.0476L124.428 19.3083C126.513 17.4091 130.112 16.3973 133.208 17.0559C134.77 17.3883 136.228 18.1513 137.294 19.4657C138.361 20.7815 139 22.6068 139 25H138ZM125.065 20.0777C123.641 21.1474 123.113 22.5445 123.004 24.0047C122.894 25.4884 123.218 27.0066 123.492 28.277L122.514 28.4878C122.245 27.2383 121.884 25.5807 122.007 23.9304C122.132 22.2566 122.756 20.5614 124.464 19.2782L125.065 20.0777ZM123.492 28.277C123.626 28.902 123.756 29.4953 123.791 29.962L122.794 30.038C122.765 29.6554 122.655 29.14 122.514 28.4878L123.492 28.277ZM122.835 30.2027C121.289 26.7165 119.73 25.4911 118.44 25.1529C117.126 24.8086 115.919 25.3262 114.899 25.7771L114.495 24.8625C115.478 24.4279 116.996 23.7408 118.693 24.1856C120.414 24.6365 122.151 26.1938 123.75 29.7973L122.835 30.2027ZM114.899 25.7771C114.655 25.8848 114.412 25.9926 114.192 26.0722C113.978 26.1495 113.736 26.2196 113.5 26.2196V25.2196C113.556 25.2196 113.665 25.1995 113.852 25.1318C114.033 25.0664 114.242 24.9743 114.495 24.8625L114.899 25.7771ZM113.323 25.2518C118.02 23.4784 120.079 21.6064 120.931 19.7106C121.792 17.7938 121.486 15.7347 121.116 13.3603L122.104 13.2064C122.464 15.5194 122.847 17.8869 121.843 20.1205C120.83 22.3751 118.469 24.3775 113.677 26.1873L113.323 25.2518ZM121.116 13.3603C121.015 12.7178 120.912 12.0546 120.833 11.3799L121.827 11.2642C121.903 11.9165 122.003 12.5609 122.104 13.2064L121.116 13.3603ZM121.685 10.9702C124.031 13.3379 126.14 14.2826 127.968 14.3443C129.793 14.4058 131.44 13.591 132.87 12.222C135.754 9.46271 137.611 4.58217 138.003 0.946474L138.997 1.05353C138.588 4.84986 136.662 9.97731 133.562 12.9445C132 14.4388 130.105 15.4169 127.935 15.3437C125.768 15.2706 123.431 14.1531 120.975 11.6739L121.685 10.9702Z" fill="#292929"/>
<path fill-rule="evenodd" clip-rule="evenodd" d="M138.5 22C139.241 22.1667 141.078 23.3 142.5 26.5C141.167 26.5 138.5 28.1 138.5 34.5C138.5 28.1 135.833 26.5 134.5 26.5C135.922 23.3 137.759 22.1667 138.5 22Z" fill="#4D4D4D"/>
<path d="M142.5 26.5L142.957 26.2969L143.269 27H142.5V26.5ZM138.5 22L138.39 21.5122L138.5 21.4875L138.61 21.5122L138.5 22ZM134.5 26.5V27H133.731L134.043 26.2969L134.5 26.5ZM142.043 26.7031C140.659 23.5881 138.923 22.6076 138.39 22.4878L138.61 21.5122C139.559 21.7257 141.497 23.0119 142.957 26.2969L142.043 26.7031ZM138 34.5C138 28.0061 140.738 26 142.5 26V27C141.595 27 139 28.1939 139 34.5H138ZM138 34.5C138 28.1939 135.405 27 134.5 27V26C136.262 26 139 28.0061 139 34.5H138ZM134.043 26.2969C135.503 23.0119 137.441 21.7257 138.39 21.5122L138.61 22.4878C138.077 22.6076 136.341 23.5881 134.957 26.7031L134.043 26.2969Z" fill="#292929"/>
<path d="M150.159 86.0141C144.529 87.3044 139.694 83.9874 137.98 82.1677C147.844 87.6095 150.838 83.0865 151.102 80.1447C152.285 86.0593 156.948 86.6303 159 86.0141C147.805 92.1104 154.815 93.2868 159.85 93.2755C154.106 95.9343 147.481 92.4877 144.886 90.4321C150.93 91.3518 150.92 87.87 150.159 86.0141Z" fill="#D9D9D9" stroke="#808080"/>
<path d="M125.841 86.0141C131.471 87.3044 136.306 83.9874 138.02 82.1677C128.156 87.6095 125.162 83.0865 124.898 80.1447C123.715 86.0593 119.552 86.6163 117.5 86C128.695 92.0964 121.185 93.2868 116.15 93.2755C121.894 95.9343 128.519 92.4877 131.114 90.4321C125.07 91.3518 125.08 87.87 125.841 86.0141Z" fill="#D9D9D9" stroke="#808080"/>
<path fill-rule="evenodd" clip-rule="evenodd" d="M138 89.5C138.741 89.3333 140.578 88.2 142 85C140.667 85 138 83.4 138 77C138 83.4 135.333 85 134 85C135.422 88.2 137.259 89.3333 138 89.5Z" fill="#B3B3B3"/>
<path d="M142 85L142.457 85.2031L142.769 84.5L142 84.5L142 85ZM138 89.5L137.89 89.9878L138 90.0125L138.11 89.9878L138 89.5ZM134 85L134 84.5L133.231 84.5L133.543 85.2031L134 85ZM141.543 84.7969C140.159 87.9119 138.423 88.8924 137.89 89.0122L138.11 89.9878C139.059 89.7743 140.997 88.4881 142.457 85.2031L141.543 84.7969ZM137.5 77C137.5 83.4939 140.238 85.5 142 85.5L142 84.5C141.095 84.5 138.5 83.3061 138.5 77L137.5 77ZM137.5 77C137.5 83.3061 134.905 84.5 134 84.5L134 85.5C135.762 85.5 138.5 83.4939 138.5 77L137.5 77ZM133.543 85.2031C135.003 88.4881 136.941 89.7743 137.89 89.9878L138.11 89.0122C137.577 88.8924 135.841 87.9119 134.457 84.7969L133.543 85.2031Z" fill="#808080"/>
<path d="M82 81.5C90.4 86.3 110 84.5 117.5 86C105 84 91.1667 89.5 91 91.5C91 90.5 91 88 86 87C80.169 85.8338 76.5 89.3333 75.5 91.5C70.3 90.7 61.5 87.6667 56 86C71.6 86 78.6667 82.8333 82 81.5Z" fill="#D9D9D9" stroke="#808080"/>
<path d="M56 86C54.3784 86.1758 52.5804 86.2981 50.6698 86.3421C35.6798 87.3859 34.0623 88.389 30 92C29 84.5 20.5 80.5 1 80.5C14.5 78.5 15.1667 70.5 15.5 63.5C15.5 82.5679 36.2811 86.6735 50.6698 86.3421C52.2847 86.2296 54.0549 86.1167 56 86Z" fill="#D9D9D9"/>
<path d="M56 86C42.1667 87.5 15.5 85.1 15.5 63.5C15.1667 70.5 14.5 78.5 1 80.5C20.5 80.5 29 84.5 30 92C34.5 88 36 87.2 56 86Z" stroke="#808080"/>
<path d="M194.5 81.5C186.1 86.3 166.5 84.5 159 86C171.5 84 185.333 89.5 185.5 91.5C185.5 90.5 185.5 88 190.5 87C196.331 85.8338 200 89.3333 201 91.5C206.2 90.7 215 87.6667 220.5 86C204.9 86 197.833 82.8333 194.5 81.5Z" fill="#D9D9D9" stroke="#808080"/>
<path fill-rule="evenodd" clip-rule="evenodd" d="M302.5 86C301.158 86.1455 299.69 86.2543 298.134 86.3125C299.507 86.1971 300.961 86.0923 302.5 86ZM261.604 65.7641C263.258 83.3051 284.23 86.832 298.134 86.3125C281.66 87.6971 276.808 90.6154 276.5 92C274.203 88.9683 272.012 86.7489 269.902 85.2014C267.154 83.4741 264.38 82.3399 261.5 82.2651C258.62 82.3399 255.846 83.4741 253.098 85.2014C250.988 86.7489 248.797 88.9683 246.5 92C246.192 90.6154 241.34 87.6971 224.866 86.3125C223.31 86.2543 221.842 86.1455 220.5 86C222.039 86.0923 223.493 86.1971 224.866 86.3125C238.77 86.832 259.742 83.3051 261.396 65.7641C261.418 65.3373 261.437 64.9032 261.457 64.4582C261.47 64.1445 261.485 63.8255 261.5 63.5C261.515 63.8255 261.53 64.1445 261.543 64.4582C261.563 64.9032 261.582 65.3374 261.604 65.7641Z" fill="#D9D9D9"/>
<path d="M302.5 86L302.47 85.5009L302.554 86.4971L302.5 86ZM261.604 65.7641L261.106 65.8111L261.105 65.8006L261.105 65.79L261.604 65.7641ZM276.5 92L276.988 92.1085L276.754 93.163L276.101 92.3019L276.5 92ZM269.902 85.2014L270.168 84.7781L270.183 84.7876L270.198 84.7982L269.902 85.2014ZM261.5 82.2651L261.487 81.7652L261.5 81.7649L261.513 81.7652L261.5 82.2651ZM253.098 85.2014L252.802 84.7982L252.817 84.7876L252.832 84.7781L253.098 85.2014ZM246.5 92L246.899 92.3019L246.246 93.163L246.012 92.1085L246.5 92ZM220.5 86L220.446 86.4971L220.53 85.5009L220.5 86ZM261.396 65.7641L261.895 65.79L261.895 65.8005L261.894 65.8111L261.396 65.7641ZM261.457 64.4582L261.956 64.4803L261.956 64.4803L261.457 64.4582ZM261.5 63.5L261.001 63.4762H261.999L261.5 63.5ZM261.543 64.4582L261.044 64.4803L261.044 64.4803L261.543 64.4582ZM302.554 86.4971C301.2 86.6439 299.72 86.7536 298.153 86.8121L298.116 85.8128C299.66 85.7551 301.116 85.6471 302.446 85.5029L302.554 86.4971ZM298.092 85.8142C299.47 85.6985 300.928 85.5934 302.47 85.5009L302.53 86.4991C300.995 86.5912 299.545 86.6957 298.176 86.8107L298.092 85.8142ZM262.102 65.7172C262.906 74.2465 268.39 79.3862 275.468 82.3498C282.563 85.3203 291.202 86.0712 298.116 85.8128L298.153 86.8121C291.163 87.0733 282.363 86.3204 275.082 83.2722C267.785 80.217 261.956 74.8228 261.106 65.8111L262.102 65.7172ZM298.176 86.8107C289.959 87.5013 284.669 88.5724 281.409 89.6318C279.778 90.1618 278.672 90.6834 277.965 91.1414C277.231 91.6177 277.02 91.9659 276.988 92.1085L276.012 91.8915C276.134 91.3418 276.645 90.8059 277.421 90.3024C278.226 89.7805 279.421 89.2264 281.1 88.6807C284.461 87.5886 289.835 86.5083 298.092 85.8142L298.176 86.8107ZM276.101 92.3019C273.825 89.2969 271.667 87.1159 269.606 85.6046L270.198 84.7982C272.357 86.382 274.582 88.6397 276.899 91.6981L276.101 92.3019ZM261.513 81.7652C264.517 81.8433 267.38 83.0256 270.168 84.7781L269.636 85.6248C266.928 83.9226 264.242 82.8365 261.487 82.7649L261.513 81.7652ZM261.513 82.7649C258.758 82.8365 256.072 83.9226 253.364 85.6248L252.832 84.7781C255.62 83.0256 258.483 81.8433 261.487 81.7652L261.513 82.7649ZM246.101 91.6981C248.418 88.6397 250.643 86.382 252.802 84.7982L253.394 85.6046C251.333 87.1159 249.175 89.2969 246.899 92.3019L246.101 91.6981ZM224.908 85.8142C233.165 86.5083 238.539 87.5886 241.9 88.6807C243.579 89.2264 244.774 89.7805 245.579 90.3024C246.355 90.8059 246.866 91.3418 246.988 91.8915L246.012 92.1085C245.98 91.9659 245.769 91.6177 245.035 91.1414C244.328 90.6834 243.222 90.1618 241.591 89.6318C238.331 88.5724 233.041 87.5013 224.824 86.8107L224.908 85.8142ZM220.554 85.5029C221.884 85.6471 223.34 85.7551 224.884 85.8128L224.847 86.8121C223.28 86.7536 221.8 86.6439 220.446 86.4971L220.554 85.5029ZM224.824 86.8107C223.455 86.6957 222.005 86.5912 220.47 86.4991L220.53 85.5009C222.072 85.5934 223.53 85.6985 224.908 85.8142L224.824 86.8107ZM261.894 65.8111C261.044 74.8228 255.215 80.217 247.918 83.2722C240.637 86.3204 231.837 87.0733 224.847 86.8121L224.884 85.8128C231.798 86.0712 240.437 85.3203 247.532 82.3498C254.61 79.3861 260.094 74.2464 260.898 65.7172L261.894 65.8111ZM260.896 65.7383C260.918 65.3137 260.937 64.8815 260.957 64.4362L261.956 64.4803C261.937 64.9248 261.917 65.361 261.895 65.79L260.896 65.7383ZM260.957 64.4362C260.971 64.1227 260.985 63.8028 261.001 63.4762L261.999 63.5238C261.984 63.8483 261.97 64.1664 261.956 64.4803L260.957 64.4362ZM261.044 64.4803C261.03 64.1664 261.016 63.8483 261.001 63.5238L261.999 63.4762C262.015 63.8028 262.029 64.1227 262.043 64.4362L261.044 64.4803ZM261.105 65.79C261.083 65.361 261.063 64.9248 261.044 64.4803L262.043 64.4362C262.063 64.8815 262.082 65.3138 262.104 65.7383L261.105 65.79Z" fill="#808080"/>
</svg>
