<svg width="134" height="40" viewBox="0 0 134 40" fill="none" xmlns="http://www.w3.org/2000/svg">
<mask id="path-1-outside-1_310_968" maskUnits="userSpaceOnUse" x="0" y="0" width="134" height="40" fill="black">
<rect fill="white" width="134" height="40"/>
<path fill-rule="evenodd" clip-rule="evenodd" d="M119.738 2.00006H68.9698V2H14.2621C13.3188 4.49999 9.5459 9.49998 2 9.49998V11V28.9999V30.5C9.5459 30.5 13.3188 35.5 14.2621 38H65.0302V38H119.738C120.681 35.5 124.454 30.5 132 30.5V29V11.0001V9.50004C124.454 9.50004 120.681 4.50005 119.738 2.00006ZM6.5083 12.9091V11.6909C13.5308 11.6909 17.042 7.63028 17.9198 5.59998H65.1667H68.8328H116.08C116.957 7.63028 120.469 11.6909 127.491 11.6909V12.9091V27.5273V28.7455C120.469 28.7455 116.957 32.8061 116.08 34.8364H68.8328H65.1667H17.9198C17.042 32.8061 13.5308 28.7455 6.5083 28.7455V27.5273V12.9091Z"/>
</mask>
<path fill-rule="evenodd" clip-rule="evenodd" d="M119.738 2.00006H68.9698V2H14.2621C13.3188 4.49999 9.5459 9.49998 2 9.49998V11V28.9999V30.5C9.5459 30.5 13.3188 35.5 14.2621 38H65.0302V38H119.738C120.681 35.5 124.454 30.5 132 30.5V29V11.0001V9.50004C124.454 9.50004 120.681 4.50005 119.738 2.00006ZM6.5083 12.9091V11.6909C13.5308 11.6909 17.042 7.63028 17.9198 5.59998H65.1667H68.8328H116.08C116.957 7.63028 120.469 11.6909 127.491 11.6909V12.9091V27.5273V28.7455C120.469 28.7455 116.957 32.8061 116.08 34.8364H68.8328H65.1667H17.9198C17.042 32.8061 13.5308 28.7455 6.5083 28.7455V27.5273V12.9091Z" fill="#D9D9D9"/>
<path d="M68.9698 2.00006H66.9698V4.00006H68.9698V2.00006ZM119.738 2.00006L121.609 1.29405L121.121 5.91278e-05H119.738V2.00006ZM68.9698 2H70.9698V0H68.9698V2ZM14.2621 2V0H12.8791L12.3908 1.29399L14.2621 2ZM2 9.49998V7.49998H0V9.49998H2ZM2 30.5H0V32.5H2V30.5ZM14.2621 38L12.3908 38.706L12.8791 40H14.2621V38ZM65.0302 38H67.0302V36H65.0302V38ZM65.0302 38H63.0302V40H65.0302V38ZM119.738 38V40H121.121L121.609 38.706L119.738 38ZM132 30.5V32.5H134V30.5H132ZM132 9.50004H134V7.50004H132V9.50004ZM6.5083 11.6909V9.69089H4.5083V11.6909H6.5083ZM17.9198 5.59998V3.59998H16.6056L16.0841 4.80627L17.9198 5.59998ZM116.08 5.59998L117.915 4.80628L117.394 3.59998H116.08V5.59998ZM127.491 11.6909H129.491V9.69089H127.491V11.6909ZM127.491 28.7455V30.7455H129.491V28.7455H127.491ZM116.08 34.8364V36.8364H117.394L117.915 35.6301L116.08 34.8364ZM17.9198 34.8364L16.0841 35.6301L16.6056 36.8364H17.9198V34.8364ZM6.5083 28.7455H4.5083V30.7455H6.5083V28.7455ZM68.9698 4.00006H119.738V5.91278e-05H68.9698V4.00006ZM66.9698 2V2.00006H70.9698V2H66.9698ZM14.2621 4H68.9698V0H14.2621V4ZM2 11.5C10.5556 11.5 14.9644 5.80427 16.1333 2.70601L12.3908 1.29399C11.6733 3.19572 8.53619 7.49998 2 7.49998V11.5ZM4 11V9.49998H0V11H4ZM4 28.9999V11H0V28.9999H4ZM4 30.5V28.9999H0V30.5H4ZM16.1333 37.2939C14.9644 34.1957 10.5556 28.5 2 28.5V32.5C8.53619 32.5 11.6733 36.8042 12.3908 38.706L16.1333 37.2939ZM65.0302 36H14.2621V40H65.0302V36ZM67.0302 38V38H63.0302V38H67.0302ZM119.738 36H65.0302V40H119.738V36ZM132 28.5C123.444 28.5 119.036 34.1957 117.867 37.294L121.609 38.706C122.327 36.8043 125.464 32.5 132 32.5V28.5ZM130 29V30.5H134V29H130ZM130 11.0001V29H134V11.0001H130ZM130 9.50004V11.0001H134V9.50004H130ZM117.867 2.70607C119.036 5.80433 123.444 11.5 132 11.5V7.50004C125.464 7.50004 122.327 3.19578 121.609 1.29405L117.867 2.70607ZM4.5083 11.6909V12.9091H8.5083V11.6909H4.5083ZM16.0841 4.80627C15.5023 6.15179 12.6826 9.69089 6.5083 9.69089V13.6909C14.379 13.6909 18.5817 9.10877 19.7556 6.39368L16.0841 4.80627ZM65.1667 3.59998H17.9198V7.59998H65.1667V3.59998ZM68.8328 3.59998H65.1667V7.59998H68.8328V3.59998ZM116.08 3.59998H68.8328V7.59998H116.08V3.59998ZM127.491 9.69089C121.317 9.69089 118.497 6.15179 117.915 4.80628L114.244 6.39367C115.418 9.10877 119.621 13.6909 127.491 13.6909V9.69089ZM129.491 12.9091V11.6909H125.491V12.9091H129.491ZM129.491 27.5273V12.9091H125.491V27.5273H129.491ZM129.491 28.7455V27.5273H125.491V28.7455H129.491ZM117.915 35.6301C118.497 34.2846 121.317 30.7455 127.491 30.7455V26.7455C119.621 26.7455 115.418 31.3276 114.244 34.0427L117.915 35.6301ZM68.8328 36.8364H116.08V32.8364H68.8328V36.8364ZM65.1667 36.8364H68.8328V32.8364H65.1667V36.8364ZM17.9198 36.8364H65.1667V32.8364H17.9198V36.8364ZM6.5083 30.7455C12.6826 30.7455 15.5023 34.2846 16.0841 35.6301L19.7556 34.0427C18.5817 31.3276 14.379 26.7455 6.5083 26.7455V30.7455ZM4.5083 27.5273V28.7455H8.5083V27.5273H4.5083ZM4.5083 12.9091V27.5273H8.5083V12.9091H4.5083Z" fill="#808080" mask="url(#path-1-outside-1_310_968)"/>
</svg>
