<svg width="282" height="223" viewBox="0 0 282 223" fill="none" xmlns="http://www.w3.org/2000/svg">
<circle cx="140.644" cy="111.5" r="111.5" fill="url(#paint0_linear_405_15)"/>
<path d="M41.9995 181.112C26.6407 165.668 20.0436 145.759 20.0934 127.053L10.2936 127.027C14.4702 135.791 5.2496 137.249 0.117211 136.882C10.1942 138.039 13.2983 137.741 15.1512 142.922C22.8042 160.59 28.7297 169.782 41.9995 181.112Z" fill="#D9D9D9" stroke="#808080"/>
<path d="M238.288 181.112C253.646 165.668 260.244 145.759 260.194 127.053L269.994 127.027C265.817 135.791 275.038 137.249 280.17 136.882C270.093 138.039 266.989 137.741 265.136 142.922C257.483 160.59 251.557 169.782 238.288 181.112Z" fill="#D9D9D9" stroke="#808080"/>
<path d="M60.1434 188.5C38.1436 166.822 28.6434 138.827 28.6434 112.5H14.6436C20.6436 124.819 7.47689 126.905 0.143555 126.408C14.5436 127.998 18.9769 127.568 21.6436 134.853C32.6436 159.69 41.1436 172.605 60.1434 188.5Z" fill="#D9D9D9" stroke="#808080"/>
<path d="M221.144 188.5C243.144 166.822 252.644 138.827 252.644 112.5H266.644C260.644 124.819 273.81 126.905 281.144 126.408C266.744 127.998 262.31 127.568 259.644 134.853C248.644 159.69 240.144 172.605 221.144 188.5Z" fill="#D9D9D9" stroke="#808080"/>
<defs>
<linearGradient id="paint0_linear_405_15" x1="140.644" y1="104" x2="140.644" y2="223" gradientUnits="userSpaceOnUse">
<stop offset="0.239583"/>
<stop offset="1" stop-opacity="0.17"/>
</linearGradient>
</defs>
</svg>
